<svg width="117" height="18" viewBox="0 0 117 18" fill="none" xmlns="http://www.w3.org/2000/svg">
<path d="M13.3764 17.3521H18.4155L11.4066 0.402511H7.03178L0 17.3521H5.03906L5.90944 15.0387H12.506L13.3764 17.3521ZM7.39826 11.1449L9.23064 6.28905L11.0401 11.1449H7.39826Z" fill="#06163A"/>
<path d="M19.9744 17.3521H24.6928L24.6012 8.35049L34.1754 17.3521H37.0614V0.402511H32.343L32.4576 9.40411L22.8834 0.402511H19.9744V17.3521Z" fill="#06163A"/>
<path d="M48.9143 17.5811C54.4802 17.5811 58.2137 14.0996 58.2137 8.8773C58.2137 3.655 54.4802 0.173462 48.9143 0.173462C43.3026 0.173462 39.5692 3.655 39.5692 8.8773C39.5692 14.0996 43.3026 17.5811 48.9143 17.5811ZM48.9143 13.6873C46.2345 13.6873 44.4479 11.7633 44.4479 8.8773C44.4479 5.99129 46.2345 4.06728 48.9143 4.06728C51.5713 4.06728 53.3579 5.99129 53.3579 8.8773C53.3579 11.7633 51.5713 13.6873 48.9143 13.6873Z" fill="#06163A"/>
<path d="M81.0231 17.3521L79.7634 0.402511H74.4723L70.5785 9.51863L66.6847 0.402511H61.3937L60.1339 17.3521H64.8523L65.402 8.30468L69.3417 17.3521H71.8154L75.7779 8.25887L76.3047 17.3521H81.0231Z" fill="#06163A"/>
<path d="M93.281 0.402511L90.0972 7.54882L86.8905 0.402511H81.8744L87.7151 11.7175V17.3521H92.4335V11.7175L98.2742 0.402511H93.281Z" fill="#06163A"/>
<path d="M105.088 17.5811C100.942 17.5811 98.1478 15.4281 98.1478 12.1756C98.1478 9.10635 100.851 7.4801 103.645 6.74715L104.424 6.541C105.935 6.15162 107.012 5.83096 107.012 5.02929C107.012 4.43376 106.256 4.06728 105.042 4.06728C103.599 4.06728 102.339 4.50247 101.011 5.39576L98.9723 2.12037C100.896 0.746083 103.072 0.173462 105.111 0.173462C109.188 0.173462 111.891 2.44104 111.891 5.80805C111.891 8.71696 109.715 9.99963 106.531 10.8242L105.729 11.0304C104.08 11.4655 103.026 11.7862 103.026 12.6337C103.026 13.3895 103.782 13.6873 105.34 13.6873C106.714 13.6873 108.295 13.2979 109.875 12.1527L111.616 15.3136C109.852 16.7566 107.585 17.5811 105.088 17.5811Z" fill="#06163A"/>
<ellipse cx="114.926" cy="2.08226" rx="2.07367" ry="2.08226" fill="#F91C3D"/>
</svg>
