<svg width="114" height="34" viewBox="0 0 114 34" fill="none" xmlns="http://www.w3.org/2000/svg">
<path d="M0.458803 12.8194C0.336456 12.8194 0.226343 12.7773 0.128465 12.6931C0.0428216 12.5968 0 12.4884 0 12.3681V0.631945C0 0.499537 0.0428216 0.391204 0.128465 0.306945C0.226343 0.222685 0.336456 0.180556 0.458803 0.180556H6.0562C7.59778 0.180556 8.74173 0.493519 9.48805 1.11945C10.2466 1.73333 10.6259 2.61204 10.6259 3.75556C10.6259 4.35741 10.4668 4.86898 10.1487 5.29028C9.84286 5.69954 9.49417 6.00046 9.10266 6.19306C9.60428 6.42176 10.0264 6.78889 10.369 7.29444C10.7115 7.8 10.8828 8.36574 10.8828 8.99167C10.8828 10.1954 10.4791 11.1343 9.67157 11.8083C8.86408 12.4824 7.71401 12.8194 6.22137 12.8194H0.458803ZM5.68916 5.2C6.17855 5.2 6.55171 5.07963 6.80864 4.83889C7.06557 4.58611 7.19404 4.25509 7.19404 3.84583C7.19404 3.44861 7.06557 3.12963 6.80864 2.88889C6.55171 2.64815 6.17855 2.52778 5.68916 2.52778H3.30338V5.2H5.68916ZM5.85433 10.4722C6.35596 10.4722 6.74747 10.3278 7.02887 10.0389C7.31027 9.75 7.45097 9.40093 7.45097 8.99167C7.45097 8.55833 7.31027 8.20324 7.02887 7.92639C6.74747 7.6375 6.35596 7.49306 5.85433 7.49306H3.30338V10.4722H5.85433Z" fill="url(#paint0_linear)"/>
<path d="M13.3806 12.8194C13.2582 12.8194 13.1481 12.7773 13.0502 12.6931C12.9646 12.5968 12.9218 12.4884 12.9218 12.3681V0.631945C12.9218 0.499537 12.9646 0.391204 13.0502 0.306945C13.1481 0.222685 13.2582 0.180556 13.3806 0.180556H15.803C15.9376 0.180556 16.0477 0.222685 16.1334 0.306945C16.219 0.391204 16.2619 0.499537 16.2619 0.631945V10.0931H21.8225C21.9571 10.0931 22.0672 10.1412 22.1529 10.2375C22.2385 10.3218 22.2814 10.4301 22.2814 10.5625V12.3681C22.2814 12.4884 22.2385 12.5968 22.1529 12.6931C22.0672 12.7773 21.9571 12.8194 21.8225 12.8194H13.3806Z" fill="url(#paint1_linear)"/>
<path d="M29.0346 13C27.3095 13 25.9576 12.5847 24.9788 11.7542C24.0123 10.9236 23.529 9.67176 23.529 7.99861V0.631945C23.529 0.499537 23.5718 0.391204 23.6575 0.306945C23.7554 0.222685 23.8655 0.180556 23.9878 0.180556H26.3552C26.4898 0.180556 26.5999 0.222685 26.6856 0.306945C26.7835 0.391204 26.8324 0.499537 26.8324 0.631945V7.98056C26.8324 8.76296 27.0159 9.35278 27.383 9.75C27.7622 10.1352 28.3067 10.3278 29.0163 10.3278C29.7137 10.3278 30.252 10.1292 30.6313 9.73195C31.0106 9.33472 31.2002 8.75093 31.2002 7.98056V0.631945C31.2002 0.499537 31.243 0.391204 31.3287 0.306945C31.4265 0.222685 31.5367 0.180556 31.659 0.180556H34.0448C34.1794 0.180556 34.2895 0.222685 34.3751 0.306945C34.4608 0.391204 34.5036 0.499537 34.5036 0.631945V7.99861C34.5036 9.67176 34.0142 10.9236 33.0354 11.7542C32.0689 12.5847 30.7353 13 29.0346 13Z" fill="url(#paint2_linear)"/>
<path d="M37.3961 12.8194C37.2737 12.8194 37.1636 12.7773 37.0657 12.6931C36.9801 12.5968 36.9372 12.4884 36.9372 12.3681V0.631945C36.9372 0.499537 36.9801 0.391204 37.0657 0.306945C37.1636 0.222685 37.2737 0.180556 37.3961 0.180556H45.9665C46.1011 0.180556 46.2112 0.222685 46.2968 0.306945C46.3825 0.391204 46.4253 0.499537 46.4253 0.631945V2.32917C46.4253 2.44954 46.3825 2.55787 46.2968 2.65417C46.2112 2.73843 46.1011 2.78055 45.9665 2.78055H40.1122V5.21806H45.5628C45.6973 5.21806 45.8074 5.2662 45.8931 5.3625C45.9787 5.44676 46.0216 5.55509 46.0216 5.6875V7.25833C46.0216 7.3787 45.9787 7.48704 45.8931 7.58333C45.8074 7.66759 45.6973 7.70972 45.5628 7.70972H40.1122V10.2194H46.1133C46.2479 10.2194 46.358 10.2616 46.4437 10.3458C46.5293 10.4301 46.5721 10.5384 46.5721 10.6708V12.3681C46.5721 12.4884 46.5293 12.5968 46.4437 12.6931C46.358 12.7773 46.2479 12.8194 46.1133 12.8194H37.3961Z" fill="url(#paint3_linear)"/>
<path d="M57.8139 13C56.0888 13 54.7308 12.5847 53.7398 11.7542C52.7488 10.9236 52.2227 9.70185 52.1615 8.08889C52.1493 7.73981 52.1431 7.22222 52.1431 6.53611C52.1431 5.83796 52.1493 5.31435 52.1615 4.96528C52.2227 3.37639 52.7549 2.15463 53.7581 1.3C54.7736 0.433334 56.1256 0 57.8139 0C59.5023 0 60.8543 0.433334 61.8698 1.3C62.8853 2.15463 63.4175 3.37639 63.4664 4.96528C63.4909 5.66343 63.5031 6.18704 63.5031 6.53611C63.5031 6.87315 63.4909 7.39074 63.4664 8.08889C63.4052 9.70185 62.8791 10.9236 61.8881 11.7542C60.8971 12.5847 59.539 13 57.8139 13ZM57.8139 10.4C58.4869 10.4 59.0191 10.2014 59.4106 9.80417C59.8143 9.40695 60.0284 8.79907 60.0529 7.98056C60.0774 7.28241 60.0896 6.78889 60.0896 6.5C60.0896 6.18704 60.0774 5.69352 60.0529 5.01945C60.0284 4.20093 59.8143 3.59306 59.4106 3.19583C59.0068 2.79861 58.4746 2.6 57.8139 2.6C57.1533 2.6 56.6211 2.79861 56.2173 3.19583C55.8258 3.59306 55.6117 4.20093 55.575 5.01945C55.5628 5.35648 55.5566 5.85 55.5566 6.5C55.5566 7.13796 55.5628 7.63148 55.575 7.98056C55.6117 8.79907 55.8258 9.40695 56.2173 9.80417C56.6088 10.2014 57.141 10.4 57.8139 10.4Z" fill="url(#paint4_linear)"/>
<path d="M70.8974 13C69.1479 13 67.7776 12.5847 66.7866 11.7542C65.8078 10.9116 65.2878 9.69583 65.2266 8.10694C65.2144 7.78194 65.2083 7.25231 65.2083 6.51806C65.2083 5.77176 65.2144 5.23009 65.2266 4.89306C65.2878 3.32824 65.82 2.12454 66.8233 1.28194C67.8265 0.427315 69.1846 0 70.8974 0C71.9741 0 72.9406 0.180556 73.7971 0.541667C74.6535 0.890741 75.3264 1.3963 75.8158 2.05833C76.3174 2.70833 76.5744 3.47268 76.5866 4.35139V4.3875C76.5866 4.4838 76.5438 4.56806 76.4581 4.64028C76.3847 4.70046 76.2991 4.73056 76.2012 4.73056H73.7237C73.5646 4.73056 73.4423 4.70046 73.3566 4.64028C73.271 4.56806 73.1976 4.44167 73.1364 4.26111C72.9651 3.64722 72.6959 3.21991 72.3289 2.97917C71.9619 2.72639 71.4786 2.6 70.8791 2.6C69.4354 2.6 68.6891 3.39444 68.6401 4.98333C68.6279 5.30833 68.6218 5.80787 68.6218 6.48194C68.6218 7.15602 68.6279 7.66759 68.6401 8.01667C68.6891 9.60556 69.4354 10.4 70.8791 10.4C71.4786 10.4 71.968 10.2736 72.3473 10.0208C72.7265 9.75602 72.9896 9.3287 73.1364 8.73889C73.1853 8.55833 73.2526 8.43796 73.3383 8.37778C73.4239 8.30556 73.5524 8.26944 73.7237 8.26944H76.2012C76.3113 8.26944 76.4031 8.30556 76.4765 8.37778C76.5621 8.45 76.5988 8.54028 76.5866 8.64861C76.5744 9.52732 76.3174 10.2977 75.8158 10.9597C75.3264 11.6097 74.6535 12.1153 73.7971 12.4764C72.9406 12.8255 71.9741 13 70.8974 13Z" fill="url(#paint5_linear)"/>
<path d="M78.9751 12.8194C78.8527 12.8194 78.7426 12.7773 78.6448 12.6931C78.5591 12.5968 78.5163 12.4884 78.5163 12.3681V0.631945C78.5163 0.499537 78.5591 0.391204 78.6448 0.306945C78.7426 0.222685 78.8527 0.180556 78.9751 0.180556H87.5455C87.6801 0.180556 87.7902 0.222685 87.8759 0.306945C87.9615 0.391204 88.0044 0.499537 88.0044 0.631945V2.32917C88.0044 2.44954 87.9615 2.55787 87.8759 2.65417C87.7902 2.73843 87.6801 2.78055 87.5455 2.78055H81.6912V5.21806H87.1418C87.2764 5.21806 87.3865 5.2662 87.4721 5.3625C87.5578 5.44676 87.6006 5.55509 87.6006 5.6875V7.25833C87.6006 7.3787 87.5578 7.48704 87.4721 7.58333C87.3865 7.66759 87.2764 7.70972 87.1418 7.70972H81.6912V10.2194H87.6924C87.8269 10.2194 87.9371 10.2616 88.0227 10.3458C88.1083 10.4301 88.1512 10.5384 88.1512 10.6708V12.3681C88.1512 12.4884 88.1083 12.5968 88.0227 12.6931C87.9371 12.7773 87.8269 12.8194 87.6924 12.8194H78.9751Z" fill="url(#paint6_linear)"/>
<path d="M89.5032 12.8194C89.4053 12.8194 89.3136 12.7833 89.2279 12.7111C89.1545 12.6269 89.1178 12.5366 89.1178 12.4403C89.1178 12.3681 89.1239 12.3139 89.1362 12.2778L93.4489 0.686111C93.4856 0.541667 93.5651 0.421297 93.6875 0.325C93.8098 0.228704 93.9689 0.180556 94.1646 0.180556H96.8808C97.0765 0.180556 97.2356 0.228704 97.3579 0.325C97.4803 0.421297 97.5598 0.541667 97.5965 0.686111L101.891 12.2778L101.928 12.4403C101.928 12.5366 101.885 12.6269 101.799 12.7111C101.726 12.7833 101.634 12.8194 101.524 12.8194H99.2665C98.9729 12.8194 98.7771 12.6931 98.6793 12.4403L97.9635 10.5986H93.0635L92.3661 12.4403C92.2683 12.6931 92.0664 12.8194 91.7605 12.8194H89.5032ZM97.2294 7.99861L95.5227 3.23194L93.8159 7.99861H97.2294Z" fill="url(#paint7_linear)"/>
<path d="M103.833 12.8194C103.711 12.8194 103.6 12.7773 103.503 12.6931C103.417 12.5968 103.374 12.4884 103.374 12.3681V0.631945C103.374 0.499537 103.417 0.391204 103.503 0.306945C103.6 0.222685 103.711 0.180556 103.833 0.180556H105.778C106.084 0.180556 106.292 0.294907 106.402 0.523611L110.88 7.45694V0.631945C110.88 0.499537 110.923 0.391204 111.009 0.306945C111.106 0.222685 111.217 0.180556 111.339 0.180556H113.541C113.676 0.180556 113.786 0.222685 113.872 0.306945C113.957 0.391204 114 0.499537 114 0.631945V12.35C114 12.4824 113.957 12.5968 113.872 12.6931C113.786 12.7773 113.676 12.8194 113.541 12.8194H111.578C111.308 12.8194 111.106 12.7051 110.972 12.4764L106.494 5.79583V12.3681C106.494 12.4884 106.451 12.5968 106.366 12.6931C106.28 12.7773 106.17 12.8194 106.035 12.8194H103.833Z" fill="url(#paint8_linear)"/>
<path d="M10.2493 30.8387C9.16116 30.8387 8.35513 30.4875 7.83121 29.7849C7.31737 29.0724 7.04534 28.2093 7.01511 27.1957L7 26.7742L7.01511 26.3527C7.04534 25.3391 7.31737 24.481 7.83121 23.7785C8.35513 23.0659 9.16116 22.7097 10.2493 22.7097C11.3475 22.7097 12.1938 23.1061 12.7883 23.8989V20.3312C12.7883 20.2308 12.8185 20.1505 12.879 20.0903C12.9394 20.0301 13.02 20 13.1208 20H13.3777C13.4784 20 13.559 20.0301 13.6195 20.0903C13.6799 20.1505 13.7102 20.2308 13.7102 20.3312V30.357C13.7102 30.4573 13.6799 30.5376 13.6195 30.5978C13.559 30.6581 13.4784 30.6882 13.3777 30.6882H13.1208C13.02 30.6882 12.9394 30.6581 12.879 30.5978C12.8185 30.5376 12.7883 30.4573 12.7883 30.357V29.6495C12.2039 30.4423 11.3576 30.8387 10.2493 30.8387ZM10.34 29.9656C11.1359 29.9656 11.7354 29.7047 12.1384 29.1828C12.5414 28.6509 12.758 28.0287 12.7883 27.3161C12.7984 27.2158 12.8034 27.0201 12.8034 26.729C12.8034 26.438 12.7984 26.2423 12.7883 26.1419C12.7782 25.7104 12.6825 25.3039 12.5011 24.9226C12.3198 24.5312 12.0477 24.21 11.685 23.9591C11.3223 23.7082 10.874 23.5828 10.34 23.5828C9.52387 23.5828 8.92439 23.8437 8.54152 24.3656C8.16874 24.8774 7.96723 25.5398 7.93701 26.3527L7.92189 26.7742C7.92189 27.7075 8.10325 28.4753 8.46596 29.0774C8.82867 29.6695 9.45334 29.9656 10.34 29.9656Z" fill="#0077BE"/>
<path d="M16.341 21.2495C16.2403 21.2495 16.1597 21.2194 16.0992 21.1591C16.0387 21.0989 16.0085 21.0186 16.0085 20.9183V20.3462C16.0085 20.2459 16.0387 20.1656 16.0992 20.1054C16.1597 20.0351 16.2403 20 16.341 20H16.9153C17.0161 20 17.0967 20.0351 17.1571 20.1054C17.2276 20.1656 17.2629 20.2459 17.2629 20.3462V20.9183C17.2629 21.0186 17.2276 21.0989 17.1571 21.1591C17.0967 21.2194 17.0161 21.2495 16.9153 21.2495H16.341ZM16.5073 30.6882C16.4065 30.6882 16.3259 30.6581 16.2654 30.5978C16.205 30.5376 16.1748 30.4573 16.1748 30.357V23.1914C16.1748 23.091 16.205 23.0108 16.2654 22.9505C16.3259 22.8903 16.4065 22.8602 16.5073 22.8602H16.7642C16.8649 22.8602 16.9455 22.8903 17.006 22.9505C17.0664 23.0108 17.0967 23.091 17.0967 23.1914V30.357C17.0967 30.4573 17.0664 30.5376 17.006 30.5978C16.9455 30.6581 16.8649 30.6882 16.7642 30.6882H16.5073Z" fill="#0077BE"/>
<path d="M22.4717 34C21.6858 34 21.0561 33.8645 20.5826 33.5935C20.109 33.3226 19.7765 33.0115 19.5851 32.6602C19.4037 32.319 19.3131 32.0179 19.3131 31.757C19.3131 31.6667 19.3433 31.5914 19.4038 31.5312C19.4743 31.471 19.5549 31.4409 19.6456 31.4409H19.8571C19.9478 31.4409 20.0183 31.4609 20.0687 31.5011C20.1292 31.5513 20.1795 31.6366 20.2199 31.757C20.5322 32.6703 21.2576 33.1269 22.3961 33.1269C23.2626 33.1269 23.9024 32.9462 24.3155 32.5849C24.7286 32.2337 24.9351 31.6014 24.9351 30.6882V29.6495C24.3507 30.4423 23.5044 30.8387 22.3961 30.8387C21.308 30.8387 20.502 30.4875 19.978 29.7849C19.4642 29.0724 19.1922 28.2093 19.1619 27.1957L19.1468 26.7742L19.1619 26.3527C19.1922 25.3391 19.4642 24.481 19.978 23.7785C20.502 23.0659 21.308 22.7097 22.3961 22.7097C23.4943 22.7097 24.3407 23.1061 24.9351 23.8989V23.2065C24.9351 23.1061 24.9653 23.0258 25.0258 22.9656C25.0862 22.8953 25.1668 22.8602 25.2676 22.8602H25.5094C25.6102 22.8602 25.6908 22.8953 25.7512 22.9656C25.8217 23.0258 25.857 23.1061 25.857 23.2065V30.5376C25.857 31.6115 25.6051 32.4545 25.1013 33.0667C24.5976 33.6889 23.721 34 22.4717 34ZM22.4868 29.9656C23.2828 29.9656 23.8822 29.7047 24.2852 29.1828C24.6883 28.6509 24.9049 28.0287 24.9351 27.3161C24.9452 27.2158 24.9502 27.0351 24.9502 26.7742C24.9502 26.5133 24.9452 26.3326 24.9351 26.2323C24.9049 25.5197 24.6883 24.9025 24.2852 24.3806C23.8822 23.8487 23.2828 23.5828 22.4868 23.5828C21.6707 23.5828 21.0712 23.8437 20.6884 24.3656C20.3156 24.8774 20.1141 25.5398 20.0838 26.3527L20.0687 26.7742L20.0838 27.1957C20.1141 28.0086 20.3156 28.676 20.6884 29.1978C21.0712 29.7097 21.6707 29.9656 22.4868 29.9656Z" fill="#0077BE"/>
<path d="M28.4875 21.2495C28.3867 21.2495 28.3061 21.2194 28.2457 21.1591C28.1852 21.0989 28.155 21.0186 28.155 20.9183V20.3462C28.155 20.2459 28.1852 20.1656 28.2457 20.1054C28.3061 20.0351 28.3867 20 28.4875 20H29.0618C29.1625 20 29.2431 20.0351 29.3036 20.1054C29.3741 20.1656 29.4094 20.2459 29.4094 20.3462V20.9183C29.4094 21.0186 29.3741 21.0989 29.3036 21.1591C29.2431 21.2194 29.1625 21.2495 29.0618 21.2495H28.4875ZM28.6537 30.6882C28.553 30.6882 28.4724 30.6581 28.4119 30.5978C28.3515 30.5376 28.3212 30.4573 28.3212 30.357V23.1914C28.3212 23.091 28.3515 23.0108 28.4119 22.9505C28.4724 22.8903 28.553 22.8602 28.6537 22.8602H28.9106C29.0114 22.8602 29.092 22.8903 29.1525 22.9505C29.2129 23.0108 29.2431 23.091 29.2431 23.1914V30.357C29.2431 30.4573 29.2129 30.5376 29.1525 30.5978C29.092 30.6581 29.0114 30.6882 28.9106 30.6882H28.6537Z" fill="#0077BE"/>
<path d="M34.331 30.6882C33.5854 30.6882 33.0565 30.4674 32.7442 30.0258C32.4318 29.5742 32.2756 28.957 32.2756 28.1742V23.7333H31.0968C30.9961 23.7333 30.9155 23.7032 30.855 23.643C30.7946 23.5828 30.7643 23.5025 30.7643 23.4022V23.1914C30.7643 23.091 30.7946 23.0108 30.855 22.9505C30.9155 22.8903 30.9961 22.8602 31.0968 22.8602H32.2756V20.3312C32.2756 20.2308 32.3059 20.1505 32.3663 20.0903C32.4268 20.0301 32.5074 20 32.6081 20H32.8651C32.9658 20 33.0464 20.0301 33.1069 20.0903C33.1673 20.1505 33.1975 20.2308 33.1975 20.3312V22.8602H35.0716C35.1723 22.8602 35.2529 22.8903 35.3134 22.9505C35.3738 23.0108 35.404 23.091 35.404 23.1914V23.4022C35.404 23.5025 35.3738 23.5828 35.3134 23.643C35.2529 23.7032 35.1723 23.7333 35.0716 23.7333H33.1975V28.114C33.1975 28.676 33.2882 29.1025 33.4696 29.3935C33.661 29.6746 33.9733 29.8151 34.4066 29.8151H35.2227C35.3234 29.8151 35.404 29.8452 35.4645 29.9054C35.5249 29.9656 35.5552 30.0459 35.5552 30.1462V30.357C35.5552 30.4573 35.5249 30.5376 35.4645 30.5978C35.404 30.6581 35.3234 30.6882 35.2227 30.6882H34.331Z" fill="#0077BE"/>
<path d="M39.2333 30.8387C38.7497 30.8387 38.3013 30.7384 37.8882 30.5376C37.4751 30.3369 37.1427 30.0659 36.8908 29.7247C36.649 29.3835 36.5281 29.0072 36.5281 28.5957C36.5281 27.9333 36.7951 27.3914 37.3291 26.9699C37.8731 26.5484 38.6036 26.2774 39.5204 26.157L41.9083 25.8258V25.2989C41.9083 24.747 41.737 24.3254 41.3944 24.0344C41.062 23.7333 40.5481 23.5828 39.8529 23.5828C39.3391 23.5828 38.9159 23.6832 38.5834 23.8839C38.261 24.0846 38.0545 24.3254 37.9638 24.6065C37.9235 24.7269 37.8731 24.8122 37.8127 24.8624C37.7623 24.9025 37.6918 24.9226 37.6011 24.9226H37.3895C37.2988 24.9226 37.2182 24.8925 37.1477 24.8323C37.0872 24.762 37.057 24.6817 37.057 24.5914C37.057 24.3706 37.1578 24.1147 37.3593 23.8237C37.5608 23.5226 37.8731 23.2616 38.2963 23.0409C38.7194 22.8201 39.2383 22.7097 39.8529 22.7097C40.931 22.7097 41.6967 22.9656 42.1501 23.4774C42.6035 23.9892 42.8302 24.6115 42.8302 25.3441V30.357C42.8302 30.4573 42.8 30.5376 42.7395 30.5978C42.6791 30.6581 42.5984 30.6882 42.4977 30.6882H42.2408C42.14 30.6882 42.0594 30.6581 41.999 30.5978C41.9385 30.5376 41.9083 30.4573 41.9083 30.357V29.6495C41.6866 29.9806 41.3592 30.2616 40.9259 30.4925C40.5028 30.7233 39.9386 30.8387 39.2333 30.8387ZM39.3844 29.9656C40.1199 29.9656 40.7244 29.7247 41.198 29.243C41.6715 28.7613 41.9083 28.0688 41.9083 27.1656V26.6538L39.9587 26.9247C39.1325 27.0351 38.5079 27.2258 38.0847 27.4968C37.6615 27.7677 37.45 28.109 37.45 28.5204C37.45 28.9821 37.6414 29.3384 38.0243 29.5892C38.4172 29.8401 38.8706 29.9656 39.3844 29.9656Z" fill="#0077BE"/>
<path d="M45.5676 30.6882C45.4669 30.6882 45.3863 30.6581 45.3258 30.5978C45.2654 30.5376 45.2352 30.4573 45.2352 30.357V20.3312C45.2352 20.2308 45.2654 20.1505 45.3258 20.0903C45.3863 20.0301 45.4669 20 45.5676 20H45.8246C45.9253 20 46.0059 20.0301 46.0664 20.0903C46.1268 20.1505 46.157 20.2308 46.157 20.3312V30.357C46.157 30.4573 46.1268 30.5376 46.0664 30.5978C46.0059 30.6581 45.9253 30.6882 45.8246 30.6882H45.5676Z" fill="#0077BE"/>
<path d="M52.8585 33.5484C52.7577 33.5484 52.6771 33.5183 52.6167 33.4581C52.5562 33.3978 52.526 33.3176 52.526 33.2172V23.1914C52.526 23.091 52.5562 23.0108 52.6167 22.9505C52.6771 22.8903 52.7577 22.8602 52.8585 22.8602H53.1154C53.2162 22.8602 53.2968 22.8903 53.3572 22.9505C53.4177 23.0108 53.4479 23.091 53.4479 23.1914V23.8989C54.0323 23.1061 54.8786 22.7097 55.9869 22.7097C57.075 22.7097 57.876 23.0559 58.3898 23.7484C58.9137 24.4308 59.1908 25.2738 59.221 26.2774C59.2311 26.3778 59.2362 26.5434 59.2362 26.7742C59.2362 27.005 59.2311 27.1706 59.221 27.271C59.1908 28.2746 58.9137 29.1226 58.3898 29.8151C57.876 30.4975 57.075 30.8387 55.9869 30.8387C54.8887 30.8387 54.0423 30.4423 53.4479 29.6495V33.2172C53.4479 33.3176 53.4177 33.3978 53.3572 33.4581C53.2968 33.5183 53.2162 33.5484 53.1154 33.5484H52.8585ZM55.8962 29.9656C56.7123 29.9656 57.3067 29.7097 57.6795 29.1978C58.0624 28.676 58.2689 28.0086 58.2992 27.1957C58.3092 27.0953 58.3143 26.9548 58.3143 26.7742C58.3143 25.8409 58.1329 25.0781 57.7702 24.486C57.4075 23.8839 56.7828 23.5828 55.8962 23.5828C55.1002 23.5828 54.5008 23.8487 54.0977 24.3806C53.6947 24.9025 53.4781 25.5197 53.4479 26.2323L53.4328 26.8194L53.4479 27.4065C53.458 27.838 53.5537 28.2495 53.735 28.6409C53.9164 29.0222 54.1884 29.3384 54.5511 29.5892C54.9138 29.8401 55.3622 29.9656 55.8962 29.9656Z" fill="#0077BE"/>
<path d="M63.4082 30.8387C62.9246 30.8387 62.4762 30.7384 62.0631 30.5376C61.65 30.3369 61.3175 30.0659 61.0657 29.7247C60.8238 29.3835 60.7029 29.0072 60.7029 28.5957C60.7029 27.9333 60.9699 27.3914 61.5039 26.9699C62.048 26.5484 62.7785 26.2774 63.6953 26.157L66.0832 25.8258V25.2989C66.0832 24.747 65.9119 24.3254 65.5693 24.0344C65.2368 23.7333 64.723 23.5828 64.0278 23.5828C63.514 23.5828 63.0908 23.6832 62.7583 23.8839C62.4359 24.0846 62.2294 24.3254 62.1387 24.6065C62.0984 24.7269 62.048 24.8122 61.9875 24.8624C61.9372 24.9025 61.8666 24.9226 61.776 24.9226H61.5644C61.4737 24.9226 61.3931 24.8925 61.3226 24.8323C61.2621 24.762 61.2319 24.6817 61.2319 24.5914C61.2319 24.3706 61.3327 24.1147 61.5342 23.8237C61.7357 23.5226 62.048 23.2616 62.4712 23.0409C62.8943 22.8201 63.4132 22.7097 64.0278 22.7097C65.1059 22.7097 65.8716 22.9656 66.325 23.4774C66.7784 23.9892 67.0051 24.6115 67.0051 25.3441V30.357C67.0051 30.4573 66.9748 30.5376 66.9144 30.5978C66.8539 30.6581 66.7733 30.6882 66.6726 30.6882H66.4157C66.3149 30.6882 66.2343 30.6581 66.1738 30.5978C66.1134 30.5376 66.0832 30.4573 66.0832 30.357V29.6495C65.8615 29.9806 65.5341 30.2616 65.1008 30.4925C64.6777 30.7233 64.1134 30.8387 63.4082 30.8387ZM63.5593 29.9656C64.2948 29.9656 64.8993 29.7247 65.3729 29.243C65.8464 28.7613 66.0832 28.0688 66.0832 27.1656V26.6538L64.1336 26.9247C63.3074 27.0351 62.6827 27.2258 62.2596 27.4968C61.8364 27.7677 61.6248 28.109 61.6248 28.5204C61.6248 28.9821 61.8163 29.3384 62.1991 29.5892C62.5921 29.8401 63.0455 29.9656 63.5593 29.9656Z" fill="#0077BE"/>
<path d="M69.7274 30.6882C69.6267 30.6882 69.546 30.6581 69.4856 30.5978C69.4251 30.5376 69.3949 30.4573 69.3949 30.357V23.2065C69.3949 23.1061 69.4251 23.0258 69.4856 22.9656C69.546 22.8953 69.6267 22.8602 69.7274 22.8602H69.9692C70.07 22.8602 70.1506 22.8953 70.211 22.9656C70.2815 23.0258 70.3168 23.1061 70.3168 23.2065V23.8989C70.6795 23.2065 71.3646 22.8602 72.3722 22.8602H72.9314C73.0321 22.8602 73.1127 22.8903 73.1732 22.9505C73.2336 23.0108 73.2638 23.091 73.2638 23.1914V23.4022C73.2638 23.5025 73.2336 23.5828 73.1732 23.643C73.1127 23.7032 73.0321 23.7333 72.9314 23.7333H72.2815C71.677 23.7333 71.1984 23.909 70.8458 24.2602C70.4931 24.6115 70.3168 25.0882 70.3168 25.6903V30.357C70.3168 30.4573 70.2815 30.5376 70.211 30.5978C70.1506 30.6581 70.07 30.6882 69.9692 30.6882H69.7274Z" fill="#0077BE"/>
<path d="M77.2938 30.6882C76.5482 30.6882 76.0193 30.4674 75.707 30.0258C75.3946 29.5742 75.2385 28.957 75.2385 28.1742V23.7333H74.0596C73.9589 23.7333 73.8783 23.7032 73.8178 23.643C73.7574 23.5828 73.7272 23.5025 73.7272 23.4022V23.1914C73.7272 23.091 73.7574 23.0108 73.8178 22.9505C73.8783 22.8903 73.9589 22.8602 74.0596 22.8602H75.2385V20.3312C75.2385 20.2308 75.2687 20.1505 75.3291 20.0903C75.3896 20.0301 75.4702 20 75.5709 20H75.8279C75.9286 20 76.0092 20.0301 76.0697 20.0903C76.1301 20.1505 76.1603 20.2308 76.1603 20.3312V22.8602H78.0344C78.1351 22.8602 78.2157 22.8903 78.2762 22.9505C78.3366 23.0108 78.3668 23.091 78.3668 23.1914V23.4022C78.3668 23.5025 78.3366 23.5828 78.2762 23.643C78.2157 23.7032 78.1351 23.7333 78.0344 23.7333H76.1603V28.114C76.1603 28.676 76.251 29.1025 76.4324 29.3935C76.6238 29.6746 76.9361 29.8151 77.3694 29.8151H78.1855C78.2862 29.8151 78.3668 29.8452 78.4273 29.9054C78.4878 29.9656 78.518 30.0459 78.518 30.1462V30.357C78.518 30.4573 78.4878 30.5376 78.4273 30.5978C78.3668 30.6581 78.2862 30.6882 78.1855 30.6882H77.2938Z" fill="#0077BE"/>
<path d="M80.4128 30.6882C80.312 30.6882 80.2314 30.6581 80.171 30.5978C80.1105 30.5376 80.0803 30.4573 80.0803 30.357V23.1914C80.0803 23.091 80.1105 23.0108 80.171 22.9505C80.2314 22.8903 80.312 22.8602 80.4128 22.8602H80.6697C80.7704 22.8602 80.851 22.8903 80.9115 22.9505C80.9719 23.0108 81.0022 23.091 81.0022 23.1914V23.8989C81.3044 23.5075 81.647 23.2115 82.0299 23.0108C82.4228 22.81 82.9266 22.7097 83.5412 22.7097C84.5285 22.7097 85.2892 23.0258 85.8232 23.6581C86.3572 24.2803 86.6242 25.0882 86.6242 26.0817V30.357C86.6242 30.4573 86.594 30.5376 86.5335 30.5978C86.4731 30.6581 86.3925 30.6882 86.2917 30.6882H86.0348C85.934 30.6882 85.8534 30.6581 85.793 30.5978C85.7325 30.5376 85.7023 30.4573 85.7023 30.357V26.157C85.7023 25.3441 85.5008 24.7118 85.0978 24.2602C84.7049 23.8086 84.1356 23.5828 83.39 23.5828C82.6646 23.5828 82.0853 23.8136 81.652 24.2753C81.2188 24.7269 81.0022 25.3541 81.0022 26.157V30.357C81.0022 30.4573 80.9719 30.5376 80.9115 30.5978C80.851 30.6581 80.7704 30.6882 80.6697 30.6882H80.4128Z" fill="#0077BE"/>
<path d="M91.9114 30.8387C90.9542 30.8387 90.1835 30.5276 89.5991 29.9054C89.0147 29.2731 88.6822 28.4301 88.6016 27.3763L88.5865 26.7742L88.6016 26.172C88.6822 25.1283 89.0097 24.2903 89.584 23.6581C90.1684 23.0258 90.9442 22.7097 91.9114 22.7097C92.9592 22.7097 93.7753 23.0559 94.3597 23.7484C94.9541 24.4409 95.2514 25.3892 95.2514 26.5935V26.8194C95.2514 26.9197 95.2161 27 95.1456 27.0602C95.0851 27.1204 95.0045 27.1505 94.9038 27.1505H89.5235V27.3011C89.5437 27.7728 89.6495 28.2143 89.8409 28.6258C90.0424 29.0272 90.3195 29.3534 90.6721 29.6043C91.0248 29.8452 91.4378 29.9656 91.9114 29.9656C92.4655 29.9656 92.9139 29.8602 93.2564 29.6495C93.6091 29.4287 93.861 29.2079 94.0121 28.9871C94.1028 28.8667 94.1683 28.7914 94.2086 28.7613C94.2589 28.7312 94.3446 28.7161 94.4655 28.7161H94.7073C94.798 28.7161 94.8735 28.7412 94.934 28.7914C94.9944 28.8416 95.0247 28.9068 95.0247 28.9871C95.0247 29.1978 94.8887 29.4538 94.6166 29.7548C94.3547 30.0459 93.9869 30.3018 93.5134 30.5226C93.0398 30.7333 92.5058 30.8387 91.9114 30.8387ZM94.3295 26.3075V26.2473C94.3295 25.4746 94.1078 24.8373 93.6645 24.3355C93.2313 23.8337 92.6469 23.5828 91.9114 23.5828C91.1759 23.5828 90.5915 23.8337 90.1583 24.3355C89.7351 24.8373 89.5235 25.4746 89.5235 26.2473V26.3075H94.3295Z" fill="#0077BE"/>
<path d="M97.5772 30.6882C97.4765 30.6882 97.3959 30.6581 97.3354 30.5978C97.275 30.5376 97.2447 30.4573 97.2447 30.357V23.2065C97.2447 23.1061 97.275 23.0258 97.3354 22.9656C97.3959 22.8953 97.4765 22.8602 97.5772 22.8602H97.819C97.9198 22.8602 98.0004 22.8953 98.0608 22.9656C98.1314 23.0258 98.1666 23.1061 98.1666 23.2065V23.8989C98.5293 23.2065 99.2145 22.8602 100.222 22.8602H100.781C100.882 22.8602 100.963 22.8903 101.023 22.9505C101.083 23.0108 101.114 23.091 101.114 23.1914V23.4022C101.114 23.5025 101.083 23.5828 101.023 23.643C100.963 23.7032 100.882 23.7333 100.781 23.7333H100.131C99.5268 23.7333 99.0482 23.909 98.6956 24.2602C98.3429 24.6115 98.1666 25.0882 98.1666 25.6903V30.357C98.1666 30.4573 98.1314 30.5376 98.0608 30.5978C98.0004 30.6581 97.9198 30.6882 97.819 30.6882H97.5772Z" fill="#0077BE"/>
<path d="M104.993 30.8387C104.338 30.8387 103.783 30.7283 103.33 30.5075C102.887 30.2867 102.549 30.0358 102.318 29.7548C102.096 29.4738 101.985 29.248 101.985 29.0774C101.985 28.9871 102.02 28.9168 102.091 28.8667C102.161 28.8065 102.237 28.7763 102.318 28.7763H102.544C102.615 28.7763 102.67 28.7914 102.71 28.8215C102.761 28.8416 102.816 28.8918 102.877 28.972C103.098 29.2832 103.365 29.529 103.678 29.7097C104 29.8803 104.438 29.9656 104.993 29.9656C105.617 29.9656 106.121 29.8502 106.504 29.6194C106.887 29.3785 107.078 29.0373 107.078 28.5957C107.078 28.3247 106.997 28.1039 106.836 27.9333C106.685 27.7627 106.433 27.6172 106.081 27.4968C105.738 27.3663 105.224 27.2208 104.539 27.0602C103.642 26.8595 103.028 26.5835 102.695 26.2323C102.373 25.881 102.212 25.4344 102.212 24.8925C102.212 24.5211 102.312 24.1699 102.514 23.8387C102.726 23.5075 103.033 23.2366 103.436 23.0258C103.849 22.8151 104.343 22.7097 104.917 22.7097C105.521 22.7097 106.03 22.8151 106.443 23.0258C106.867 23.2265 107.179 23.4624 107.38 23.7333C107.592 24.0043 107.698 24.2251 107.698 24.3957C107.698 24.486 107.662 24.5613 107.592 24.6215C107.531 24.6717 107.456 24.6968 107.365 24.6968H107.139C106.997 24.6968 106.887 24.6315 106.806 24.5011C106.605 24.2 106.373 23.9742 106.111 23.8237C105.859 23.6631 105.461 23.5828 104.917 23.5828C104.333 23.5828 103.889 23.7032 103.587 23.9441C103.285 24.1849 103.134 24.5011 103.134 24.8925C103.134 25.1333 103.194 25.3341 103.315 25.4946C103.436 25.6552 103.663 25.8057 103.995 25.9462C104.328 26.0767 104.811 26.2122 105.446 26.3527C106.383 26.5634 107.043 26.8444 107.426 27.1957C107.809 27.547 108 28.0136 108 28.5957C108 29.0072 107.884 29.3835 107.652 29.7247C107.421 30.0659 107.078 30.3369 106.625 30.5376C106.171 30.7384 105.627 30.8387 104.993 30.8387Z" fill="#0077BE"/>
<defs>
<linearGradient id="paint0_linear" x1="57.0104" y1="-4.17401" x2="57.0104" y2="17.0678" gradientUnits="userSpaceOnUse">
<stop stop-color="#0077BE"/>
<stop offset="1" stop-color="#0077BE" stop-opacity="0.7"/>
</linearGradient>
<linearGradient id="paint1_linear" x1="57.0104" y1="-4.17401" x2="57.0104" y2="17.0678" gradientUnits="userSpaceOnUse">
<stop stop-color="#0077BE"/>
<stop offset="1" stop-color="#0077BE" stop-opacity="0.7"/>
</linearGradient>
<linearGradient id="paint2_linear" x1="57.0104" y1="-4.17401" x2="57.0104" y2="17.0678" gradientUnits="userSpaceOnUse">
<stop stop-color="#0077BE"/>
<stop offset="1" stop-color="#0077BE" stop-opacity="0.7"/>
</linearGradient>
<linearGradient id="paint3_linear" x1="57.0104" y1="-4.17401" x2="57.0104" y2="17.0678" gradientUnits="userSpaceOnUse">
<stop stop-color="#0077BE"/>
<stop offset="1" stop-color="#0077BE" stop-opacity="0.7"/>
</linearGradient>
<linearGradient id="paint4_linear" x1="57.0104" y1="-4.17401" x2="57.0104" y2="17.0678" gradientUnits="userSpaceOnUse">
<stop stop-color="#0077BE"/>
<stop offset="1" stop-color="#0077BE" stop-opacity="0.7"/>
</linearGradient>
<linearGradient id="paint5_linear" x1="57.0104" y1="-4.17401" x2="57.0104" y2="17.0678" gradientUnits="userSpaceOnUse">
<stop stop-color="#0077BE"/>
<stop offset="1" stop-color="#0077BE" stop-opacity="0.7"/>
</linearGradient>
<linearGradient id="paint6_linear" x1="57.0104" y1="-4.17401" x2="57.0104" y2="17.0678" gradientUnits="userSpaceOnUse">
<stop stop-color="#0077BE"/>
<stop offset="1" stop-color="#0077BE" stop-opacity="0.7"/>
</linearGradient>
<linearGradient id="paint7_linear" x1="57.0104" y1="-4.17401" x2="57.0104" y2="17.0678" gradientUnits="userSpaceOnUse">
<stop stop-color="#0077BE"/>
<stop offset="1" stop-color="#0077BE" stop-opacity="0.7"/>
</linearGradient>
<linearGradient id="paint8_linear" x1="57.0104" y1="-4.17401" x2="57.0104" y2="17.0678" gradientUnits="userSpaceOnUse">
<stop stop-color="#0077BE"/>
<stop offset="1" stop-color="#0077BE" stop-opacity="0.7"/>
</linearGradient>
</defs>
</svg>
