<svg width="122" height="45" viewBox="0 0 122 45" fill="none" xmlns="http://www.w3.org/2000/svg">
<rect width="122" height="44.5629" fill="#F2242A"/>
<path d="M39.6514 19.0353H36.2148V17.9806C36.2148 17.4884 36.1709 17.1749 36.083 17.0402C35.9951 16.9054 35.8486 16.838 35.6436 16.838C35.4209 16.838 35.251 16.9288 35.1338 17.1105C35.0225 17.2921 34.9668 17.5675 34.9668 17.9366C34.9668 18.4113 35.0312 18.7687 35.1602 19.0089C35.2832 19.2491 35.6318 19.5392 36.2061 19.879C37.8525 20.8575 38.8896 21.6603 39.3174 22.2872C39.7451 22.9142 39.959 23.9249 39.959 25.3195C39.959 26.3331 39.8389 27.0802 39.5986 27.5607C39.3643 28.0411 38.9072 28.4454 38.2275 28.7736C37.5479 29.0958 36.7568 29.257 35.8545 29.257C34.8643 29.257 34.0176 29.0695 33.3145 28.6945C32.6172 28.3195 32.1602 27.8419 31.9434 27.2618C31.7266 26.6818 31.6182 25.8585 31.6182 24.7921V23.8605H35.0547V25.5919C35.0547 26.1251 35.1016 26.4679 35.1953 26.6202C35.2949 26.7726 35.4678 26.8488 35.7139 26.8488C35.96 26.8488 36.1416 26.7521 36.2588 26.5587C36.3818 26.3654 36.4434 26.0782 36.4434 25.6974C36.4434 24.8595 36.3291 24.3116 36.1006 24.0538C35.8662 23.796 35.2891 23.3654 34.3691 22.7618C33.4492 22.1525 32.8398 21.7101 32.541 21.4347C32.2422 21.1593 31.9932 20.7784 31.7939 20.2921C31.6006 19.8058 31.5039 19.1847 31.5039 18.4288C31.5039 17.339 31.6416 16.5421 31.917 16.0382C32.1982 15.5343 32.6494 15.1417 33.2705 14.8605C33.8916 14.5734 34.6416 14.4298 35.5205 14.4298C36.4814 14.4298 37.2988 14.5851 37.9727 14.8956C38.6523 15.2062 39.1006 15.5988 39.3174 16.0734C39.54 16.5421 39.6514 17.3419 39.6514 18.4728V19.0353ZM35.793 12.9532L36.7686 11.8019H39.1504L37.0322 14.2804H34.5537L32.2949 11.8019H34.7559L35.793 12.9532ZM47.5176 14.7286L49.6357 28.9581H45.8477L45.6631 26.4005H44.3359L44.1162 28.9581H40.2842L42.165 14.7286H47.5176ZM45.5576 23.8781C45.3701 22.2667 45.1826 20.2775 44.9951 17.9103C44.6201 20.629 44.3857 22.6183 44.292 23.8781H45.5576ZM53.9688 14.7286V28.9581H50.2686V14.7286H53.9688ZM66.8711 14.7286V28.9581H63.6367V19.3517L62.3447 28.9581H60.0508L58.6885 19.5714V28.9581H55.4541V14.7286H60.2441C60.3848 15.5841 60.5342 16.5919 60.6924 17.7521L61.2021 21.3732L62.0459 14.7286H66.8711ZM79.3779 19.0353H75.9414V17.9806C75.9414 17.4884 75.8975 17.1749 75.8096 17.0402C75.7217 16.9054 75.5752 16.838 75.3701 16.838C75.1475 16.838 74.9775 16.9288 74.8604 17.1105C74.749 17.2921 74.6934 17.5675 74.6934 17.9366C74.6934 18.4113 74.7578 18.7687 74.8867 19.0089C75.0098 19.2491 75.3584 19.5392 75.9326 19.879C77.5791 20.8575 78.6162 21.6603 79.0439 22.2872C79.4717 22.9142 79.6855 23.9249 79.6855 25.3195C79.6855 26.3331 79.5654 27.0802 79.3252 27.5607C79.0908 28.0411 78.6338 28.4454 77.9541 28.7736C77.2744 29.0958 76.4834 29.257 75.5811 29.257C74.5908 29.257 73.7441 29.0695 73.041 28.6945C72.3438 28.3195 71.8867 27.8419 71.6699 27.2618C71.4531 26.6818 71.3447 25.8585 71.3447 24.7921V23.8605H74.7812V25.5919C74.7812 26.1251 74.8281 26.4679 74.9219 26.6202C75.0215 26.7726 75.1943 26.8488 75.4404 26.8488C75.6865 26.8488 75.8682 26.7521 75.9854 26.5587C76.1084 26.3654 76.1699 26.0782 76.1699 25.6974C76.1699 24.8595 76.0557 24.3116 75.8271 24.0538C75.5928 23.796 75.0156 23.3654 74.0957 22.7618C73.1758 22.1525 72.5664 21.7101 72.2676 21.4347C71.9688 21.1593 71.7197 20.7784 71.5205 20.2921C71.3271 19.8058 71.2305 19.1847 71.2305 18.4288C71.2305 17.339 71.3682 16.5421 71.6436 16.0382C71.9248 15.5343 72.376 15.1417 72.9971 14.8605C73.6182 14.5734 74.3682 14.4298 75.2471 14.4298C76.208 14.4298 77.0254 14.5851 77.6992 14.8956C78.3789 15.2062 78.8271 15.5988 79.0439 16.0734C79.2666 16.5421 79.3779 17.3419 79.3779 18.4728V19.0353ZM80.8545 14.7286H87.0244V17.5763H84.5547V20.2745H86.8662V22.9816H84.5547V26.1105H87.2705V28.9581H80.8545V14.7286ZM90.6016 26.0577V28.9581H87.9209V26.0577H90.6016Z" fill="white"/>
</svg>
