<svg width="67" height="51" viewBox="0 0 67 51" fill="none" xmlns="http://www.w3.org/2000/svg">
<path d="M14.1366 10.3186H53.6812V49.8632H14.1366V10.3186Z" stroke="#3D65A5" stroke-miterlimit="10"/>
<path d="M1 1H40.5446V40.5446H1V1Z" stroke="black" stroke-miterlimit="10"/>
<path d="M35.4211 21.7282C34.514 21.3264 33.5213 20.9768 32.4426 20.6803C31.3638 20.3836 30.31 20.2352 29.2802 20.2352C27.8585 20.2352 26.7248 20.5215 25.8789 21.0929C25.0334 21.6646 24.6101 22.4269 24.6101 23.38C24.6101 24.1002 24.8799 24.7092 25.4192 25.2065C25.9584 25.7046 26.6697 26.1331 27.5522 26.4933C28.4347 26.8534 29.3538 27.1919 30.31 27.5098C31.1431 27.785 31.9646 28.0921 32.7735 28.4308C33.5824 28.7699 34.3116 29.1931 34.9618 29.7015C35.6108 30.2095 36.1258 30.8344 36.5062 31.5756C36.8858 32.3172 37.076 33.2384 37.076 34.3393C37.076 35.5461 36.7266 36.6474 36.028 37.6429C35.3292 38.6383 34.3303 39.4216 33.0312 39.9936C31.7314 40.5651 30.187 40.8512 28.3979 40.8512C27.2213 40.8512 26.0997 40.7344 25.0334 40.5015C23.967 40.2687 22.9798 39.9672 22.0732 39.5964C21.1661 39.2261 20.357 38.8391 19.6462 38.4372L21.2275 36.0226C21.8158 36.3831 22.4897 36.7268 23.25 37.0549C24.0095 37.3835 24.8064 37.6485 25.6399 37.8491C26.473 38.0509 27.282 38.1509 28.0668 38.1509C28.9 38.1509 29.7272 38.019 30.5491 37.7539C31.3701 37.4894 32.0502 37.0819 32.5897 36.5312C33.1291 35.9806 33.3988 35.2498 33.3988 34.3393C33.3988 33.5561 33.1597 32.9046 32.6816 32.3858C32.2035 31.8668 31.5721 31.4221 30.7881 31.0517C30.0032 30.681 29.1701 30.3478 28.2877 30.0508C27.4541 29.7759 26.6081 29.4742 25.7506 29.1456C24.8921 28.8173 24.0955 28.4148 23.3602 27.9385C22.6247 27.4618 22.0366 26.8744 21.5951 26.1755C21.1541 25.4767 20.9332 24.6296 20.9332 23.6342C20.9332 22.4269 21.27 21.3739 21.9442 20.4735C22.6185 19.5737 23.5438 18.8645 24.7208 18.3451C25.8973 17.8266 27.2454 17.5464 28.7656 17.5034C30.4813 17.5034 31.9954 17.6837 33.3069 18.0434C34.618 18.4039 35.7762 18.8485 36.7817 19.3777L35.4211 21.7282Z" fill="black"/>
<path d="M40.5612 40.797V17.1001H40.5979L54.5341 34.1899L53.0267 33.9355L66.9263 17.1001H66.9999C66.9873 24.0453 66.9746 30.9903 66.9619 37.9353H63.4512C63.4574 33.3197 63.4637 28.7041 63.4698 24.0884L63.6905 25.645L53.6519 37.9066H53.5784L43.3926 25.645L44.0175 24.2154V40.797H40.5612Z" fill="black"/>
</svg>
