<svg width="16" height="16" viewBox="0 0 16 16" fill="none" xmlns="http://www.w3.org/2000/svg">
<path fill-rule="evenodd" clip-rule="evenodd" d="M8 0.726944C3.96333 0.726944 0.695333 4.11958 0.695333 8.2976C0.695333 11.3654 2.45733 14.0053 4.99333 15.1928C5.25867 15.3173 5.518 15.2679 5.72067 15.1093C5.83275 15.0182 5.9231 14.9013 5.98463 14.7677C6.04616 14.6341 6.07721 14.4875 6.07533 14.3392V13.9427L5.17067 13.8147C5.16397 13.8138 5.1573 13.8126 5.15067 13.8112C4.652 13.7097 4.31533 13.5267 4.06867 13.2631C3.86133 13.0412 3.73467 12.7754 3.62733 12.5501L3.59 12.4714C3.4908 12.2555 3.38247 12.0443 3.26533 11.8384C3.17533 11.6895 3.10533 11.613 3.036 11.565C2.86 11.4433 2.69067 11.2367 2.69067 10.9786C2.69007 10.9043 2.70531 10.8308 2.73529 10.7635C2.76526 10.6961 2.80923 10.6365 2.864 10.589C2.96737 10.5036 3.0962 10.4588 3.228 10.4624C3.376 10.4624 3.51533 10.5097 3.63133 10.564C3.75 10.6196 3.868 10.6934 3.978 10.7699C4.246 10.9563 4.51 11.1769 4.73333 11.4489C4.966 11.7313 5.13067 11.9108 5.37867 11.9476C5.58267 11.9782 5.79067 11.9789 5.95267 11.9713C5.97518 11.8374 6.01231 11.7067 6.06333 11.5817C5.86548 11.5335 5.67029 11.4741 5.47867 11.4036C5.04267 11.2422 4.55667 10.9911 4.23 10.6106C3.87133 10.1918 3.64933 9.81827 3.52533 9.38141C3.40467 8.95568 3.38467 8.49447 3.38467 7.92683C3.38467 7.05727 3.74533 6.32476 4.016 5.9359C3.91201 5.59545 3.83727 5.24602 3.79267 4.89174C3.76313 4.66833 3.76335 4.44172 3.79333 4.21836C3.82667 4.01454 3.91 3.76411 4.12933 3.61316C4.34067 3.46638 4.58867 3.47264 4.782 3.5102C4.98267 3.54985 5.19133 3.63681 5.38333 3.73629C5.696 3.89767 6.00667 4.11332 6.23933 4.29628C6.64067 4.17315 7.35067 4.01454 7.99267 3.99993H8.00733C8.65 4.01454 9.328 4.17315 9.71933 4.29558C9.95267 4.11332 10.2627 3.89698 10.5747 3.73629C10.7667 3.63681 10.9747 3.54985 11.176 3.5102C11.3693 3.47264 11.6173 3.46638 11.8293 3.61246C12.048 3.76411 12.132 4.01454 12.1647 4.21836C12.1987 4.43054 12.1907 4.66775 12.1647 4.89174C12.1203 5.246 12.0457 5.59543 11.942 5.9359C12.2127 6.32546 12.5733 7.05797 12.5733 7.92683C12.5733 8.49447 12.5533 8.95568 12.4333 9.38071C12.3087 9.81897 12.0867 10.1918 11.728 10.6106C11.4013 10.9911 10.9153 11.2422 10.4793 11.4036C10.2479 11.4885 10.0114 11.5575 9.77133 11.6102C9.85333 11.869 9.88267 12.0784 9.88267 12.1988V14.3483C9.88267 14.6752 10.0287 14.9542 10.236 15.117C10.4373 15.2763 10.696 15.3257 10.9613 15.2046C13.5213 14.0276 15.304 11.3807 15.304 8.29691C15.304 4.11958 12.0373 0.726944 8 0.726944ZM6.31733 12.6676C6.144 12.6934 6.31667 12.6676 6.31667 12.6676H6.31467L6.30933 12.669L6.29 12.6718C6.19098 12.6839 6.09159 12.6925 5.992 12.6975C5.804 12.7066 5.546 12.7073 5.28133 12.6676C4.754 12.5897 4.43333 12.2001 4.226 11.9469L4.206 11.9233C4.13821 11.8412 4.06539 11.7638 3.988 11.6916C4.05667 11.8238 4.128 11.9713 4.20467 12.1299L4.21133 12.1438L4.24533 12.2161C4.362 12.4582 4.43867 12.6196 4.566 12.7546C4.69 12.8867 4.88333 13.0147 5.274 13.0954L6.47 13.2645C6.55353 13.2763 6.63012 13.3193 6.68554 13.3856C6.74096 13.4518 6.77145 13.5369 6.77133 13.6248V14.3392C6.77133 14.8958 6.52133 15.3917 6.138 15.6923C5.93674 15.8527 5.69732 15.9528 5.44556 15.9818C5.19379 16.0107 4.93923 15.9674 4.70933 15.8564C1.93467 14.5577 0 11.6659 0 8.2976C0 3.71194 3.58467 0 8 0C12.4153 0 16 3.71194 16 8.2976C16 11.6833 14.0407 14.5827 11.242 15.8703C11.0119 15.9792 10.7578 16.0206 10.5069 15.9904C10.2559 15.9601 10.0176 15.8592 9.81733 15.6985C9.61935 15.5395 9.45937 15.3347 9.34995 15.1003C9.24053 14.866 9.18464 14.6083 9.18667 14.3476V12.1981C9.18667 12.1494 9.154 11.8683 8.972 11.4906C8.94688 11.4382 8.93422 11.3803 8.9351 11.3217C8.93599 11.2632 8.95038 11.2057 8.97707 11.1542C9.00375 11.1026 9.04194 11.0586 9.08841 11.0257C9.13488 10.9928 9.18825 10.9722 9.244 10.9654C9.47267 10.9389 9.858 10.8617 10.2467 10.7177C10.6427 10.5717 10.998 10.3713 11.2093 10.125C11.5233 9.75914 11.68 9.4781 11.766 9.17411C11.8553 8.85898 11.878 8.49238 11.878 7.92683C11.878 7.1331 11.478 6.46598 11.294 6.25103C11.2522 6.20245 11.2238 6.14304 11.2116 6.07903C11.1994 6.01502 11.2039 5.94876 11.2247 5.88721C11.318 5.61312 11.4313 5.1867 11.4747 4.80618C11.496 4.61488 11.4973 4.45488 11.4787 4.33941C11.4745 4.29719 11.4622 4.25627 11.4427 4.21906C11.3968 4.21077 11.3497 4.21291 11.3047 4.22532C11.1913 4.24758 11.0467 4.30323 10.8827 4.3881C10.556 4.55645 10.216 4.80549 10.0053 4.98357C9.95888 5.0229 9.90345 5.04902 9.84446 5.05938C9.78546 5.06974 9.7249 5.06399 9.66867 5.0427C9.12889 4.85846 8.56742 4.75242 8 4.72757C7.32867 4.74427 6.554 4.94322 6.28933 5.0427C6.2331 5.06399 6.17254 5.06974 6.11354 5.05938C6.05455 5.04902 5.99912 5.0229 5.95267 4.98357C5.68023 4.7547 5.38628 4.5552 5.07533 4.3881C4.94181 4.31494 4.79973 4.26022 4.65267 4.22532C4.60785 4.21301 4.56101 4.21087 4.51533 4.21906C4.49574 4.25626 4.4835 4.29718 4.47933 4.33941C4.46067 4.45488 4.462 4.61488 4.48333 4.80618C4.52667 5.1867 4.64067 5.61312 4.73333 5.88721C4.77533 6.01242 4.74933 6.15155 4.664 6.25103C4.48 6.46598 4.08 7.1331 4.08 7.92683C4.08 8.49169 4.10267 8.85898 4.192 9.17411C4.27867 9.4781 4.43467 9.75845 4.748 10.125C4.96 10.3713 5.31467 10.5717 5.71133 10.7177C6.03585 10.8376 6.37178 10.9206 6.71333 10.9654C6.7836 10.9733 6.84991 11.0033 6.90344 11.0514C6.95696 11.0996 6.99517 11.1636 7.01297 11.235C7.03078 11.3063 7.02734 11.3817 7.00311 11.4509C6.97888 11.5202 6.93501 11.5801 6.87733 11.6228C6.76733 11.7048 6.69467 11.8523 6.654 12.0228C6.633 12.1105 6.6205 12.2002 6.61667 12.2906V12.3038C6.61752 12.392 6.58763 12.4775 6.53257 12.5444C6.4775 12.6114 6.40102 12.6551 6.31733 12.6676V12.6676Z" fill="#292929"/>
</svg>
