<svg width="235" height="294" viewBox="0 0 235 294" fill="none" xmlns="http://www.w3.org/2000/svg">
	<style>
		path { fill: #000000; }
		@media (prefers-color-scheme: dark) {
			path { fill: #ffffff; }
		}
  </style>
<path d="M162.591 91.4545L159.603 91.7206L159.846 94.4545H162.591V91.4545ZM227.227 91.4545V94.4545H230.259L230.227 91.4232L227.227 91.4545ZM10.8182 90.6364L13.8182 90.646L13.8182 90.6294L13.8181 90.6127L10.8182 90.6364ZM88.6818 167.955L89.3644 165.033L89.351 165.03L88.6818 167.955ZM117.864 174.773L117.181 177.694L117.188 177.696L117.864 174.773ZM162.591 205.864L165.591 205.912L165.591 205.862L165.59 205.811L162.591 205.864ZM68.2273 194L71.2226 193.833L71.0644 191H68.2273V194ZM3.59091 194V191H0.553096L0.591145 194.038L3.59091 194ZM231.045 206L234.045 206.015L234.046 205.999L234.045 205.982L231.045 206ZM145.545 122L144.881 124.925L144.89 124.928L144.9 124.93L145.545 122ZM121.545 116.545L122.21 113.62L122.193 113.616L122.176 113.613L121.545 116.545ZM80.6364 86L83.6348 86.0983L83.6359 86.0626L83.6362 86.0268L80.6364 86ZM162.591 94.4545H227.227V88.4545H162.591V94.4545ZM230.227 91.4232C229.945 64.4584 219.037 41.7254 199.752 25.7843C180.515 9.88252 153.16 0.909081 120.182 0.909081V6.90908C152.112 6.90908 178.008 15.5947 195.93 30.4089C213.804 45.1836 223.964 66.2234 224.227 91.4859L230.227 91.4232ZM120.182 0.909081C87.7552 0.909081 59.6175 9.74152 39.5664 25.4269C19.4588 41.1563 7.606 63.7012 7.81828 90.66L13.8181 90.6127C13.6213 65.617 24.5412 44.7983 43.2632 30.1527C62.0416 15.463 88.7903 6.90908 120.182 6.90908V0.909081ZM7.8182 90.6267C7.74746 112.626 15.4611 130.001 29.5414 143.242C43.5262 156.394 63.5987 165.293 88.0127 170.879L89.351 165.03C65.4922 159.571 46.5647 151.015 33.6518 138.871C20.8344 126.817 13.7525 111.056 13.8182 90.646L7.8182 90.6267ZM87.9993 170.876L117.181 177.694L118.546 171.851L89.3644 165.033L87.9993 170.876ZM117.188 177.696C132.469 181.227 143.125 184.984 149.955 189.585C156.575 194.044 159.474 199.19 159.591 205.916L165.59 205.811C165.435 196.855 161.312 190.001 153.307 184.608C145.512 179.357 133.94 175.409 118.539 171.85L117.188 177.696ZM159.591 205.816C159.472 213.294 155.961 219.648 149.284 224.238C142.52 228.887 132.402 231.773 119.227 231.773V237.773C133.189 237.773 144.617 234.727 152.682 229.183C160.835 223.579 165.437 215.479 165.591 205.912L159.591 205.816ZM119.227 231.773C104.722 231.773 93.0695 228.391 84.9273 222.088C76.8659 215.847 71.9301 206.503 71.2226 193.833L65.2319 194.167C66.0244 208.36 71.6568 219.403 81.2545 226.832C90.7715 234.2 103.869 237.773 119.227 237.773V231.773ZM68.2273 191H3.59091V197H68.2273V191ZM0.591145 194.038C1.00965 227.448 12.8755 252.501 33.931 269.122C54.8807 285.659 84.5428 293.545 120.045 293.545V287.545C85.3209 287.545 57.1647 279.818 37.6486 264.412C18.2381 249.09 6.99035 225.87 6.59067 193.962L0.591145 194.038ZM120.045 293.545C155.223 293.545 183.626 285.585 203.342 270.55C223.159 255.439 233.905 233.398 234.045 206.015L228.046 205.985C227.914 231.648 217.932 251.879 199.704 265.779C181.374 279.756 154.414 287.545 120.045 287.545V293.545ZM234.045 205.982C233.904 182.937 226.012 164.179 210.932 149.668C195.936 135.237 174.041 125.206 146.191 119.07L144.9 124.93C172.141 130.931 192.86 140.604 206.772 153.991C220.601 167.299 227.914 184.472 228.046 206.018L234.045 205.982ZM146.21 119.075L122.21 113.62L120.881 119.471L144.881 124.925L146.21 119.075ZM122.176 113.613C109.594 110.907 99.699 107.526 93.0691 102.99C86.6026 98.5656 83.4024 93.1838 83.6348 86.0983L77.638 85.9017C77.3248 95.4525 81.8974 102.616 89.681 107.942C97.301 113.156 108.134 116.73 120.915 119.478L122.176 113.613ZM83.6362 86.0268C83.6959 79.347 86.5377 73.6683 92.3134 69.5578C98.1948 65.3721 107.325 62.6818 120.045 62.6818V56.6818C106.584 56.6818 96.0779 59.5143 88.8344 64.6694C81.485 69.8999 77.7132 77.3802 77.6365 85.9732L83.6362 86.0268ZM120.045 62.6818C132.79 62.6818 142.263 65.5575 148.699 70.4844C155.065 75.3575 158.78 82.4807 159.603 91.7206L165.579 91.1885C164.629 80.5192 160.231 71.7561 152.346 65.7202C144.532 59.738 133.619 56.6818 120.045 56.6818V62.6818Z" 
/>
</svg>
