<svg width="945" height="945" viewBox="0 0 945 945" fill="none" xmlns="http://www.w3.org/2000/svg">
<path d="M633.666 758.805C717.007 758.805 784.567 750.473 784.567 740.196C784.567 729.918 717.007 721.587 633.666 721.587C550.325 721.587 482.765 729.918 482.765 740.196C482.765 750.473 550.325 758.805 633.666 758.805Z" fill="#E9E9E7"/>
<path d="M479.503 272.472H183.495C176.694 272.472 171.181 277.985 171.181 284.785V516.665C171.181 523.466 176.694 528.979 183.495 528.979H479.503C486.303 528.979 491.816 523.466 491.816 516.665V284.785C491.816 277.985 486.303 272.472 479.503 272.472Z" fill="white"/>
<path d="M479.503 275.152C482.059 275.152 484.511 276.167 486.318 277.975C488.126 279.783 489.142 282.234 489.142 284.791V516.666C489.142 519.222 488.126 521.674 486.318 523.481C484.511 525.289 482.059 526.305 479.503 526.305H183.496C180.94 526.305 178.488 525.289 176.681 523.481C174.873 521.674 173.857 519.222 173.857 516.666V284.785C173.857 282.229 174.873 279.777 176.681 277.969C178.488 276.162 180.94 275.146 183.496 275.146H479.503V275.152ZM479.503 272.466H183.496C181.879 272.466 180.278 272.784 178.784 273.403C177.29 274.022 175.932 274.929 174.788 276.072C173.645 277.215 172.738 278.573 172.119 280.067C171.5 281.561 171.181 283.162 171.181 284.78V516.666C171.181 518.283 171.5 519.884 172.119 521.378C172.738 522.872 173.645 524.23 174.788 525.373C175.932 526.516 177.29 527.423 178.784 528.042C180.278 528.661 181.879 528.979 183.496 528.979H479.503C481.12 528.979 482.721 528.66 484.215 528.042C485.709 527.423 487.066 526.516 488.209 525.372C489.353 524.229 490.26 522.872 490.879 521.378C491.497 519.884 491.816 518.283 491.816 516.666V284.785C491.816 283.168 491.497 281.567 490.879 280.073C490.26 278.579 489.353 277.222 488.209 276.078C487.066 274.935 485.709 274.028 484.215 273.409C482.721 272.79 481.12 272.472 479.503 272.472V272.466Z" fill="#B3D8E5"/>
<path d="M479.503 272.472H183.496C181.879 272.472 180.278 272.79 178.784 273.409C177.29 274.027 175.932 274.934 174.788 276.078C173.645 277.221 172.738 278.579 172.119 280.073C171.5 281.567 171.181 283.168 171.181 284.785V307.323H491.816V284.785C491.816 281.519 490.519 278.387 488.209 276.078C485.9 273.769 482.768 272.472 479.503 272.472V272.472Z" fill="#B3D8E5"/>
<path d="M421.166 298.529H285.513C283.413 298.529 281.399 297.695 279.914 296.21C278.43 294.726 277.595 292.712 277.595 290.612V290.612C277.595 289.572 277.8 288.543 278.198 287.582C278.595 286.621 279.179 285.748 279.914 285.013C280.649 284.278 281.522 283.695 282.483 283.297C283.443 282.899 284.473 282.695 285.513 282.695H421.166C422.205 282.695 423.235 282.899 424.196 283.297C425.156 283.695 426.029 284.278 426.764 285.013C427.5 285.748 428.083 286.621 428.481 287.582C428.878 288.543 429.083 289.572 429.083 290.612V290.612C429.083 292.712 428.249 294.726 426.764 296.21C425.279 297.695 423.265 298.529 421.166 298.529V298.529Z" fill="white"/>
<path d="M197.276 289.975C197.409 290.987 197.221 292.015 196.74 292.915C196.259 293.815 195.508 294.541 194.592 294.993C193.677 295.444 192.643 295.597 191.636 295.431C190.63 295.265 189.7 294.787 188.978 294.066C188.256 293.345 187.779 292.415 187.612 291.408C187.445 290.401 187.598 289.368 188.049 288.452C188.5 287.537 189.226 286.785 190.126 286.303C191.025 285.822 192.053 285.634 193.065 285.766C194.133 285.906 195.124 286.395 195.885 287.156C196.647 287.917 197.136 288.908 197.276 289.975V289.975Z" fill="#214A81"/>
<path d="M212.856 289.975C212.988 290.987 212.801 292.015 212.319 292.915C211.838 293.815 211.087 294.541 210.172 294.993C209.256 295.444 208.223 295.597 207.216 295.431C206.209 295.265 205.279 294.787 204.557 294.066C203.836 293.345 203.358 292.415 203.191 291.408C203.025 290.401 203.177 289.368 203.628 288.452C204.079 287.537 204.805 286.785 205.705 286.303C206.605 285.822 207.633 285.634 208.645 285.766C209.712 285.906 210.703 286.395 211.465 287.156C212.226 287.917 212.715 288.908 212.856 289.975V289.975Z" fill="#7BADC9"/>
<path d="M228.435 289.975C228.568 290.987 228.38 292.015 227.899 292.915C227.417 293.815 226.666 294.541 225.75 294.993C224.835 295.444 223.801 295.597 222.794 295.431C221.787 295.264 220.858 294.787 220.136 294.065C219.414 293.343 218.937 292.414 218.77 291.407C218.604 290.4 218.757 289.366 219.208 288.451C219.66 287.535 220.386 286.784 221.286 286.302C222.186 285.821 223.214 285.633 224.226 285.766C225.293 285.906 226.284 286.395 227.045 287.156C227.806 287.917 228.295 288.908 228.435 289.975V289.975Z" fill="#214A81"/>
<path d="M468.455 307.323H192.958V524.912H468.455V307.323Z" fill="#061E44"/>
<path d="M216.995 327.981C216.654 327.987 216.318 327.904 216.019 327.739L209.764 324.01C209.225 323.689 209.225 323.167 209.764 322.846L216.027 319.113C216.328 318.955 216.662 318.872 217.002 318.872C217.342 318.872 217.677 318.955 217.978 319.113C218.516 319.433 218.516 319.954 217.978 320.276L212.686 323.428L217.966 326.577C218.505 326.898 218.505 327.418 217.966 327.739C217.669 327.903 217.334 327.987 216.995 327.981V327.981Z" fill="#C8D8D8"/>
<path d="M232.75 327.981C232.409 327.987 232.073 327.904 231.775 327.739C231.236 327.418 231.236 326.898 231.775 326.577L237.067 323.428L231.775 320.276C231.236 319.954 231.236 319.433 231.775 319.113C232.075 318.955 232.409 318.872 232.749 318.872C233.088 318.872 233.423 318.955 233.723 319.113L239.987 322.846C240.525 323.167 240.525 323.689 239.987 324.01L233.731 327.739C233.431 327.905 233.092 327.988 232.75 327.981V327.981Z" fill="#C8D8D8"/>
<path d="M222.222 328.62C222.063 328.62 221.904 328.604 221.748 328.571C221.034 328.414 220.667 327.941 220.928 327.516L225.897 319.412C226.159 318.985 226.951 318.767 227.666 318.92C228.38 319.074 228.749 319.55 228.488 319.975L223.519 328.079C223.313 328.414 222.786 328.62 222.222 328.62Z" fill="#C8D8D8"/>
<path d="M245.66 328.917C246.636 328.917 247.427 328.445 247.427 327.864C247.427 327.283 246.636 326.811 245.66 326.811C244.684 326.811 243.893 327.283 243.893 327.864C243.893 328.445 244.684 328.917 245.66 328.917Z" fill="#C8D8D8"/>
<path d="M252.973 328.917C253.949 328.917 254.74 328.445 254.74 327.864C254.74 327.283 253.949 326.811 252.973 326.811C251.997 326.811 251.206 327.283 251.206 327.864C251.206 328.445 251.997 328.917 252.973 328.917Z" fill="#C8D8D8"/>
<path d="M260.285 328.917C261.261 328.917 262.052 328.445 262.052 327.864C262.052 327.283 261.261 326.811 260.285 326.811C259.309 326.811 258.518 327.283 258.518 327.864C258.518 328.445 259.309 328.917 260.285 328.917Z" fill="#C8D8D8"/>
<path d="M402.137 336.276H213.87C213.114 336.276 212.493 335.898 212.493 335.454C212.493 335.01 213.109 334.632 213.87 334.632H402.137C402.893 334.632 403.517 334.999 403.517 335.454C403.517 335.91 402.901 336.276 402.137 336.276Z" fill="#C8D8D8"/>
<path d="M428.065 336.276H413.557C412.801 336.276 412.177 335.898 412.177 335.454C412.177 335.01 412.793 334.632 413.557 334.632H428.065C428.821 334.632 429.442 334.999 429.442 335.454C429.442 335.91 428.826 336.276 428.065 336.276Z" fill="#C8D8D8"/>
<path d="M454.734 336.276H436.212C435.456 336.276 434.833 335.898 434.833 335.454C434.833 335.01 435.451 334.632 436.212 334.632H454.734C455.49 334.632 456.112 334.999 456.112 335.454C456.112 335.91 455.49 336.276 454.734 336.276Z" fill="#C8D8D8"/>
<path d="M331.652 345.114H213.87C213.114 345.114 212.493 344.736 212.493 344.292C212.493 343.848 213.109 343.47 213.87 343.47H331.652C332.408 343.47 333.031 343.848 333.031 344.292C333.031 344.736 332.413 345.114 331.652 345.114Z" fill="#51BACD"/>
<path d="M370.287 345.114H349.176C348.42 345.114 347.796 344.736 347.796 344.292C347.796 343.848 348.414 343.47 349.176 343.47H370.287C371.043 343.47 371.667 343.848 371.667 344.292C371.667 344.736 371.049 345.114 370.287 345.114Z" fill="#51BACD"/>
<path d="M370.287 350.187H312.984C312.228 350.187 311.606 349.818 311.606 349.365C311.606 348.911 312.223 348.542 312.984 348.542H370.297C371.053 348.542 371.676 348.909 371.676 349.365C371.676 349.82 371.049 350.187 370.287 350.187Z" fill="#51BACD"/>
<path d="M305.101 350.187H293.553C292.797 350.187 292.173 349.818 292.173 349.365C292.173 348.911 292.789 348.542 293.553 348.542H305.101C305.857 348.542 306.481 348.909 306.481 349.365C306.481 349.82 305.863 350.187 305.101 350.187Z" fill="#51BACD"/>
<path d="M284.377 350.187H272.829C272.073 350.187 271.449 349.818 271.449 349.365C271.449 348.911 272.066 348.542 272.829 348.542H284.377C285.133 348.542 285.757 348.909 285.757 349.365C285.757 349.82 285.141 350.187 284.377 350.187Z" fill="#51BACD"/>
<path d="M263.655 350.187H252.105C251.349 350.187 250.728 349.818 250.728 349.365C250.728 348.911 251.344 348.542 252.105 348.542H263.655C264.411 348.542 265.035 348.909 265.035 349.365C265.035 349.82 264.411 350.187 263.655 350.187Z" fill="#51BACD"/>
<path d="M242.931 350.187H231.38C230.624 350.187 230.002 349.818 230.002 349.365C230.002 348.911 230.618 348.542 231.38 348.542H242.931C243.687 348.542 244.309 348.909 244.309 349.365C244.309 349.82 243.693 350.187 242.931 350.187Z" fill="#51BACD"/>
<path d="M409.985 356.361H231.38C230.624 356.361 230.002 355.983 230.002 355.539C230.002 355.095 230.618 354.717 231.38 354.717H409.985C410.741 354.717 411.364 355.095 411.364 355.539C411.364 355.983 410.746 356.361 409.985 356.361Z" fill="#FF473D"/>
<path d="M218.038 350.187H213.87C213.114 350.187 212.493 349.818 212.493 349.365C212.493 348.911 213.109 348.542 213.87 348.542H218.038C218.794 348.542 219.418 348.909 219.418 349.365C219.418 349.82 218.801 350.187 218.038 350.187Z" fill="#51BACD"/>
<path d="M218.038 356.361H213.87C213.114 356.361 212.493 355.983 212.493 355.539C212.493 355.095 213.109 354.717 213.87 354.717H218.038C218.794 354.717 219.418 355.095 219.418 355.539C219.418 355.983 218.801 356.361 218.038 356.361Z" fill="#51BACD"/>
<path d="M218.038 362.536H213.87C213.114 362.536 212.493 362.158 212.493 361.714C212.493 361.27 213.109 360.892 213.87 360.892H218.038C218.794 360.892 219.418 361.27 219.418 361.714C219.418 362.158 218.801 362.536 218.038 362.536Z" fill="#51BACD"/>
<path d="M218.038 368.711H213.87C213.114 368.711 212.493 368.342 212.493 367.888C212.493 367.435 213.109 367.066 213.87 367.066H218.038C218.794 367.066 219.418 367.435 219.418 367.888C219.418 368.342 218.801 368.711 218.038 368.711Z" fill="#51BACD"/>
<path d="M445.473 356.361H420.808C420.052 356.361 419.431 355.983 419.431 355.539C419.431 355.095 420.047 354.717 420.808 354.717H445.473C446.229 354.717 446.851 355.095 446.851 355.539C446.851 355.983 446.229 356.361 445.473 356.361Z" fill="#FF473D"/>
<path d="M280.372 362.536H230.958C230.202 362.536 229.58 362.158 229.58 361.714C229.58 361.27 230.196 360.892 230.958 360.892H280.378C281.134 360.892 281.755 361.27 281.755 361.714C281.755 362.158 281.134 362.536 280.372 362.536Z" fill="#FF473D"/>
<path d="M280.372 368.862H230.958C230.202 368.862 229.58 368.484 229.58 368.04C229.58 367.596 230.196 367.218 230.958 367.218H280.378C281.134 367.218 281.755 367.596 281.755 368.04C281.755 368.484 281.134 368.862 280.372 368.862Z" fill="#FF473D"/>
<path d="M280.372 375.188H230.958C230.202 375.188 229.58 374.819 229.58 374.366C229.58 373.912 230.196 373.543 230.958 373.543H280.378C281.134 373.543 281.755 373.912 281.755 374.366C281.755 374.819 281.134 375.188 280.372 375.188Z" fill="#FF473D"/>
<path d="M280.372 381.514H230.958C230.202 381.514 229.58 381.147 229.58 380.691C229.58 380.236 230.196 379.869 230.958 379.869H280.378C281.134 379.869 281.755 380.238 281.755 380.691C281.755 381.145 281.134 381.514 280.372 381.514Z" fill="#FF473D"/>
<path d="M413.557 381.514H312.984C312.228 381.514 311.606 381.147 311.606 380.691C311.606 380.236 312.223 379.869 312.984 379.869H413.566C414.322 379.869 414.944 380.238 414.944 380.691C414.944 381.145 414.319 381.514 413.557 381.514Z" fill="#FEC435"/>
<path d="M413.557 375.188H372.604C371.848 375.188 371.226 374.819 371.226 374.366C371.226 373.912 371.842 373.543 372.604 373.543H413.557C414.313 373.543 414.934 373.912 414.934 374.366C414.934 374.819 414.318 375.188 413.557 375.188Z" fill="#FEC435"/>
<path d="M413.557 368.711H397.303C396.547 368.711 395.923 368.342 395.923 367.888C395.923 367.435 396.539 367.066 397.303 367.066H413.557C414.313 367.066 414.935 367.435 414.935 367.888C414.935 368.342 414.318 368.711 413.557 368.711Z" fill="#FEC435"/>
<path d="M403.559 393.035H215.29C214.534 393.035 213.912 392.657 213.912 392.213C213.912 391.769 214.528 391.391 215.29 391.391H403.559C404.315 391.391 404.937 391.769 404.937 392.213C404.937 392.657 404.32 393.035 403.559 393.035Z" fill="#C8D8D8"/>
<path d="M429.484 393.035H414.976C414.22 393.035 413.596 392.657 413.596 392.213C413.596 391.769 414.214 391.391 414.976 391.391H429.484C430.24 391.391 430.861 391.769 430.861 392.213C430.861 392.657 430.245 393.035 429.484 393.035Z" fill="#C8D8D8"/>
<path d="M456.15 393.035H437.628C436.872 393.035 436.25 392.657 436.25 392.213C436.25 391.769 436.866 391.391 437.628 391.391H456.15C456.906 391.391 457.53 391.769 457.53 392.213C457.53 392.657 456.911 393.035 456.15 393.035Z" fill="#C8D8D8"/>
<path d="M333.071 401.867H215.29C214.534 401.867 213.912 401.489 213.912 401.045C213.912 400.601 214.528 400.223 215.29 400.223H333.071C333.827 400.223 334.451 400.601 334.451 401.045C334.451 401.489 333.835 401.867 333.071 401.867Z" fill="#51BACD"/>
<path d="M371.706 401.867H350.595C349.839 401.867 349.217 401.489 349.217 401.045C349.217 400.601 349.833 400.223 350.595 400.223H371.706C372.462 400.223 373.086 400.601 373.086 401.045C373.086 401.489 372.47 401.867 371.706 401.867Z" fill="#51BACD"/>
<path d="M371.706 406.945H314.394C313.638 406.945 313.016 406.567 313.016 406.123C313.016 405.679 313.632 405.301 314.394 405.301H371.706C372.462 405.301 373.086 405.679 373.086 406.123C373.086 406.567 372.47 406.945 371.706 406.945Z" fill="#51BACD"/>
<path d="M306.52 406.945H294.972C294.216 406.945 293.593 406.567 293.593 406.123C293.593 405.679 294.211 405.301 294.972 405.301H306.52C307.276 405.301 307.9 405.679 307.9 406.123C307.9 406.567 307.284 406.945 306.52 406.945Z" fill="#51BACD"/>
<path d="M285.798 406.945H274.249C273.493 406.945 272.869 406.567 272.869 406.123C272.869 405.679 273.487 405.301 274.249 405.301H285.798C286.554 405.301 287.176 405.679 287.176 406.123C287.176 406.567 286.56 406.945 285.798 406.945Z" fill="#51BACD"/>
<path d="M265.074 406.945H253.523C252.767 406.945 252.145 406.567 252.145 406.123C252.145 405.679 252.761 405.301 253.523 405.301H265.074C265.83 405.301 266.452 405.679 266.452 406.123C266.452 406.567 265.836 406.945 265.074 406.945Z" fill="#51BACD"/>
<path d="M244.35 406.945H232.801C232.045 406.945 231.421 406.567 231.421 406.123C231.421 405.679 232.037 405.301 232.801 405.301H244.35C245.106 405.301 245.728 405.679 245.728 406.123C245.728 406.567 245.112 406.945 244.35 406.945Z" fill="#51BACD"/>
<path d="M411.404 413.12H232.799C232.043 413.12 231.419 412.742 231.419 412.298C231.419 411.854 232.035 411.476 232.799 411.476H411.404C412.16 411.476 412.784 411.854 412.784 412.298C412.784 412.742 412.167 413.12 411.404 413.12Z" fill="#FF473D"/>
<path d="M219.46 406.945H215.29C214.534 406.945 213.912 406.567 213.912 406.123C213.912 405.679 214.528 405.301 215.29 405.301H219.46C220.216 405.301 220.837 405.679 220.837 406.123C220.837 406.567 220.221 406.945 219.46 406.945Z" fill="#51BACD"/>
<path d="M219.46 413.12H215.29C214.534 413.12 213.912 412.742 213.912 412.298C213.912 411.854 214.528 411.476 215.29 411.476H219.46C220.216 411.476 220.837 411.854 220.837 412.298C220.837 412.742 220.221 413.12 219.46 413.12Z" fill="#51BACD"/>
<path d="M219.46 419.295H215.29C214.534 419.295 213.912 418.926 213.912 418.472C213.912 418.019 214.528 417.65 215.29 417.65H219.46C220.216 417.65 220.837 418.019 220.837 418.472C220.837 418.926 220.221 419.295 219.46 419.295Z" fill="#51BACD"/>
<path d="M219.46 425.469H215.29C214.534 425.469 213.912 425.101 213.912 424.647C213.912 424.194 214.528 423.825 215.29 423.825H219.46C220.216 423.825 220.837 424.194 220.837 424.647C220.837 425.101 220.221 425.469 219.46 425.469Z" fill="#51BACD"/>
<path d="M446.89 413.12H422.226C421.47 413.12 420.846 412.742 420.846 412.298C420.846 411.854 421.462 411.476 422.226 411.476H446.89C447.646 411.476 448.268 411.854 448.268 412.298C448.268 412.742 447.652 413.12 446.89 413.12Z" fill="#FF473D"/>
<path d="M281.799 419.295H232.373C231.617 419.295 230.994 418.926 230.994 418.472C230.994 418.019 231.61 417.65 232.373 417.65H281.799C282.555 417.65 283.177 418.019 283.177 418.472C283.177 418.926 282.555 419.295 281.799 419.295Z" fill="#FF473D"/>
<path d="M281.799 425.628H232.373C231.617 425.628 230.994 425.261 230.994 424.806C230.994 424.35 231.61 423.984 232.373 423.984H281.799C282.555 423.984 283.177 424.352 283.177 424.806C283.177 425.259 282.555 425.628 281.799 425.628Z" fill="#FF473D"/>
<path d="M281.799 431.948H232.373C231.617 431.948 230.994 431.57 230.994 431.126C230.994 430.682 231.61 430.304 232.373 430.304H281.799C282.555 430.304 283.177 430.671 283.177 431.126C283.177 431.582 282.555 431.948 281.799 431.948Z" fill="#FF473D"/>
<path d="M281.799 438.274H232.373C231.617 438.274 230.994 437.905 230.994 437.452C230.994 436.998 231.61 436.63 232.373 436.63H281.799C282.555 436.63 283.177 436.996 283.177 437.452C283.177 437.907 282.555 438.274 281.799 438.274Z" fill="#FF473D"/>
<path d="M414.976 438.274H314.394C313.638 438.274 313.016 437.905 313.016 437.452C313.016 436.998 313.632 436.63 314.394 436.63H414.976C415.732 436.63 416.356 436.996 416.356 437.452C416.356 437.907 415.738 438.274 414.976 438.274Z" fill="#FEC435"/>
<path d="M414.976 431.948H374.031C373.275 431.948 372.653 431.57 372.653 431.126C372.653 430.682 373.269 430.304 374.031 430.304H414.983C415.739 430.304 416.363 430.671 416.363 431.126C416.363 431.582 415.737 431.948 414.976 431.948Z" fill="#FEC435"/>
<path d="M414.976 425.469H398.722C397.966 425.469 397.342 425.101 397.342 424.647C397.342 424.194 397.96 423.825 398.722 423.825H414.976C415.732 423.825 416.356 424.194 416.356 424.647C416.356 425.101 415.738 425.469 414.976 425.469Z" fill="#FEC435"/>
<path d="M563.675 695.614L557.121 715.172L574.212 721.233L581.13 692.804L563.675 695.614Z" fill="#FFCECA"/>
<path d="M460.916 519.535H775.713C778.064 519.535 779.971 522.972 779.971 527.214V532.256C779.971 536.497 778.064 539.935 775.713 539.935H460.916C458.565 539.935 456.658 536.497 456.658 532.256V527.214C456.658 522.972 458.565 519.535 460.916 519.535Z" fill="#FEC435"/>
<g style="mix-blend-mode:multiply" opacity="0.5">
<path d="M460.916 535.48H775.713C778.064 535.48 779.971 532.043 779.971 527.801V532.256C779.971 536.497 778.064 539.935 775.713 539.935H460.916C458.565 539.935 456.658 536.497 456.658 532.256V527.801C456.658 532.035 458.565 535.48 460.916 535.48Z" fill="#C41700"/>
</g>
<path d="M505.77 550.839L498.163 728.429H494.798V539.935H506.239L505.77 550.839Z" fill="#061E44"/>
<path d="M746.977 539.935V728.429H743.658L735.692 539.935H746.977Z" fill="#061E44"/>
<path d="M708.61 519.535H657.818L661.63 515.594C662.147 515.062 662.833 514.728 663.57 514.649L683.214 512.526L668.157 483.305L671.895 460.897H690.135L698.499 512.545L705.492 514.318C706.03 514.456 706.524 514.732 706.922 515.12C707.32 515.508 707.609 515.994 707.76 516.529L708.61 519.535Z" fill="#4F443A"/>
<path d="M686.584 483.152L692.279 512.373L683.214 512.523L668.157 483.301L686.584 483.152Z" fill="#716558"/>
<path d="M625.265 489.744H718.508C721.407 489.744 723.965 487.414 724.22 484.537L730.489 413.851C730.744 410.977 728.599 408.646 725.701 408.646H632.458C629.559 408.646 627.002 410.977 626.747 413.851L620.478 484.537C620.222 487.414 622.366 489.744 625.265 489.744Z" fill="#716558"/>
<path d="M621.666 489.744H714.911C717.811 489.744 720.366 487.414 720.621 484.537L726.89 413.851C727.145 410.977 725 408.646 722.103 408.646H628.86C625.96 408.646 623.403 410.977 623.148 413.851L616.879 484.537C616.624 487.414 618.769 489.744 621.666 489.744Z" fill="#4F443A"/>
<path d="M717.841 486.083H619.336L625.928 412.309H724.435L717.841 486.083Z" fill="#000816"/>
<path d="M691.997 423.572H638.474C638.257 423.572 638.081 423.203 638.081 422.75C638.081 422.296 638.257 421.927 638.474 421.927H691.997C692.212 421.927 692.388 422.296 692.388 422.75C692.388 423.203 692.212 423.572 691.997 423.572Z" fill="#C8D8D8"/>
<path d="M699.366 423.572H695.242C695.024 423.572 694.851 423.203 694.851 422.75C694.851 422.296 695.024 421.927 695.242 421.927H699.366C699.583 421.927 699.759 422.296 699.759 422.75C699.759 423.203 699.583 423.572 699.366 423.572Z" fill="#C8D8D8"/>
<path d="M706.947 423.572H701.683C701.466 423.572 701.292 423.203 701.292 422.75C701.292 422.296 701.466 421.927 701.683 421.927H706.947C707.164 421.927 707.34 422.296 707.34 422.75C707.34 423.203 707.164 423.572 706.947 423.572Z" fill="#C8D8D8"/>
<path d="M671.957 432.404H638.474C638.257 432.404 638.081 432.035 638.081 431.581C638.081 431.128 638.257 430.759 638.474 430.759H671.957C672.175 430.759 672.35 431.128 672.35 431.581C672.35 432.035 672.175 432.404 671.957 432.404Z" fill="#51BACD"/>
<path d="M682.942 432.404H676.94C676.722 432.404 676.548 432.035 676.548 431.581C676.548 431.128 676.722 430.759 676.94 430.759H682.942C683.158 430.759 683.333 431.128 683.333 431.581C683.333 432.035 683.158 432.404 682.942 432.404Z" fill="#51BACD"/>
<path d="M682.942 437.482H666.649C666.431 437.482 666.255 437.114 666.255 436.66C666.255 436.206 666.431 435.838 666.649 435.838H682.942C683.158 435.838 683.333 436.206 683.333 436.66C683.333 437.114 683.158 437.482 682.942 437.482Z" fill="#51BACD"/>
<path d="M664.408 437.482H661.122C660.906 437.482 660.731 437.114 660.731 436.66C660.731 436.206 660.906 435.838 661.122 435.838H664.405C664.622 435.838 664.798 436.206 664.798 436.66C664.798 437.114 664.626 437.482 664.408 437.482Z" fill="#51BACD"/>
<path d="M658.517 437.482H655.235C655.017 437.482 654.843 437.114 654.843 436.66C654.843 436.206 655.017 435.838 655.235 435.838H658.517C658.735 435.838 658.911 436.206 658.911 436.66C658.911 437.114 658.735 437.482 658.517 437.482Z" fill="#51BACD"/>
<path d="M652.626 437.482H649.343C649.126 437.482 648.95 437.114 648.95 436.66C648.95 436.206 649.126 435.838 649.343 435.838H652.626C652.844 435.838 653.018 436.206 653.018 436.66C653.018 437.114 652.844 437.482 652.626 437.482Z" fill="#51BACD"/>
<path d="M646.735 437.482H643.45C643.235 437.482 643.059 437.114 643.059 436.66C643.059 436.206 643.235 435.838 643.45 435.838H646.735C646.951 435.838 647.126 436.206 647.126 436.66C647.126 437.114 646.947 437.482 646.735 437.482Z" fill="#51BACD"/>
<path d="M694.227 443.657H643.45C643.235 443.657 643.059 443.288 643.059 442.835C643.059 442.381 643.235 442.012 643.45 442.012H694.227C694.444 442.012 694.618 442.381 694.618 442.835C694.618 443.288 694.444 443.657 694.227 443.657Z" fill="#FF473D"/>
<path d="M639.659 437.482H638.474C638.257 437.482 638.081 437.114 638.081 436.66C638.081 436.206 638.257 435.838 638.474 435.838H639.659C639.874 435.838 640.05 436.206 640.05 436.66C640.05 437.114 639.874 437.482 639.659 437.482Z" fill="#51BACD"/>
<path d="M639.659 443.657H638.474C638.257 443.657 638.081 443.288 638.081 442.835C638.081 442.381 638.257 442.012 638.474 442.012H639.659C639.874 442.012 640.05 442.381 640.05 442.835C640.05 443.288 639.874 443.657 639.659 443.657Z" fill="#51BACD"/>
<path d="M639.659 449.831H638.474C638.257 449.831 638.081 449.463 638.081 449.009C638.081 448.556 638.257 448.187 638.474 448.187H639.659C639.874 448.187 640.05 448.556 640.05 449.009C640.05 449.463 639.874 449.831 639.659 449.831Z" fill="#51BACD"/>
<path d="M639.659 456.006H638.474C638.257 456.006 638.081 455.637 638.081 455.184C638.081 454.73 638.257 454.362 638.474 454.362H639.659C639.874 454.362 640.05 454.73 640.05 455.184C640.05 455.637 639.874 456.006 639.659 456.006Z" fill="#51BACD"/>
<path d="M704.316 443.657H697.304C697.087 443.657 696.913 443.288 696.913 442.835C696.913 442.381 697.087 442.012 697.304 442.012H704.316C704.532 442.012 704.708 442.381 704.708 442.835C704.708 443.288 704.532 443.657 704.316 443.657Z" fill="#FF473D"/>
<path d="M657.38 449.831H643.329C643.114 449.831 642.938 449.463 642.938 449.009C642.938 448.556 643.114 448.187 643.329 448.187H657.38C657.595 448.187 657.771 448.556 657.771 449.009C657.771 449.463 657.595 449.831 657.38 449.831Z" fill="#FF473D"/>
<path d="M657.38 456.157H643.329C643.114 456.157 642.938 455.791 642.938 455.335C642.938 454.88 643.114 454.513 643.329 454.513H657.38C657.595 454.513 657.771 454.891 657.771 455.335C657.771 455.779 657.595 456.157 657.38 456.157Z" fill="#FF473D"/>
<path d="M657.38 462.483H643.329C643.114 462.483 642.938 462.116 642.938 461.661C642.938 461.205 643.114 460.839 643.329 460.839H657.38C657.595 460.839 657.771 461.207 657.771 461.661C657.771 462.114 657.595 462.483 657.38 462.483Z" fill="#FF473D"/>
<path d="M657.38 468.809H643.329C643.114 468.809 642.938 468.442 642.938 467.989C642.938 467.535 643.114 467.166 643.329 467.166H657.38C657.595 467.166 657.771 467.533 657.771 467.989C657.771 468.444 657.595 468.809 657.38 468.809Z" fill="#FF473D"/>
<path d="M695.242 468.809H666.649C666.431 468.809 666.255 468.442 666.255 467.989C666.255 467.535 666.431 467.166 666.649 467.166H695.242C695.46 467.166 695.634 467.533 695.634 467.989C695.634 468.444 695.46 468.809 695.242 468.809Z" fill="#FEC435"/>
<path d="M695.242 462.483H683.6C683.384 462.483 683.208 462.116 683.208 461.661C683.208 461.205 683.384 460.839 683.6 460.839H695.242C695.459 460.839 695.633 461.207 695.633 461.661C695.633 462.114 695.459 462.483 695.242 462.483Z" fill="#FEC435"/>
<path d="M695.242 456.006H690.621C690.404 456.006 690.228 455.637 690.228 455.184C690.228 454.73 690.404 454.362 690.621 454.362H695.242C695.46 454.362 695.633 454.73 695.633 455.184C695.633 455.637 695.46 456.006 695.242 456.006Z" fill="#FEC435"/>
<path d="M502.349 519.535H553.141L549.328 515.592C548.813 515.06 548.128 514.726 547.391 514.647L527.745 512.525L542.808 483.301L539.079 460.897H520.839L512.473 512.545L505.48 514.318C504.942 514.455 504.448 514.732 504.05 515.12C503.652 515.508 503.363 515.994 503.212 516.529L502.349 519.535Z" fill="#4F443A"/>
<path d="M524.375 483.152L518.68 512.373L527.745 512.523L542.804 483.301L524.375 483.152Z" fill="#716558"/>
<path d="M585.694 489.744H492.451C489.551 489.744 486.994 487.414 486.739 484.537L480.47 413.851C480.217 410.977 482.36 408.646 485.259 408.646H578.502C581.402 408.646 583.957 410.977 584.212 413.851L590.481 484.537C590.736 487.414 588.593 489.744 585.694 489.744Z" fill="#716558"/>
<path d="M589.302 489.744H496.049C493.15 489.744 490.593 487.414 490.338 484.537L484.069 413.851C483.814 410.977 485.959 408.646 488.856 408.646H582.101C584.998 408.646 587.556 410.977 587.811 413.851L594.08 484.537C594.335 487.414 592.192 489.744 589.302 489.744Z" fill="#4F443A"/>
<path d="M493.118 486.083H591.623L585.031 412.309H486.526L493.118 486.083Z" fill="#061E44"/>
<path d="M560.117 424.305H506.594C506.376 424.305 506.202 423.936 506.202 423.483C506.202 423.029 506.376 422.661 506.594 422.661H560.117C560.334 422.661 560.508 423.027 560.508 423.483C560.508 423.938 560.334 424.305 560.117 424.305Z" fill="#C8D8D8"/>
<path d="M567.488 424.305H563.362C563.146 424.305 562.97 423.936 562.97 423.483C562.97 423.029 563.146 422.661 563.362 422.661H567.488C567.703 422.661 567.879 423.027 567.879 423.483C567.879 423.938 567.703 424.305 567.488 424.305Z" fill="#C8D8D8"/>
<path d="M575.069 424.305H569.803C569.588 424.305 569.412 423.936 569.412 423.483C569.412 423.029 569.588 422.661 569.803 422.661H575.069C575.284 422.661 575.46 423.027 575.46 423.483C575.46 423.938 575.284 424.305 575.069 424.305Z" fill="#C8D8D8"/>
<path d="M540.077 433.137H506.594C506.376 433.137 506.202 432.768 506.202 432.315C506.202 431.861 506.376 431.493 506.594 431.493H540.077C540.294 431.493 540.47 431.859 540.47 432.315C540.47 432.77 540.294 433.137 540.077 433.137Z" fill="#51BACD"/>
<path d="M551.062 433.137H545.059C544.844 433.137 544.668 432.768 544.668 432.315C544.668 431.861 544.844 431.493 545.059 431.493H551.062C551.279 431.493 551.453 431.859 551.453 432.315C551.453 432.77 551.279 433.137 551.062 433.137Z" fill="#51BACD"/>
<path d="M551.061 438.215H534.768C534.55 438.215 534.376 437.847 534.376 437.393C534.376 436.94 534.55 436.571 534.768 436.571H551.061C551.279 436.571 551.453 436.938 551.453 437.393C551.453 437.849 551.279 438.215 551.061 438.215Z" fill="#51BACD"/>
<path d="M532.53 438.215H529.247C529.03 438.215 528.854 437.847 528.854 437.393C528.854 436.94 529.03 436.571 529.247 436.571H532.53C532.746 436.571 532.921 436.938 532.921 437.393C532.921 437.849 532.746 438.215 532.53 438.215Z" fill="#51BACD"/>
<path d="M526.637 438.215H523.354C523.139 438.215 522.963 437.847 522.963 437.393C522.963 436.94 523.139 436.571 523.354 436.571H526.637C526.855 436.571 527.03 436.938 527.03 437.393C527.03 437.849 526.855 438.215 526.637 438.215Z" fill="#51BACD"/>
<path d="M520.746 438.215H517.463C517.246 438.215 517.07 437.847 517.07 437.393C517.07 436.94 517.246 436.571 517.463 436.571H520.746C520.963 436.571 521.139 436.938 521.139 437.393C521.139 437.849 520.963 438.215 520.746 438.215Z" fill="#51BACD"/>
<path d="M514.855 438.215H511.572C511.355 438.215 511.179 437.847 511.179 437.393C511.179 436.94 511.355 436.571 511.572 436.571H514.855C515.073 436.571 515.246 436.938 515.246 437.393C515.246 437.849 515.073 438.215 514.855 438.215Z" fill="#51BACD"/>
<path d="M562.347 444.39H511.572C511.355 444.39 511.179 444.021 511.179 443.568C511.179 443.114 511.355 442.746 511.572 442.746H562.347C562.565 442.746 562.74 443.114 562.74 443.568C562.74 444.021 562.565 444.39 562.347 444.39Z" fill="#FF473D"/>
<path d="M507.779 438.215H506.594C506.376 438.215 506.202 437.847 506.202 437.393C506.202 436.94 506.376 436.571 506.594 436.571H507.779C507.996 436.571 508.17 436.938 508.17 437.393C508.17 437.849 507.996 438.215 507.779 438.215Z" fill="#51BACD"/>
<path d="M507.779 444.39H506.594C506.376 444.39 506.202 444.021 506.202 443.568C506.202 443.114 506.376 442.746 506.594 442.746H507.779C507.996 442.746 508.17 443.114 508.17 443.568C508.17 444.021 507.996 444.39 507.779 444.39Z" fill="#51BACD"/>
<path d="M507.779 450.565H506.594C506.376 450.565 506.202 450.187 506.202 449.743C506.202 449.298 506.376 448.92 506.594 448.92H507.779C507.996 448.92 508.17 449.298 508.17 449.743C508.17 450.187 507.996 450.565 507.779 450.565Z" fill="#51BACD"/>
<path d="M507.779 456.739H506.594C506.376 456.739 506.202 456.361 506.202 455.917C506.202 455.473 506.376 455.095 506.594 455.095H507.779C507.996 455.095 508.17 455.473 508.17 455.917C508.17 456.361 507.996 456.739 507.779 456.739Z" fill="#51BACD"/>
<path d="M572.436 444.39H565.424C565.208 444.39 565.032 444.021 565.032 443.568C565.032 443.114 565.208 442.746 565.424 442.746H572.436C572.653 442.746 572.827 443.114 572.827 443.568C572.827 444.021 572.653 444.39 572.436 444.39Z" fill="#FF473D"/>
<path d="M525.499 450.565H511.449C511.233 450.565 511.058 450.187 511.058 449.743C511.058 449.298 511.233 448.92 511.449 448.92H525.499C525.717 448.92 525.89 449.298 525.89 449.743C525.89 450.187 525.717 450.565 525.499 450.565Z" fill="#FF473D"/>
<path d="M525.499 456.89H511.449C511.233 456.89 511.058 456.522 511.058 456.068C511.058 455.615 511.233 455.246 511.449 455.246H525.499C525.717 455.246 525.89 455.615 525.89 456.068C525.89 456.522 525.717 456.89 525.499 456.89Z" fill="#FF473D"/>
<path d="M525.499 463.216H511.449C511.233 463.216 511.058 462.838 511.058 462.394C511.058 461.95 511.233 461.572 511.449 461.572H525.499C525.717 461.572 525.89 461.95 525.89 462.394C525.89 462.838 525.717 463.216 525.499 463.216Z" fill="#FF473D"/>
<path d="M525.499 469.542H511.449C511.233 469.542 511.058 469.175 511.058 468.72C511.058 468.265 511.233 467.898 511.449 467.898H525.499C525.717 467.898 525.89 468.266 525.89 468.72C525.89 469.174 525.717 469.542 525.499 469.542Z" fill="#FF473D"/>
<path d="M563.362 469.542H534.768C534.55 469.542 534.376 469.175 534.376 468.72C534.376 468.265 534.55 467.898 534.768 467.898H563.362C563.579 467.898 563.755 468.266 563.755 468.72C563.755 469.174 563.579 469.542 563.362 469.542Z" fill="#FEC435"/>
<path d="M563.362 463.216H551.72C551.504 463.216 551.328 462.838 551.328 462.394C551.328 461.95 551.504 461.572 551.72 461.572H563.362C563.579 461.572 563.755 461.95 563.755 462.394C563.755 462.838 563.579 463.216 563.362 463.216Z" fill="#FEC435"/>
<path d="M563.362 456.739H558.741C558.523 456.739 558.348 456.361 558.348 455.917C558.348 455.473 558.523 455.095 558.741 455.095H563.362C563.579 455.095 563.755 455.473 563.755 455.917C563.755 456.361 563.579 456.739 563.362 456.739Z" fill="#FEC435"/>
<path d="M696.737 437.098C696.737 437.098 691.088 443.685 690.914 457.733C690.795 467.159 690.536 477.14 707.276 478.546C707.276 478.546 710.787 478.779 709.969 485.337C709.151 491.895 705.286 495.874 705.87 498.801C706.454 501.729 722.502 496.926 722.502 496.926C722.502 496.926 723.205 476.671 726.365 473.043C729.525 469.414 740.54 463.324 738.65 455.246C736.76 447.168 716.675 432.799 709.506 430.894C702.006 428.903 696.737 437.098 696.737 437.098Z" fill="#FFE7E5"/>
<path d="M696.115 441.525C696.115 441.525 700.912 432.831 710.241 437.482C719.57 442.133 732.59 448.268 727.83 458.083L735.79 444.577C735.79 444.577 707.427 415.883 696.115 441.525Z" fill="#F7B7B7"/>
<path d="M754.645 745.25H639.082C636.121 745.247 633.282 744.069 631.187 741.975C629.093 739.881 627.916 737.041 627.913 734.08V650.961C627.916 648 629.093 645.16 631.187 643.066C633.281 640.971 636.121 639.793 639.082 639.79H678.321C679.623 639.795 680.892 639.379 681.937 638.602C682.982 637.825 683.747 636.731 684.117 635.482L719.863 516.934C721.297 512.099 724.26 507.859 728.308 504.851C732.356 501.843 737.271 500.23 742.314 500.253H780.039C781.782 500.253 783.501 500.66 785.058 501.443C786.615 502.226 787.967 503.362 789.007 504.761C790.046 506.16 790.744 507.783 791.044 509.5C791.344 511.217 791.238 512.98 790.734 514.649L753.866 636.956C753.182 639.26 751.77 641.28 749.841 642.714C747.912 644.147 745.57 644.916 743.167 644.906H703.925C702.322 644.91 700.786 645.549 699.653 646.682C698.52 647.815 697.881 649.351 697.877 650.954V734.076C697.881 735.679 698.519 737.215 699.653 738.348C700.786 739.482 702.322 740.12 703.925 740.124H754.645V745.25ZM639.082 644.906C637.48 644.909 635.943 645.548 634.81 646.681C633.676 647.815 633.038 649.351 633.034 650.954V734.076C633.037 735.679 633.676 737.216 634.809 738.349C635.943 739.483 637.479 740.121 639.082 740.124H694.539C693.372 738.323 692.751 736.222 692.751 734.076V650.961C692.755 647.999 693.933 645.159 696.028 643.065C698.122 640.971 700.963 639.793 703.925 639.79H743.167C744.469 639.795 745.739 639.379 746.785 638.602C747.83 637.826 748.596 636.731 748.967 635.482L785.837 513.171C786.11 512.266 786.167 511.311 786.004 510.38C785.841 509.45 785.463 508.57 784.899 507.812C784.336 507.054 783.603 506.438 782.759 506.013C781.915 505.589 780.984 505.367 780.039 505.367H742.314C738.372 505.35 734.529 506.611 731.364 508.963C728.199 511.314 725.882 514.628 724.76 518.408L689.024 636.956C688.339 639.258 686.927 641.276 684.999 642.707C683.07 644.138 680.73 644.906 678.328 644.894L639.082 644.906Z" fill="#061E44"/>
<path d="M710.617 583.384H760.751C762.727 583.386 764.651 582.749 766.237 581.569C767.822 580.389 768.984 578.729 769.549 576.836L786.397 521.007C786.658 520.134 786.711 519.212 786.554 518.315C786.396 517.417 786.031 516.569 785.488 515.837C784.946 515.106 784.239 514.511 783.426 514.1C782.613 513.689 781.715 513.473 780.804 513.47H730.636C728.661 513.473 726.74 514.111 725.155 515.29C723.571 516.469 722.407 518.126 721.836 520.017L705.015 575.847C704.754 576.721 704.7 577.643 704.859 578.542C705.017 579.44 705.382 580.288 705.926 581.02C706.47 581.752 707.178 582.347 707.992 582.758C708.806 583.168 709.705 583.383 710.617 583.384V583.384Z" fill="#11393D"/>
<path d="M710.611 583.384H753.921C755.897 583.386 757.821 582.75 759.407 581.57C760.993 580.39 762.155 578.729 762.721 576.836L779.568 521.007C779.829 520.134 779.883 519.212 779.725 518.315C779.568 517.417 779.203 516.569 778.66 515.837C778.117 515.106 777.411 514.511 776.598 514.1C775.785 513.689 774.887 513.473 773.976 513.47H730.674C728.695 513.472 726.769 514.11 725.178 515.288C723.588 516.466 722.418 518.124 721.84 520.017L705.019 575.847C704.755 576.72 704.7 577.643 704.856 578.541C705.013 579.439 705.378 580.289 705.921 581.021C706.464 581.754 707.172 582.349 707.986 582.759C708.8 583.169 709.7 583.383 710.611 583.384V583.384Z" fill="#51BACD"/>
<path d="M632.876 617.886H738.508C738.677 617.886 738.839 617.953 738.959 618.073C739.078 618.192 739.145 618.354 739.145 618.523V637.497H632.237V618.525C632.237 618.441 632.253 618.358 632.285 618.28C632.317 618.203 632.364 618.132 632.424 618.073C632.483 618.014 632.554 617.966 632.631 617.934C632.709 617.902 632.792 617.886 632.876 617.886Z" fill="#51BACD"/>
<path d="M743.658 630.302H627.726C627.568 630.302 627.44 630.43 627.44 630.587V641.466C627.44 641.624 627.568 641.751 627.726 641.751H743.658C743.816 641.751 743.944 641.624 743.944 641.466V630.587C743.944 630.43 743.816 630.302 743.658 630.302Z" fill="#11393D"/>
<path d="M754.645 745.25H703.925C700.963 745.247 698.123 744.07 696.028 741.975C693.933 739.881 692.754 737.042 692.751 734.08V650.961C692.754 647.999 693.933 645.159 696.028 643.065C698.122 640.97 700.962 639.792 703.925 639.789H743.167C744.469 639.795 745.739 639.379 746.784 638.602C747.83 637.825 748.596 636.731 748.967 635.482L785.837 513.173C786.11 512.268 786.167 511.312 786.004 510.381C785.842 509.451 785.464 508.571 784.9 507.812C784.337 507.054 783.604 506.438 782.759 506.013C781.915 505.588 780.984 505.367 780.039 505.367H742.314C741.636 505.367 740.986 505.098 740.506 504.618C740.027 504.138 739.757 503.488 739.757 502.81C739.757 502.132 740.027 501.481 740.506 501.002C740.986 500.522 741.636 500.253 742.314 500.253H780.039C781.782 500.252 783.5 500.66 785.058 501.443C786.615 502.226 787.967 503.362 789.007 504.761C790.046 506.16 790.744 507.783 791.044 509.5C791.344 511.217 791.238 512.98 790.734 514.649L753.866 636.956C753.182 639.26 751.77 641.28 749.841 642.714C747.912 644.147 745.57 644.916 743.167 644.906H703.925C702.322 644.91 700.786 645.549 699.653 646.682C698.52 647.815 697.881 649.351 697.877 650.954V734.076C697.881 735.679 698.519 737.215 699.652 738.348C700.786 739.481 702.322 740.12 703.925 740.124H754.645C755.323 740.124 755.973 740.393 756.453 740.873C756.932 741.352 757.202 742.003 757.202 742.681C757.202 743.359 756.932 744.01 756.453 744.489C755.973 744.969 755.323 745.238 754.645 745.238V745.25Z" fill="#061E44"/>
<path d="M620.623 707.805L620.903 728.429L639.037 728.499L636.166 699.381L620.623 707.805Z" fill="#FFCECA"/>
<path d="M647.665 519.493H563.075C562.4 519.493 561.754 519.225 561.277 518.748C560.799 518.272 560.531 517.625 560.531 516.951V516.951C560.531 516.617 560.597 516.286 560.724 515.977C560.852 515.669 561.04 515.388 561.276 515.152C561.512 514.916 561.793 514.728 562.101 514.601C562.41 514.473 562.741 514.407 563.075 514.407H647.665C647.999 514.407 648.33 514.473 648.639 514.601C648.948 514.728 649.228 514.916 649.464 515.152C649.7 515.388 649.888 515.669 650.016 515.977C650.143 516.286 650.209 516.617 650.209 516.951V516.951C650.209 517.625 649.941 518.272 649.464 518.748C648.987 519.225 648.34 519.493 647.665 519.493V519.493Z" fill="#51BACD"/>
<path d="M560.53 516.301L550.417 467.161C550.358 466.874 550.364 466.578 550.434 466.293C550.504 466.009 550.636 465.743 550.821 465.517C551.006 465.29 551.239 465.107 551.504 464.981C551.768 464.856 552.058 464.791 552.35 464.791H603.806C604.262 464.791 604.704 464.949 605.057 465.238C605.409 465.528 605.65 465.931 605.739 466.378L615.705 516.297L560.53 516.301Z" fill="#51BACD"/>
<path d="M556.13 468.533L565.558 513.107H612.22L602.793 468.533H556.13Z" fill="white"/>
<path d="M657.508 573.98C657.508 573.98 588.208 586.603 583.932 604.142C576.144 636.1 558.079 698.313 558.079 698.313C558.079 698.313 567.276 707.544 580.712 704.647C580.712 704.647 615.792 634.055 612.22 612.725C612.22 612.725 691.734 612.625 695.926 595.904C700.118 579.183 657.508 573.98 657.508 573.98Z" fill="#061E44"/>
<path d="M678.945 586.656C678.945 586.656 625.346 591.252 612.228 612.719C608.149 619.389 615.713 715.577 615.713 715.577C615.713 715.577 626.556 719.582 639.99 716.684C639.99 716.684 645.282 646.068 641.719 624.738C641.719 624.738 713.178 625.305 717.372 608.584C721.566 591.863 678.945 586.656 678.945 586.656Z" fill="#062051"/>
<path d="M741.931 435.518C741.931 435.518 714.904 411.281 698.567 427.958C698.567 427.958 691.449 436.564 692.279 447.803C692.279 447.803 699.839 433.628 704.465 433.987C714.626 434.785 730.502 444.426 730.51 449.189C730.517 453.952 724.435 464.989 724.435 464.989C724.435 464.989 732.456 451.57 734.205 457.807C735.953 464.044 726.911 471.682 726.911 471.682C726.911 471.682 748.079 466.94 745.622 443.054C745.62 443.069 744.91 437.932 741.931 435.518Z" fill="#FEC435"/>
<path d="M550.95 714.053L550.083 714.998C550.346 715.259 550.599 715.533 550.875 715.783C551.253 716.127 551.451 716.522 551.096 716.958C550.718 717.429 550.243 717.372 549.788 717.024C549.399 716.726 549.011 716.421 548.624 716.119C548.291 716.395 547.96 716.671 547.626 716.945C547.851 717.196 548.057 717.469 548.302 717.701C548.756 718.134 549.094 718.631 548.539 719.143C547.983 719.655 547.484 719.275 547.061 718.839C546.772 718.54 546.477 718.245 546.184 717.949C545.764 718.201 545.345 718.453 544.927 718.705C545.241 719.105 545.571 719.498 545.861 719.918C546.121 720.296 546.121 720.702 545.753 721.018C545.677 721.092 545.587 721.151 545.488 721.189C545.389 721.228 545.283 721.245 545.177 721.242C545.071 721.238 544.966 721.212 544.871 721.167C544.775 721.121 544.689 721.056 544.619 720.976C544.194 720.561 543.814 720.099 543.415 719.653L541.954 720.426C541.982 720.534 542.017 720.639 542.06 720.742C542.385 721.383 543.398 722.065 542.358 722.719C541.398 723.329 541.139 722.195 540.68 721.687C540.266 721.23 539.329 721.264 539.094 721.799C538.905 722.254 539.308 722.555 539.491 722.908C539.756 723.409 539.794 723.879 539.257 724.169C538.72 724.458 538.312 724.223 538.019 723.726C537.811 723.373 537.567 723.038 537.339 722.696L536.016 723.218C535.915 723.641 536.273 723.893 536.428 724.22C536.666 724.726 536.694 725.191 536.135 725.48C535.63 725.741 535.261 725.48 534.972 725.063C534.719 724.685 534.594 724.231 534.195 723.964L532.846 724.482C532.738 724.942 533.054 725.276 533.224 725.652C533.447 726.151 533.46 726.624 532.91 726.886C532.36 727.149 531.979 726.886 531.714 726.391C531.491 725.968 531.24 725.562 531 725.148C530.542 725.421 530.02 725.569 529.488 725.577C527.951 726.093 526.341 726.408 524.853 727.079C524.416 727.295 523.929 727.386 523.443 727.344C523.173 727.412 522.895 727.474 522.619 727.533L521.077 728.206C521.189 728.206 521.321 728.24 521.395 728.192C521.595 728.058 521.466 727.949 521.311 727.951C520.787 727.954 520.274 728.108 519.833 728.393C519.508 728.576 519.141 728.673 518.767 728.672H518.817C518.628 728.729 518.423 728.786 518.231 728.844L518.159 728.884L518.216 728.909C517.97 729.077 517.677 729.16 517.38 729.145H517.439L516.821 729.444L516.872 729.402L516.802 729.466L515.626 730.122L515.717 730.048C515.679 730.079 515.637 730.103 515.592 730.12C515.46 730.15 515.324 730.167 515.19 730.19L514.328 730.784L514.377 730.772V730.716L513.787 731.213H513.819C512.421 732.316 510.894 733.292 509.992 734.891C515.451 734.891 520.909 734.891 526.369 734.891H567.331C570.872 734.891 574.411 734.895 577.949 734.904C577.975 730.517 578.03 726.13 578 721.744C578 720.831 578.455 719.948 578.223 719.073C577.854 717.692 578.017 716.352 578.232 714.987C578.314 714.475 578.308 713.923 577.9 713.494C577.626 713.209 577.788 712.993 577.93 712.702C578.463 711.598 578.497 710.481 577.851 709.394L577.93 709.421C577.662 709.251 577.393 709.081 577.127 708.916C576.996 708.869 576.86 708.836 576.722 708.818C570.572 708.818 564.422 708.818 558.27 708.818C557.894 708.798 557.518 708.863 557.17 709.007C556.981 709.107 557.271 709.16 557.376 709.196L556.326 708.234C555.995 708.682 555.685 709.147 555.32 709.566C554.676 710.309 554.237 711.267 553.133 711.534L552.623 712.12L552.591 712.137V712.103L552.181 712.719C552.479 712.999 552.769 713.286 553.078 713.554C553.523 713.932 553.793 714.371 553.322 714.877C552.899 715.337 552.449 715.174 552.018 714.834C551.691 714.569 551.313 714.316 550.95 714.053ZM575.067 725.851C574.32 727.041 573.625 728.075 573.01 729.154C572.699 729.701 572.387 729.833 571.738 729.71C567.737 728.954 563.71 728.315 559.72 727.499C557.714 727.053 555.614 727.417 553.874 728.51C552.039 729.616 550.123 730.576 548.221 731.564C547 732.199 545.704 732.454 544.349 732.553C542.555 732.683 540.846 732.127 539.093 731.955C538.999 731.944 538.91 731.906 538.838 731.845C538.766 731.784 538.713 731.704 538.686 731.613C538.187 730.585 538.008 729.534 538.605 728.483C538.911 727.941 539.251 727.771 539.983 727.945C542.279 728.487 544.63 728.816 546.874 727.737C548.332 727.059 549.744 726.286 551.1 725.422C553.77 723.621 557.025 722.902 560.206 723.411C565.11 724.14 569.988 725.004 575.067 725.851Z" fill="#212020"/>
<path d="M577.962 734.906C574.424 734.906 570.884 734.901 567.344 734.892H526.386C520.925 734.892 515.466 734.892 510.009 734.892C509.738 736.151 509.82 737.431 509.897 738.693C509.978 739.901 510.901 740.57 512.326 740.583C516.365 740.614 520.406 740.634 524.446 740.644C541.188 740.659 557.929 740.666 574.669 740.666C575.206 740.682 575.743 740.633 576.268 740.519C577.313 740.256 578.13 739.232 577.969 738.251C577.773 737.113 578.011 736.015 577.962 734.906Z" fill="white"/>
<path d="M537.346 722.696C537.574 723.038 537.818 723.373 538.026 723.726C538.319 724.223 538.742 724.45 539.264 724.169C539.786 723.887 539.763 723.413 539.498 722.908C539.309 722.56 538.903 722.254 539.101 721.799C539.336 721.264 540.273 721.232 540.687 721.687C541.146 722.195 541.405 723.329 542.365 722.719C543.405 722.059 542.392 721.383 542.067 720.742C542.025 720.639 541.989 720.534 541.961 720.426C541.078 719.988 540.521 720.137 540.366 721.198C540.23 722.131 539.542 722.006 538.903 721.802C537.729 721.424 537.555 721.509 537.346 722.696Z" fill="#E7E5EA"/>
<path d="M543.422 719.653C543.821 720.094 544.201 720.555 544.626 720.976C544.696 721.056 544.782 721.121 544.878 721.167C544.974 721.212 545.078 721.238 545.184 721.242C545.291 721.245 545.396 721.228 545.495 721.189C545.594 721.151 545.685 721.092 545.76 721.018C546.138 720.702 546.138 720.296 545.868 719.918C545.579 719.499 545.248 719.105 544.934 718.705C544.082 718.502 543.553 718.778 543.422 719.653Z" fill="#E7E5EA"/>
<path d="M534.21 723.965C534.617 724.231 534.734 724.692 534.987 725.063C535.276 725.486 535.645 725.741 536.15 725.48C536.717 725.191 536.681 724.724 536.443 724.22C536.288 723.893 535.93 723.641 536.031 723.218C534.828 722.606 534.524 722.736 534.21 723.965Z" fill="#E7E5EA"/>
<path d="M531.013 725.148C531.253 725.562 531.504 725.968 531.727 726.391C531.992 726.892 532.385 727.147 532.923 726.886C533.462 726.626 533.46 726.151 533.237 725.652C533.069 725.274 532.753 724.942 532.859 724.482C531.995 724.042 531.336 724.146 531.013 725.148Z" fill="#E7E5EA"/>
<path d="M546.184 717.947C546.477 718.243 546.771 718.538 547.061 718.837C547.484 719.273 547.983 719.653 548.539 719.141C549.094 718.629 548.756 718.132 548.302 717.699C548.057 717.467 547.851 717.194 547.626 716.943C546.694 716.658 546.22 717 546.184 717.947Z" fill="#E7E5EA"/>
<path d="M550.95 714.053C551.313 714.316 551.686 714.569 552.037 714.845C552.468 715.185 552.918 715.348 553.341 714.889C553.812 714.375 553.542 713.944 553.097 713.566C552.787 713.297 552.498 713.01 552.2 712.73C551.173 712.619 550.746 713.057 550.95 714.053Z" fill="#E7E5EA"/>
<path d="M548.624 716.121C549.011 716.423 549.398 716.728 549.788 717.026C550.243 717.374 550.716 717.431 551.096 716.96C551.451 716.524 551.256 716.129 550.874 715.785C550.599 715.535 550.345 715.261 550.083 715C548.879 714.749 548.633 714.936 548.624 716.121Z" fill="#E7E5EA"/>
<path d="M557.393 709.2C557.287 709.158 556.991 709.105 557.187 709.011C557.535 708.867 557.911 708.802 558.287 708.822C564.437 708.814 570.588 708.814 576.739 708.822C576.877 708.84 577.013 708.873 577.144 708.92C577.444 709.251 577.091 709.283 576.913 709.298C576.382 709.374 575.847 709.417 575.31 709.425C569.941 709.435 564.571 709.435 559.2 709.425C558.593 709.432 557.968 709.487 557.393 709.2Z" fill="#E7E5EA"/>
<path d="M553.15 711.538C554.254 711.281 554.693 710.313 555.337 709.57C555.702 709.151 556.012 708.686 556.343 708.238C556.082 707.835 555.853 707.368 555.45 708.147C555.048 708.926 554.674 709.633 553.799 710.054C553.298 710.296 553.268 710.995 553.15 711.538Z" fill="#E7E5EA"/>
<path d="M524.87 727.083C526.357 726.412 527.967 726.096 529.504 725.58C529.863 725.683 529.659 725.839 529.504 725.911C528.045 726.566 526.504 727.018 524.923 727.255C524.898 727.255 524.847 727.217 524.839 727.189C524.832 727.161 524.853 727.115 524.87 727.083Z" fill="#E7E5EA"/>
<path d="M519.85 728.406C520.291 728.121 520.803 727.968 521.328 727.964C521.483 727.964 521.612 728.071 521.411 728.206C521.338 728.253 521.205 728.206 521.094 728.219C520.769 728.559 520.338 728.485 519.935 728.519C519.899 728.52 519.863 728.51 519.831 728.491C519.831 728.491 519.843 728.429 519.85 728.406Z" fill="#E7E5EA"/>
<path d="M522.636 727.538C522.912 727.474 523.19 727.412 523.46 727.349C523.33 727.96 522.827 727.981 522.415 727.826C522.188 727.735 522.447 727.565 522.636 727.538Z" fill="#E7E5EA"/>
<path d="M515.214 730.181C515.348 730.158 515.484 730.141 515.616 730.111C515.661 730.093 515.703 730.069 515.74 730.039L515.65 730.113C515.487 730.224 515.355 730.411 515.119 730.301C514.979 730.237 515.03 730.088 515.119 730.211C515.117 730.22 515.174 730.192 515.214 730.181Z" fill="#E7E5EA"/>
<path d="M516.819 729.457L516.889 729.393C516.889 729.393 516.838 729.432 516.838 729.434L516.775 729.491L516.819 729.457Z" fill="#E7E5EA"/>
<path d="M552.609 712.107V712.142L552.642 712.125L552.654 712.074L552.609 712.107Z" fill="#E7E5EA"/>
<path d="M518.239 728.909L518.181 728.884C518.181 728.884 518.258 728.844 518.254 728.844C518.25 728.844 518.298 728.888 518.298 728.888L518.239 728.909Z" fill="#E7E5EA"/>
<path d="M577.948 709.423L577.868 709.396L577.948 709.423Z" fill="#E7E5EA"/>
<path d="M514.395 730.706V730.764L514.345 730.775L514.395 730.706Z" fill="#E7E5EA"/>
<path d="M518.832 728.673L518.784 728.679L518.799 728.625L518.832 728.673Z" fill="#E7E5EA"/>
<path d="M517.457 729.136L517.397 729.146L517.412 729.079L517.457 729.136Z" fill="#E7E5EA"/>
<path d="M575.067 725.851C569.988 725.01 565.108 724.14 560.206 723.411C557.025 722.902 553.77 723.621 551.1 725.422C549.744 726.286 548.332 727.059 546.874 727.737C544.63 728.816 542.279 728.493 539.983 727.945C539.251 727.771 538.911 727.945 538.605 728.483C538.008 729.538 538.187 730.585 538.686 731.613C538.713 731.704 538.766 731.784 538.838 731.845C538.91 731.906 538.999 731.944 539.093 731.955C540.846 732.127 542.555 732.683 544.349 732.553C545.704 732.454 546.995 732.199 548.221 731.564C550.123 730.576 552.039 729.616 553.874 728.51C555.614 727.417 557.714 727.053 559.72 727.499C563.71 728.315 567.737 728.948 571.739 729.71C572.387 729.833 572.699 729.701 573.011 729.154C573.625 728.075 574.32 727.041 575.067 725.851Z" fill="white"/>
<path d="M613.305 726.516L612.437 727.461C612.7 727.722 612.955 727.996 613.231 728.245C613.609 728.589 613.798 728.984 613.452 729.421C613.074 729.892 612.598 729.837 612.145 729.489C611.753 729.19 611.368 728.886 610.978 728.584L609.982 729.408C610.205 729.659 610.411 729.931 610.657 730.164C611.111 730.597 611.449 731.092 610.893 731.604C610.338 732.116 609.841 731.738 609.415 731.3C609.126 731.001 608.831 730.706 608.538 730.411L607.282 731.167C607.597 731.57 607.926 731.961 608.215 732.381C608.478 732.759 608.478 733.167 608.108 733.481C608.032 733.554 607.943 733.612 607.845 733.649C607.746 733.687 607.641 733.705 607.536 733.701C607.431 733.697 607.328 733.672 607.233 733.627C607.138 733.582 607.053 733.518 606.983 733.439C606.558 733.023 606.178 732.564 605.777 732.116L604.318 732.891C604.345 732.999 604.38 733.104 604.424 733.207C604.749 733.845 605.76 734.53 604.723 735.182C603.761 735.792 603.503 734.658 603.042 734.15C602.628 733.692 601.693 733.726 601.459 734.263C601.26 734.717 601.67 735.019 601.855 735.373C602.12 735.872 602.156 736.342 601.619 736.633C601.082 736.924 600.674 736.686 600.381 736.189C600.173 735.836 599.929 735.503 599.703 735.159L598.38 735.681C598.28 736.104 598.639 736.355 598.792 736.682C599.03 737.189 599.058 737.654 598.499 737.943C597.994 738.204 597.626 737.943 597.336 737.525C597.083 737.147 596.958 736.694 596.56 736.429L595.212 736.945C595.104 737.404 595.42 737.739 595.59 738.117C595.813 738.614 595.824 739.088 595.274 739.351C594.724 739.614 594.343 739.351 594.078 738.854C593.857 738.432 593.604 738.024 593.364 737.61C592.906 737.883 592.385 738.032 591.852 738.041C590.315 738.555 588.707 738.871 587.217 739.544C586.781 739.758 586.294 739.849 585.809 739.807C585.537 739.875 585.261 739.939 584.983 739.996C584.467 740.222 583.951 740.449 583.441 740.67C583.553 740.67 583.687 740.704 583.759 740.655C583.959 740.523 583.83 740.411 583.677 740.413C583.152 740.418 582.639 740.572 582.198 740.857C581.872 741.04 581.505 741.137 581.132 741.137H581.181L580.595 741.309L580.523 741.349L580.58 741.373C580.336 741.542 580.042 741.625 579.746 741.61L579.803 741.6L579.185 741.899L579.236 741.857L579.166 741.923L577.99 742.579C578.023 742.551 578.053 742.528 578.081 742.505C578.044 742.535 578.003 742.559 577.958 742.577C577.824 742.606 577.69 742.625 577.554 742.645L576.692 743.239L576.743 743.227V743.171L576.155 743.67C576.165 743.669 576.175 743.669 576.185 743.67C574.787 744.773 573.262 745.749 572.36 747.348C577.816 747.348 583.274 747.348 588.735 747.348H629.699C633.237 747.348 636.776 747.352 640.317 747.361C640.341 742.974 640.398 738.587 640.366 734.201C640.366 733.288 640.823 732.407 640.589 731.532C640.211 730.15 640.383 728.81 640.589 727.444C640.67 726.932 640.667 726.38 640.256 725.953C639.982 725.665 640.147 725.452 640.287 725.159C640.82 724.057 640.865 722.94 640.207 721.851L640.289 721.88C640.018 721.71 639.75 721.54 639.483 721.375C639.352 721.328 639.217 721.295 639.079 721.275C632.929 721.275 626.778 721.275 620.627 721.275C620.251 721.254 619.876 721.319 619.529 721.464C619.33 721.566 619.627 721.617 619.735 721.653C619.383 721.332 619.03 721.008 618.684 720.689C618.353 721.137 618.043 721.602 617.678 722.023C617.034 722.764 616.594 723.724 615.49 723.991L614.981 724.575L614.947 724.594V724.56L614.537 725.176C614.836 725.454 615.127 725.743 615.435 726.009C615.879 726.397 616.151 726.828 615.679 727.332C615.257 727.792 614.808 727.629 614.375 727.291C614.031 727.038 613.658 726.786 613.305 726.516ZM637.423 738.311C636.667 739.502 635.981 740.538 635.365 741.615C635.053 742.161 634.741 742.294 634.095 742.171C630.092 741.415 626.064 740.778 622.076 739.96C620.07 739.515 617.969 739.879 616.229 740.973C614.394 742.076 612.479 743.037 610.578 744.025C609.355 744.66 608.058 744.915 606.703 745.013C604.91 745.144 603.203 744.59 601.449 744.418C601.355 744.406 601.267 744.368 601.195 744.307C601.122 744.247 601.069 744.166 601.041 744.076C600.542 743.046 600.362 741.997 600.96 740.944C601.266 740.402 601.606 740.234 602.337 740.406C604.634 740.948 606.987 741.277 609.228 740.198C610.686 739.521 612.098 738.748 613.454 737.884C616.124 736.082 619.38 735.363 622.56 735.872C627.454 736.609 632.335 737.478 637.414 738.319L637.423 738.311Z" fill="#212020"/>
<path d="M640.313 747.374C636.774 747.374 633.235 747.37 629.695 747.361H588.735C583.277 747.361 577.819 747.361 572.36 747.361C572.088 748.622 572.171 749.899 572.247 751.162C572.328 752.369 573.25 753.038 574.675 753.052C578.716 753.082 582.757 753.11 586.796 753.112C603.538 753.127 620.279 753.135 637.019 753.137C637.556 753.152 638.093 753.102 638.618 752.987C639.663 752.725 640.482 751.7 640.319 750.719C640.119 749.584 640.357 748.484 640.313 747.374Z" fill="white"/>
<path d="M599.697 735.165C599.924 735.509 600.167 735.841 600.375 736.195C600.668 736.692 601.093 736.919 601.613 736.639C602.133 736.359 602.114 735.883 601.849 735.378C601.66 735.03 601.254 734.722 601.453 734.269C601.687 733.732 602.623 733.702 603.036 734.155C603.498 734.664 603.755 735.798 604.717 735.187C605.754 734.528 604.743 733.851 604.418 733.212C604.374 733.11 604.339 733.005 604.312 732.897C603.428 732.456 602.87 732.606 602.715 733.666C602.579 734.611 601.891 734.477 601.252 734.271C600.075 733.887 599.903 733.978 599.697 735.165Z" fill="#E7E5EA"/>
<path d="M605.768 732.122C606.168 732.564 606.548 733.023 606.973 733.445C607.043 733.524 607.128 733.588 607.223 733.633C607.318 733.678 607.422 733.703 607.527 733.707C607.632 733.711 607.737 733.693 607.835 733.655C607.933 733.617 608.023 733.56 608.098 733.486C608.476 733.173 608.476 732.766 608.206 732.386C607.917 731.967 607.588 731.576 607.272 731.173C606.427 730.971 605.9 731.241 605.768 732.122Z" fill="#E7E5EA"/>
<path d="M596.556 736.435C596.962 736.699 597.079 737.162 597.333 737.531C597.622 737.954 597.99 738.21 598.495 737.949C599.062 737.66 599.026 737.193 598.788 736.688C598.635 736.361 598.276 736.11 598.376 735.686C597.174 735.076 596.862 735.21 596.556 736.435Z" fill="#E7E5EA"/>
<path d="M593.357 737.616C593.597 738.03 593.851 738.438 594.072 738.86C594.337 739.361 594.732 739.616 595.268 739.357C595.805 739.098 595.807 738.62 595.584 738.123C595.416 737.745 595.1 737.41 595.206 736.951C594.34 736.51 593.681 736.614 593.357 737.616Z" fill="#E7E5EA"/>
<path d="M608.529 730.417C608.822 730.712 609.117 731.007 609.406 731.305C609.831 731.744 610.328 732.122 610.884 731.609C611.439 731.097 611.101 730.602 610.648 730.169C610.402 729.935 610.196 729.663 609.973 729.413C609.041 729.126 608.565 729.47 608.529 730.417Z" fill="#E7E5EA"/>
<path d="M613.305 726.516C613.668 726.779 614.04 727.03 614.392 727.308C614.825 727.646 615.274 727.809 615.696 727.349C616.168 726.837 615.896 726.404 615.452 726.026C615.144 725.758 614.853 725.471 614.554 725.193C613.519 725.089 613.097 725.528 613.305 726.516Z" fill="#E7E5EA"/>
<path d="M610.969 728.595C611.358 728.897 611.744 729.202 612.135 729.5C612.589 729.848 613.061 729.903 613.443 729.432C613.796 728.996 613.602 728.601 613.222 728.257C612.946 728.007 612.691 727.733 612.428 727.472C611.226 727.217 610.98 727.404 610.969 728.595Z" fill="#E7E5EA"/>
<path d="M619.74 721.67C619.633 721.627 619.336 721.576 619.534 721.481C619.881 721.336 620.257 721.271 620.632 721.292C626.785 721.283 632.936 721.283 639.084 721.292C639.222 721.312 639.358 721.345 639.489 721.392C639.789 721.723 639.438 721.753 639.26 721.77C638.729 721.846 638.194 721.889 637.658 721.899C632.286 721.909 626.916 721.909 621.547 721.899C620.939 721.901 620.313 721.957 619.74 721.67Z" fill="#E7E5EA"/>
<path d="M615.496 724.008C616.6 723.751 617.04 722.781 617.684 722.04C618.049 721.619 618.359 721.154 618.69 720.706C618.429 720.305 618.199 719.837 617.796 720.615C617.393 721.394 617.019 722.101 616.144 722.524C615.645 722.764 615.613 723.464 615.496 724.008Z" fill="#E7E5EA"/>
<path d="M587.223 739.557C588.712 738.884 590.32 738.569 591.857 738.055C592.216 738.155 592.014 738.312 591.857 738.385C590.398 739.039 588.856 739.49 587.275 739.727C587.251 739.727 587.202 739.691 587.194 739.661C587.187 739.631 587.204 739.585 587.223 739.557Z" fill="#E7E5EA"/>
<path d="M582.196 740.869C582.637 740.583 583.15 740.429 583.675 740.424C583.829 740.424 583.957 740.534 583.757 740.666C583.685 740.716 583.551 740.676 583.439 740.682C583.114 741.022 582.683 740.948 582.281 740.98C582.244 740.982 582.208 740.972 582.177 740.952C582.177 740.952 582.188 740.897 582.196 740.869Z" fill="#E7E5EA"/>
<path d="M584.981 740.007C585.259 739.944 585.535 739.88 585.807 739.818C585.675 740.428 585.172 740.451 584.76 740.294C584.534 740.203 584.792 740.033 584.981 740.007Z" fill="#E7E5EA"/>
<path d="M577.552 742.649C577.688 742.628 577.822 742.609 577.956 742.581C578 742.563 578.041 742.539 578.079 742.509C578.05 742.532 578.02 742.555 577.988 742.583C577.826 742.692 577.693 742.881 577.457 742.772C577.318 742.709 577.371 742.558 577.457 742.681C577.463 742.689 577.52 742.662 577.552 742.649Z" fill="#E7E5EA"/>
<path d="M579.165 741.928L579.235 741.861L579.184 741.903L579.123 741.96L579.165 741.928Z" fill="#E7E5EA"/>
<path d="M614.955 724.577V724.612L614.99 724.593L615.001 724.543L614.955 724.577Z" fill="#E7E5EA"/>
<path d="M580.578 741.377L580.521 741.353C580.521 741.353 580.597 741.313 580.593 741.313C580.589 741.313 580.639 741.358 580.639 741.358L580.578 741.377Z" fill="#E7E5EA"/>
<path d="M576.184 743.673C576.173 743.672 576.162 743.672 576.151 743.673H576.184Z" fill="#E7E5EA"/>
<path d="M640.295 721.893L640.213 721.865L640.295 721.893Z" fill="#E7E5EA"/>
<path d="M576.74 743.174V743.232L576.688 743.244L576.74 743.174Z" fill="#E7E5EA"/>
<path d="M581.179 741.142L581.129 741.149L581.145 741.094L581.179 741.142Z" fill="#E7E5EA"/>
<path d="M579.802 741.605L579.744 741.615L579.76 741.547L579.802 741.605Z" fill="#E7E5EA"/>
<path d="M637.414 738.319C632.335 737.478 627.453 736.618 622.551 735.879C619.37 735.37 616.115 736.09 613.445 737.892C612.089 738.755 610.677 739.528 609.219 740.205C606.977 741.284 604.624 740.961 602.328 740.413C601.596 740.241 601.256 740.413 600.95 740.952C600.353 742.008 600.532 743.054 601.031 744.084C601.059 744.174 601.113 744.254 601.185 744.315C601.257 744.375 601.346 744.414 601.439 744.426C603.193 744.598 604.9 745.151 606.694 745.021C608.049 744.923 609.34 744.668 610.568 744.033C612.469 743.044 614.384 742.084 616.219 740.98C617.959 739.886 620.06 739.522 622.067 739.967C626.055 740.785 630.082 741.417 634.085 742.178C634.732 742.301 635.044 742.178 635.355 741.623C635.972 740.545 636.665 739.51 637.414 738.319Z" fill="white"/>
<path d="M707.722 492.702C707.722 492.702 704.093 499.005 688.756 499.005L683.742 502.196C681.634 510.391 672.712 537.172 672.712 537.172C672.712 537.172 669.107 531.7 656.579 516.48C656.579 516.48 655.964 508.138 651.047 507.083C646.129 506.029 640.423 506.821 637.699 511.124C637.699 511.124 637.788 512.568 640.686 514.568C640.686 514.568 640.071 516.216 643.935 517.357C647.798 518.499 650.695 518.763 652.54 521.222C654.384 523.681 660.895 547.745 672.135 552.751L693.114 520.001L707.722 492.702Z" fill="#FFE7E5"/>
<path d="M707.722 492.702C707.722 492.702 703.104 494.742 691.352 494.39C691.352 494.39 686.478 494.263 681.606 504.45C676.733 514.638 672.384 520.914 672.384 520.914C672.384 520.914 678.591 527.955 683.741 529.593C683.741 529.593 670.628 559.682 657.984 573.498C657.984 573.498 662.668 581.695 695.919 593.286C695.919 593.286 716.057 599.145 717.695 610.028C717.695 610.028 722.261 605.227 724.369 597.149C726.476 589.071 740.526 558.278 740.526 558.278L743.928 544.462L747.909 551.366C747.909 551.366 759.266 549.028 763.596 540.13C763.596 540.13 750.833 511.213 746.151 504.655C741.469 498.096 728.168 499.639 722.759 492.135C722.755 492.135 705.595 504.076 707.722 492.702Z" fill="#FF473D"/>
<path d="M736.898 527.72L743.923 544.462L739.746 559.99L736.407 567.454C736.407 567.454 713.477 568.932 708.325 563.195C703.173 557.459 729.871 564.016 732.795 546.452C735.719 528.888 736.898 527.72 736.898 527.72Z" fill="#D82723"/>
<path d="M679.71 546.176C679.778 548.966 680.188 551.683 681.368 554.214C682.989 557.696 685.677 559.546 689.277 559.86C692.377 560.132 695.288 559.574 697.639 557.174C699.436 555.337 700.434 553.016 700.84 550.453C701.16 548.453 701.173 546.397 701.341 544.369C701.432 543.271 700.939 542.509 700.048 542.146C698.699 541.572 697.31 541.098 695.89 540.729C693.006 540.032 690.065 540.101 687.143 540.404C685.083 540.617 683.054 541.031 681.163 542.026C680.235 542.511 679.667 543.171 679.704 544.322C679.727 544.94 679.71 545.558 679.71 546.176ZM700.283 543.434C700.449 544.093 700.22 544.471 699.859 544.7C699.355 545.045 698.806 545.32 698.228 545.518C693.585 546.896 688.892 546.832 684.199 545.881C683.222 545.692 682.271 545.261 681.364 544.823C680.678 544.492 680.581 544.025 680.893 543.432L681.613 544.422C682.297 543.197 683.413 542.91 684.477 542.651C688.411 541.67 692.525 541.659 696.465 542.619C697.573 542.884 698.733 543.167 699.534 544.522L700.283 543.434Z" fill="white"/>
<path d="M702.101 545.847C702.042 546.512 701.942 546.945 701.987 547.359C702.007 547.5 702.056 547.634 702.132 547.754C702.207 547.874 702.306 547.977 702.424 548.057C703.477 548.58 703.847 549.321 703.558 550.5C703.301 551.53 702.725 552.313 701.778 552.634C701.468 552.721 701.188 552.891 700.969 553.126C700.749 553.361 700.598 553.652 700.532 553.967C700.405 554.342 700.253 554.709 700.077 555.065C702.675 555.522 705.571 552.623 705.599 549.604C705.612 548.219 705.221 547.038 703.983 546.401C703.437 546.121 702.802 546.046 702.101 545.847Z" fill="white"/>
<path d="M700.283 543.434L699.54 544.524C698.748 543.169 697.578 542.885 696.471 542.621C692.527 541.658 688.409 541.669 684.471 542.651C683.407 542.914 682.292 543.197 681.608 544.422L680.888 543.432C680.576 544.025 680.672 544.492 681.358 544.823C682.271 545.261 683.222 545.685 684.193 545.881C688.886 546.826 693.579 546.896 698.223 545.518C698.805 545.32 699.358 545.045 699.867 544.698C700.22 544.471 700.449 544.093 700.283 543.434Z" fill="black"/>
<path d="M688.756 508.928C688.756 508.928 687.108 523.388 683.742 529.593C683.742 529.593 679.714 528.002 678.618 526.698C677.522 525.393 688.756 508.928 688.756 508.928Z" fill="#D82723"/>
<path d="M749.173 551.035L750.946 555.118C750.946 555.118 724.486 555.732 716.992 551.209C709.499 546.686 701.421 545.048 702.475 548.676C703.53 552.305 700.837 559.799 703.762 561.44C706.688 563.08 715.002 560.151 719.568 561.44C723.759 562.621 751.107 571.489 765.902 565.35C767.074 564.862 768.033 563.973 768.609 562.841C769.184 561.709 769.337 560.41 769.041 559.175C768.266 555.962 766.41 550.67 762.037 542.689L760.58 544.267C758.078 546.979 754.946 549.032 751.46 550.241L749.173 551.035Z" fill="#FFE7E5"/>
<path d="M760.581 544.267C760.581 544.267 759.273 555.607 755.894 555.607C752.515 555.607 750.946 555.125 750.946 555.125L749.173 551.043C749.173 551.043 756.798 549.136 760.581 544.267Z" fill="#F7B7B7"/>
<path d="M708.143 478.843C708.143 478.843 712.588 479.247 714.879 478.106C717.169 476.964 710.082 483.893 710.082 483.893C710.082 483.893 710.623 480.627 708.143 478.843Z" fill="#F7B7B7"/>
<path d="M599.414 343.515H556.403C555.667 343.515 554.938 343.66 554.259 343.941C553.579 344.222 552.961 344.635 552.441 345.155C551.92 345.675 551.507 346.293 551.226 346.973C550.944 347.653 550.799 348.381 550.799 349.117V375.515C550.8 376.937 551.342 378.305 552.315 379.343C553.288 380.38 554.619 381.008 556.038 381.1L552.963 391.608H556.038L567.378 381.113H599.414C600.149 381.113 600.878 380.968 601.558 380.687C602.238 380.406 602.856 379.993 603.376 379.473C603.896 378.953 604.309 378.335 604.591 377.655C604.873 376.975 605.018 376.247 605.018 375.511V349.117C605.018 348.381 604.873 347.653 604.591 346.973C604.309 346.293 603.896 345.675 603.376 345.155C602.856 344.635 602.238 344.222 601.558 343.941C600.878 343.66 600.149 343.515 599.414 343.515V343.515Z" fill="#B71100"/>
<path d="M596.333 343.515H553.32C551.834 343.515 550.409 344.105 549.358 345.156C548.307 346.206 547.717 347.631 547.716 349.117V375.515C547.717 376.938 548.26 378.308 549.235 379.345C550.209 380.382 551.542 381.01 552.963 381.1V391.608L564.303 381.113H596.333C597.818 381.113 599.243 380.523 600.294 379.472C601.345 378.422 601.935 376.997 601.935 375.511V349.117C601.935 348.381 601.79 347.653 601.508 346.973C601.227 346.294 600.814 345.676 600.294 345.156C599.774 344.636 599.156 344.223 598.477 343.942C597.797 343.66 597.068 343.515 596.333 343.515V343.515Z" fill="#F85840"/>
<path d="M564.186 356.125C563.677 356.109 563.172 356.224 562.722 356.461C562.271 356.697 561.889 357.046 561.613 357.475C561 358.374 560.692 359.615 560.691 361.196C560.691 364.483 561.942 366.127 564.443 366.127C565.186 366.128 565.926 366.022 566.639 365.811C567.364 365.597 568.078 365.345 568.776 365.055V368.958C567.249 369.609 565.601 369.931 563.94 369.903C561.361 369.903 559.384 369.155 558.009 367.66C556.635 366.164 555.947 364.004 555.947 361.179C555.947 359.415 556.28 357.861 556.945 356.516C557.571 355.222 558.572 354.147 559.818 353.43C561.069 352.708 562.54 352.348 564.229 352.349C566.061 352.346 567.871 352.757 569.521 353.553L568.107 357.185C567.494 356.894 566.863 356.641 566.217 356.429C565.56 356.223 564.875 356.12 564.186 356.125V356.125Z" fill="#00062B"/>
<path d="M575.448 362.797H571.101V359.667H575.448V355.377H578.591V359.667H582.938V362.799H578.591V367.017H575.448V362.797Z" fill="#00062B"/>
<path d="M588.992 362.797H584.645V359.667H588.992V355.377H592.137V359.667H596.484V362.799H592.137V367.017H588.994L588.992 362.797Z" fill="#00062B"/>
<path d="M635.091 344.517C644.613 344.517 652.332 336.798 652.332 327.276C652.332 317.754 644.613 310.036 635.091 310.036C625.569 310.036 617.851 317.754 617.851 327.276C617.851 336.798 625.569 344.517 635.091 344.517Z" fill="#0E8B9B"/>
<path d="M631.409 344.517C640.931 344.517 648.65 336.798 648.65 327.276C648.65 317.754 640.931 310.036 631.409 310.036C621.888 310.036 614.169 317.754 614.169 327.276C614.169 336.798 621.888 344.517 631.409 344.517Z" fill="#51BACD"/>
<path d="M623.103 324.003C622.766 323.993 622.433 324.071 622.135 324.227C621.837 324.384 621.584 324.616 621.402 324.899C620.994 325.496 620.789 326.32 620.789 327.371C620.789 329.554 621.62 330.646 623.28 330.646C623.774 330.647 624.266 330.577 624.739 330.436C625.222 330.292 625.696 330.124 626.161 329.932V332.525C625.146 332.957 624.051 333.171 622.948 333.152C621.233 333.152 619.919 332.656 619.007 331.663C618.095 330.67 617.639 329.234 617.639 327.356C617.616 326.285 617.843 325.225 618.302 324.258C618.717 323.397 619.383 322.682 620.211 322.205C621.107 321.71 622.118 321.462 623.141 321.487C624.358 321.485 625.561 321.758 626.658 322.287L625.713 324.7C625.304 324.508 624.884 324.342 624.454 324.203C624.017 324.066 623.561 323.999 623.103 324.003V324.003Z" fill="white"/>
<path d="M635.785 329.552C635.796 330.216 635.61 330.869 635.25 331.427C634.87 331.992 634.333 332.434 633.706 332.699C632.958 333.016 632.15 333.17 631.338 333.152C630.7 333.163 630.063 333.109 629.436 332.993C628.883 332.873 628.346 332.687 627.837 332.44V329.707C628.418 330.006 629.03 330.242 629.661 330.41C630.228 330.568 630.812 330.653 631.4 330.661C631.856 330.661 632.19 330.582 632.402 330.425C632.501 330.357 632.581 330.266 632.637 330.16C632.692 330.054 632.72 329.936 632.719 329.816C632.723 329.67 632.678 329.526 632.591 329.408C632.477 329.266 632.338 329.146 632.181 329.055C631.992 328.936 631.488 328.693 630.669 328.325C630.073 328.075 629.512 327.747 629.004 327.348C628.65 327.054 628.368 326.682 628.181 326.261C627.992 325.801 627.901 325.307 627.913 324.81C627.913 323.765 628.291 322.95 629.047 322.364C629.803 321.778 630.848 321.486 632.183 321.487C633.424 321.503 634.647 321.78 635.774 322.302L634.829 324.67C633.769 324.182 632.854 323.939 632.082 323.94C631.778 323.916 631.473 323.989 631.213 324.15C631.129 324.208 631.06 324.286 631.013 324.376C630.965 324.467 630.941 324.568 630.941 324.67C630.947 324.79 630.981 324.906 631.042 325.01C631.102 325.114 631.186 325.202 631.287 325.267C631.517 325.444 632.142 325.764 633.162 326.229C634.139 326.67 634.818 327.143 635.199 327.647C635.6 328.199 635.806 328.869 635.785 329.552V329.552Z" fill="white"/>
<path d="M644.961 329.552C644.972 330.216 644.785 330.869 644.424 331.427C644.044 331.992 643.507 332.434 642.88 332.699C642.131 333.016 641.324 333.171 640.512 333.152C639.874 333.163 639.237 333.109 638.61 332.993C638.057 332.873 637.52 332.687 637.011 332.44V329.707C637.592 330.006 638.204 330.241 638.835 330.41C639.401 330.568 639.986 330.653 640.574 330.661C641.029 330.661 641.363 330.582 641.576 330.425C641.674 330.357 641.755 330.266 641.81 330.16C641.866 330.054 641.894 329.936 641.893 329.816C641.896 329.67 641.852 329.527 641.767 329.408C641.652 329.266 641.512 329.147 641.354 329.055C641.165 328.936 640.661 328.693 639.842 328.325C639.247 328.075 638.687 327.746 638.177 327.348C637.824 327.053 637.543 326.682 637.355 326.261C637.167 325.801 637.076 325.307 637.087 324.81C637.087 323.765 637.465 322.95 638.221 322.364C638.977 321.778 640.022 321.486 641.356 321.487C642.597 321.503 643.821 321.781 644.947 322.302L644.002 324.67C642.94 324.182 642.024 323.939 641.254 323.94C640.95 323.916 640.645 323.989 640.385 324.15C640.301 324.208 640.232 324.286 640.185 324.376C640.137 324.467 640.113 324.568 640.113 324.67C640.119 324.79 640.153 324.906 640.214 325.01C640.274 325.114 640.358 325.202 640.459 325.267C640.689 325.444 641.314 325.764 642.334 326.229C643.311 326.67 643.99 327.143 644.371 327.647C644.774 328.199 644.981 328.869 644.961 329.552V329.552Z" fill="white"/>
<path d="M528.238 361.863C528.236 356.882 526.634 352.034 523.666 348.034C520.698 344.033 516.522 341.094 511.755 339.649C506.988 338.204 501.883 338.33 497.194 340.009C492.504 341.687 488.479 344.83 485.712 348.971C482.945 353.113 481.584 358.035 481.829 363.01C482.073 367.985 483.912 372.749 487.072 376.599C490.232 380.45 494.546 383.182 499.378 384.392C504.209 385.602 509.302 385.226 513.904 383.32L516.739 390.005H520.591V379.091C523.001 376.915 524.928 374.257 526.245 371.29C527.563 368.322 528.242 365.11 528.238 361.863V361.863Z" fill="#BF0400"/>
<path d="M524.388 361.863C524.388 356.882 522.785 352.033 519.817 348.032C516.849 344.031 512.673 341.091 507.906 339.645C503.139 338.2 498.033 338.326 493.343 340.004C488.653 341.683 484.627 344.825 481.86 348.967C479.093 353.109 477.731 358.031 477.975 363.007C478.22 367.982 480.058 372.747 483.218 376.598C486.378 380.448 490.693 383.181 495.525 384.391C500.357 385.602 505.45 385.226 510.053 383.32L516.738 390.005V379.09C519.149 376.915 521.076 374.258 522.394 371.29C523.712 368.322 524.392 365.11 524.388 361.863V361.863Z" fill="#FF473D"/>
<path d="M492.949 373.086C492.083 373.09 491.218 373.001 490.37 372.821V368.958C490.638 369.007 490.923 369.064 491.226 369.128C491.549 369.193 491.877 369.225 492.207 369.223C493.03 369.223 493.617 368.975 493.968 368.48C494.32 367.985 494.496 367.138 494.497 365.938V348.913H499.493V365.511C499.493 368.003 498.948 369.889 497.858 371.168C496.768 372.447 495.132 373.086 492.949 373.086Z" fill="white"/>
<path d="M514.192 362.933C514.192 364.458 513.671 365.611 512.631 366.394C511.59 367.176 510.097 367.566 508.151 367.563C507.23 367.572 506.309 367.515 505.396 367.393C504.579 367.271 503.777 367.062 503.005 366.77V362.831C503.815 363.182 504.655 363.46 505.515 363.662C506.311 363.865 507.129 363.975 507.951 363.989C509.014 363.989 509.547 363.746 509.548 363.26C509.548 363.009 509.399 362.784 509.102 362.585C508.805 362.387 507.938 362.005 506.503 361.434C505.194 360.897 504.279 360.287 503.759 359.603C503.239 358.92 502.98 358.053 502.98 357.006C502.98 355.679 503.492 354.647 504.515 353.91C505.538 353.173 506.987 352.804 508.862 352.803C509.753 352.797 510.642 352.9 511.508 353.111C512.39 353.335 513.252 353.636 514.082 354.01L512.748 357.182C512.075 356.878 511.38 356.625 510.669 356.426C510.089 356.245 509.488 356.141 508.881 356.118C508.076 356.118 507.673 356.314 507.673 356.707C507.681 356.84 507.724 356.967 507.798 357.077C507.872 357.187 507.975 357.275 508.095 357.331C508.377 357.502 509.188 357.853 510.529 358.382C511.325 358.68 512.077 359.087 512.763 359.59C513.233 359.957 513.605 360.435 513.846 360.981C514.093 361.601 514.211 362.265 514.192 362.933V362.933Z" fill="white"/>
<path d="M600.285 274.413H566.036C564.748 274.413 563.513 274.925 562.602 275.836C561.691 276.747 561.179 277.982 561.179 279.27V313.519C561.179 314.807 561.691 316.043 562.602 316.953C563.513 317.864 564.748 318.376 566.036 318.376H586.174L594.054 327.881H597.221V318.376H600.285C601.573 318.376 602.809 317.864 603.72 316.953C604.631 316.043 605.143 314.807 605.143 313.519V279.27C605.143 278.632 605.017 278.001 604.773 277.411C604.529 276.822 604.171 276.286 603.72 275.835C603.269 275.384 602.734 275.026 602.144 274.782C601.555 274.538 600.923 274.413 600.285 274.413V274.413Z" fill="#8FB5B4"/>
<path d="M597.117 274.413H562.867C562.229 274.413 561.598 274.539 561.008 274.783C560.419 275.027 559.884 275.385 559.433 275.836C558.982 276.287 558.624 276.822 558.381 277.412C558.137 278.001 558.011 278.632 558.011 279.27V313.519C558.011 314.807 558.523 316.042 559.433 316.953C560.344 317.864 561.579 318.376 562.867 318.376H583.007L594.054 327.881V318.376H597.117C598.406 318.376 599.641 317.864 600.552 316.953C601.463 316.043 601.975 314.807 601.975 313.519V279.27C601.975 277.982 601.463 276.747 600.552 275.836C599.641 274.925 598.406 274.413 597.117 274.413V274.413Z" fill="#C8D8D8"/>
<path d="M575.401 301.962L564.034 296.919V294.986L575.401 289.297V292.636L568.431 295.817L575.401 298.652V301.962Z" fill="white"/>
<path d="M586.384 287.291L580.256 304.188H576.367L582.494 287.291H586.384Z" fill="white"/>
<path d="M587.238 298.645L594.208 295.81L587.238 292.629V289.289L598.604 294.978V296.919L587.238 301.967V298.645Z" fill="white"/>
<path d="M638.854 419.172H608.658C607.522 419.172 606.433 419.623 605.629 420.426C604.826 421.229 604.375 422.319 604.375 423.454V441.534C604.375 442.67 604.826 443.759 605.629 444.563C606.433 445.366 607.522 445.817 608.658 445.817L606.817 454.322H610.047L619.245 445.817H638.854C639.416 445.817 639.973 445.706 640.493 445.491C641.012 445.276 641.484 444.96 641.882 444.562C642.279 444.165 642.595 443.693 642.81 443.173C643.025 442.653 643.135 442.097 643.135 441.534V423.454C643.135 422.892 643.025 422.335 642.81 421.816C642.595 421.296 642.279 420.824 641.882 420.426C641.484 420.029 641.012 419.713 640.493 419.498C639.973 419.283 639.416 419.172 638.854 419.172V419.172Z" fill="#001435"/>
<path d="M635.622 419.172H605.427C604.865 419.172 604.308 419.282 603.788 419.497C603.268 419.712 602.796 420.028 602.398 420.426C602.001 420.823 601.685 421.296 601.47 421.815C601.255 422.335 601.144 422.892 601.145 423.454V441.534C601.144 442.097 601.255 442.654 601.47 443.173C601.685 443.693 602.001 444.165 602.398 444.563C602.796 444.961 603.268 445.276 603.788 445.491C604.308 445.707 604.865 445.817 605.427 445.817H606.816V454.322L616.015 445.817H635.622C636.184 445.817 636.741 445.707 637.261 445.491C637.781 445.276 638.253 444.961 638.651 444.563C639.049 444.165 639.364 443.693 639.579 443.173C639.794 442.654 639.905 442.097 639.905 441.534V423.454C639.905 422.892 639.794 422.335 639.579 421.815C639.364 421.296 639.049 420.823 638.651 420.426C638.253 420.028 637.781 419.712 637.261 419.497C636.741 419.282 636.184 419.172 635.622 419.172V419.172Z" fill="#062051"/>
<path d="M613.763 437.274H612.415V433.566H608.635V437.269H607.291V429.056H608.635V432.415H612.415V429.056H613.763V437.274Z" fill="white"/>
<path d="M618.761 437.274H617.419V430.213H615.006V429.062H621.179V430.213H618.763L618.761 437.274Z" fill="white"/>
<path d="M625.985 437.274L623.604 430.415H623.558C623.622 431.435 623.655 432.39 623.655 433.281V437.274H622.436V429.062H624.326L626.605 435.594H626.639L628.986 429.062H630.882V437.274H629.589V433.213C629.589 432.804 629.6 432.273 629.621 431.617C629.64 430.962 629.659 430.565 629.674 430.427H629.629L627.172 437.274H625.985Z" fill="white"/>
<path d="M633.052 437.274V429.062H634.396V436.121H637.875V437.274H633.052Z" fill="white"/>
<path d="M673.825 369.219C673.824 365.665 672.798 362.186 670.871 359.2C668.943 356.214 666.195 353.847 662.956 352.383C659.717 350.919 656.125 350.42 652.61 350.946C649.095 351.472 645.806 353 643.137 355.348C640.469 357.696 638.534 360.763 637.564 364.183C636.595 367.602 636.633 371.229 637.672 374.628C638.712 378.027 640.71 381.054 643.426 383.346C646.142 385.638 649.462 387.099 652.988 387.552L655.471 395.443H658.353L660.841 386.877C664.605 385.703 667.895 383.356 670.231 380.18C672.567 377.003 673.826 373.162 673.825 369.219Z" fill="#E9A153"/>
<path d="M670.95 369.219C670.949 365.665 669.924 362.186 667.996 359.2C666.068 356.214 663.32 353.847 660.082 352.383C656.843 350.919 653.25 350.42 649.735 350.946C646.22 351.472 642.931 353 640.262 355.348C637.594 357.696 635.659 360.763 634.69 364.183C633.72 367.602 633.758 371.229 634.797 374.628C635.837 378.027 637.835 381.054 640.551 383.346C643.268 385.638 646.588 387.099 650.113 387.552L655.479 395.443L657.966 386.877C661.73 385.703 665.021 383.356 667.356 380.18C669.692 377.003 670.952 373.162 670.95 369.219V369.219Z" fill="#FEC435"/>
<path d="M647.777 366.798C647.777 367.883 647.457 368.72 646.819 369.31C646.18 369.899 645.272 370.194 644.095 370.194H643.356V373.407H640.735V363.71H644.091C645.316 363.71 646.236 363.977 646.851 364.513C647.466 365.048 647.774 365.81 647.777 366.798ZM643.356 368.059H643.832C644.004 368.068 644.176 368.044 644.338 367.988C644.5 367.931 644.649 367.843 644.777 367.728C644.896 367.608 644.989 367.464 645.049 367.306C645.109 367.149 645.135 366.98 645.125 366.811C645.125 366.157 644.763 365.83 644.038 365.83H643.356V368.059Z" fill="#3F3E76"/>
<path d="M657.635 373.411H655V369.459H651.955V373.411H649.323V363.713H651.955V367.304H655V363.713H657.635V373.411Z" fill="#3F3E76"/>
<path d="M666.769 366.798C666.769 367.883 666.449 368.72 665.809 369.31C665.169 369.899 664.262 370.194 663.088 370.194H662.35V373.407H659.731V363.71H663.088C664.312 363.71 665.232 363.977 665.847 364.513C666.462 365.048 666.769 365.81 666.769 366.798ZM662.35 368.059H662.823C662.995 368.069 663.166 368.045 663.329 367.988C663.491 367.931 663.64 367.843 663.768 367.728C663.887 367.608 663.98 367.465 664.04 367.307C664.1 367.149 664.127 366.98 664.118 366.811C664.118 366.157 663.755 365.83 663.029 365.83H662.352L662.35 368.059Z" fill="#3F3E76"/>
<path d="M467.659 391.37H446.669C445.88 391.37 445.122 391.683 444.564 392.242C444.006 392.8 443.692 393.557 443.692 394.347V415.337C443.692 416.126 444.006 416.884 444.564 417.442C445.122 418 445.88 418.314 446.669 418.314H457.151L462.88 425.925H465.904V418.314H467.654C468.443 418.314 469.2 418 469.759 417.442C470.317 416.884 470.631 416.126 470.631 415.337V394.347C470.631 393.558 470.318 392.802 469.761 392.244C469.204 391.686 468.448 391.371 467.659 391.37Z" fill="#E9A153"/>
<path d="M464.63 391.37H443.64C442.851 391.37 442.094 391.684 441.536 392.242C440.978 392.801 440.665 393.557 440.665 394.347V415.337C440.665 416.126 440.978 416.883 441.536 417.441C442.094 417.999 442.851 418.313 443.64 418.314H454.122L462.88 425.925V418.314H464.63C465.42 418.314 466.177 418 466.735 417.442C467.293 416.884 467.607 416.126 467.607 415.337V394.347C467.607 393.557 467.293 392.8 466.735 392.242C466.177 391.683 465.42 391.37 464.63 391.37V391.37Z" fill="#FEC435"/>
<path d="M463.649 412.103C463.95 412.404 464.119 412.812 464.119 413.237C464.119 413.662 463.95 414.07 463.649 414.371V414.371C463.348 414.672 462.941 414.84 462.515 414.84C462.09 414.84 461.682 414.672 461.381 414.371L456.915 409.907C456.615 409.606 456.447 409.198 456.447 408.773C456.447 408.348 456.615 407.94 456.915 407.639V407.639C457.216 407.338 457.624 407.17 458.049 407.17C458.475 407.17 458.882 407.338 459.183 407.639L463.649 412.103Z" fill="#3F3E76"/>
<path d="M455.414 406.136C454.537 407.014 453.419 407.611 452.203 407.853C450.986 408.095 449.724 407.971 448.578 407.496C447.432 407.021 446.452 406.217 445.763 405.186C445.074 404.154 444.706 402.941 444.706 401.701C444.706 400.46 445.074 399.247 445.763 398.216C446.452 397.184 447.432 396.38 448.578 395.905C449.724 395.43 450.986 395.306 452.203 395.548C453.419 395.79 454.537 396.388 455.414 397.265C456.59 398.442 457.25 400.037 457.25 401.701C457.25 403.364 456.59 404.959 455.414 406.136V406.136ZM447.552 398.265C446.872 398.944 446.41 399.81 446.222 400.753C446.035 401.695 446.131 402.672 446.499 403.56C446.867 404.448 447.489 405.207 448.288 405.741C449.088 406.275 450.027 406.56 450.988 406.56C451.949 406.56 452.889 406.275 453.688 405.741C454.487 405.207 455.11 404.448 455.477 403.56C455.845 402.672 455.941 401.695 455.754 400.753C455.566 399.81 455.104 398.944 454.424 398.265C453.512 397.355 452.276 396.844 450.988 396.844C449.7 396.844 448.464 397.355 447.552 398.265V398.265Z" fill="#3F3E76"/>
<path d="M455.415 405.138L454.414 406.139L459.28 411.005L460.281 410.004L455.415 405.138Z" fill="#3F3E76"/>
<path d="M168.486 632.536C167.116 633.176 165.8 633.802 164.485 634.513Z" fill="#FFE6E6"/>
<path d="M230.924 654.864C231.888 655.35 232.814 655.822 233.759 656.34Z" fill="#FFDCDC"/>
<path d="M735.9 186.399C736.586 185.951 737.272 186.377 737.96 186.399C737.935 194.122 737.89 201.844 737.89 209.567C737.89 215.532 737.975 221.499 737.979 227.463C737.991 250.113 737.984 272.764 737.956 295.415C737.956 296.996 738.259 297.683 739.999 297.991C743.913 298.665 745.567 300.865 745.65 304.857C745.662 305.373 745.677 305.887 745.683 306.401C745.713 309.374 745.683 309.465 748.398 310.145C754.412 311.657 759.771 314.517 764.889 317.894C770.948 321.901 775.921 326.966 779.529 333.298C781.55 336.825 783.017 340.643 783.876 344.617C784.065 345.467 784.027 346.38 784.951 347.038C785.588 347.492 785.218 348.191 784.407 348.31C783.792 348.365 783.173 348.376 782.556 348.344H712.53C705.197 348.344 697.864 348.344 690.53 348.344C689.901 348.344 689.103 348.652 688.708 347.889C688.313 347.125 689.102 346.917 689.498 346.497C689.746 346.237 689.75 345.73 689.831 345.328C692.005 334.702 697.769 326.377 706.274 319.847C712.441 315.098 719.486 311.617 727.004 309.603C727.896 309.361 728.296 309.011 728.217 308.047C728.13 307.025 728.194 305.989 728.196 304.959C728.196 300.867 729.82 298.722 733.887 297.991C735.546 297.688 735.949 297.108 735.943 295.462C735.882 273.83 735.875 252.199 735.924 230.569C735.941 224.224 736.044 217.874 736.006 211.536C735.951 203.15 736.021 194.774 735.9 186.399Z" fill="#FFECEB"/>
</svg>
