<svg width="65" height="65" viewBox="0 0 65 65" fill="none" xmlns="http://www.w3.org/2000/svg">
<mask id="mask0" mask-type="alpha" maskUnits="userSpaceOnUse" x="5" y="1" width="55" height="55">
<rect x="5" y="1" width="55" height="55" rx="6" fill="#F3F4F6"/>
</mask>
<g mask="url(#mask0)">
<g filter="url(#filter0_dd)">
<rect x="5" y="1" width="55" height="55" rx="6" fill="#F3F4F6"/>
</g>
<path d="M50 43L32.674 47H26.935L14 43V14C14 12.895 14.895 12 16 12H48C49.105 12 50 12.895 50 14V43Z" fill="#0262B8"/>
<path d="M34.08 34H27.892C26.501 34 25.636 32.49 26.339 31.29L29.54 25.83L34.08 32V34ZM35.32 12V10L28.98 11L14 36.56V44C14 45.1 14.9 46 16 46H28.52L21.85 34.99L35.32 12ZM48 11H37.64L30.71 21.82V23.82L36.37 34H50V13C50 11.9 49.1 11 48 11ZM30.81 47L48 46C49.1 46 50 45.1 50 44V35L24.7 34V36L30.81 47ZM26.09 30.205H28.431V32.341H26.09V30.205Z" fill="#103262"/>
<path d="M34.08 32H27.892C26.501 32 25.636 30.49 26.339 29.29L29.54 23.83L34.08 32ZM35.32 10H28.98L14 35.56V45H28.52L21.85 32.99L35.32 10ZM48 10H37.64L30.71 21.82L36.37 32H50V12C50 10.9 49.1 10 48 10ZM30.81 45H50V34H24.7L30.81 45Z" fill="url(#paint0_linear)"/>
<path d="M50 43V45C50 46.1 49.1 47 48 47H30.81V45H48C49.105 45 50 44.105 50 43Z" fill="#268FBF"/>
<path d="M14 43C14 44.105 14.895 45 16 45H28.52V47H16C14.9 47 14 46.1 14 45V43Z" fill="#268FBF"/>
</g>
<defs>
<filter id="filter0_dd" x="0" y="0" width="65" height="65" filterUnits="userSpaceOnUse" color-interpolation-filters="sRGB">
<feFlood flood-opacity="0" result="BackgroundImageFix"/>
<feColorMatrix in="SourceAlpha" type="matrix" values="0 0 0 0 0 0 0 0 0 0 0 0 0 0 0 0 0 0 127 0" result="hardAlpha"/>
<feMorphology radius="1" operator="erode" in="SourceAlpha" result="effect1_dropShadow"/>
<feOffset dy="2"/>
<feGaussianBlur stdDeviation="2"/>
<feColorMatrix type="matrix" values="0 0 0 0 0 0 0 0 0 0 0 0 0 0 0 0 0 0 0.06 0"/>
<feBlend mode="normal" in2="BackgroundImageFix" result="effect1_dropShadow"/>
<feColorMatrix in="SourceAlpha" type="matrix" values="0 0 0 0 0 0 0 0 0 0 0 0 0 0 0 0 0 0 127 0" result="hardAlpha"/>
<feMorphology radius="1" operator="erode" in="SourceAlpha" result="effect2_dropShadow"/>
<feOffset dy="4"/>
<feGaussianBlur stdDeviation="3"/>
<feColorMatrix type="matrix" values="0 0 0 0 0 0 0 0 0 0 0 0 0 0 0 0 0 0 0.1 0"/>
<feBlend mode="normal" in2="effect1_dropShadow" result="effect2_dropShadow"/>
<feBlend mode="normal" in="SourceGraphic" in2="effect2_dropShadow" result="shape"/>
</filter>
<linearGradient id="paint0_linear" x1="32" y1="45" x2="32" y2="10" gradientUnits="userSpaceOnUse">
<stop stop-color="#33BFF0"/>
<stop offset="1" stop-color="#54DAFF"/>
</linearGradient>
</defs>
</svg>
