<svg width="65" height="65" viewBox="0 0 65 65" fill="none" xmlns="http://www.w3.org/2000/svg">
<mask id="mask0" mask-type="alpha" maskUnits="userSpaceOnUse" x="5" y="1" width="55" height="55">
<rect x="5" y="1" width="55" height="55" rx="6" fill="#F3F4F6"/>
</mask>
<g mask="url(#mask0)">
<g filter="url(#filter0_dd)">
<rect x="5" y="1" width="55" height="55" rx="6" fill="#F3F4F6"/>
</g>
<path fill-rule="evenodd" clip-rule="evenodd" d="M48.2431 13.1298C48.2431 12.6082 47.8196 12.1846 47.2979 12.1846H17.6794C17.1577 12.1846 16.7341 12.6082 16.7341 13.1298V42.7482C16.7341 43.2699 17.1577 43.6935 17.6794 43.6935H47.2979C47.8196 43.6935 48.2431 43.2699 48.2431 42.7482V13.1298Z" fill="#7E4DD2"/>
<path fill-rule="evenodd" clip-rule="evenodd" d="M48.2431 13.1298C48.2431 12.6082 47.8196 12.1846 47.2979 12.1846H29.6528L16.7341 34.5603V42.7482C16.7341 43.2699 17.1577 43.6935 17.6794 43.6935H47.2979C47.8196 43.6935 48.2431 43.2699 48.2431 42.7482V13.1298Z" fill="#7140C2"/>
<path d="M48.6377 44.0984L37.0537 44.101L30.3609 32.5089H48.6547C48.6503 36.37 48.6421 40.2374 48.6377 44.0984ZM36.5767 44.1006H18.3074L27.4472 28.288L36.5767 44.1006ZM17.8404 44.1006H16.3315L16.3264 35.8154L23.3508 23.6452H29.6526C25.7162 30.4631 21.7769 37.2828 17.8404 44.1007V44.1006ZM33.854 23.647C34.4599 23.6546 35.0377 23.9868 35.3488 24.51C35.8315 25.338 36.3073 26.1699 36.7865 26.9998C37.0776 27.5098 37.0994 28.1653 36.8142 28.6993C36.8073 28.7121 36.8004 28.7249 36.7931 28.7377C36.3177 29.5698 35.8349 30.3975 35.3557 31.2275C35.0576 31.7392 34.493 32.0769 33.8977 32.0967C33.8833 32.0972 33.8543 32.0967 33.8543 32.0967H31.1593H31.136C30.5418 32.0941 29.9657 31.7826 29.651 31.2769C29.6431 31.2646 29.6356 31.252 29.628 31.2394C29.1456 30.4114 28.6698 29.5795 28.1905 28.7496C27.8966 28.2351 27.8824 27.5751 28.1625 27.05C28.1694 27.0372 28.1767 27.0244 28.1836 27.0117C28.6591 26.1796 29.1421 25.3518 29.621 24.5219C29.9188 24.0113 30.4841 23.6677 31.079 23.6479C31.0938 23.6474 31.1083 23.6472 31.1228 23.647C32.0334 23.6431 32.9437 23.6431 33.854 23.647V23.647ZM48.6506 11.7769V32.0967H35.3308L47.0626 11.7769H48.6506ZM37.5298 27.4617L29.3396 13.2759L30.2052 11.7769H46.5855L37.5298 27.4617ZM34.6153 23.2358L23.5902 23.234L29.1012 13.6888C30.9382 16.8705 32.7782 20.0541 34.6153 23.2358Z" fill="#58328A"/>
<path fill-rule="evenodd" clip-rule="evenodd" d="M17.6051 43.6932H16.7386L16.7338 35.9245L23.587 24.0544H28.9436L17.6051 43.6932V43.6932ZM48.2432 32.9172V43.6933L37.2887 43.6932L31.0673 32.9172H48.2432ZM35.8708 43.6932H19.0135L27.4469 29.1026L35.8708 43.6932V43.6932ZM48.2432 31.6884H36.0369L47.2976 12.1843H48.2428L48.2432 31.6884ZM33.8423 24.0322C34.3089 24.0342 34.7554 24.3084 34.9968 24.7149C34.9993 24.719 35.004 24.7273 35.004 24.7273L36.4203 27.1807C36.4203 27.1807 36.4285 27.1944 36.4323 27.201C36.6639 27.606 36.6727 28.1163 36.4415 28.5287C35.9666 29.3594 35.4845 30.1861 35.0062 31.0148C34.7712 31.4178 34.3263 31.6808 33.8536 31.6867C32.9515 31.6905 31.1429 31.6884 31.1404 31.6884C30.6737 31.6864 30.22 31.4375 29.9786 31.031C29.9733 31.0222 29.9629 31.0043 29.9629 31.0043C29.9629 31.0043 28.5462 28.5506 28.5431 28.5449C28.3115 28.1399 28.3118 27.6167 28.5431 27.2043L28.5535 27.1861C28.5535 27.1861 29.5016 25.5408 29.9764 24.7182C30.2115 24.3151 30.657 24.0379 31.1297 24.0319C31.1375 24.0319 31.1533 24.0316 31.1533 24.0316L33.8262 24.0322H33.8423V24.0322ZM30.4402 12.1843H45.8797L37.5298 26.6467L29.8101 13.2758L30.4402 12.1843V12.1843ZM33.9062 22.8265H24.296L29.1011 14.5038L33.9062 22.8265Z" fill="url(#paint0_radial)"/>
<path fill-rule="evenodd" clip-rule="evenodd" d="M16.8507 45L16 44.9729L16.0101 37.1784L23.5871 24.0545H28.9436L16.8507 45V45ZM36.5798 44.9212L18.3616 44.8213L27.4469 29.1027L36.5798 44.9212ZM48.9137 44.8743L37.9278 44.7999L31.0673 32.9173H48.9553L48.9137 44.8743ZM23.8054 24.4326L16.3879 37.2799L16.3784 44.6068L16.6365 44.615L28.2888 24.4326H23.8054ZM19.0148 44.447L35.9228 44.5397L27.4469 29.8586L19.0148 44.447V44.447ZM31.7221 33.2954L38.1471 44.4234L48.5368 44.4937L48.5756 33.2954H31.7221V33.2954ZM33.8262 24.0323H33.8423L33.848 24.0323L33.8533 24.0324L33.8587 24.0325L33.8643 24.0326L33.8697 24.0327L33.8751 24.0329L33.8804 24.0331L33.8861 24.0332L33.8914 24.0335L33.8968 24.0338L33.9025 24.034L33.9078 24.0343L33.9132 24.0347L33.9185 24.035L33.9242 24.0354L33.9296 24.0358L33.9349 24.0362L33.9403 24.0367L33.946 24.0372L33.9513 24.0377L33.9567 24.0382L33.962 24.0387L33.9674 24.0393L33.9731 24.0399L33.9784 24.0405L33.9838 24.0412L33.9891 24.0418L33.9945 24.0425L33.9998 24.0432L34.0052 24.044L34.0106 24.0447L34.0159 24.0455L34.0266 24.0471L34.0373 24.0489L34.048 24.0507L34.0588 24.0526L34.0695 24.0546L34.0802 24.0567L34.0909 24.0589L34.1013 24.0612L34.112 24.0635L34.1227 24.066L34.1331 24.0685L34.1438 24.0712L34.1542 24.0739L34.1646 24.0767L34.175 24.0796L34.1857 24.0826L34.1961 24.0857L34.2065 24.0888L34.2169 24.0921L34.227 24.0954L34.2374 24.0989L34.2478 24.1023L34.2579 24.1059L34.2683 24.1096L34.2784 24.1133L34.2885 24.1172L34.2989 24.1211L34.3089 24.1251L34.319 24.1292L34.3291 24.1334L34.3389 24.1376L34.349 24.142L34.359 24.1464L34.3688 24.1509L34.3789 24.1554L34.3887 24.1601L34.3984 24.1648L34.4082 24.1696L34.418 24.1745L34.4277 24.1795L34.4375 24.1845L34.447 24.1896L34.4567 24.1948L34.4662 24.2001L34.4756 24.2054L34.4851 24.2108L34.4945 24.2163L34.504 24.2219L34.5134 24.2276L34.5226 24.2333L34.532 24.2391L34.5412 24.2449L34.5503 24.2509L34.5594 24.2569L34.5686 24.263L34.5777 24.2691L34.5865 24.2753L34.5957 24.2816L34.6045 24.288L34.6133 24.2944L34.6221 24.3009L34.631 24.3075L34.6398 24.3141L34.6483 24.3208L34.6571 24.3276L34.6656 24.3344L34.6741 24.3413L34.6826 24.3483L34.6911 24.3554L34.6993 24.3625L34.7078 24.3696L34.716 24.3769L34.7242 24.3842L34.7324 24.3915L34.7406 24.399L34.7485 24.4065L34.7567 24.414L34.7646 24.4216L34.7724 24.4293L34.7803 24.4371L34.7879 24.4449L34.7958 24.4527L34.8033 24.4607L34.8109 24.4686L34.8184 24.4767L34.8257 24.4848L34.8333 24.4929L34.8405 24.5012L34.8477 24.5094L34.855 24.5178L34.8622 24.5262L34.8695 24.5346L34.8764 24.5431L34.8834 24.5517L34.8903 24.5603L34.8969 24.569L34.9038 24.5777L34.9104 24.5865L34.9171 24.5953L34.9237 24.6042L34.9303 24.6131L34.9366 24.6222L34.9429 24.6312L34.9492 24.6403L34.9555 24.6494L34.9615 24.6586L34.9675 24.6679L34.9735 24.6772L34.9795 24.6866L34.9854 24.696L34.9911 24.7054L34.9968 24.7149L35.004 24.7273L36.4204 27.1807L36.4323 27.2011L36.4377 27.2106L36.443 27.2201L36.4481 27.2297L36.4531 27.2393L36.4585 27.249L36.4632 27.2587L36.4683 27.2684L36.473 27.2782L36.4777 27.288L36.4824 27.2978L36.4868 27.3077L36.4916 27.3176L36.496 27.3275L36.5001 27.3375L36.5045 27.3475L36.5086 27.3575L36.5127 27.3675L36.5168 27.3776L36.5206 27.3877L36.5243 27.3978L36.5281 27.408L36.5319 27.4182L36.5354 27.4284L36.5388 27.4386L36.5423 27.4489L36.5458 27.4592L36.5489 27.4695L36.5521 27.4798L36.5552 27.4902L36.5581 27.5006L36.5612 27.511L36.564 27.5214L36.5666 27.5318L36.5694 27.5423L36.5719 27.5528L36.5744 27.5633L36.577 27.5737L36.5792 27.5843L36.5814 27.5948L36.5836 27.6054L36.5858 27.616L36.5877 27.6266L36.5896 27.6372L36.5915 27.6478L36.593 27.6584L36.5949 27.6691L36.5965 27.6797L36.5978 27.6904L36.5993 27.7011L36.6006 27.7118L36.6019 27.7225L36.6031 27.7332L36.6041 27.7439L36.605 27.7546L36.6059 27.7653L36.6069 27.7761L36.6075 27.7868L36.6082 27.7976L36.6088 27.8083L36.6094 27.8191L36.6097 27.8298L36.61 27.8406L36.6104 27.8514V27.8944L36.61 27.9052V27.916L36.6094 27.9267L36.6091 27.9375L36.6085 27.9483L36.6078 27.959L36.6072 27.9698L36.6066 27.9805L36.6056 27.9913L36.6047 28.002L36.6037 28.0128L36.6025 28.0235L36.6012 28.0342L36.6 28.0449L36.5987 28.0556L36.5971 28.0663L36.5955 28.077L36.594 28.0877L36.5921 28.0983L36.5905 28.109L36.5886 28.1196L36.5864 28.1303L36.5845 28.1409L36.5823 28.1515L36.5801 28.1621L36.5776 28.1726L36.5754 28.1832L36.5729 28.1937L36.5703 28.2043L36.5675 28.2148L36.5647 28.2253L36.5618 28.2357L36.559 28.2462L36.5558 28.2566L36.553 28.267L36.5495 28.2774L36.5464 28.2878L36.5429 28.2981L36.5395 28.3084L36.536 28.3187L36.5325 28.329L36.5287 28.3393L36.525 28.3495L36.5209 28.3597L36.5171 28.3699L36.513 28.38L36.5089 28.3901L36.5045 28.4003L36.5004 28.4103L36.4957 28.4204L36.4913 28.4304L36.4868 28.4403L36.4821 28.4503L36.4774 28.4602L36.4724 28.4701L36.4676 28.4799L36.4626 28.4898L36.4572 28.4995L36.4522 28.5093L36.4468 28.519L36.4415 28.5287L36.397 28.6066L36.3523 28.6844L36.3079 28.7622L36.2631 28.8401L36.2184 28.9178L36.1736 28.9956L36.1289 29.0734L36.0842 29.1511L36.0394 29.2288L35.9947 29.3065L35.9049 29.4619L35.8151 29.6172L35.7253 29.7725L35.6352 29.9278L35.5454 30.0831L35.3654 30.3936L35.2756 30.5489L35.1858 30.7042L35.096 30.8595L35.0062 31.0149L35.0006 31.0243L34.9949 31.0336L34.9892 31.043L34.9836 31.0522L34.9779 31.0614L34.9719 31.0706L34.9659 31.0797L34.9596 31.0888L34.9536 31.0978L34.9473 31.1067L34.941 31.1156L34.9347 31.1244L34.9284 31.1332L34.9218 31.1419L34.9152 31.1506L34.9086 31.1592L34.9019 31.1677L34.895 31.1763L34.8884 31.1847L34.8815 31.1931L34.8745 31.2014L34.8673 31.2097L34.8603 31.2179L34.8531 31.226L34.8459 31.2341L34.8386 31.2421L34.8314 31.2501L34.8238 31.258L34.8162 31.2659L34.8087 31.2737L34.8011 31.2814L34.7936 31.2891L34.7857 31.2967L34.7778 31.3042L34.7702 31.3117L34.762 31.3191L34.7542 31.3264L34.7463 31.3337L34.7381 31.341L34.7299 31.3481L34.7217 31.3552L34.7135 31.3622L34.7053 31.3692L34.6968 31.3761L34.6886 31.3829L34.6801 31.3897L34.6716 31.3964L34.6628 31.403L34.6543 31.4096L34.6455 31.4161L34.637 31.4225L34.6281 31.4289L34.6193 31.4352L34.6105 31.4414L34.6017 31.4475L34.5925 31.4536L34.5834 31.4596L34.5746 31.4656L34.5654 31.4714L34.5563 31.4772L34.5468 31.483L34.5377 31.4886L34.5286 31.4942L34.5191 31.4997L34.5097 31.5052L34.5002 31.5105L34.4907 31.5158L34.4813 31.5211L34.4718 31.5262L34.4621 31.5313L34.4526 31.5363L34.4429 31.5412L34.4331 31.546L34.4233 31.5508L34.4135 31.5555L34.4038 31.5601L34.394 31.5647L34.3839 31.5691L34.3742 31.5735L34.3641 31.5778L34.354 31.5821L34.3439 31.5862L34.3338 31.5903L34.3237 31.5943L34.3137 31.5982L34.3036 31.602L34.2935 31.6058L34.2831 31.6095L34.2727 31.6131L34.2626 31.6166L34.2522 31.62L34.2418 31.6234L34.2314 31.6266L34.221 31.6298L34.2106 31.6329L34.2002 31.6359L34.1895 31.6389L34.1791 31.6417L34.1684 31.6445L34.158 31.6472L34.1473 31.6498L34.1366 31.6523L34.1262 31.6548L34.1155 31.6571L34.1048 31.6594L34.094 31.6615L34.0833 31.6636L34.0726 31.6656L34.0616 31.6675L34.0509 31.6693L34.0402 31.6711L34.0291 31.6727L34.0184 31.6743L34.0074 31.6757L33.9967 31.6771L33.9857 31.6784L33.9746 31.6796L33.9639 31.6807L33.9529 31.6817L33.9419 31.6827L33.9308 31.6835L33.9198 31.6842L33.9088 31.6849L33.8977 31.6854L33.8867 31.6859L33.8757 31.6863L33.8647 31.6866L33.8536 31.6867L33.7664 31.6871L33.6743 31.6874L33.5782 31.6876L33.478 31.6879L33.3747 31.6881L33.2685 31.6883L33.1598 31.6885L33.0495 31.6886L32.8252 31.6888L32.5993 31.6889L32.3762 31.689H32.1597L31.9536 31.689L31.7621 31.6889L31.5891 31.6888L31.4385 31.6887L31.2207 31.6885L31.1404 31.6884L31.1294 31.6883L31.1187 31.6882L31.1076 31.6879L31.0966 31.6875L31.0859 31.6871L31.0749 31.6865L31.0641 31.6859L31.0531 31.6852L31.0424 31.6844L31.0314 31.6835L31.0207 31.6825L31.0096 31.6814L30.9989 31.6803L30.9882 31.679L30.9772 31.6777L30.9665 31.6763L30.9558 31.6748L30.945 31.6732L30.934 31.6715L30.9233 31.6698L30.9126 31.6679L30.9019 31.666L30.8915 31.664L30.8808 31.6619L30.87 31.6597L30.8593 31.6574L30.8486 31.6551L30.8382 31.6526L30.8275 31.6501L30.8171 31.6475L30.8064 31.6448L30.796 31.6421L30.7856 31.6392L30.7752 31.6363L30.7648 31.6333L30.7541 31.6302L30.7437 31.627L30.7336 31.6237L30.7232 31.6204L30.7128 31.617L30.7027 31.6135L30.6923 31.6099L30.6819 31.6062L30.6719 31.6025L30.6618 31.5987L30.6517 31.5948L30.6416 31.5908L30.6315 31.5868L30.6214 31.5826L30.6114 31.5784L30.6016 31.5741L30.5915 31.5698L30.5817 31.5653L30.5717 31.5608L30.5619 31.5562L30.5521 31.5515L30.5424 31.5468L30.5326 31.542L30.5228 31.5371L30.5134 31.5321L30.5036 31.527L30.4941 31.5219L30.4847 31.5167L30.4752 31.5114L30.4658 31.5061L30.4563 31.5007L30.4469 31.4952L30.4374 31.4896L30.4283 31.484L30.4192 31.4783L30.4097 31.4725L30.4006 31.4666L30.3917 31.4607L30.3826 31.4547L30.3735 31.4486L30.3646 31.4425L30.3558 31.4362L30.3467 31.43L30.3382 31.4236L30.3294 31.4172L30.3205 31.4107L30.312 31.4041L30.3032 31.3975L30.2947 31.3908L30.2862 31.384L30.2777 31.3772L30.2695 31.3702L30.261 31.3633L30.2528 31.3562L30.2446 31.3491L30.2364 31.3419L30.2282 31.3347L30.22 31.3273L30.2121 31.32L30.2043 31.3125L30.1964 31.305L30.1885 31.2974L30.1806 31.2898L30.1731 31.2821L30.1655 31.2743L30.1579 31.2664L30.1504 31.2585L30.1428 31.2506L30.1356 31.2425L30.128 31.2344L30.1208 31.2263L30.1135 31.218L30.1066 31.2097L30.0993 31.2014L30.0924 31.193L30.0855 31.1845L30.0785 31.1759L30.0719 31.1673L30.065 31.1587L30.0584 31.1499L30.0518 31.1412L30.0455 31.1323L30.0388 31.1234L30.0325 31.1145L30.0262 31.1054L30.0199 31.0964L30.0168 31.0918L30.0139 31.0872L30.0108 31.0826L30.0076 31.078L30.0048 31.0734L30.0017 31.0687L29.9988 31.0641L29.9957 31.0594L29.9928 31.0547L29.99 31.05L29.9872 31.0453L29.9843 31.0406L29.9812 31.0359L29.9787 31.0311L29.9629 31.0043L28.5431 28.5449L28.5403 28.5402L28.5378 28.5354L28.5352 28.5306L28.5324 28.5259L28.5299 28.5211L28.5274 28.5163L28.522 28.5066L28.517 28.497L28.5122 28.4872L28.5072 28.4775L28.5025 28.4677L28.4977 28.4578L28.493 28.448L28.4886 28.438L28.4842 28.4281L28.4798 28.4181L28.4754 28.4081L28.4713 28.3981L28.4672 28.388L28.4631 28.3779L28.4593 28.3677L28.4552 28.3575L28.4514 28.3473L28.448 28.3371L28.4442 28.3268L28.4407 28.3165L28.4372 28.3062L28.4341 28.2958L28.4306 28.2854L28.4275 28.275L28.4243 28.2646L28.4215 28.2541L28.4186 28.2437L28.4158 28.2331L28.413 28.2226L28.4101 28.2121L28.4076 28.2015L28.4051 28.1909L28.4029 28.1803L28.4004 28.1696L28.3982 28.159L28.396 28.1483L28.3941 28.1376L28.3919 28.1269L28.39 28.1162L28.3884 28.1054L28.3865 28.0947L28.3849 28.0839L28.3834 28.0731L28.3818 28.0623L28.3805 28.0515L28.3793 28.0407L28.378 28.0299L28.3767 28.019L28.3758 28.0082L28.3745 27.9973L28.3739 27.9865L28.373 27.9756L28.3723 27.9647L28.3717 27.9538L28.3711 27.9429L28.3708 27.932L28.3704 27.9211L28.3701 27.9102L28.3698 27.8993V27.8883L28.3695 27.8774L28.3698 27.8665V27.8556L28.3701 27.8447L28.3704 27.8337L28.3708 27.8228L28.3711 27.8119L28.3717 27.801L28.3723 27.7901L28.373 27.7792L28.3739 27.7683L28.3748 27.7574L28.3758 27.7464L28.3767 27.7356L28.378 27.7247L28.3793 27.7138L28.3805 27.703L28.3818 27.6921L28.3834 27.6813L28.3849 27.6704L28.3865 27.6596L28.3884 27.6488L28.3903 27.638L28.3922 27.6272L28.3941 27.6164L28.3963 27.6057L28.3982 27.595L28.4007 27.5842L28.4029 27.5735L28.4054 27.5628L28.4079 27.5521L28.4105 27.5415L28.413 27.5308L28.4158 27.5202L28.4186 27.5096L28.4215 27.499L28.4246 27.4885L28.4278 27.478L28.4309 27.4674L28.4341 27.457L28.4376 27.4465L28.441 27.4361L28.4445 27.4257L28.448 27.4153L28.4517 27.4049L28.4555 27.3946L28.4593 27.3843L28.4634 27.374L28.4675 27.3637L28.4716 27.3535L28.4757 27.3434L28.4798 27.3332L28.4842 27.3231L28.4886 27.313L28.4933 27.3029L28.4977 27.2929L28.5025 27.2829L28.5072 27.273L28.5122 27.2631L28.5173 27.2532L28.5223 27.2433L28.5274 27.2335L28.5324 27.2238L28.5378 27.214L28.5431 27.2044L28.5535 27.1862L28.7092 26.9163L28.8787 26.6222L29.087 26.2607L29.3176 25.8606L29.5539 25.4509L29.7792 25.0605L29.8822 24.8815L29.9765 24.7182L29.9821 24.7088L29.9878 24.6994L29.9935 24.6901L29.9991 24.6808L30.0051 24.6716L30.0111 24.6624L30.0171 24.6533L30.0231 24.6442L30.0291 24.6351L30.0354 24.6261L30.0417 24.6172L30.048 24.6083L30.0546 24.5995L30.0609 24.5907L30.0675 24.5819L30.0741 24.5732L30.0811 24.5646L30.0877 24.556L30.0946 24.5475L30.1015 24.5391L30.1085 24.5306L30.1154 24.5223L30.1227 24.514L30.1296 24.5057L30.1371 24.4975L30.1444 24.4894L30.1516 24.4813L30.1592 24.4733L30.1665 24.4653L30.174 24.4574L30.1819 24.4496L30.1895 24.4418L30.197 24.4341L30.2049 24.4264L30.2128 24.4188L30.2206 24.4112L30.2288 24.4038L30.2367 24.3963L30.2449 24.389L30.2528 24.3817L30.2613 24.3744L30.2695 24.3672L30.2777 24.3601L30.2862 24.3531L30.2944 24.3461L30.3029 24.3392L30.3114 24.3323L30.3199 24.3255L30.3287 24.3188L30.3372 24.3122L30.3461 24.3056L30.3549 24.2991L30.3637 24.2926L30.3725 24.2862L30.3813 24.2799L30.3905 24.2736L30.3996 24.2675L30.4084 24.2613L30.4176 24.2553L30.4267 24.2493L30.4362 24.2434L30.4453 24.2376L30.4548 24.2319L30.4639 24.2262L30.4734 24.2206L30.4828 24.215L30.4923 24.2096L30.5017 24.2042L30.5115 24.1989L30.5209 24.1936L30.5307 24.1885L30.5401 24.1834L30.5499 24.1784L30.5597 24.1734L30.5695 24.1686L30.5792 24.1638L30.5893 24.1591L30.5991 24.1545L30.6092 24.1499L30.6189 24.1455L30.629 24.1411L30.6391 24.1368L30.6492 24.1325L30.6593 24.1284L30.6693 24.1243L30.6797 24.1203L30.6898 24.1164L30.7002 24.1126L30.7103 24.1089L30.7207 24.1052L30.7311 24.1016L30.7415 24.0981L30.7519 24.0947L30.7623 24.0914L30.7727 24.0882L30.7831 24.0851L30.7935 24.082L30.8042 24.079L30.8146 24.0761L30.8253 24.0733L30.836 24.0706L30.8464 24.068L30.8571 24.0654L30.8678 24.063L30.8786 24.0606L30.8893 24.0584L30.9 24.0562L30.9107 24.0541L30.9217 24.0521L30.9324 24.0502L30.9431 24.0484L30.9542 24.0466L30.9595 24.0458L30.9649 24.045L30.9702 24.0442L30.9759 24.0435L30.9813 24.0428L30.9866 24.042L30.9923 24.0413L30.9977 24.0407L31.003 24.0401L31.0087 24.0394L31.014 24.0389L31.0194 24.0383L31.0251 24.0377L31.0304 24.0372L31.0358 24.0367L31.0415 24.0362L31.0468 24.0358L31.0525 24.0354L31.0578 24.035L31.0635 24.0346L31.0689 24.0343L31.0745 24.0339L31.0799 24.0336L31.0856 24.0333L31.0909 24.0331L31.0966 24.0329L31.102 24.0327L31.1076 24.0325L31.113 24.0323L31.1187 24.0322L31.124 24.0321L31.1297 24.032L31.1369 24.0319L31.1445 24.0318L31.1533 24.0316L33.8262 24.0323V24.0323ZM48.8932 31.6884H36.0369L47.9467 11.0602L48.9269 11L48.8932 31.6884ZM31.1517 24.4098L31.142 24.41L31.1344 24.4101L31.1306 24.4101L31.1268 24.4102L31.1228 24.4103L31.119 24.4104L31.1152 24.4105L31.1114 24.4107L31.1076 24.4108L31.1038 24.411L31.0997 24.4112L31.096 24.4114L31.0922 24.4116L31.0884 24.4119L31.0846 24.4121L31.0805 24.4124L31.0767 24.4127L31.073 24.413L31.0692 24.4134L31.0654 24.4137L31.0616 24.4141L31.0575 24.4144L31.0537 24.4149L31.05 24.4153L31.0462 24.4157L31.0424 24.4161L31.0386 24.4166L31.0345 24.4171L31.0307 24.4176L31.027 24.4181L31.0232 24.4186L31.0194 24.4192L31.0156 24.4198L31.0122 24.4203L31.004 24.4215L30.9964 24.4228L30.9888 24.4242L30.9813 24.4256L30.9737 24.427L30.9658 24.4286L30.9583 24.4302L30.9507 24.4319L30.9431 24.4336L30.9356 24.4354L30.928 24.4373L30.9205 24.4392L30.9129 24.4412L30.9053 24.4433L30.8981 24.4454L30.8905 24.4476L30.883 24.4499L30.8754 24.4522L30.8678 24.4546L30.8606 24.457L30.853 24.4595L30.8458 24.4621L30.8382 24.4647L30.8307 24.4674L30.8234 24.4702L30.8162 24.473L30.8086 24.4758L30.8014 24.4788L30.7941 24.4818L30.7869 24.4849L30.7796 24.488L30.7724 24.4911L30.7651 24.4944L30.7579 24.4977L30.7506 24.5011L30.7434 24.5045L30.7361 24.508L30.7292 24.5115L30.722 24.5151L30.715 24.5187L30.7078 24.5225L30.7008 24.5262L30.6939 24.5301L30.687 24.5339L30.6797 24.5379L30.6728 24.5419L30.6659 24.5459L30.6593 24.55L30.6523 24.5542L30.6454 24.5584L30.6388 24.5627L30.6318 24.567L30.6252 24.5714L30.6186 24.5758L30.612 24.5803L30.6054 24.5848L30.5988 24.5894L30.5921 24.594L30.5855 24.5987L30.5792 24.6034L30.5726 24.6083L30.5663 24.6131L30.56 24.618L30.5537 24.6229L30.5474 24.6279L30.5411 24.6329L30.5348 24.638L30.5285 24.6431L30.5225 24.6483L30.5162 24.6535L30.5102 24.6588L30.5042 24.6641L30.4982 24.6695L30.4923 24.6749L30.4866 24.6803L30.4806 24.6858L30.4749 24.6913L30.4689 24.6969L30.4633 24.7026L30.4576 24.7082L30.4522 24.7139L30.4466 24.7197L30.4409 24.7254L30.4355 24.7313L30.4302 24.7372L30.4248 24.743L30.4195 24.749L30.4141 24.7549L30.4088 24.7609L30.4037 24.767L30.3987 24.7731L30.3933 24.7793L30.3886 24.7854L30.3835 24.7916L30.3785 24.7978L30.3738 24.8041L30.3687 24.8104L30.364 24.8168L30.3593 24.8231L30.3549 24.8295L30.3501 24.8359L30.3457 24.8424L30.341 24.8489L30.3366 24.8554L30.3322 24.862L30.3281 24.8686L30.3237 24.8751L30.3196 24.8818L30.3155 24.8885L30.3114 24.8951L30.3073 24.9019L30.3032 24.9086L30.2099 25.0705L30.1066 25.2494L29.8813 25.6398L29.6453 26.0495L29.4146 26.4495L29.2064 26.811L29.0369 27.1051L28.8815 27.3744L28.8727 27.39L28.8692 27.3962L28.8654 27.4032L28.8617 27.4101L28.8582 27.4171L28.8544 27.4241L28.851 27.4312L28.8475 27.4383L28.844 27.4454L28.8406 27.4526L28.8374 27.4598L28.8339 27.467L28.8308 27.4742L28.8276 27.4815L28.8248 27.4888L28.8216 27.4961L28.8188 27.5034L28.8157 27.5108L28.8128 27.5182L28.8103 27.5257L28.8075 27.5331L28.8049 27.5406L28.8021 27.5481L28.7996 27.5556L28.7971 27.5632L28.7949 27.5708L28.7923 27.5783L28.7901 27.5859L28.7879 27.5936L28.7857 27.6013L28.7835 27.609L28.7813 27.6167L28.7794 27.6244L28.7775 27.6321L28.7756 27.6399L28.7738 27.6476L28.7722 27.6554L28.7703 27.6632L28.7687 27.671L28.7671 27.6789L28.7656 27.6867L28.7643 27.6946L28.7627 27.7024L28.7615 27.7103L28.7602 27.7182L28.7589 27.7261L28.7577 27.734L28.7567 27.742L28.7558 27.7499L28.7548 27.7579L28.7539 27.7658L28.753 27.7737L28.7523 27.7817L28.7514 27.7897L28.7508 27.7977L28.7501 27.8056L28.7498 27.8136L28.7492 27.8216L28.7489 27.8296L28.7485 27.8376L28.7482 27.8456L28.7479 27.8535V27.8696L28.7476 27.8775L28.7479 27.8855V27.9015L28.7482 27.9094L28.7485 27.9174L28.7489 27.9254L28.7492 27.9333L28.7498 27.9413L28.7501 27.9492L28.7508 27.9572L28.7514 27.9651L28.752 27.973L28.753 27.9809L28.7539 27.9888L28.7545 27.9967L28.7555 28.0046L28.7567 28.0124L28.7577 28.0203L28.7589 28.0281L28.7599 28.036L28.7611 28.0438L28.7627 28.0516L28.764 28.0593L28.7656 28.0671L28.7668 28.0748L28.7684 28.0825L28.77 28.0902L28.7719 28.0979L28.7734 28.1056L28.7753 28.1132L28.7772 28.1209L28.7791 28.1284L28.781 28.136L28.7832 28.1436L28.7851 28.1511L28.7873 28.1586L28.7895 28.1661L28.792 28.1736L28.7942 28.181L28.7968 28.1884L28.799 28.1958L28.8015 28.2032L28.8043 28.2105L28.8068 28.2178L28.8094 28.225L28.8122 28.2323L28.815 28.2395L28.8179 28.2467L28.8207 28.2538L28.8239 28.261L28.8267 28.2681L28.8298 28.2751L28.833 28.2822L28.8361 28.2892L28.8396 28.2961L28.8428 28.303L28.8462 28.31L28.8497 28.3168L28.8532 28.3236L28.8566 28.3304L28.8604 28.3376L28.862 28.3405L28.8639 28.3439L28.8658 28.3473L28.8676 28.3506L28.8695 28.3539L28.8711 28.3569L30.29 30.8146L30.3041 30.839L30.3054 30.8413L30.3076 30.8447L30.3095 30.848L30.3117 30.8513L30.3136 30.8546L30.3158 30.8579L30.3177 30.8611L30.3199 30.8644L30.3221 30.8677L30.3243 30.871L30.3262 30.8742L30.3284 30.8775L30.3306 30.8807L30.3325 30.8836L30.3372 30.8903L30.3416 30.8967L30.3461 30.903L30.3508 30.9093L30.3552 30.9156L30.3599 30.9219L30.3646 30.928L30.3694 30.9341L30.3744 30.9403L30.3791 30.9463L30.3842 30.9524L30.3892 30.9583L30.3943 30.9643L30.3993 30.9702L30.4043 30.976L30.4094 30.9818L30.4147 30.9876L30.4201 30.9934L30.4255 30.9991L30.4308 31.0047L30.4362 31.0103L30.4415 31.0159L30.4472 31.0214L30.4526 31.0269L30.4582 31.0324L30.4639 31.0377L30.4696 31.0431L30.4756 31.0484L30.4812 31.0537L30.4872 31.0589L30.4929 31.0641L30.4989 31.0692L30.5049 31.0743L30.5108 31.0793L30.5168 31.0843L30.5231 31.0892L30.5291 31.0941L30.5354 31.099L30.5414 31.1038L30.5477 31.1085L30.554 31.1132L30.5606 31.1179L30.5669 31.1225L30.5732 31.127L30.5799 31.1315L30.5862 31.136L30.5928 31.1404L30.5994 31.1447L30.606 31.1491L30.6126 31.1533L30.6192 31.1575L30.6259 31.1617L30.6328 31.1658L30.6394 31.1698L30.6463 31.1738L30.6533 31.1778L30.6602 31.1817L30.6668 31.1855L30.6737 31.1893L30.681 31.193L30.6879 31.1967L30.6949 31.2003L30.7018 31.2039L30.709 31.2074L30.7163 31.2109L30.7232 31.2143L30.7305 31.2176L30.7377 31.2209L30.745 31.2242L30.7522 31.2274L30.7595 31.2305L30.7667 31.2335L30.7739 31.2366L30.7812 31.2395L30.7888 31.2424L30.796 31.2452L30.8036 31.248L30.8108 31.2507L30.8184 31.2534L30.8259 31.256L30.8332 31.2586L30.8407 31.261L30.8483 31.2635L30.8559 31.2659L30.8634 31.2682L30.871 31.2704L30.8786 31.2726L30.8861 31.2748L30.8937 31.2768L30.9016 31.2788L30.9091 31.2808L30.9167 31.2827L30.9246 31.2845L30.9321 31.2863L30.9397 31.288L30.9476 31.2896L30.9551 31.2912L30.963 31.2927L30.9706 31.2942L30.9784 31.2956L30.986 31.2969L30.9939 31.2982L31.0018 31.2994L31.0093 31.3005L31.0172 31.3016L31.0251 31.3026L31.0326 31.3036L31.0405 31.3045L31.0484 31.3053L31.0563 31.3061L31.0638 31.3068L31.0717 31.3074L31.0796 31.308L31.0875 31.3085L31.095 31.309L31.1029 31.3094L31.1108 31.3097L31.1187 31.3099L31.1265 31.3101L31.1341 31.3103L31.1423 31.3103L31.2211 31.3104L31.4388 31.3106L31.5894 31.3107L31.7621 31.3108L31.9536 31.3109L32.1597 31.3109H32.3762L32.5993 31.3108L32.8249 31.3107L33.0492 31.3105L33.1595 31.3104L33.2679 31.3102L33.3741 31.31L33.4774 31.3098L33.5773 31.3095L33.6734 31.3093L33.7651 31.309L33.8495 31.3087L33.8568 31.3085L33.8647 31.3083L33.8725 31.3081L33.8804 31.3077L33.8883 31.3073L33.8959 31.3069L33.9037 31.3064L33.9116 31.3058L33.9195 31.3051L33.9274 31.3044L33.9349 31.3036L33.9428 31.3027L33.9507 31.3018L33.9586 31.3008L33.9661 31.2998L33.974 31.2986L33.9819 31.2975L33.9894 31.2962L33.9973 31.2949L34.0049 31.2936L34.0128 31.2921L34.0203 31.2906L34.0282 31.2891L34.0358 31.2875L34.0433 31.2858L34.0512 31.284L34.0588 31.2822L34.0663 31.2803L34.0739 31.2784L34.0818 31.2764L34.0893 31.2743L34.0969 31.2722L34.1044 31.2701L34.112 31.2678L34.1196 31.2655L34.1268 31.2632L34.1344 31.2607L34.1419 31.2582L34.1492 31.2557L34.1568 31.2531L34.164 31.2504L34.1716 31.2477L34.1788 31.2449L34.1864 31.2421L34.1936 31.2392L34.2009 31.2362L34.2081 31.2333L34.2154 31.2302L34.2226 31.227L34.2299 31.2238L34.2371 31.2206L34.2443 31.2173L34.2513 31.214L34.2585 31.2105L34.2655 31.2071L34.2727 31.2035L34.2796 31.2L34.2866 31.1963L34.2938 31.1926L34.3007 31.1889L34.3077 31.1851L34.3143 31.1813L34.3212 31.1773L34.3282 31.1734L34.3348 31.1694L34.3417 31.1653L34.3483 31.1612L34.3553 31.157L34.3619 31.1528L34.3685 31.1486L34.3751 31.1442L34.3814 31.1398L34.388 31.1354L34.3946 31.1309L34.4009 31.1264L34.4072 31.1218L34.4139 31.1172L34.4202 31.1125L34.4265 31.1078L34.4328 31.1031L34.4388 31.0982L34.4451 31.0934L34.4514 31.0885L34.4573 31.0835L34.4633 31.0785L34.4693 31.0735L34.4753 31.0684L34.4813 31.0632L34.4873 31.058L34.4933 31.0528L34.4989 31.0475L34.5046 31.0422L34.5103 31.0369L34.516 31.0314L34.5216 31.026L34.5273 31.0205L34.533 31.015L34.5383 31.0094L34.5437 31.0038L34.549 30.9981L34.5544 30.9924L34.5598 30.9867L34.5651 30.9809L34.5702 30.9751L34.5755 30.9692L34.5805 30.9634L34.5856 30.9574L34.5906 30.9515L34.5957 30.9454L34.6004 30.9394L34.6051 30.9333L34.6102 30.9272L34.6149 30.921L34.6196 30.9148L34.624 30.9086L34.6288 30.9023L34.6332 30.896L34.6376 30.8897L34.6423 30.8833L34.6464 30.8769L34.6508 30.8705L34.6552 30.864L34.6593 30.8575L34.6634 30.851L34.6675 30.8444L34.6716 30.8378L34.6757 30.8311L34.6795 30.8244L34.7687 30.6703L34.8585 30.5149L34.9483 30.3595L35.0384 30.2041L35.2183 29.8936L35.3081 29.7384L35.3979 29.5831L35.4877 29.428L35.5775 29.2727L35.667 29.1175L35.7117 29.0399L35.7565 28.9623L35.8012 28.8847L35.846 28.807L35.8907 28.7294L35.9351 28.6517L35.9799 28.5741L36.0243 28.4964L36.0687 28.4187L36.1122 28.343L36.1157 28.3369L36.1194 28.33L36.1229 28.3231L36.1267 28.3161L36.1302 28.3091L36.1336 28.3021L36.1371 28.2951L36.1406 28.2881L36.144 28.281L36.1472 28.2739L36.1503 28.2668L36.1535 28.2597L36.1566 28.2525L36.1595 28.2453L36.1626 28.2381L36.1654 28.2309L36.1683 28.2236L36.1711 28.2163L36.1736 28.209L36.1765 28.2017L36.179 28.1944L36.1815 28.187L36.184 28.1797L36.1862 28.1723L36.1888 28.1649L36.191 28.1575L36.1932 28.15L36.1954 28.1425L36.1976 28.135L36.1995 28.1275L36.2014 28.12L36.2033 28.1125L36.2052 28.1049L36.207 28.0974L36.2089 28.0898L36.2105 28.0822L36.2121 28.0746L36.2137 28.067L36.2152 28.0594L36.2165 28.0518L36.2178 28.0441L36.219 28.0364L36.2203 28.0287L36.2215 28.0211L36.2228 28.0134L36.2237 28.0056L36.2247 27.998L36.2256 27.9902L36.2266 27.9825L36.2275 27.9748L36.2282 27.967L36.2288 27.9593L36.2294 27.9515L36.23 27.9437L36.2307 27.936L36.231 27.9282L36.2313 27.9204L36.2316 27.9126L36.2319 27.9048L36.2323 27.8971V27.8581L36.2319 27.8503V27.8425L36.2316 27.8347L36.2313 27.8269L36.2307 27.8192L36.2304 27.8114L36.2297 27.8036L36.2291 27.7958L36.2285 27.788L36.2278 27.7803L36.2269 27.7725L36.2263 27.7647L36.2253 27.757L36.2244 27.7493L36.2234 27.7415L36.2222 27.7338L36.2209 27.7261L36.22 27.7184L36.2187 27.7107L36.2171 27.703L36.2159 27.6953L36.2143 27.6877L36.2127 27.68L36.2115 27.6724L36.2096 27.6647L36.208 27.6571L36.2061 27.6495L36.2045 27.6419L36.2026 27.6343L36.2007 27.6267L36.1985 27.6192L36.1966 27.6117L36.1944 27.6042L36.1922 27.5967L36.19 27.5892L36.1878 27.5818L36.1856 27.5743L36.1831 27.5668L36.1806 27.5595L36.1781 27.5521L36.1755 27.5447L36.1727 27.5374L36.1702 27.53L36.1673 27.5228L36.1645 27.5155L36.1617 27.5082L36.1588 27.501L36.1557 27.4938L36.1528 27.4866L36.1497 27.4794L36.1465 27.4723L36.1434 27.4652L36.1399 27.4581L36.1368 27.4511L36.1333 27.444L36.1298 27.437L36.1264 27.4301L36.1226 27.4231L36.1191 27.4162L36.1154 27.4093L36.1116 27.4024L36.1078 27.3956L36.104 27.3888L36.093 27.3698L34.677 24.917L34.6713 24.9073L34.6675 24.9012L34.6634 24.8943L34.6593 24.8875L34.6549 24.8807L34.6505 24.8739L34.6461 24.8672L34.6417 24.8605L34.637 24.8538L34.6325 24.8472L34.6278 24.8406L34.6231 24.834L34.6184 24.8274L34.6136 24.821L34.6089 24.8145L34.6039 24.808L34.5991 24.8017L34.5941 24.7953L34.5891 24.789L34.584 24.7827L34.5787 24.7765L34.5736 24.7703L34.5683 24.7641L34.5629 24.758L34.5575 24.7519L34.5522 24.7459L34.5468 24.7399L34.5412 24.7339L34.5358 24.728L34.5301 24.7221L34.5245 24.7163L34.5188 24.7105L34.5131 24.7048L34.5074 24.6991L34.5015 24.6934L34.4958 24.6878L34.4898 24.6822L34.4838 24.6767L34.4778 24.6712L34.4718 24.6658L34.4659 24.6604L34.4599 24.6551L34.4536 24.6498L34.4476 24.6446L34.4413 24.6394L34.435 24.6343L34.4287 24.6291L34.4224 24.6241L34.4161 24.6191L34.4098 24.6142L34.4032 24.6093L34.3969 24.6045L34.3902 24.5997L34.3836 24.5949L34.3773 24.5903L34.3707 24.5856L34.3641 24.5811L34.3575 24.5766L34.3508 24.5721L34.3439 24.5677L34.3373 24.5633L34.3304 24.559L34.3237 24.5548L34.3168 24.5506L34.3099 24.5465L34.3033 24.5424L34.2963 24.5384L34.2894 24.5344L34.2822 24.5305L34.2752 24.5267L34.2683 24.5229L34.2614 24.5191L34.2544 24.5155L34.2472 24.5119L34.2403 24.5083L34.233 24.5048L34.2258 24.5014L34.2188 24.498L34.2116 24.4947L34.2043 24.4915L34.1971 24.4883L34.1902 24.4852L34.1829 24.4821L34.1757 24.4791L34.1684 24.4761L34.1608 24.4732L34.1536 24.4704L34.1464 24.4677L34.1391 24.465L34.1319 24.4623L34.1243 24.4598L34.1171 24.4573L34.1095 24.4548L34.1022 24.4524L34.095 24.4501L34.0874 24.4479L34.0802 24.4457L34.0726 24.4436L34.0654 24.4415L34.0578 24.4395L34.0503 24.4376L34.043 24.4357L34.0354 24.4339L34.0279 24.4322L34.0206 24.4305L34.0131 24.4289L34.0055 24.4274L33.9983 24.4259L33.9907 24.4245L33.9831 24.4232L33.9756 24.4219L33.968 24.4207L33.9601 24.4195L33.957 24.419L33.9532 24.4185L33.9494 24.4179L33.9456 24.4175L33.9419 24.417L33.9381 24.4165L33.9343 24.4161L33.9308 24.4156L33.9271 24.4152L33.9233 24.4148L33.9195 24.4144L33.9157 24.4141L33.9119 24.4138L33.9081 24.4134L33.9044 24.4131L33.9006 24.4128L33.8971 24.4125L33.8933 24.4123L33.8896 24.412L33.8858 24.4118L33.882 24.4116L33.8782 24.4114L33.8744 24.4112L33.8707 24.411L33.8669 24.4109L33.8634 24.4108L33.8596 24.4107L33.8558 24.4106L33.8521 24.4105L33.8483 24.4104L33.8445 24.4104L33.841 24.4104H33.8262L31.1574 24.4097L31.1517 24.4098V24.4098ZM48.1726 11.4251L36.692 31.3103H48.5157L48.5482 11.4021L48.1726 11.4251V11.4251ZM37.5298 26.6468L29.8101 13.2759L31.0405 11.145L46.5193 11.0768L37.5298 26.6468V26.6468ZM31.2592 11.5222L30.2468 13.2759L37.5298 25.8906L45.8627 11.4578L31.2592 11.5222V11.5222ZM33.9063 22.8265H24.296L29.1011 14.5038L33.9063 22.8265ZM24.9511 22.4484H33.2515L29.1011 15.26L24.9511 22.4484Z" fill="url(#paint1_linear)"/>
</g>
<defs>
<filter id="filter0_dd" x="0" y="0" width="65" height="65" filterUnits="userSpaceOnUse" color-interpolation-filters="sRGB">
<feFlood flood-opacity="0" result="BackgroundImageFix"/>
<feColorMatrix in="SourceAlpha" type="matrix" values="0 0 0 0 0 0 0 0 0 0 0 0 0 0 0 0 0 0 127 0" result="hardAlpha"/>
<feMorphology radius="1" operator="erode" in="SourceAlpha" result="effect1_dropShadow"/>
<feOffset dy="2"/>
<feGaussianBlur stdDeviation="2"/>
<feColorMatrix type="matrix" values="0 0 0 0 0 0 0 0 0 0 0 0 0 0 0 0 0 0 0.06 0"/>
<feBlend mode="normal" in2="BackgroundImageFix" result="effect1_dropShadow"/>
<feColorMatrix in="SourceAlpha" type="matrix" values="0 0 0 0 0 0 0 0 0 0 0 0 0 0 0 0 0 0 127 0" result="hardAlpha"/>
<feMorphology radius="1" operator="erode" in="SourceAlpha" result="effect2_dropShadow"/>
<feOffset dy="4"/>
<feGaussianBlur stdDeviation="3"/>
<feColorMatrix type="matrix" values="0 0 0 0 0 0 0 0 0 0 0 0 0 0 0 0 0 0 0.1 0"/>
<feBlend mode="normal" in2="effect1_dropShadow" result="effect2_dropShadow"/>
<feBlend mode="normal" in="SourceGraphic" in2="effect2_dropShadow" result="shape"/>
</filter>
<radialGradient id="paint0_radial" cx="0" cy="0" r="1" gradientUnits="userSpaceOnUse" gradientTransform="translate(40.8174 6.26251) scale(37.4308 37.4307)">
<stop stop-color="#F9A6FF"/>
<stop offset="1" stop-color="#EA73FF"/>
</radialGradient>
<linearGradient id="paint1_linear" x1="38.5542" y1="12.1844" x2="38.5542" y2="43.6933" gradientUnits="userSpaceOnUse">
<stop stop-color="#F7B3FF"/>
<stop offset="1" stop-color="#EE8AFF"/>
</linearGradient>
</defs>
</svg>
