<svg width="65" height="65" viewBox="0 0 65 65" fill="none" xmlns="http://www.w3.org/2000/svg">
<mask id="mask0" mask-type="alpha" maskUnits="userSpaceOnUse" x="5" y="1" width="55" height="55">
<rect x="5" y="1" width="55" height="55" rx="6" fill="#F3F4F6"/>
</mask>
<g mask="url(#mask0)">
<g filter="url(#filter0_dd)">
<rect x="5" y="1" width="55" height="55" rx="6" fill="#F3F4F6"/>
</g>
<path d="M19.8482 30.0066H18.6774L17.3325 26.3814L16.5774 28.3644H17.7397L18.059 29.2274H16.2937L15.9882 30.0076H14.8174L16.6854 25.4015H17.9792L19.8482 30.0066ZM40.7234 30.0066V29.1435H38.6734V25.402H37.634V30.0081L40.7234 30.0066ZM46.7143 30.0066V29.1435H44.6654V25.402H43.6244V30.0081L46.7143 30.0066ZM31.8773 26.2262C31.569 26.2262 31.2677 26.313 31.0113 26.4757C30.755 26.6385 30.5552 26.8698 30.4372 27.1404C30.3192 27.411 30.2884 27.7087 30.3485 27.996C30.4086 28.2833 30.5571 28.5471 30.7751 28.7542C30.9931 28.9614 31.2709 29.1024 31.5732 29.1595C31.8756 29.2167 32.189 29.1874 32.4739 29.0753C32.7587 28.9632 33.0021 28.7734 33.1734 28.5298C33.3447 28.2863 33.4361 28 33.4361 27.7071C33.4357 27.3144 33.2713 26.938 32.9791 26.6604C32.6869 26.3827 32.2906 26.2266 31.8773 26.2262V26.2262ZM31.8773 25.3247C32.3733 25.3246 32.8582 25.4642 33.2707 25.7259C33.6831 25.9877 34.0046 26.3597 34.1945 26.795C34.3844 27.2303 34.4341 27.7094 34.3374 28.1716C34.2407 28.6337 34.0019 29.0583 33.6513 29.3915C33.3006 29.7248 32.8537 29.9517 32.3673 30.0437C31.8808 30.1356 31.3766 30.0885 30.9183 29.9082C30.4601 29.7279 30.0684 29.4225 29.7928 29.0307C29.5173 28.6389 29.3702 28.1783 29.3702 27.7071C29.3702 27.0752 29.6344 26.4693 30.1047 26.0225C30.5749 25.5757 31.2128 25.3247 31.8779 25.3247H31.8773ZM51.4923 26.2262C51.184 26.2262 50.8826 26.313 50.6263 26.4757C50.37 26.6385 50.1702 26.8698 50.0522 27.1404C49.9342 27.411 49.9033 27.7087 49.9635 27.996C50.0236 28.2833 50.1721 28.5471 50.3901 28.7542C50.6081 28.9614 50.8858 29.1024 51.1882 29.1595C51.4906 29.2167 51.804 29.1874 52.0888 29.0753C52.3737 28.9632 52.6171 28.7734 52.7884 28.5298C52.9597 28.2863 53.0511 28 53.0511 27.7071C53.0507 27.3144 52.8863 26.938 52.5941 26.6604C52.3018 26.3827 51.9056 26.2266 51.4923 26.2262ZM51.4923 25.3247C51.9883 25.3247 52.4731 25.4644 52.8855 25.7262C53.2979 25.988 53.6193 26.36 53.8091 26.7954C53.9989 27.2307 54.0486 27.7097 53.9518 28.1719C53.8551 28.634 53.6162 29.0585 53.2655 29.3917C52.9148 29.7249 52.468 29.9518 51.9815 30.0437C51.4951 30.1356 50.9909 30.0885 50.5327 29.9081C50.0744 29.7278 49.6828 29.4225 49.4072 29.0307C49.1317 28.6389 48.9846 28.1783 48.9846 27.7071C48.9846 27.0752 49.2488 26.4693 49.7191 26.0225C50.1894 25.5757 50.8272 25.3247 51.4923 25.3247V25.3247ZM26.6922 26.9113C26.6922 27.7298 25.994 28.4215 25.1318 28.4215H23.9046V30.0066H22.8721V25.4005H25.1339C25.9945 25.4005 26.6927 26.0922 26.6927 26.9108L26.6922 26.9113ZM25.7433 26.9113C25.7433 26.5912 25.4692 26.3045 25.1318 26.3045H23.9046V27.52H25.1339C25.4698 27.52 25.7444 27.2313 25.7444 26.9108L25.7433 26.9113ZM21.9802 31.4046C21.9375 31.4045 21.8955 31.4143 21.8576 31.4329C21.8197 31.4516 21.7871 31.4786 21.7625 31.5118C21.7625 31.5118 21.5299 31.7646 21.4043 31.8834C20.6139 32.6354 19.6108 33.1536 18.5167 33.3752C17.4226 33.5968 16.2843 33.5123 15.2397 33.1319C14.1951 32.7515 13.289 32.0915 12.6311 31.2319C11.9733 30.3723 11.5918 29.3499 11.533 28.2886C11.4742 27.2272 11.7405 26.1724 12.2998 25.2519C12.859 24.3315 13.6872 23.5847 14.684 23.1023C15.6808 22.6198 16.8034 22.4222 17.916 22.5334C19.0285 22.6446 20.0833 23.0599 20.9525 23.729C20.904 23.863 20.9052 24.0088 20.9562 24.142C21.0071 24.2752 21.1046 24.3878 21.2323 24.461C21.3601 24.5342 21.5104 24.5635 21.6581 24.5441C21.8059 24.5247 21.9422 24.4578 22.0443 24.3544C22.1464 24.2511 22.2081 24.1176 22.2191 23.9763C22.2301 23.8349 22.1898 23.6943 22.1048 23.5778C22.0198 23.4613 21.8954 23.376 21.7522 23.3362C21.609 23.2964 21.4558 23.3044 21.3181 23.3589C20.3535 22.6081 19.1766 22.1453 17.9356 22.029C16.6946 21.9127 15.4451 22.148 14.3447 22.7053C13.2443 23.2626 12.3421 24.1169 11.752 25.1605C11.1618 26.2042 10.9101 27.3905 11.0286 28.5698C11.147 29.7492 11.6303 30.8688 12.4175 31.7877C13.2047 32.7065 14.2606 33.3833 15.4521 33.7329C16.6436 34.0824 17.9173 34.0891 19.1128 33.7519C20.3082 33.4148 21.3719 32.7489 22.1696 31.8384C22.2073 31.803 22.2331 31.7578 22.2436 31.7085C22.2541 31.6592 22.2489 31.608 22.2286 31.5615C22.2083 31.515 22.1739 31.4754 22.1297 31.4476C22.0856 31.4198 22.0337 31.4052 21.9807 31.4056L21.9802 31.4046Z" fill="black"/>
</g>
<defs>
<filter id="filter0_dd" x="0" y="0" width="65" height="65" filterUnits="userSpaceOnUse" color-interpolation-filters="sRGB">
<feFlood flood-opacity="0" result="BackgroundImageFix"/>
<feColorMatrix in="SourceAlpha" type="matrix" values="0 0 0 0 0 0 0 0 0 0 0 0 0 0 0 0 0 0 127 0" result="hardAlpha"/>
<feMorphology radius="1" operator="erode" in="SourceAlpha" result="effect1_dropShadow"/>
<feOffset dy="2"/>
<feGaussianBlur stdDeviation="2"/>
<feColorMatrix type="matrix" values="0 0 0 0 0 0 0 0 0 0 0 0 0 0 0 0 0 0 0.06 0"/>
<feBlend mode="normal" in2="BackgroundImageFix" result="effect1_dropShadow"/>
<feColorMatrix in="SourceAlpha" type="matrix" values="0 0 0 0 0 0 0 0 0 0 0 0 0 0 0 0 0 0 127 0" result="hardAlpha"/>
<feMorphology radius="1" operator="erode" in="SourceAlpha" result="effect2_dropShadow"/>
<feOffset dy="4"/>
<feGaussianBlur stdDeviation="3"/>
<feColorMatrix type="matrix" values="0 0 0 0 0 0 0 0 0 0 0 0 0 0 0 0 0 0 0.1 0"/>
<feBlend mode="normal" in2="effect1_dropShadow" result="effect2_dropShadow"/>
<feBlend mode="normal" in="SourceGraphic" in2="effect2_dropShadow" result="shape"/>
</filter>
</defs>
</svg>
