<svg width="65" height="65" viewBox="0 0 65 65" fill="none" xmlns="http://www.w3.org/2000/svg">
<mask id="mask0" mask-type="alpha" maskUnits="userSpaceOnUse" x="5" y="1" width="55" height="55">
<rect x="5" y="1" width="55" height="55" rx="6" fill="#F3F4F6"/>
</mask>
<g mask="url(#mask0)">
<g filter="url(#filter0_dd)">
<rect x="5" y="1" width="55" height="55" rx="6" fill="#F3F4F6"/>
</g>
<path d="M23.7088 25.2474C23.7088 25.7148 23.7593 26.0937 23.8478 26.3715C23.9489 26.6494 24.0753 26.9525 24.2522 27.2809C24.3154 27.3819 24.3407 27.483 24.3407 27.5714C24.3407 27.6977 24.2648 27.824 24.1006 27.9503L23.3043 28.4808C23.1906 28.5565 23.0768 28.5944 22.9757 28.5944C22.8493 28.5944 22.723 28.5313 22.5966 28.4176C22.4196 28.2281 22.268 28.0261 22.1416 27.824C22.0152 27.6093 21.8888 27.3693 21.7498 27.0788C20.764 28.2408 19.5254 28.8218 18.0341 28.8218C16.9725 28.8218 16.1257 28.5186 15.5064 27.9124C14.8872 27.3062 14.5712 26.4978 14.5712 25.4874C14.5712 24.4139 14.9503 23.5424 15.7213 22.8856C16.4922 22.2289 17.5159 21.9005 18.8177 21.9005C19.2474 21.9005 19.6897 21.9384 20.1574 22.0015C20.625 22.0647 21.1053 22.1657 21.6108 22.2794V21.3574C21.6108 20.3975 21.4086 19.7281 21.0168 19.3366C20.6124 18.945 19.9299 18.7556 18.9567 18.7556C18.5144 18.7556 18.0594 18.8061 17.5918 18.9198C17.1242 19.0334 16.6692 19.1724 16.2268 19.3492C16.0246 19.4376 15.873 19.4881 15.7845 19.5134C15.696 19.5386 15.6328 19.5513 15.5823 19.5513C15.4053 19.5513 15.3169 19.425 15.3169 19.1597V18.5409C15.3169 18.3388 15.3421 18.1872 15.4053 18.0988C15.4685 18.0104 15.5823 17.922 15.7592 17.8336C16.2016 17.6062 16.7324 17.4168 17.3516 17.2652C17.9709 17.101 18.6281 17.0253 19.3232 17.0253C20.8272 17.0253 21.9267 17.3663 22.6345 18.0483C23.3296 18.7303 23.6835 19.766 23.6835 21.1553V25.2474H23.7088ZM18.5776 27.1672C18.9946 27.1672 19.4243 27.0914 19.8793 26.9399C20.3343 26.7883 20.7387 26.5105 21.08 26.1316C21.2822 25.8916 21.4338 25.6264 21.5097 25.3232C21.5855 25.0201 21.6361 24.6538 21.6361 24.2244V23.6939C21.2695 23.6055 20.8778 23.5298 20.4733 23.4792C20.0689 23.4287 19.6771 23.4035 19.2853 23.4035C18.4385 23.4035 17.8193 23.5676 17.4022 23.9087C16.9851 24.2497 16.7829 24.7296 16.7829 25.3611C16.7829 25.9547 16.9346 26.3968 17.2505 26.6999C17.5539 27.0157 17.9962 27.1672 18.5776 27.1672ZM28.7262 28.5313C28.4987 28.5313 28.3471 28.4934 28.2459 28.405C28.1448 28.3292 28.0564 28.1524 27.9805 27.9124L25.0105 18.1493C24.9347 17.8967 24.8968 17.7325 24.8968 17.6441C24.8968 17.4421 24.9979 17.3284 25.2001 17.3284H26.4387C26.6788 17.3284 26.8431 17.3663 26.9316 17.4547C27.0327 17.5305 27.1085 17.7073 27.1843 17.9473L29.3076 26.3084L31.2792 17.9473C31.3424 17.6947 31.4182 17.5305 31.5193 17.4547C31.6204 17.3789 31.7973 17.3284 32.0248 17.3284H33.0359C33.276 17.3284 33.4403 17.3663 33.5414 17.4547C33.6425 17.5305 33.731 17.7073 33.7816 17.9473L35.7784 26.4094L37.9649 17.9473C38.0407 17.6947 38.1292 17.5305 38.2176 17.4547C38.3187 17.3789 38.483 17.3284 38.7105 17.3284H39.8859C40.0881 17.3284 40.2019 17.4294 40.2019 17.6441C40.2019 17.7073 40.1892 17.7704 40.1766 17.8462C40.164 17.922 40.1387 18.023 40.0881 18.162L37.0423 27.925C36.9664 28.1776 36.878 28.3418 36.7769 28.4176C36.6758 28.4934 36.5115 28.5439 36.2966 28.5439H35.2097C34.9696 28.5439 34.8053 28.506 34.7042 28.4176C34.6031 28.3292 34.5146 28.165 34.464 27.9124L32.5051 19.766L30.5588 27.8998C30.4956 28.1524 30.4197 28.3166 30.3186 28.405C30.2175 28.4934 30.0406 28.5313 29.8131 28.5313H28.7262ZM44.9665 28.8723C44.3094 28.8723 43.6522 28.7965 43.0202 28.6449C42.3883 28.4934 41.8954 28.3292 41.5668 28.1397C41.3646 28.0261 41.2256 27.8998 41.175 27.7861C41.1245 27.6724 41.0992 27.5461 41.0992 27.4325V26.7883C41.0992 26.5231 41.2003 26.3968 41.3899 26.3968C41.4657 26.3968 41.5415 26.4094 41.6174 26.4347C41.6932 26.4599 41.8069 26.5105 41.9333 26.561C42.363 26.7504 42.8307 26.902 43.3236 27.003C43.8291 27.1041 44.322 27.1546 44.8275 27.1546C45.6237 27.1546 46.243 27.0157 46.6727 26.7378C47.1024 26.4599 47.3299 26.0558 47.3299 25.5379C47.3299 25.1843 47.2162 24.8938 46.9887 24.6538C46.7612 24.4139 46.3315 24.1992 45.7122 23.9971L43.8796 23.4287C42.957 23.1382 42.2746 22.7088 41.8575 22.1404C41.4404 21.5847 41.2256 20.9658 41.2256 20.3091C41.2256 19.7786 41.3393 19.3113 41.5668 18.9071C41.7943 18.503 42.0976 18.1493 42.4768 17.8715C42.8559 17.581 43.2856 17.3663 43.7912 17.2147C44.2967 17.0632 44.8275 17 45.3836 17C45.6617 17 45.9523 17.0126 46.2304 17.0505C46.5211 17.0884 46.7865 17.1389 47.0519 17.1895C47.3047 17.2526 47.5448 17.3158 47.7723 17.3915C47.9998 17.4673 48.1767 17.5431 48.3031 17.6189C48.48 17.7199 48.6064 17.821 48.6822 17.9346C48.7581 18.0357 48.796 18.1746 48.796 18.3514V18.945C48.796 19.2103 48.6949 19.3492 48.5053 19.3492C48.4042 19.3492 48.2399 19.2987 48.025 19.1976C47.3046 18.8693 46.4958 18.7051 45.5985 18.7051C44.8781 18.7051 44.3093 18.8187 43.9176 19.0587C43.5258 19.2987 43.3236 19.6649 43.3236 20.1828C43.3236 20.5364 43.4499 20.8395 43.7027 21.0795C43.9555 21.3195 44.4231 21.5595 45.0929 21.7742L46.8876 22.3425C47.7975 22.633 48.4547 23.0372 48.8465 23.555C49.2383 24.0728 49.4279 24.6665 49.4279 25.3232C49.4279 25.8663 49.3142 26.3589 49.0993 26.7883C48.8718 27.2177 48.5685 27.5966 48.1767 27.8998C47.7849 28.2155 47.3173 28.4429 46.7738 28.6071C46.2051 28.7839 45.6111 28.8723 44.9665 28.8723Z" fill="#252F3E"/>
<path fill-rule="evenodd" clip-rule="evenodd" d="M47.3552 35.0105C43.1972 38.0796 37.156 39.7089 31.9616 39.7089C24.6819 39.7089 18.1226 37.0187 13.1683 32.5476C12.7766 32.194 13.1304 31.7141 13.5981 31.9919C18.9567 35.0989 25.5666 36.9808 32.404 36.9808C37.017 36.9808 42.085 36.0209 46.7486 34.0506C47.4437 33.7349 48.0377 34.5053 47.3552 35.0105Z" fill="#FF9900"/>
<path fill-rule="evenodd" clip-rule="evenodd" d="M49.0867 33.0403C48.5559 32.3583 45.5732 32.712 44.2209 32.8761C43.8165 32.9267 43.7533 32.573 44.1198 32.3078C46.4958 30.6406 50.4011 31.1206 50.8561 31.6763C51.311 32.2446 50.7297 36.1473 48.5053 38.0166C48.1641 38.3071 47.8355 38.1555 47.9871 37.7766C48.4927 36.5262 49.6175 33.7097 49.0867 33.0403Z" fill="#FF9900"/>
</g>
<defs>
<filter id="filter0_dd" x="0" y="0" width="65" height="65" filterUnits="userSpaceOnUse" color-interpolation-filters="sRGB">
<feFlood flood-opacity="0" result="BackgroundImageFix"/>
<feColorMatrix in="SourceAlpha" type="matrix" values="0 0 0 0 0 0 0 0 0 0 0 0 0 0 0 0 0 0 127 0" result="hardAlpha"/>
<feMorphology radius="1" operator="erode" in="SourceAlpha" result="effect1_dropShadow"/>
<feOffset dy="2"/>
<feGaussianBlur stdDeviation="2"/>
<feColorMatrix type="matrix" values="0 0 0 0 0 0 0 0 0 0 0 0 0 0 0 0 0 0 0.06 0"/>
<feBlend mode="normal" in2="BackgroundImageFix" result="effect1_dropShadow"/>
<feColorMatrix in="SourceAlpha" type="matrix" values="0 0 0 0 0 0 0 0 0 0 0 0 0 0 0 0 0 0 127 0" result="hardAlpha"/>
<feMorphology radius="1" operator="erode" in="SourceAlpha" result="effect2_dropShadow"/>
<feOffset dy="4"/>
<feGaussianBlur stdDeviation="3"/>
<feColorMatrix type="matrix" values="0 0 0 0 0 0 0 0 0 0 0 0 0 0 0 0 0 0 0.1 0"/>
<feBlend mode="normal" in2="effect1_dropShadow" result="effect2_dropShadow"/>
<feBlend mode="normal" in="SourceGraphic" in2="effect2_dropShadow" result="shape"/>
</filter>
</defs>
</svg>
