<svg width="65" height="65" viewBox="0 0 65 65" fill="none" xmlns="http://www.w3.org/2000/svg">
<mask id="mask0" mask-type="alpha" maskUnits="userSpaceOnUse" x="5" y="1" width="55" height="55">
<rect x="5" y="1" width="55" height="55" rx="6" fill="#F3F4F6"/>
</mask>
<g mask="url(#mask0)">
<g filter="url(#filter0_dd)">
<rect x="5" y="1" width="55" height="55" rx="6" fill="#F3F4F6"/>
</g>
<path d="M24.03 33V24.1766H24.5288V25.5646C24.5877 25.5031 24.6422 25.4378 24.6917 25.3691C24.8955 24.9628 25.2157 24.6208 25.6148 24.383C26.0138 24.1452 26.4752 24.0216 26.9448 24.0267C28.0815 23.9941 29.0045 24.3981 29.5474 25.3691C29.8929 25.9723 30.083 26.6461 30.1019 27.3342C30.1208 28.0223 29.9679 28.7048 29.656 29.3247C29.1504 30.4129 27.9017 30.9538 26.5648 30.755C26.1487 30.721 25.7482 30.5875 25.3997 30.3667C25.0512 30.1458 24.7658 29.8447 24.5695 29.4908V33H24.03ZM24.5288 27.298C24.5729 27.7281 24.5899 28.0344 24.6408 28.3341C24.8376 29.5136 25.5638 30.2142 26.7039 30.3412C27.2392 30.4257 27.7885 30.3294 28.2582 30.0685C28.7278 29.8077 29.0887 29.3986 29.2794 28.9108C29.4985 28.4092 29.6039 27.8685 29.5887 27.3247C29.5735 26.7809 29.438 26.2465 29.1911 25.7568C28.9876 25.3197 28.6415 24.958 28.205 24.7264C27.7686 24.4948 27.2655 24.4059 26.7718 24.4731C26.3082 24.5053 25.8666 24.6755 25.5084 24.9598C25.1502 25.2442 24.8932 25.6287 24.7731 26.0598C24.6669 26.4677 24.5853 26.8811 24.5288 27.298V27.298ZM40.2768 28.497C40.2013 29.1183 39.8933 29.692 39.4102 30.1115C38.9271 30.5311 38.3018 30.7679 37.6505 30.7778C35.5602 30.8789 34.5796 29.5462 34.4235 28.0083C34.3152 27.1731 34.4564 26.3256 34.8307 25.5646C35.0914 25.0426 35.5183 24.6138 36.0496 24.3402C36.5809 24.0666 37.1892 23.9625 37.7862 24.043C38.3538 24.0892 38.8919 24.3057 39.3243 24.6618C39.7567 25.0179 40.0614 25.4956 40.1954 26.0273C40.3016 26.5115 40.3798 27.001 40.4295 27.4935H34.9359C34.8341 28.888 35.6145 30.0089 36.7207 30.2793C38.0984 30.6052 39.2758 30.0317 39.7034 28.774C39.7984 28.4514 39.9714 28.4058 40.2768 28.497V28.497ZM34.9359 27.0471H39.8459C39.8154 25.5613 38.8517 24.4861 37.5453 24.4698C36.0658 24.447 35.0004 25.4831 34.9359 27.0471ZM41.288 28.5296H41.7699C41.7877 28.8701 41.9029 29.1992 42.1028 29.4809C42.3028 29.7626 42.5797 29.9858 42.9032 30.1262C43.3094 30.3017 43.7517 30.387 44.197 30.3758C44.6423 30.3645 45.0792 30.2569 45.4753 30.061C45.6911 29.9676 45.8719 29.8129 45.9932 29.6177C46.1146 29.4225 46.1707 29.1963 46.1539 28.9695C46.1663 28.7508 46.1041 28.5342 45.9768 28.3525C45.8494 28.1708 45.6638 28.034 45.4481 27.9627C44.9188 27.7737 44.3555 27.6694 43.816 27.5033C43.2546 27.3498 42.7057 27.157 42.1737 26.9266C41.305 26.5193 41.2507 24.9325 42.2347 24.4307C42.7386 24.1577 43.3057 24.0102 43.8842 24.0016C44.4627 23.9931 45.0342 24.1238 45.5465 24.3818C45.8569 24.5465 46.1076 24.7982 46.2653 25.1032C46.4229 25.4083 46.4799 25.7522 46.4288 26.0892H46.0148C46.0148 26.0696 45.9775 26.0533 45.9775 26.0338C45.9266 24.7663 44.8204 24.3753 43.6327 24.4861C43.2782 24.5281 42.9339 24.6284 42.6148 24.7826C42.4231 24.8668 42.2633 25.006 42.1576 25.1811C42.0518 25.3562 42.0053 25.5585 42.0244 25.7601C42.0249 25.9618 42.0905 26.1583 42.212 26.3228C42.3335 26.4873 42.505 26.6117 42.703 26.6789C43.2256 26.8614 43.7719 26.9787 44.308 27.122C44.7389 27.2361 45.1868 27.311 45.6042 27.4479C45.8988 27.5406 46.1571 27.717 46.3449 27.9539C46.5328 28.1907 46.6413 28.4767 46.6561 28.774C46.7065 29.0998 46.6487 29.4325 46.4909 29.725C46.3332 30.0174 46.0835 30.2547 45.7773 30.4031C44.6439 31.019 42.7777 30.856 41.9463 30.0773C41.7356 29.8738 41.569 29.6323 41.456 29.3667C41.343 29.1011 41.2859 28.8166 41.288 28.5296ZM52.7639 26.0892H52.3126C52.3126 26.0305 52.2889 25.9784 52.2821 25.9295C52.2748 25.6047 52.1515 25.2921 51.9328 25.0442C51.7141 24.7962 51.4134 24.628 51.0809 24.5676C50.4536 24.3947 49.7844 24.4257 49.1773 24.6555C48.9373 24.7216 48.726 24.8604 48.575 25.0513C48.4239 25.2421 48.3412 25.4748 48.3392 25.7145C48.3307 25.9499 48.4071 26.1809 48.5555 26.3685C48.7039 26.556 48.9151 26.6887 49.1535 26.7441C49.8322 26.9461 50.5278 27.0699 51.2166 27.2524C51.4398 27.3038 51.6597 27.368 51.8749 27.4446C52.1963 27.555 52.4756 27.756 52.6762 28.0212C52.8768 28.2865 52.9894 28.6037 52.9993 28.9313C53.0092 29.259 52.9159 29.5819 52.7317 29.8578C52.5474 30.1338 52.2808 30.35 51.9665 30.4781C51.4877 30.6869 50.9687 30.7973 50.4428 30.8024C49.9169 30.8074 49.3957 30.707 48.9126 30.5074C48.5153 30.3429 48.1801 30.0654 47.952 29.7124C47.7239 29.3594 47.6139 28.9478 47.6368 28.5329H48.0779C48.1595 28.9109 48.3358 29.2642 48.5917 29.5621C48.8475 29.8599 49.1751 30.0934 49.546 30.2423C49.917 30.3912 50.3202 30.4511 50.7207 30.4166C51.1211 30.3822 51.5069 30.2546 51.8444 30.0447C52.05 29.9422 52.2207 29.7851 52.3361 29.5922C52.4516 29.3993 52.507 29.1787 52.4959 28.9565C52.5061 28.7376 52.4417 28.5216 52.3125 28.3411C52.1833 28.1606 51.9963 28.0254 51.7799 27.9562C51.2506 27.7672 50.6873 27.6662 50.1478 27.5C49.5832 27.3489 49.0309 27.1583 48.4953 26.9298C47.6469 26.529 47.5791 24.9553 48.5462 24.4535C49.0563 24.169 49.6344 24.0162 50.2243 24.0099C50.8142 24.0037 51.3957 24.1441 51.9122 24.4177C52.2077 24.587 52.4455 24.8352 52.5967 25.1319C52.7479 25.4287 52.806 25.7613 52.7639 26.0892V26.0892ZM23.2055 30.6182C23.0278 30.6828 22.8317 30.6827 22.6541 30.6178C22.4765 30.553 22.3299 30.4279 22.2418 30.2663C21.6887 29.4713 21.0779 28.7121 20.4909 27.9366L20.2364 27.6108C19.5374 28.5101 18.8384 29.3735 18.2004 30.2696C18.1173 30.424 17.9786 30.5442 17.81 30.6078C17.6415 30.6713 17.4546 30.6738 17.2843 30.6149L19.9072 27.2361L17.4675 24.1831C17.6431 24.1222 17.8352 24.1213 18.0114 24.1807C18.1876 24.2401 18.3371 24.356 18.4346 24.5089C19.0012 25.3039 19.629 26.0631 20.2534 26.8679C20.8811 26.0696 21.5021 25.3072 22.0823 24.5187C22.1659 24.3667 22.3047 24.2496 22.4724 24.1895C22.6401 24.1294 22.8249 24.1306 22.9917 24.1928L22.045 25.3984C21.6208 25.936 21.2035 26.4769 20.7623 27.0015C20.7268 27.0321 20.6984 27.0695 20.6789 27.1113C20.6594 27.1531 20.6494 27.1984 20.6494 27.2442C20.6494 27.29 20.6594 27.3353 20.6789 27.3772C20.6984 27.419 20.7268 27.4564 20.7623 27.487C21.5733 28.5199 22.3775 29.556 23.2055 30.6182V30.6182ZM34.3421 24.1505V24.6067C33.9989 24.585 33.6548 24.6328 33.332 24.7467C33.0092 24.8607 32.7149 25.0384 32.468 25.2684C32.2212 25.4984 32.0273 25.7755 31.8989 26.0819C31.7704 26.3882 31.7104 26.7171 31.7225 27.0471V30.6312H31.2373V24.1766H31.7123V25.4994C32.2993 24.535 33.2053 24.1766 34.3421 24.1505V24.1505ZM11 27.1937C11.0713 26.8679 11.1154 26.5127 11.2138 26.1804C11.8008 24.1766 14.193 23.3424 15.8388 24.5838C16.8024 25.3104 17.0434 26.3401 16.9958 27.5H11.5667C11.4784 29.5723 13.0359 30.8235 15.0278 30.1848C15.3509 30.0739 15.6401 29.8874 15.8694 29.6422C16.0986 29.397 16.2607 29.1009 16.341 28.7805C16.4461 28.4547 16.6158 28.3993 16.9382 28.4938C16.8851 28.8905 16.739 29.2704 16.511 29.6051C16.2829 29.9397 15.9788 30.2204 15.6216 30.426C15.0313 30.7359 14.3541 30.8587 13.6867 30.7768C13.0194 30.6948 12.3961 30.4124 11.906 29.9698C11.4212 29.4463 11.128 28.7849 11.0713 28.0865C11.0713 27.9757 11.0271 27.8649 11.0034 27.7607C11.0011 27.5673 11 27.3784 11 27.1937V27.1937ZM11.5735 27.0536H16.4835C16.4529 25.5516 15.4655 24.4861 14.1489 24.4763C12.683 24.4568 11.6345 25.4994 11.5701 27.0471L11.5735 27.0536Z" fill="black"/>
</g>
<defs>
<filter id="filter0_dd" x="0" y="0" width="65" height="65" filterUnits="userSpaceOnUse" color-interpolation-filters="sRGB">
<feFlood flood-opacity="0" result="BackgroundImageFix"/>
<feColorMatrix in="SourceAlpha" type="matrix" values="0 0 0 0 0 0 0 0 0 0 0 0 0 0 0 0 0 0 127 0" result="hardAlpha"/>
<feMorphology radius="1" operator="erode" in="SourceAlpha" result="effect1_dropShadow"/>
<feOffset dy="2"/>
<feGaussianBlur stdDeviation="2"/>
<feColorMatrix type="matrix" values="0 0 0 0 0 0 0 0 0 0 0 0 0 0 0 0 0 0 0.06 0"/>
<feBlend mode="normal" in2="BackgroundImageFix" result="effect1_dropShadow"/>
<feColorMatrix in="SourceAlpha" type="matrix" values="0 0 0 0 0 0 0 0 0 0 0 0 0 0 0 0 0 0 127 0" result="hardAlpha"/>
<feMorphology radius="1" operator="erode" in="SourceAlpha" result="effect2_dropShadow"/>
<feOffset dy="4"/>
<feGaussianBlur stdDeviation="3"/>
<feColorMatrix type="matrix" values="0 0 0 0 0 0 0 0 0 0 0 0 0 0 0 0 0 0 0.1 0"/>
<feBlend mode="normal" in2="effect1_dropShadow" result="effect2_dropShadow"/>
<feBlend mode="normal" in="SourceGraphic" in2="effect2_dropShadow" result="shape"/>
</filter>
</defs>
</svg>
