<svg width="65" height="65" viewBox="0 0 65 65" fill="none" xmlns="http://www.w3.org/2000/svg">
<mask id="mask0" mask-type="alpha" maskUnits="userSpaceOnUse" x="5" y="1" width="55" height="55">
<rect x="5" y="1" width="55" height="55" rx="6" fill="#F3F4F6"/>
</mask>
<g mask="url(#mask0)">
<g filter="url(#filter0_dd)">
<rect x="5" y="1" width="55" height="55" rx="6" fill="#F3F4F6"/>
</g>
<path d="M25.3333 46.9999C28.8388 46.9999 31.6667 44.172 31.6667 40.6666V34.3333H25.3333C21.8279 34.3333 19 37.1612 19 40.6666C19 44.172 21.8279 46.9999 25.3333 46.9999Z" fill="#0ACF83"/>
<path d="M19 28.0001C19 24.4947 21.8279 21.6667 25.3333 21.6667H31.6667V34.3334H25.3333C21.8279 34.3334 19 31.5055 19 28.0001Z" fill="#A259FF"/>
<path d="M19 15.3333C19 11.8279 21.8279 9 25.3333 9H31.6667V21.6667H25.3333C21.8279 21.6667 19 18.8388 19 15.3333Z" fill="#F24E1E"/>
<path d="M31.6667 9H38C41.5054 9 44.3334 11.8279 44.3334 15.3333C44.3334 18.8388 41.5054 21.6667 38 21.6667H31.6667V9Z" fill="#FF7262"/>
<path d="M44.3334 28.0001C44.3334 31.5055 41.5054 34.3334 38 34.3334C34.4946 34.3334 31.6667 31.5055 31.6667 28.0001C31.6667 24.4947 34.4946 21.6667 38 21.6667C41.5054 21.6667 44.3334 24.4947 44.3334 28.0001Z" fill="#1ABCFE"/>
</g>
<defs>
<filter id="filter0_dd" x="0" y="0" width="65" height="65" filterUnits="userSpaceOnUse" color-interpolation-filters="sRGB">
<feFlood flood-opacity="0" result="BackgroundImageFix"/>
<feColorMatrix in="SourceAlpha" type="matrix" values="0 0 0 0 0 0 0 0 0 0 0 0 0 0 0 0 0 0 127 0" result="hardAlpha"/>
<feMorphology radius="1" operator="erode" in="SourceAlpha" result="effect1_dropShadow"/>
<feOffset dy="2"/>
<feGaussianBlur stdDeviation="2"/>
<feColorMatrix type="matrix" values="0 0 0 0 0 0 0 0 0 0 0 0 0 0 0 0 0 0 0.06 0"/>
<feBlend mode="normal" in2="BackgroundImageFix" result="effect1_dropShadow"/>
<feColorMatrix in="SourceAlpha" type="matrix" values="0 0 0 0 0 0 0 0 0 0 0 0 0 0 0 0 0 0 127 0" result="hardAlpha"/>
<feMorphology radius="1" operator="erode" in="SourceAlpha" result="effect2_dropShadow"/>
<feOffset dy="4"/>
<feGaussianBlur stdDeviation="3"/>
<feColorMatrix type="matrix" values="0 0 0 0 0 0 0 0 0 0 0 0 0 0 0 0 0 0 0.1 0"/>
<feBlend mode="normal" in2="effect1_dropShadow" result="effect2_dropShadow"/>
<feBlend mode="normal" in="SourceGraphic" in2="effect2_dropShadow" result="shape"/>
</filter>
</defs>
</svg>
