<svg width="65" height="65" viewBox="0 0 65 65" fill="none" xmlns="http://www.w3.org/2000/svg">
<mask id="mask0" mask-type="alpha" maskUnits="userSpaceOnUse" x="5" y="1" width="55" height="55">
<rect x="5" y="1" width="55" height="55" rx="6" fill="#F3F4F6"/>
</mask>
<g mask="url(#mask0)">
<g filter="url(#filter0_dd)">
<rect x="5" y="1" width="55" height="55" rx="6" fill="#F3F4F6"/>
</g>
<path d="M48.1588 27.0506L33.9492 12.8415C33.1314 12.0232 31.8042 12.0232 30.9851 12.8415L28.0347 15.7924L31.7776 19.5353C32.6477 19.2417 33.6449 19.4387 34.3382 20.1319C35.0351 20.8296 35.2305 21.8353 34.9296 22.7082L38.5369 26.3158C39.4096 26.0149 40.4169 26.2093 41.1135 26.9075C42.088 27.8813 42.088 29.4598 41.1135 30.4341C40.8819 30.6658 40.607 30.8496 40.3043 30.975C40.0017 31.1004 39.6773 31.165 39.3497 31.165C39.0221 31.165 38.6977 31.1004 38.3951 30.975C38.0924 30.8496 37.8175 30.6658 37.5859 30.4341C37.2379 30.086 37.0007 29.6426 36.9042 29.16C36.8076 28.6773 36.856 28.1769 37.0432 27.7217L33.6792 24.3577L33.6787 33.2113C33.9228 33.3315 34.1456 33.4906 34.3385 33.6825C35.3125 34.6563 35.3125 36.2344 34.3385 37.2102C33.3642 38.184 31.7851 38.184 30.8118 37.2102C29.8378 36.2346 29.8378 34.6566 30.8118 33.6825C31.0452 33.4488 31.3228 33.2639 31.6283 33.1386V24.203C31.3225 24.0781 31.0449 23.893 30.8118 23.6588C30.074 22.9215 29.8964 21.8386 30.2748 20.9322L26.5848 17.2421L16.8415 26.9848C16.4484 27.378 16.2276 27.9113 16.2276 28.4673C16.2276 29.0233 16.4484 29.5565 16.8415 29.9497L31.0514 44.1588C31.8696 44.9771 33.1964 44.9771 34.0159 44.1588L48.159 30.0157C48.552 29.6224 48.7728 29.0891 48.7727 28.5331C48.7727 27.9771 48.5518 27.4438 48.1588 27.0506V27.0506Z" fill="#F34F29"/>
</g>
<defs>
<filter id="filter0_dd" x="0" y="0" width="65" height="65" filterUnits="userSpaceOnUse" color-interpolation-filters="sRGB">
<feFlood flood-opacity="0" result="BackgroundImageFix"/>
<feColorMatrix in="SourceAlpha" type="matrix" values="0 0 0 0 0 0 0 0 0 0 0 0 0 0 0 0 0 0 127 0" result="hardAlpha"/>
<feMorphology radius="1" operator="erode" in="SourceAlpha" result="effect1_dropShadow"/>
<feOffset dy="2"/>
<feGaussianBlur stdDeviation="2"/>
<feColorMatrix type="matrix" values="0 0 0 0 0 0 0 0 0 0 0 0 0 0 0 0 0 0 0.06 0"/>
<feBlend mode="normal" in2="BackgroundImageFix" result="effect1_dropShadow"/>
<feColorMatrix in="SourceAlpha" type="matrix" values="0 0 0 0 0 0 0 0 0 0 0 0 0 0 0 0 0 0 127 0" result="hardAlpha"/>
<feMorphology radius="1" operator="erode" in="SourceAlpha" result="effect2_dropShadow"/>
<feOffset dy="4"/>
<feGaussianBlur stdDeviation="3"/>
<feColorMatrix type="matrix" values="0 0 0 0 0 0 0 0 0 0 0 0 0 0 0 0 0 0 0.1 0"/>
<feBlend mode="normal" in2="effect1_dropShadow" result="effect2_dropShadow"/>
<feBlend mode="normal" in="SourceGraphic" in2="effect2_dropShadow" result="shape"/>
</filter>
</defs>
</svg>
