<svg width="65" height="65" viewBox="0 0 65 65" fill="none" xmlns="http://www.w3.org/2000/svg">
<mask id="mask0" mask-type="alpha" maskUnits="userSpaceOnUse" x="5" y="1" width="55" height="55">
<rect x="5" y="1" width="55" height="55" rx="6" fill="#F3F4F6"/>
</mask>
<g mask="url(#mask0)">
<g filter="url(#filter0_dd)">
<rect x="5" y="1" width="55" height="55" rx="6" fill="#F3F4F6"/>
</g>
<path d="M21.4538 36.4562L20.3398 35.8127L32.7519 14.3159L33.8652 14.9592L21.4538 36.4562Z" fill="#E434AA"/>
<path d="M20.084 34.0957H44.9073V35.3817H20.084V34.0957Z" fill="#E434AA"/>
<path d="M32.9919 41.9869L20.5761 34.8186L21.2194 33.7041L33.6354 40.8733L32.9919 41.9869ZM43.7777 23.3033L31.362 16.1341L32.0052 15.0208L44.4212 22.1888L43.7777 23.3033Z" fill="#E434AA"/>
<path d="M21.2223 23.2984L20.5788 22.1841L32.9958 15.0159L33.639 16.1294L21.2223 23.2984Z" fill="#E434AA"/>
<path d="M43.5488 36.4562L31.1377 14.9592L32.2513 14.3159L44.6634 35.8127L43.5488 36.4562ZM21.0687 21.3306H22.3555V35.6691H21.069L21.0687 21.3306Z" fill="#E434AA"/>
<path d="M42.6445 21.3308H43.931V35.6693H42.6445V21.3308Z" fill="#E434AA"/>
<path d="M32.7734 41.4426L32.2116 40.469L43.0097 34.2339L43.5716 35.2075L32.7734 41.4426Z" fill="#E434AA"/>
<path d="M45.6358 36.0872C44.8923 37.3814 43.2338 37.8232 41.9397 37.0797C40.6455 36.3352 40.2037 34.6767 40.9473 33.3824C41.6917 32.0882 43.3502 31.6464 44.6445 32.3902C45.9463 33.1422 46.388 34.7929 45.6358 36.0872V36.0872ZM24.0452 23.6174C23.3008 24.9117 21.6423 25.3534 20.348 24.6097C19.0538 23.8652 18.612 22.2069 19.3558 20.9127C20.1002 19.6184 21.7585 19.1767 23.0528 19.9202C24.347 20.6724 24.7888 22.3232 24.0452 23.6174ZM19.3642 36.0872C18.6195 34.7929 19.0615 33.1422 20.3555 32.39C21.6498 31.6464 23.3005 32.0882 24.0527 33.3824C24.7963 34.6767 24.3545 36.3274 23.0603 37.0797C21.7585 37.8232 20.1078 37.3814 19.3642 36.0872V36.0872ZM40.9548 23.6174C40.2113 22.3232 40.653 20.6724 41.9473 19.9202C43.2415 19.1767 44.8923 19.6184 45.6442 20.9127C46.3878 22.2069 45.9463 23.8577 44.652 24.6099C43.3578 25.3534 41.6993 24.9117 40.9548 23.6174ZM32.5 43.6744C32.1447 43.6748 31.7929 43.605 31.4646 43.4692C31.1363 43.3334 30.838 43.1342 30.5867 42.8829C30.3355 42.6317 30.1363 42.3334 30.0005 42.0051C29.8647 41.6768 29.7949 41.325 29.7953 40.9697C29.7949 40.6144 29.8647 40.2626 30.0005 39.9343C30.1363 39.606 30.3355 39.3077 30.5867 39.0564C30.838 38.8052 31.1363 38.606 31.4646 38.4702C31.7929 38.3344 32.1447 38.2646 32.5 38.2649C32.8553 38.2646 33.2071 38.3344 33.5354 38.4702C33.8637 38.606 34.162 38.8052 34.4133 39.0564C34.6645 39.3077 34.8637 39.606 34.9995 39.9343C35.1353 40.2626 35.2051 40.6144 35.2048 40.9697C35.2048 42.4579 33.9958 43.6744 32.5 43.6744ZM32.5 18.7349C32.1447 18.7353 31.7929 18.6655 31.4646 18.5297C31.1363 18.3939 30.838 18.1947 30.5867 17.9434C30.3355 17.6922 30.1363 17.3939 30.0005 17.0656C29.8647 16.7373 29.7949 16.3855 29.7953 16.0302C29.7949 15.6749 29.8647 15.323 30.0005 14.9948C30.1363 14.6665 30.3355 14.3682 30.5867 14.1169C30.838 13.8657 31.1363 13.6665 31.4646 13.5307C31.7929 13.3949 32.1447 13.3251 32.5 13.3254C32.8553 13.3251 33.2071 13.3949 33.5354 13.5307C33.8637 13.6665 34.162 13.8657 34.4133 14.1169C34.6645 14.3682 34.8637 14.6665 34.9995 14.9948C35.1353 15.323 35.2051 15.6749 35.2048 16.0302C35.2051 16.3855 35.1353 16.7373 34.9995 17.0656C34.8637 17.3939 34.6645 17.6922 34.4133 17.9434C34.162 18.1947 33.8637 18.3939 33.5354 18.5297C33.2071 18.6655 32.8553 18.7353 32.5 18.7349" fill="#E434AA"/>
</g>
<defs>
<filter id="filter0_dd" x="0" y="0" width="65" height="65" filterUnits="userSpaceOnUse" color-interpolation-filters="sRGB">
<feFlood flood-opacity="0" result="BackgroundImageFix"/>
<feColorMatrix in="SourceAlpha" type="matrix" values="0 0 0 0 0 0 0 0 0 0 0 0 0 0 0 0 0 0 127 0" result="hardAlpha"/>
<feMorphology radius="1" operator="erode" in="SourceAlpha" result="effect1_dropShadow"/>
<feOffset dy="2"/>
<feGaussianBlur stdDeviation="2"/>
<feColorMatrix type="matrix" values="0 0 0 0 0 0 0 0 0 0 0 0 0 0 0 0 0 0 0.06 0"/>
<feBlend mode="normal" in2="BackgroundImageFix" result="effect1_dropShadow"/>
<feColorMatrix in="SourceAlpha" type="matrix" values="0 0 0 0 0 0 0 0 0 0 0 0 0 0 0 0 0 0 127 0" result="hardAlpha"/>
<feMorphology radius="1" operator="erode" in="SourceAlpha" result="effect2_dropShadow"/>
<feOffset dy="4"/>
<feGaussianBlur stdDeviation="3"/>
<feColorMatrix type="matrix" values="0 0 0 0 0 0 0 0 0 0 0 0 0 0 0 0 0 0 0.1 0"/>
<feBlend mode="normal" in2="effect1_dropShadow" result="effect2_dropShadow"/>
<feBlend mode="normal" in="SourceGraphic" in2="effect2_dropShadow" result="shape"/>
</filter>
</defs>
</svg>
