<svg width="65" height="65" viewBox="0 0 65 65" fill="none" xmlns="http://www.w3.org/2000/svg">
<mask id="mask0" mask-type="alpha" maskUnits="userSpaceOnUse" x="5" y="1" width="55" height="55">
<rect x="5" y="1" width="55" height="55" rx="6" fill="#F3F4F6"/>
</mask>
<g mask="url(#mask0)">
<g filter="url(#filter0_dd)">
<rect x="5" y="1" width="55" height="55" rx="6" fill="#F3F4F6"/>
</g>
<path d="M21.4735 25.5296C20.5498 25.9715 18.1048 27.9606 17.6339 28.5499C17.1448 29.1393 17 28.2185 17.5071 26.6899C17.9054 25.456 18.9198 23.78 20.6222 22.3435C21.6183 21.5148 23.8098 20.3177 25.15 19.6178C25.4217 19.4704 28.9353 17.9603 32.0685 17.2052C32.3403 17.1315 31.7426 17.6656 31.6519 17.9603C31.181 19.3599 21.7813 25.3638 21.7813 25.3638L21.4735 25.5296ZM34.7127 42.4178C34.8757 43.4123 34.7309 43.486 33.7167 43.6149C32.7024 43.7438 31.9599 43.357 31.6882 43.0993C31.4165 42.8413 31.3623 42.2705 31.6339 41.7548C31.797 41.4233 31.96 41.3128 32.0506 40.9076C32.1411 40.5209 32.2135 40.4288 32.2859 40.2815C32.3583 40.1525 32.3765 40.0235 32.3946 39.1212C32.4127 38.2188 32.3946 36.5244 32.4852 35.8062C32.5758 35.0696 35.7091 36.1377 35.7091 36.1377C35.7091 36.1377 34.9664 38.0162 34.7672 38.4766C34.568 38.9371 34.5861 39.821 34.5861 40.0052C34.5861 40.1894 34.5137 40.5576 34.4593 40.5761C34.405 40.5944 34.6404 41.0733 34.5317 41.3496C34.4592 41.6075 34.6947 42.2705 34.7127 42.4178V42.4178ZM35.9081 14.2585C35.7994 13.5587 35.9081 12.1773 36.053 11.9564C36.5058 11.3302 38.8965 11.2566 39.4036 11.9932C39.621 12.3247 39.6028 13.0982 39.5666 13.5955C39.5304 14.0927 39.4036 15.1609 39.3855 15.5109C39.3675 15.7687 36.7413 16.1738 36.1617 15.474C35.9987 15.2899 35.9081 14.2585 35.9081 14.2585V14.2585ZM41.2328 40.6313C42.3376 41.4417 43.1888 41.589 43.7503 41.8837C44.3117 42.1785 44.1668 42.7493 43.225 42.9151C42.4644 43.0624 41.269 42.7677 40.4722 42.7677C39.6753 42.7677 37.9003 42.8598 37.4294 42.5284C36.8861 42.1417 37.1215 41.4233 37.1215 41.4233C37.2664 41.0182 37.6286 40.1157 37.5199 39.379C37.4113 38.6424 37.2663 38.2373 36.9947 37.5558C36.7231 36.8744 36.5239 35.1985 36.7775 35.1064C37.0311 35.0142 36.9585 35.1064 37.2846 35.18C37.6105 35.2536 37.9728 35.3642 38.6792 35.3642C39.3855 35.3642 40.1642 35.2536 40.436 35.1984C40.7076 35.1432 40.9249 35.0878 40.8343 35.6588C40.7438 36.2297 40.4722 37.2979 40.454 38.1267C40.436 38.9554 40.436 39.9131 40.4903 40.0789C40.5445 40.2446 40.9431 40.4288 41.2328 40.6313V40.6313Z" fill="#010101"/>
<path d="M37.3571 16.1001C35.3649 17.8498 31.5071 18.3285 25.784 20.5754C24.317 21.1463 20.405 22.8591 19.4632 24.6455C22.6326 22.7855 23.8099 25.3453 24.0634 27.9789C24.2988 30.4468 25.5123 31.736 28.6274 31.6623C31.8332 31.5887 32.8112 33.4855 33.6986 35.714C35.4191 27.187 38.1721 25.5295 39.9469 24.0746C43.7141 20.9621 39.0776 15.4739 37.3571 16.1001Z" fill="#8AC640"/>
<path d="M37.3571 16.1001C32.5757 17.7944 27.8486 18.218 22.2885 21.6988C20.9664 22.5276 18.1773 24.406 17.6339 27.9974C19.6623 25.7136 24.3531 22.8407 30.0944 21.0174C32.9922 20.0965 35.1113 19.4888 37.683 18.4759C37.502 17.2971 37.502 16.8367 37.3571 16.1001V16.1001Z" fill="#8AC640"/>
<path d="M43.4605 26.1924C43.4605 26.1924 43.1164 27.3895 42.4282 27.7763C42.4282 27.7763 41.9211 27.9605 40.9069 27.3896C40.6171 27.2239 40.3998 26.653 40.4178 26.4687C40.436 26.0266 40.7076 25.8241 40.7076 25.8241C40.7076 25.8241 40.9975 25.3268 41.3415 25.3453C41.6857 25.3636 42.2653 25.4189 42.4464 25.2531C42.6093 25.0689 43.4968 25.5846 43.4605 26.1924V26.1924ZM36.0711 14.6082C36.0711 14.6082 35.9987 15.5475 35.8719 16.1368C35.8538 16.2474 35.3105 16.3025 34.912 16.4684C35.6727 18.6783 40.2548 18.6599 40.8525 17.5733C40.5628 17.3708 39.9832 17.0577 39.7116 16.9472C39.4398 16.8366 39.458 16.8551 39.4398 16.3394C39.4218 15.8237 39.3855 14.8661 39.3492 14.6082C39.313 14.3503 36.5057 14.3503 36.0711 14.6082Z" fill="#010101"/>
<path d="M36.2522 14.608C36.2522 14.608 36.2522 15.1421 36.1979 15.6577C36.1799 15.8972 36.1617 16.0445 36.1255 16.2286C36.1074 16.3392 36.7413 16.7811 36.9224 17.7572C37.7918 19.7278 39.8022 18.7517 40.6352 17.8125C40.3455 17.6099 39.8746 17.3336 39.3313 17.1126C39.0595 17.0021 39.1863 16.7627 39.1683 16.2471C39.1501 15.7314 39.0777 14.9763 39.0415 14.7C39.0051 14.4238 36.687 14.3501 36.2522 14.608V14.608Z" fill="#F0EFEF"/>
<path d="M36.0711 14.6082C36.0711 14.6082 36.053 14.9398 35.9987 15.3265C36.2341 15.5658 36.542 15.8974 36.7775 16.1C36.9405 16.2474 37.3389 16.2289 37.7012 16.2289C38.0272 16.2289 38.317 16.2657 38.4438 16.1921C38.7336 16.0447 39.1501 15.6765 39.3856 15.4002C39.3675 15.0687 39.3494 14.7556 39.3313 14.6082C39.313 14.3503 36.5057 14.3503 36.0711 14.6082V14.6082Z" fill="#010101"/>
<path d="M37.7193 16.0082C37.5019 16.0082 37.2483 15.9898 37.0491 15.9529C36.9585 15.9346 36.868 15.8793 36.7955 15.8424C36.6687 15.7503 36.5419 15.6399 36.3972 15.5293C36.1073 15.3083 36.0893 15.1794 36.0893 15.1243C36.2161 13.9639 36.053 12.9879 36.053 12.9879C36.053 12.9879 35.9262 12.4906 36.6144 12.3616C37.3026 12.2327 37.7192 12.2144 37.7192 12.2144C37.7192 12.2144 38.1539 12.2144 38.824 12.3616C39.5122 12.4906 39.3854 12.9879 39.3854 12.9879C39.3854 12.9879 39.2224 13.9639 39.3492 15.1243C39.3492 15.1794 39.3312 15.3083 39.0413 15.5293C38.7877 15.7135 38.5885 15.916 38.3894 15.9529C38.1901 15.9898 37.9365 16.0082 37.7193 16.0082V16.0082Z" fill="#010101"/>
<path d="M37.7193 11.7354C36.524 11.7354 36.2884 12.0668 35.9443 12.4352C35.8719 12.5272 35.9262 13.0798 36.0531 14.2584H36.216C36.216 14.2584 36.1073 13.9269 36.1254 13.5402C36.1436 13.1535 36.216 13.1719 36.1616 13.0798C36.0893 12.9692 35.9443 12.785 36.2704 12.6009C36.5963 12.4167 37.1034 12.7482 37.7193 12.7667C38.335 12.7482 38.8603 12.4167 39.1862 12.6009C39.5122 12.785 39.3674 12.9692 39.295 13.0798C39.2225 13.1903 39.313 13.1534 39.3312 13.5402C39.3492 13.9269 39.2406 14.2584 39.2406 14.2584H39.4035C39.5122 13.0798 39.5847 12.5641 39.5303 12.472C39.2224 12.0668 38.9146 11.7537 37.7193 11.7354V11.7354ZM43.4605 26.2478C43.4605 26.2478 43.1164 27.3712 42.4463 27.7579C42.3014 27.6843 42.3195 27.5738 42.1927 27.408C42.1564 27.3529 42.0296 27.3159 41.9754 27.2607C41.9211 27.2055 41.9392 27.1133 41.8486 27.0397C41.7761 26.9661 41.7218 27.0213 41.6493 26.9661C41.577 26.8925 41.5587 26.8003 41.5045 26.7452C41.4682 26.7083 41.3234 26.6899 41.2872 26.653C41.1966 26.5609 40.3998 26.3952 40.436 26.211C40.5083 25.9347 40.6533 25.7321 40.6533 25.7321C40.6533 25.7321 40.9974 25.2165 41.3414 25.2348C41.6855 25.2533 42.0116 25.327 42.1927 25.1612C42.392 24.977 43.5149 25.6584 43.4605 26.2478Z" fill="#010101"/>
<path d="M41.106 18.1074C41.106 18.1074 42.247 17.8311 43.0259 18.5863C43.8047 19.3598 43.7503 20.3174 43.5149 20.9068C43.7141 21.1462 44.0763 21.8091 43.8047 22.6011C45 23.6324 44.4748 25.2163 43.4062 26.2661C43.4062 26.2661 43.1527 25.3084 42.1385 25.2531C42.1746 24.8849 41.1966 24.5901 41.6494 23.6324C40.9612 23.4667 40.9793 22.9878 40.8707 22.3986C40.7801 21.8091 41.106 18.1074 41.106 18.1074V18.1074Z" fill="#010101"/>
<path d="M40.6895 18.6232C40.6895 18.6232 42.0116 17.9418 42.7904 18.7154C43.5691 19.4889 43.3517 20.336 43.1164 20.9253C43.3156 21.1647 43.7865 21.8462 43.4967 22.6565C43.4424 22.8406 43.0439 22.8406 42.754 23.3195C43.4784 22.8958 43.9313 23.0064 44.0943 23.5404C44.3479 24.3692 43.7864 25.3637 43.2974 25.9162C43.2974 25.8977 43.2793 25.8793 43.2793 25.8609C43.2069 26.1373 43.1163 26.6713 42.573 27.2606C42.3013 27.5553 42.084 27.5185 41.776 27.4448C41.4139 27.3526 41.2871 27.1868 40.78 26.9107C40.4902 26.745 40.6532 26.5423 40.6532 26.3766C40.6532 26.3398 40.6894 26.2845 40.7438 26.2109C40.78 26.1187 40.8886 25.9715 41.0516 25.8057C41.0516 25.8057 41.2871 25.4742 41.6313 25.4926C41.9754 25.511 42.3376 25.4374 42.4282 25.3453C42.4282 24.7007 41.7037 24.6823 41.9573 23.5773C41.9754 23.522 42.066 23.4299 42.3557 23.3931C41.921 23.301 41.7218 23.2825 41.4139 22.9879C41.1966 22.7854 41.0336 22.5275 40.9792 22.1961C40.8706 21.6252 40.6895 18.6232 40.6895 18.6232V18.6232Z" fill="#F0EFEF"/>
<path d="M36.868 17.4629C36.7593 17.3155 36.1979 16.5789 35.1293 16.2842C34.8214 16.1921 34.6222 16.4499 34.3144 16.6341C34.2238 16.5789 33.8253 16.3947 33.608 16.5235C33.3907 16.6524 33.2459 16.7814 33.0285 16.8734C32.9197 16.8182 32.63 16.8182 32.3946 16.9102C32.1591 16.9839 31.7969 17.1497 31.4528 17.6285C31.2355 18.4205 35.2923 17.831 35.2923 17.831L36.868 17.4629Z" fill="#010101"/>
<path d="M36.9043 17.4627C36.3246 17.2601 36.4152 16.5787 35.1293 16.4682C34.8757 16.4498 34.7127 16.6523 34.5316 16.7812C34.6222 16.8734 34.7127 17.0207 34.7671 17.168C34.6041 16.9839 34.3143 16.7444 34.0244 16.6891C33.7528 16.634 33.5717 16.8365 33.2819 16.9839C33.3361 17.039 33.3905 17.1312 33.4629 17.2417C33.2093 17.076 33.0283 17.0208 32.6842 17.1496C32.4487 17.2232 31.996 17.4258 31.6518 17.9231C31.4345 18.7151 35.3103 17.831 35.3103 17.831L36.9043 17.4627Z" fill="#8AC640"/>
<path d="M40.3092 17.7575C40.3092 17.7575 40.3092 17.5548 40.291 17.3708C40.291 17.334 40.1462 17.2418 40.1462 17.205L40.11 17.1681C40.11 17.1681 40.3998 17.0024 40.6171 17.0945C40.8524 17.1681 40.9792 17.4812 40.9792 17.4812C41.3958 17.334 41.432 17.4997 41.6313 17.7207C42.066 17.6285 42.1202 17.7943 42.392 18.1995C42.392 18.1995 42.066 18.1443 41.4321 18.2547C40.8163 18.3467 40.3092 17.739 40.3092 17.7575V17.7575Z" fill="#010101"/>
<path d="M40.2367 17.6655C40.2367 17.6655 40.3454 17.5734 40.3091 17.5549C40.5083 17.4444 40.78 17.3156 40.9068 17.6655C41.3234 17.5181 41.3777 17.7208 41.5769 17.9418C42.084 17.7024 42.1201 17.997 42.1564 18.1259C41.9934 18.1259 41.7581 18.1444 41.432 18.1812C40.8163 18.2733 40.2186 17.6471 40.2367 17.6655Z" fill="#8AC640"/>
<path d="M34.0789 17.2051C34.0789 17.2051 35.1113 17.5733 35.9806 17.5181C36.85 17.4445 38.335 17.3708 39.1319 17.8497C39.1319 17.8497 39.9469 17.5549 40.7076 17.7575C41.4684 17.9601 42.8629 19.2861 42.4464 20.6858C42.4101 20.7779 42.1747 20.9252 41.903 21.0173C41.903 21.0173 42.048 21.6435 41.7944 22.1591C41.5408 22.6564 40.9794 23.6141 40.9612 24.9401C40.9432 25.1611 40.907 25.6215 40.8707 25.8425C39.458 25.7873 37.2847 25.2531 35.1475 25.29C35.1656 25.0507 35.1837 24.9033 35.2019 24.6639H35.2561C35.1475 24.0561 35.1113 23.743 35.0025 23.2826C34.3143 22.8406 33.5898 22.325 32.9741 21.3488C32.3764 20.3727 34.0789 17.2051 34.0789 17.2051V17.2051ZM41.0699 27.1502C41.0699 27.1502 42.1928 31.2387 40.8707 32.9515C40.8707 32.9515 41.0699 33.7434 40.6171 34.5906C40.5446 34.9589 40.454 35.2904 40.3998 35.6587C40.1643 37.1873 39.7658 37.8319 39.6572 40.2813L38.5704 40.2629C38.5704 40.2629 38.4436 38.4949 38.0633 37.5557C37.8461 37.0217 36.9947 36.3033 37.0311 35.5851C37.0673 35.0326 37.1759 34.5722 38.0997 33.8354C38.1721 32.7673 37.1216 31.7543 37.2847 27.7763L41.0699 27.1502Z" fill="#010101"/>
<path d="M40.7439 26.9843C41.0337 28.8628 41.7038 31.6438 40.4903 33.0066C40.5619 33.3521 40.568 33.7084 40.5084 34.0563C40.4722 34.2773 40.3997 34.5167 40.3092 34.7745C40.1281 35.2165 40.0556 35.8611 40.0013 36.2478C39.7658 37.7764 39.7658 37.8502 39.6572 40.2996L38.5704 40.2812C38.5704 40.2812 38.4436 38.5132 38.0633 37.574C37.8461 37.0399 37.3932 36.5795 37.3571 35.8612C37.3209 35.3088 37.7012 34.2038 38.6068 34.2406C38.5525 32.0122 37.5382 32.4541 37.2665 27.8131L40.7439 26.9843ZM34.0789 17.2051C34.0789 17.2051 34.4774 17.334 34.912 17.3708C35.3467 17.4076 35.8176 17.3708 36.2341 17.3524C37.1035 17.2788 38.3351 17.1866 39.1501 17.6655C39.1501 17.6655 39.6028 17.5181 40.0919 17.5549C40.3092 17.5733 40.5266 17.7575 40.7801 17.8312C41.577 18.0338 42.3377 19.3782 41.9935 20.5937C41.9573 20.6859 41.7037 20.5937 41.4139 20.6859C41.4681 20.9437 41.5045 21.5331 41.2146 22.1592C40.9068 22.7854 40.5084 23.5958 40.5807 25.1428C38.6791 25.0507 37.8279 24.9218 35.9443 24.8297C35.7813 24.1482 35.6725 23.4668 35.6545 23.1169C35.9081 22.988 36.0528 22.8776 36.2522 22.6565C35.7089 22.7486 35.4915 22.7118 35.1654 22.5276C34.8395 22.3434 34.2599 21.7541 33.9701 21.3673C33.9339 21.3305 33.7348 21.9381 33.282 21.9567C33.1189 21.7173 33.8071 21.0358 33.6803 20.778C33.2277 19.8387 34.0789 17.2051 34.0789 17.2051V17.2051Z" fill="#F0EFEF"/>
<path d="M40.8886 25.4556C40.8886 25.4556 40.9248 26.1187 40.9248 26.2844C40.9248 26.4686 41.0698 27.021 41.0878 27.2789C40.8886 27.6288 40.0193 28.4208 38.4436 28.7154C36.886 29.0469 34.8214 26.5607 34.8214 26.5607C34.8757 26.3213 35.0568 25.6214 35.1836 25.2531C35.2018 25.2163 35.238 25.1242 35.238 25.0874C35.401 24.8479 40.8886 25.4556 40.8886 25.4556V25.4556Z" fill="#010101"/>
<path d="M40.4903 25.5109C40.4903 25.9713 40.5627 26.3029 40.6171 26.5976C40.7076 27.1317 40.8525 27.4816 40.8525 27.8315C40.8525 28.8996 39.476 28.7154 38.3168 28.7523C36.7592 29.0839 35.4371 26.5976 35.4371 26.5976C35.5458 26.174 35.6183 25.6952 35.7812 25.29C35.7993 25.069 35.8356 24.7928 35.8536 24.6638C38.0632 24.6638 39.6208 24.7928 40.5264 24.8847C40.5627 25.0873 40.5265 25.4373 40.4903 25.5109Z" fill="#F0EFEF"/>
<path d="M38.7515 27.8866C38.7515 27.8866 37.7917 25.7134 34.9119 26.3581C34.2238 28.3286 33.3 30.5939 33.8977 33.0433C33.3 33.8721 32.6118 34.3326 32.6118 35.8611C32.6118 37.3897 32.6843 37.6476 32.6843 37.6476L34.8032 37.7581C34.8032 37.7581 35.4915 36.8558 35.7631 35.8796C35.8356 35.6033 35.908 35.1061 35.8537 34.5352C35.9261 34.4247 36.234 34.1669 36.2703 33.6696C36.2703 33.6696 37.3026 33.1172 37.9003 31.7728C38.4618 30.557 38.3169 29.5073 38.7515 27.8866Z" fill="#010101"/>
<path d="M38.7516 27.8868C38.6973 27.6842 37.9728 25.6952 35.2923 26.2845C33.7167 30.5572 34.2963 32.3253 34.5316 33.0987C33.463 34.4799 32.9741 34.7746 33.1915 37.574H34.6042C35.2561 36.5242 35.4011 36.1374 35.4372 34.7562C35.4372 34.701 35.2381 34.8667 35.0931 35.0509C35.2019 34.48 35.5097 34.3695 35.7452 34.0196C35.8538 33.8722 35.9443 33.6512 35.9443 33.3566C37.2121 32.491 37.683 31.4044 37.9547 30.2809C38.1721 29.5075 38.4256 28.2367 38.7516 27.8868V27.8868Z" fill="#F0EFEF"/>
<path d="M34.2781 24.9216C34.2781 24.9216 34.7672 24.94 35.2019 25.0874C35.6185 25.2347 35.6185 25.3267 35.7814 25.511C35.9444 25.6952 36.3429 25.9714 36.2705 26.2476C36.2342 26.395 36.1437 26.4318 36.0169 26.5607C35.9626 26.616 35.564 27.0579 35.4735 27.1132C35.4192 27.15 35.3467 27.2053 35.2924 27.2421L35.0208 27.4263C34.8396 27.5184 34.7128 27.5737 34.5137 27.5552C34.5137 27.5552 34.0609 27.5368 33.771 27.2237C33.771 27.2237 33.7348 27.0764 33.8073 27.0028C33.8073 27.0028 33.4269 26.6712 33.3183 26.4502C33.2095 26.2293 33.2095 25.9162 33.2821 25.7505C33.3183 25.5846 34.0245 25.1242 34.2781 24.9216V24.9216ZM34.731 42.8411L34.6766 43.3016C34.6766 43.3016 34.5137 43.5042 33.3002 43.4858C32.0686 43.4674 31.7426 43.0807 31.634 42.878L31.5616 42.3992C31.5616 42.3992 31.7971 42.0493 31.8514 42.0493C32.2498 42.0861 33.6082 42.6386 34.55 42.7859C34.6404 42.7859 34.6584 42.8227 34.731 42.8411ZM37.3571 41.9019C37.3571 42.1044 37.3389 42.1044 37.3389 42.307C37.5562 42.4728 38.0997 42.5649 39.1319 42.5464C40.6352 42.5096 42.0297 43.0069 43.7321 42.7121L43.7503 42.3806L43.5873 42.3623L37.5562 41.865L37.3571 41.9019Z" fill="#010101"/>
<path d="M38.6792 42.5467H39.1319C40.11 42.5099 41.0337 42.7308 42.0297 42.7861C42.555 42.7676 43.207 42.6387 43.1527 42.252L38.0091 41.8099C37.7012 42.1598 37.9365 42.4545 38.6792 42.5467V42.5467ZM32.7749 34.7932C32.9379 34.9037 34.0427 35.5667 35.8357 35.4746C35.7994 35.8245 35.8175 36.506 35.0207 37.703C34.6222 38.2923 34.278 39.3237 34.2056 40.6313C34.2238 40.926 34.3868 41.1838 34.1695 41.5706C34.2418 41.8099 34.5316 42.2888 34.6765 42.5835C34.8214 42.8782 34.8939 43.2097 33.9339 43.2281C32.9559 43.2465 31.3802 43.136 31.5976 42.3626C31.7064 41.9574 32.0142 41.5338 32.0505 41.368C32.0867 41.2022 32.0867 40.705 32.3945 40.3735C32.6662 39.4527 32.5756 38.5686 32.5214 37.7399C32.4308 36.8742 32.4126 35.493 32.7749 34.7932V34.7932ZM34.4592 19.7834C35.7452 18.0338 34.6584 16.6342 32.5938 17.0577C31.7607 17.2235 30.9276 17.8129 30.8732 18.881C30.6016 18.9178 29.9858 18.9546 29.6779 20.0965C29.4425 20.9805 29.3157 21.1462 28.8991 21.5882C28.6274 21.9013 28.9172 22.5459 29.1164 23.0064C29.7865 24.5902 31.8512 24.7375 33.2458 25.9346C33.7167 25.8057 34.2056 25.2717 34.3506 24.9218C33.1733 23.5036 33.4268 22.9511 32.9559 22.2145C33.4631 22.0302 34.6222 21.312 34.4592 19.7834Z" fill="#010101"/>
<path d="M34.2056 19.6728C34.278 19.5622 34.4048 19.3229 34.4592 19.2307C34.4774 19.2123 34.6765 19.5622 34.6947 19.5438C35.1836 18.7334 35.3104 17.5548 34.7489 17.4443C34.6221 17.4258 34.3868 17.3707 34.1875 17.2969C33.8253 17.1679 33.4994 17.1679 32.9197 17.2785C32.1228 17.4258 31.326 18.0152 31.326 18.8624C31.326 18.9176 31.8873 19.0833 32.0504 19.7648C31.7786 19.378 31.3077 18.9544 30.7463 19.3228C30.1486 19.7095 30.4565 20.5935 29.6597 21.5143C29.3879 21.8274 29.4242 22.1958 29.7139 22.9324C30.1848 24.0927 32.4125 24.7189 33.626 25.8239C33.9158 25.6949 34.1149 25.4003 34.2599 25.1793C33.4449 24.3137 33.1188 23.5033 32.8834 22.914C32.5937 22.2326 32.2676 21.8459 31.6337 21.33C31.9598 21.459 32.2134 21.5879 32.3581 21.6984C32.5211 21.8089 32.7566 21.8273 32.974 21.7536C33.7529 21.4776 34.1695 20.3725 34.2056 19.6728Z" fill="#F0EFEF"/>
<path d="M42.0841 19.9674C42.0297 20.6673 41.5226 20.3173 41.251 20.1884C40.7076 19.949 40.1642 19.7833 39.5304 19.7833C38.8965 19.7833 38.0815 19.8385 37.3752 20.0227C36.3972 20.2989 36.1073 20.2805 35.6727 20.0595C35.2381 19.8201 34.4775 19.2307 34.4775 19.2307C34.4775 19.2307 34.4593 19.4149 34.6404 19.6543C34.8758 19.949 35.4011 20.3173 36.1074 20.5567C36.4515 20.6673 36.7232 20.5935 37.0312 20.5199C38.6431 20.1147 40.3455 20.041 41.7762 20.925C41.8487 20.9618 42.1023 20.8514 42.2109 20.6856C42.3557 20.4463 42.0841 19.9674 42.0841 19.9674V19.9674Z" fill="#010101"/>
<path d="M33.8435 26.9844C33.9883 27.0765 34.1695 27.1318 34.3686 27.2975C34.3686 27.2975 34.2056 27.2975 34.1333 27.2239C34.0427 27.1686 33.8615 27.0029 33.8435 26.9844V26.9844Z" fill="#0A1825"/>
<path d="M39.0776 12.3797C39.0233 12.2139 38.6248 11.9192 37.7012 11.9192C36.705 11.9192 36.4152 12.2323 36.3972 12.398C36.3972 12.4533 36.3247 13.0427 36.3066 13.282C36.3066 13.282 36.3066 13.5767 36.3246 14.0187C36.3428 14.3133 36.4152 14.4791 36.4514 14.8659C36.4876 15.271 36.5964 15.5288 36.7955 15.8604C36.8861 15.9155 36.9585 15.9709 37.0491 15.9893C37.4114 16.0629 38.0453 16.0814 38.3894 15.9893C38.5886 15.9341 38.8422 15.5842 38.8965 15.271C38.9689 14.8843 39.0413 14.608 39.0595 14.3687C39.0957 14.1293 39.1138 13.5952 39.1319 13.4478C39.1863 13.0427 39.0957 12.4165 39.0776 12.3797V12.3797Z" fill="#F0EFEF"/>
<path d="M37.1759 35.1431C37.1759 35.1431 38.1359 35.5667 40.5085 35.1983C40.5085 35.1983 39.8384 38.6239 40.1463 40.3366C40.1463 40.3366 40.4541 40.7786 42.7362 41.6257C42.7362 41.6257 43.7504 41.8836 43.7142 42.3993C43.7142 42.3993 43.7504 42.5098 42.5189 42.4729C41.2874 42.4361 40.1282 42.2151 39.3131 42.2151C38.4981 42.2151 37.6288 42.2519 37.4839 42.0125C37.3209 41.7916 37.5201 41.2206 37.7556 40.889C38.0093 40.5392 37.9367 40.2812 37.9186 39.6552C37.8641 38.0161 36.6325 36.3217 37.1759 35.1431V35.1431Z" fill="#010101"/>
<path d="M36.9766 35.456C36.8498 35.6402 36.9947 36.3399 37.1758 37.0214C37.3569 37.7028 37.7555 38.1081 37.846 39.2314C37.9365 40.3364 37.9546 40.4838 37.6467 41.1283C37.3388 41.7728 37.2483 42.3622 38.3168 42.3806C39.3853 42.3991 39.965 42.3622 41.0516 42.528C42.1384 42.6938 42.5187 42.749 43.1164 42.657C43.7141 42.5649 43.8408 42.3622 43.5873 42.1781C43.3337 41.9939 42.2832 41.7914 41.8304 41.4229C41.3957 41.0915 40.1642 40.5389 40.1462 40.3916C40.0918 39.8943 40.0737 38.0895 40.1642 37.5002C40.2548 36.9107 40.3815 36.0636 40.4178 35.8426C40.4541 35.6217 40.6351 35.4006 40.3272 35.4743C40.0194 35.5479 38.8603 35.7137 37.9909 35.6585C37.1216 35.6033 37.0311 35.4007 36.9766 35.456V35.456Z" fill="#8AC640"/>
<path opacity="0.3" d="M37.5925 41.147C37.9003 41.2943 38.3532 41.4049 38.6973 41.4049C38.6973 41.4049 38.5704 42.0127 38.7697 42.3809C38.9688 42.7493 37.3208 42.5283 37.3208 42.5283L37.2484 41.2207L37.5925 41.147ZM42.392 42.7308C42.6818 42.6387 42.881 42.3072 42.6456 41.9942C42.392 41.6811 42.1747 41.6258 42.5006 41.6075C42.8267 41.589 44.022 42.3257 44.022 42.3257L43.4062 42.8966L42.392 42.7308ZM36.9223 36.1744C37.3389 36.3218 37.9728 36.3586 38.5162 36.3401C39.0594 36.3218 39.8745 36.248 40.3998 36.0639C40.9249 35.8797 40.7076 36.2664 40.7076 36.2664L40.4178 36.5427C40.4178 36.5427 39.7296 36.819 38.6068 36.8006C37.2847 36.7822 36.8861 36.6349 36.8861 36.6349L36.9223 36.1744ZM36.9585 37.0953C37.3752 37.2427 38.009 37.2795 38.5524 37.261C39.0956 37.2427 39.8201 37.2427 40.3454 37.04C40.5627 36.9664 40.436 37.2795 40.436 37.2795L40.3454 37.4452C40.3454 37.4452 39.639 37.7031 38.5342 37.6845C37.2121 37.6662 36.9767 37.5556 36.9767 37.5556L36.9585 37.0953Z" fill="#010101"/>
<path d="M35.7632 24.1851C35.7632 24.314 37.1759 25.0322 37.9546 25.1796C38.7335 25.3268 40.3635 25.1796 40.617 25.1243L40.5807 25.3822C40.5807 25.3822 38.6429 25.6768 37.1578 25.2717C35.6726 24.8665 35.8357 24.7744 35.8357 24.7744L35.7632 24.1851Z" fill="#010101"/>
<path d="M32.7386 39.8945C32.9559 40.0051 33.7347 40.2076 34.2418 40.0971C34.3142 40.0787 34.2418 38.8263 34.4411 38.2554C34.7309 37.4635 35.2018 36.8189 35.419 35.4193C34.6583 35.3456 33.7891 35.143 33.3362 34.9956C32.7567 36.8005 32.956 38.3475 32.7386 39.8945V39.8945ZM33.9521 41.0548C34.0789 41.0916 34.1695 41.2389 34.2057 41.147C34.2781 40.9811 34.0789 40.6681 34.0608 40.4471V40.4287C33.8978 40.2814 32.793 40.263 32.8655 40.3366C32.7387 40.576 32.5395 40.5392 32.4671 41.018C32.4309 41.2574 32.7207 41.0548 32.9923 41.0364C32.5033 41.3678 31.9419 41.7915 31.8513 42.1598C31.7426 42.6755 31.9238 42.8228 32.4671 43.0992C32.938 43.2096 33.4995 43.2281 33.9341 43.2096C34.4231 43.1175 34.5137 42.8782 34.3688 42.5466C34.1513 42.0493 34.0065 41.4047 33.9521 41.0548V41.0548Z" fill="#F0EFEF"/>
<path d="M34.1513 17.1311C34.749 17.481 35.5822 17.389 35.89 17.3705C35.9625 17.3705 36.687 17.2416 36.7231 17.2599C36.7955 17.2784 36.7955 17.3336 36.7955 17.3336C36.7955 17.3336 36.5239 17.4809 35.9081 17.5177C35.3286 17.5545 34.6403 17.5177 34.26 17.3336C33.8072 17.1311 34.1513 17.1311 34.1513 17.1311ZM40.3092 17.481C40.4178 17.5546 41.1242 17.8309 41.4321 18.1624C41.7038 18.4572 41.5589 18.4387 41.5045 18.365C41.4321 18.2729 40.8706 17.8862 40.6533 17.7941C40.436 17.7021 40.1642 17.5363 40.1642 17.4995C40.1642 17.4627 40.3092 17.481 40.3092 17.481V17.481Z" fill="#010101"/>
<path d="M34.0607 25.1242C34.5859 25.0874 35.1293 25.2163 35.4734 25.5846C35.6545 25.7688 35.9443 25.9713 35.9081 26.1555C35.9081 26.2107 35.7994 26.3581 35.709 26.4686C35.6546 26.5422 35.4916 26.7079 35.4372 26.7633C35.3648 26.8185 35.1113 27.0212 35.0569 27.058C35.0026 27.0948 34.9301 27.187 34.8758 27.2053C34.6948 27.2975 34.4955 27.2238 34.3144 27.1317C34.1333 27.0396 34.3507 27.0212 34.1514 26.8739C33.6624 26.5239 33.3907 26.2844 33.59 25.603C33.608 25.4741 33.8072 25.3267 34.0607 25.1242V25.1242Z" fill="#F0EFEF"/>
<path opacity="0.4" d="M29.4424 20.9067C27.8124 21.5698 23.6649 23.6694 22.4877 24.3139C23.4657 24.9401 23.9185 26.4502 24.0634 27.9788C24.0815 28.1262 24.0996 28.2551 24.1177 28.4024C24.1358 28.5314 24.1539 28.6234 24.172 28.6787C24.172 28.6972 24.172 28.734 24.1901 28.7523C25.2587 25.7873 29.0801 22.6564 29.225 22.417C29.2974 22.3065 29.1344 21.8276 29.388 21.3673C29.7141 20.7778 30.3481 20.5199 29.4424 20.9067V20.9067ZM33.3182 34.8115C34.1513 33.1172 34.1694 31.4964 34.1513 29.5995C34.1513 28.8075 34.7127 27.6841 34.423 27.9972C33.3363 29.231 30.6016 31.5517 28.6274 31.6805C31.3984 31.5885 32.4851 33.0066 33.3182 34.8115Z" fill="#010101"/>
<path d="M20.8939 25.8791C21.9262 25.124 27.269 22.2326 28.555 21.8274C29.8408 21.4038 29.4423 20.9065 29.4423 20.9065C29.4423 20.9065 24.2263 23.1902 21.1112 25.1608" fill="#010101"/>
<path opacity="0.4" d="M36.1073 20.5568C35.6908 20.3911 35.3648 20.8884 35.4734 21.3673C35.5822 21.8461 36.5602 22.3801 36.5058 24.1298C36.4696 25.5663 36.1617 26.1556 36.1617 26.1556L35.4734 25.2717C35.4734 25.2717 35.3648 23.2826 35.1293 22.9879C34.894 22.6932 34.1513 22.1591 33.8615 21.8829C33.5718 21.6066 34.1875 21.2383 34.1513 20.7226C34.1151 20.2254 34.4592 19.2309 34.4592 19.2309L36.1073 20.5568ZM38.6248 28.4024C38.5886 29.7836 38.8966 31.8279 39.0233 32.8041C39.1501 33.7801 39.3131 33.8538 39.0233 34.2958C38.7335 34.7195 38.3532 35.4193 38.3532 35.4193L37.1035 35.3087C37.1035 35.3087 38.0996 34.0195 38.1538 33.7801C38.2082 33.5408 37.6467 31.7175 37.6467 31.7175L38.6248 28.4024ZM36.2161 15.5107C36.4697 16.0815 36.7775 16.3393 37.2665 16.5052C37.5562 16.6157 38.6972 16.763 39.1501 16.2473C39.3492 16.0079 39.2225 15.3633 39.2225 15.3633L38.1901 16.2104L36.7955 15.9526L36.6326 15.529L36.2161 15.5107Z" fill="#010101"/>
<path d="M36.1616 16.8367C36.7593 17.0945 37.9184 17.3708 38.2444 17.4445C38.5704 17.5181 39.0956 17.1866 39.3492 17.0209C39.8021 16.7262 40.3815 16.9656 40.6533 17.2787C40.8343 17.4813 40.9069 17.6102 40.9069 17.6654C40.9069 17.739 40.6895 17.6654 40.6895 17.6654C40.5628 17.6102 40.4178 17.5918 40.3092 17.5181C40.1643 17.4445 40.0194 17.334 39.8022 17.3523C38.8965 17.4629 38.7154 17.7759 37.9367 17.5917C37.1579 17.4076 36.9587 17.2418 36.1256 17.297" fill="#8AC640"/>
<path d="M33.3544 34.0377C33.3183 34.0009 33.3906 33.9641 33.3544 33.9641C33.1191 33.9641 32.793 33.78 32.6118 33.5221C31.8331 32.3803 30.692 31.6252 28.6273 31.6805C25.5303 31.7541 24.2987 30.465 24.0633 27.9971C23.9365 26.6527 23.5743 25.3451 22.8317 24.6084L22.397 24.8847C23.2301 25.6213 23.5018 26.8185 23.6829 28.4576C23.9727 30.9254 25.9287 32.0673 28.2108 32.1041C30.5833 32.1409 31.4345 32.6382 32.3219 33.8537C32.6117 34.2405 32.9378 34.3694 33.1913 34.4246L33.3544 34.0377Z" fill="#010101"/>
<path opacity="0.4" d="M41.7581 22.196C41.8124 22.4723 41.9572 23.0064 42.247 23.2641C42.3739 23.3931 42.392 23.4299 42.2833 23.4299C42.1746 23.4299 41.3777 23.3931 41.3777 23.3931L41.1604 23.0064L41.7581 22.196Z" fill="#010101"/>
</g>
<defs>
<filter id="filter0_dd" x="0" y="0" width="65" height="65" filterUnits="userSpaceOnUse" color-interpolation-filters="sRGB">
<feFlood flood-opacity="0" result="BackgroundImageFix"/>
<feColorMatrix in="SourceAlpha" type="matrix" values="0 0 0 0 0 0 0 0 0 0 0 0 0 0 0 0 0 0 127 0" result="hardAlpha"/>
<feMorphology radius="1" operator="erode" in="SourceAlpha" result="effect1_dropShadow"/>
<feOffset dy="2"/>
<feGaussianBlur stdDeviation="2"/>
<feColorMatrix type="matrix" values="0 0 0 0 0 0 0 0 0 0 0 0 0 0 0 0 0 0 0.06 0"/>
<feBlend mode="normal" in2="BackgroundImageFix" result="effect1_dropShadow"/>
<feColorMatrix in="SourceAlpha" type="matrix" values="0 0 0 0 0 0 0 0 0 0 0 0 0 0 0 0 0 0 127 0" result="hardAlpha"/>
<feMorphology radius="1" operator="erode" in="SourceAlpha" result="effect2_dropShadow"/>
<feOffset dy="4"/>
<feGaussianBlur stdDeviation="3"/>
<feColorMatrix type="matrix" values="0 0 0 0 0 0 0 0 0 0 0 0 0 0 0 0 0 0 0.1 0"/>
<feBlend mode="normal" in2="effect1_dropShadow" result="effect2_dropShadow"/>
<feBlend mode="normal" in="SourceGraphic" in2="effect2_dropShadow" result="shape"/>
</filter>
</defs>
</svg>
