<svg width="65" height="65" viewBox="0 0 65 65" fill="none" xmlns="http://www.w3.org/2000/svg">
<mask id="mask0" mask-type="alpha" maskUnits="userSpaceOnUse" x="5" y="1" width="55" height="55">
<rect x="5" y="1" width="55" height="55" rx="6" fill="#F3F4F6"/>
</mask>
<g mask="url(#mask0)">
<g filter="url(#filter0_dd)">
<rect x="5" y="1" width="55" height="55" rx="6" fill="#F3F4F6"/>
</g>
<path fill-rule="evenodd" clip-rule="evenodd" d="M26.0053 21.3132C26.216 23.6378 26.425 25.9494 26.6388 28.3128C26.9874 27.6845 27.2396 27.082 27.6202 26.5884C27.9745 26.1287 28.4211 25.7044 28.9071 25.4105C29.5416 25.0268 30.3735 25.3881 30.5792 26.0687C30.6344 26.2513 30.5025 26.496 30.4564 26.7123C30.3012 26.6265 30.1011 26.5791 29.9997 26.4477C29.569 25.8894 29.3095 25.8235 28.8331 26.3059C27.9445 27.2064 27.4448 28.3344 27.254 29.6023C27.2173 29.8475 27.3636 30.1227 27.4253 30.3841C27.6682 30.2965 27.9503 30.2643 28.1465 30.1112C28.7846 29.6133 29.18 28.9363 29.3982 28.127C29.4455 27.9517 29.7021 27.8386 29.8625 27.6969C29.9394 27.8626 30.1148 28.0577 30.078 28.1889C29.7382 29.4076 29.3749 30.6189 28.9883 31.8222C28.9494 31.944 28.7358 32.0047 28.603 32.0938C28.5494 31.9337 28.4367 31.766 28.4548 31.6152C28.4951 31.2732 28.6001 30.9396 28.6734 30.6263L26.934 31.4656C27.0313 32.6294 27.1322 33.935 27.2519 35.2389C27.3437 36.2345 27.4991 36.4923 28.4346 36.6812C29.5262 36.9015 30.6383 37.0423 31.7479 37.1279C33.3821 37.2569 35.0254 37.0948 36.6079 36.6484C37.2018 36.4812 37.4387 36.0718 37.4812 35.4607C37.5201 34.8979 37.6071 34.3387 37.6674 33.7774C37.7858 32.6717 37.9009 31.5658 38.022 30.4138C37.6215 30.6797 37.3066 30.9774 36.9383 31.1035C36.6702 31.1954 36.3319 31.061 36.0247 31.0272C36.0835 30.7316 36.0799 30.3985 36.2159 30.1492C36.4374 29.7418 36.7502 29.3885 37.024 29.0123L36.9061 28.8635C36.7098 28.9851 36.466 29.0649 36.3264 29.2374C36.0424 29.5884 35.7645 29.9641 35.5744 30.3755C35.2564 31.0642 35.014 31.7912 34.7293 32.4972C34.6056 32.8034 34.4989 33.2718 34.0845 33.093C33.6413 32.9014 33.9531 32.4922 34.0571 32.2011C34.2226 31.7368 34.4412 31.2931 34.5892 30.9517C34.1698 31.004 33.7446 31.0672 33.3174 31.1063C33.1368 31.1224 32.922 31.0187 32.7742 31.0887C32.2829 31.3213 31.9716 31.2279 31.8695 30.6578C31.642 30.8127 31.4493 31.0224 31.2223 31.0788C30.9467 31.1476 30.5729 31.1926 30.3711 31.0484C30.2095 30.9328 30.1506 30.4984 30.2058 30.2436C30.3156 29.737 30.5208 29.25 30.7156 28.7683C30.8362 28.4699 30.9576 27.9935 31.3645 28.201C31.7667 28.4057 31.4015 28.7512 31.3088 29.0284C31.1649 29.457 31.0183 29.8848 30.8732 30.3129L31.1039 30.4589C31.3234 30.259 31.5971 30.096 31.7508 29.8508C32.0026 29.4499 32.1547 28.9816 32.393 28.5701C32.4917 28.3997 32.7043 28.302 32.8655 28.1713C32.8982 28.3883 32.9765 28.6114 32.9506 28.8209C32.9249 29.0327 32.7829 29.2263 32.7149 29.4358C32.6128 29.7496 32.5304 30.0704 32.4266 30.4352C32.9174 30.4549 33.1276 30.2383 33.2662 29.8563C33.7049 28.6494 34.1484 27.4438 34.6305 26.2556C34.713 26.0521 34.9931 25.9373 35.1821 25.7812C35.204 26.0264 35.3083 26.3044 35.234 26.5111C34.8388 27.6062 34.3951 28.6817 33.9781 29.7682C33.9077 29.9513 33.8851 30.1545 33.8406 30.3484C34.5755 30.0021 35.1889 29.6194 35.4128 28.8008C35.4675 28.6019 35.6919 28.4541 35.8382 28.2826L36.1784 28.6603C36.2817 28.5691 36.3764 28.4654 36.4886 28.3896C36.8417 28.1511 37.222 27.9409 37.5944 28.3103C37.9797 28.6923 37.6881 29.0644 37.4867 29.3948C37.2676 29.7551 36.9993 30.0822 36.7523 30.4236C37.3078 30.0485 38.0662 29.8803 38.1671 29.0695C38.4131 27.089 38.6293 25.1046 38.8487 23.1206C38.9138 22.5334 38.9486 21.9425 38.9993 21.3306C34.6245 22.4408 30.3437 22.4476 26.0053 21.3132V21.3132ZM27.883 36.766C28.0937 37.3495 28.4137 37.9226 28.4975 38.5314C28.6746 39.8274 28.7195 41.1431 28.8449 42.4479C28.8632 42.6381 28.9806 42.8992 29.1272 42.9828C31.2845 44.2116 33.4628 44.4246 35.6638 43.0807C35.9922 42.8803 36.053 42.6156 36.0955 42.2435C36.3014 40.4353 35.843 38.5173 36.946 36.8146C33.8575 37.6176 30.8432 37.6426 27.883 36.766V36.766ZM35.3282 21.6378C36.3761 21.5318 37.4113 21.2739 38.4477 21.0609C38.643 21.0209 38.8165 20.865 39 20.7625C38.7581 20.5397 38.5488 20.4324 38.3302 20.4055C37.2419 20.2707 36.1498 20.167 35.0623 20.0257C34.8979 20.0043 34.6046 19.7918 34.6169 19.753C34.9342 18.7509 34.9186 17.6165 35.6388 16.772C36.5491 15.7043 37.4687 14.646 38.3814 13.5872C37.7025 12.8217 37.6933 12.8207 37.0781 13.4907C36.7302 13.8694 36.4124 14.2839 36.035 14.6269C34.6385 15.8954 33.6576 17.3979 33.4664 19.3789C33.4224 19.8334 33.1843 19.9975 32.7291 20.0046C31.2261 20.0275 29.7215 20.0708 28.222 20.1743C27.4789 20.2254 26.745 20.4253 26.0067 20.5578L26 20.8471C26.462 20.9964 26.9151 21.1926 27.3869 21.2875C30.0161 21.8158 32.67 21.9064 35.3282 21.6378V21.6378ZM34.4883 20.9458C33.8933 21.4494 33.4015 21.4494 32.9265 20.9458H34.4883Z" fill="#EB4A4B"/>
</g>
<defs>
<filter id="filter0_dd" x="0" y="0" width="65" height="65" filterUnits="userSpaceOnUse" color-interpolation-filters="sRGB">
<feFlood flood-opacity="0" result="BackgroundImageFix"/>
<feColorMatrix in="SourceAlpha" type="matrix" values="0 0 0 0 0 0 0 0 0 0 0 0 0 0 0 0 0 0 127 0" result="hardAlpha"/>
<feMorphology radius="1" operator="erode" in="SourceAlpha" result="effect1_dropShadow"/>
<feOffset dy="2"/>
<feGaussianBlur stdDeviation="2"/>
<feColorMatrix type="matrix" values="0 0 0 0 0 0 0 0 0 0 0 0 0 0 0 0 0 0 0.06 0"/>
<feBlend mode="normal" in2="BackgroundImageFix" result="effect1_dropShadow"/>
<feColorMatrix in="SourceAlpha" type="matrix" values="0 0 0 0 0 0 0 0 0 0 0 0 0 0 0 0 0 0 127 0" result="hardAlpha"/>
<feMorphology radius="1" operator="erode" in="SourceAlpha" result="effect2_dropShadow"/>
<feOffset dy="4"/>
<feGaussianBlur stdDeviation="3"/>
<feColorMatrix type="matrix" values="0 0 0 0 0 0 0 0 0 0 0 0 0 0 0 0 0 0 0.1 0"/>
<feBlend mode="normal" in2="effect1_dropShadow" result="effect2_dropShadow"/>
<feBlend mode="normal" in="SourceGraphic" in2="effect2_dropShadow" result="shape"/>
</filter>
</defs>
</svg>
