<svg width="65" height="65" viewBox="0 0 65 65" fill="none" xmlns="http://www.w3.org/2000/svg">
<mask id="mask0" mask-type="alpha" maskUnits="userSpaceOnUse" x="5" y="1" width="55" height="55">
<rect x="5" y="1" width="55" height="55" rx="6" fill="#F3F4F6"/>
</mask>
<g mask="url(#mask0)">
<g filter="url(#filter0_dd)">
<rect x="5" y="1" width="55" height="55" rx="6" fill="#F3F4F6"/>
</g>
<path d="M19.9159 19.8258C17.2448 23.6647 17.5773 28.6598 19.6178 32.7392C19.6662 32.8371 19.7171 32.9332 19.7672 33.0294L19.8626 33.2132L19.9222 33.319L20.0285 33.5094C20.092 33.6211 20.1569 33.7322 20.2232 33.8434L20.3344 34.0265C20.408 34.1454 20.4834 34.2629 20.5604 34.3801L20.6568 34.5288C20.7631 34.6874 20.8718 34.8458 20.9842 35.0013L20.9936 35.0134L21.0489 35.088C21.146 35.2219 21.246 35.3541 21.3472 35.4849L21.4596 35.6278C21.5499 35.7414 21.6417 35.8543 21.7352 35.9666L21.8406 36.0926C21.9663 36.2409 22.0943 36.3872 22.2247 36.5314L22.2327 36.5394L22.2474 36.5559C22.3756 36.6949 22.5057 36.8321 22.6379 36.9674L22.7631 37.0935C22.8655 37.1967 22.9697 37.2982 23.0748 37.3992L23.2024 37.5203C23.3429 37.6527 23.4848 37.7826 23.6296 37.9095L23.6364 37.9148L23.7107 37.9783C23.8384 38.0887 23.9682 38.1984 24.099 38.3059L24.2598 38.434C24.3666 38.5198 24.4746 38.6041 24.5833 38.6869L24.7563 38.8184C24.8764 38.9068 24.9972 38.9937 25.1193 39.0788L25.2515 39.1725L25.2879 39.1984C25.4036 39.2781 25.5221 39.3548 25.6405 39.4316L25.7931 39.5333C25.9747 39.6481 26.1588 39.7617 26.345 39.8714L26.4976 39.9574C26.6344 40.0364 26.7722 40.1139 26.9117 40.1897C26.9873 40.2304 27.0648 40.2689 27.1408 40.3079C27.2394 40.3594 27.3373 40.4117 27.4375 40.4619L27.5061 40.4951L27.6274 40.5537C27.7826 40.6278 27.9391 40.7007 28.0972 40.7709L28.1965 40.8155C28.3778 40.8948 28.5605 40.9708 28.7446 41.0434L28.8781 41.0959C29.0486 41.1616 29.2215 41.2265 29.3951 41.2875L29.46 41.31C29.6506 41.3766 29.8429 41.4384 30.0367 41.4987L30.1759 41.5403C30.3731 41.5997 30.568 41.6706 30.7712 41.7082C43.6893 44.0639 47.4417 33.9453 47.4417 33.9453C44.2901 38.0511 38.6961 39.1342 33.3958 37.9284C33.195 37.8831 33.0003 37.8203 32.8044 37.7625L32.6569 37.7177C32.466 37.6591 32.2761 37.5974 32.0873 37.5324L32.0091 37.504C31.8407 37.4445 31.6732 37.3824 31.5068 37.3178L31.3658 37.2623C31.1837 37.1904 31.0025 37.1153 30.8235 37.0369L30.7153 36.9889C30.562 36.9197 30.4095 36.8487 30.2578 36.776L30.1256 36.7126C30.0066 36.6547 29.8889 36.5932 29.7717 36.5326C29.6933 36.4912 29.6133 36.4522 29.5356 36.4091C29.3929 36.3323 29.2515 36.253 29.1115 36.1713L28.9684 36.0914C28.7825 35.9816 28.5984 35.8688 28.4162 35.753L28.2673 35.6537C28.1348 35.5688 28.0038 35.4817 27.8742 35.3924L27.7478 35.3035C27.623 35.2153 27.4991 35.1258 27.3763 35.0349L27.2118 34.9105C27.0989 34.8246 26.9872 34.7373 26.8766 34.6484L26.7272 34.5285C26.5864 34.4131 26.4472 34.2958 26.3097 34.1766L26.2639 34.1381C26.1157 34.0073 25.9694 33.8743 25.825 33.7392L25.7013 33.6203C25.5945 33.5186 25.4894 33.4162 25.386 33.3111L25.2624 33.1878C25.1312 33.0535 25.0022 32.917 24.8754 32.7785L24.8563 32.7581C24.7227 32.6117 24.5918 32.4628 24.4637 32.3115L24.361 32.1895C24.2653 32.0743 24.1711 31.9579 24.0784 31.8402L23.975 31.7114C23.8642 31.5681 23.7554 31.4233 23.6487 31.2769C20.7062 27.2629 19.6488 21.727 22.0007 17.1806L19.9159 19.8258ZM28.2077 16.5912C26.2758 19.371 26.3809 23.0924 27.8878 26.0324C28.1399 26.5266 28.4254 27.0031 28.7422 27.4586C29.0316 27.8735 29.3525 28.367 29.7366 28.7003C29.8771 28.8541 30.0216 29.0042 30.1701 29.1503L30.2844 29.2629C30.4287 29.4035 30.5763 29.5406 30.7272 29.6741L30.7451 29.6896L30.7494 29.694C30.9182 29.8409 31.0906 29.9836 31.2665 30.1219L31.384 30.2135C31.5608 30.3497 31.7412 30.4814 31.9248 30.6085L31.9405 30.6204C32.0219 30.6765 32.1047 30.7289 32.1873 30.7831L32.3043 30.8604C32.436 30.9449 32.5695 31.0272 32.7051 31.1062L32.762 31.1391C32.879 31.2064 32.9974 31.2728 33.1163 31.3372L33.2425 31.4029C33.3246 31.4457 33.4067 31.4896 33.4903 31.5312L33.5278 31.5482C33.6981 31.632 33.8698 31.7129 34.0451 31.7891L34.1594 31.8361C34.2997 31.8957 34.4413 31.9538 34.5833 32.0081L34.7649 32.0747C34.894 32.1226 35.0236 32.1662 35.1541 32.2101L35.3302 32.2665C35.5159 32.3241 35.6995 32.397 35.893 32.4292C45.867 34.0817 48.1697 26.4022 48.1697 26.4022C46.0942 29.3915 42.0744 30.818 37.785 29.7044C37.5954 29.6545 37.407 29.6001 37.22 29.5412L37.0502 29.4862C36.9177 29.4433 36.786 29.3979 36.6552 29.3501L36.4769 29.2837C36.3342 29.2289 36.1924 29.1718 36.0517 29.1122L35.9371 29.0638C35.7617 28.9875 35.5883 28.9068 35.4169 28.8219C35.329 28.779 35.2425 28.7337 35.1558 28.6891L35.0052 28.6116C34.894 28.5514 34.784 28.4893 34.6751 28.4252L34.5961 28.3804C34.4612 28.3017 34.3279 28.2203 34.1963 28.1362L34.0756 28.0558C33.9888 27.9996 33.9025 27.9426 33.8167 27.8846C33.6339 27.7575 33.4542 27.626 33.2776 27.4903L33.1563 27.3947C31.2789 25.9125 29.7904 23.8863 29.0829 21.5892C28.3414 19.207 28.5012 16.5328 29.786 14.3623L28.2077 16.5912ZM35.1815 14.1746C34.0427 15.8505 33.9308 17.9319 34.7211 19.7827C35.5544 21.7476 37.2619 23.2886 39.2548 24.0198C39.3369 24.05 39.4193 24.0772 39.5023 24.1055L39.6116 24.1401C39.729 24.177 39.8455 24.2198 39.9669 24.2428C45.4742 25.307 46.968 21.4167 47.3654 20.844C46.0571 22.7279 43.8581 23.1801 41.1599 22.5252C40.9467 22.4736 40.7126 22.3966 40.5072 22.3237C40.2433 22.23 39.9846 22.1226 39.7319 22.0019C39.2526 21.7711 38.7973 21.4933 38.3728 21.1726C35.9584 19.3405 34.4585 15.8459 36.034 13" fill="#0868AC"/>
</g>
<defs>
<filter id="filter0_dd" x="0" y="0" width="65" height="65" filterUnits="userSpaceOnUse" color-interpolation-filters="sRGB">
<feFlood flood-opacity="0" result="BackgroundImageFix"/>
<feColorMatrix in="SourceAlpha" type="matrix" values="0 0 0 0 0 0 0 0 0 0 0 0 0 0 0 0 0 0 127 0" result="hardAlpha"/>
<feMorphology radius="1" operator="erode" in="SourceAlpha" result="effect1_dropShadow"/>
<feOffset dy="2"/>
<feGaussianBlur stdDeviation="2"/>
<feColorMatrix type="matrix" values="0 0 0 0 0 0 0 0 0 0 0 0 0 0 0 0 0 0 0.06 0"/>
<feBlend mode="normal" in2="BackgroundImageFix" result="effect1_dropShadow"/>
<feColorMatrix in="SourceAlpha" type="matrix" values="0 0 0 0 0 0 0 0 0 0 0 0 0 0 0 0 0 0 127 0" result="hardAlpha"/>
<feMorphology radius="1" operator="erode" in="SourceAlpha" result="effect2_dropShadow"/>
<feOffset dy="4"/>
<feGaussianBlur stdDeviation="3"/>
<feColorMatrix type="matrix" values="0 0 0 0 0 0 0 0 0 0 0 0 0 0 0 0 0 0 0.1 0"/>
<feBlend mode="normal" in2="effect1_dropShadow" result="effect2_dropShadow"/>
<feBlend mode="normal" in="SourceGraphic" in2="effect2_dropShadow" result="shape"/>
</filter>
</defs>
</svg>
