<svg width="65" height="65" viewBox="0 0 65 65" fill="none" xmlns="http://www.w3.org/2000/svg">
<mask id="mask0" mask-type="alpha" maskUnits="userSpaceOnUse" x="5" y="1" width="55" height="55">
<rect x="5" y="1" width="55" height="55" rx="6" fill="#F3F4F6"/>
</mask>
<g mask="url(#mask0)">
<g filter="url(#filter0_dd)">
<rect x="5" y="1" width="55" height="55" rx="6" fill="#F3F4F6"/>
</g>
<path d="M47.2317 38.0877C45.3222 38.0347 43.864 38.2159 42.6173 38.7516C42.2631 38.9039 41.6978 38.9081 41.6399 39.3604C41.8346 39.5683 41.865 39.8791 42.0197 40.1349C42.3174 40.6255 42.8198 41.284 43.2683 41.6288C43.7586 42.006 44.2635 42.409 44.7888 42.7354C45.7231 43.3159 46.7662 43.6477 47.6657 44.2293C48.196 44.5724 48.7227 45.0043 49.2399 45.3911C49.4959 45.5826 49.6675 45.88 50 46V45.945C49.8253 45.7181 49.7802 45.4067 49.6199 45.1699L48.9141 44.4505C48.2241 43.5169 47.348 42.6968 46.4167 42.0159C45.6741 41.4726 44.0123 40.7387 43.7026 39.8581L43.6484 39.8028C44.1748 39.7421 44.7911 39.5482 45.2771 39.4152C46.0934 39.1923 46.8229 39.2498 47.6657 39.0281L48.8056 38.696V38.4748C48.3796 38.0293 48.0758 37.4394 47.6114 37.0362C46.3956 35.9812 45.069 34.9272 43.7029 34.048C42.945 33.5608 42.0088 33.2441 41.2056 32.8309C40.9354 32.6917 40.4608 32.6193 40.2824 32.3879C39.8604 31.8401 39.6308 31.1453 39.3056 30.5069C38.6242 29.1693 37.9551 27.7085 37.3513 26.3011C36.9395 25.3414 36.6705 24.3954 36.1569 23.5344C33.6918 19.4035 31.0387 16.9105 26.9284 14.4597C26.0537 13.9385 25.0006 13.7329 23.8877 13.4635C23.2909 13.4269 22.6936 13.3898 22.0965 13.3526C21.7317 13.1978 21.3528 12.7432 21.0109 12.5226C19.6492 11.6457 16.1564 9.73862 15.1481 12.2461C14.5112 13.8288 16.0999 15.3726 16.6678 16.1749C17.0667 16.7369 17.5773 17.3679 17.8622 18.0006C18.0497 18.4166 18.082 18.8337 18.2425 19.2736C18.6368 20.3574 18.9804 21.5366 19.4909 22.5379C19.7488 23.045 20.0332 23.5787 20.3595 24.0318C20.5593 24.31 20.9024 24.4325 20.9563 24.8619C20.6213 25.34 20.6021 26.0824 20.4138 26.6882C19.5652 29.4148 19.8854 32.8042 21.1196 34.8222C21.498 35.4422 22.3903 36.7707 23.6167 36.2609C24.6896 35.8156 24.45 34.4351 24.7569 33.2174C24.8262 32.9415 24.7836 32.7385 24.9196 32.5536V32.6089L25.8971 34.6008C26.6204 35.7881 27.9036 37.0288 28.9915 37.8659C29.5554 38.3001 29.9995 39.0505 30.7287 39.3046V39.249H30.6745C30.5331 39.0247 30.3119 38.9317 30.1316 38.7513C29.7068 38.3268 29.2344 37.799 28.8832 37.3127C27.8939 35.9438 27.0197 34.4456 26.2231 32.8862C25.8425 32.1412 25.5117 31.32 25.1912 30.5619C25.0677 30.2699 25.0693 29.8277 24.8117 29.6766C24.4603 30.2319 23.9431 30.681 23.6715 31.3367C23.2372 32.3848 23.1813 33.6632 23.0202 34.9887C22.9251 35.0233 22.9673 34.9995 22.9114 35.0437C22.1552 34.858 21.8898 34.0648 21.6085 33.3839C20.8979 31.6625 20.7657 28.8913 21.3912 26.9099C21.5531 26.3969 22.2843 24.7828 21.9883 24.3089C21.8469 23.8365 21.3806 23.5631 21.1199 23.2021C20.7969 22.7557 20.4747 22.1681 20.2507 21.6526C19.6693 20.3109 19.3977 18.8042 18.7853 17.4476C18.4924 16.799 17.9974 16.1425 17.5909 15.5663C17.141 14.9274 16.6369 14.4569 16.288 13.6847C16.1639 13.4102 15.9956 12.9706 16.1792 12.6885C16.2376 12.4982 16.3205 12.4188 16.505 12.3567C16.82 12.1091 17.6969 12.4389 18.0247 12.5776C18.8952 12.9462 19.622 13.2973 20.3595 13.7953C20.7132 14.0346 21.0715 14.4972 21.4994 14.6253H21.988C22.7523 14.8043 23.6084 14.6806 24.3226 14.9018C25.5846 15.2926 26.7156 15.9009 27.7425 16.5619C30.8714 18.576 33.43 21.4424 35.18 24.8622C35.4616 25.4129 35.5835 25.9381 35.8314 26.5223C36.3316 27.7 36.9618 28.9118 37.4595 30.0637C37.9565 31.2128 38.4406 32.3723 39.1428 33.3286C39.512 33.8311 40.9376 34.1008 41.5859 34.3801C42.04 34.5755 42.7842 34.7797 43.2146 35.0437C44.0362 35.5491 44.8325 36.1505 45.6035 36.7041C45.9883 36.9806 47.1727 37.5878 47.2317 38.0877V38.0877ZM22.9651 17.0058C22.567 16.9981 22.2854 17.05 21.9877 17.1161V17.1714H22.042C22.232 17.569 22.5673 17.8253 22.8018 18.1676C22.9826 18.5553 23.1638 18.9424 23.3449 19.3294L23.3989 19.2747C23.7352 19.0328 23.8891 18.6469 23.8872 18.057C23.7525 17.9127 23.7327 17.7317 23.6159 17.5593C23.4612 17.3293 23.161 17.1986 22.9651 17.0058Z" fill="#00618A"/>
</g>
<defs>
<filter id="filter0_dd" x="0" y="0" width="65" height="65" filterUnits="userSpaceOnUse" color-interpolation-filters="sRGB">
<feFlood flood-opacity="0" result="BackgroundImageFix"/>
<feColorMatrix in="SourceAlpha" type="matrix" values="0 0 0 0 0 0 0 0 0 0 0 0 0 0 0 0 0 0 127 0" result="hardAlpha"/>
<feMorphology radius="1" operator="erode" in="SourceAlpha" result="effect1_dropShadow"/>
<feOffset dy="2"/>
<feGaussianBlur stdDeviation="2"/>
<feColorMatrix type="matrix" values="0 0 0 0 0 0 0 0 0 0 0 0 0 0 0 0 0 0 0.06 0"/>
<feBlend mode="normal" in2="BackgroundImageFix" result="effect1_dropShadow"/>
<feColorMatrix in="SourceAlpha" type="matrix" values="0 0 0 0 0 0 0 0 0 0 0 0 0 0 0 0 0 0 127 0" result="hardAlpha"/>
<feMorphology radius="1" operator="erode" in="SourceAlpha" result="effect2_dropShadow"/>
<feOffset dy="4"/>
<feGaussianBlur stdDeviation="3"/>
<feColorMatrix type="matrix" values="0 0 0 0 0 0 0 0 0 0 0 0 0 0 0 0 0 0 0.1 0"/>
<feBlend mode="normal" in2="effect1_dropShadow" result="effect2_dropShadow"/>
<feBlend mode="normal" in="SourceGraphic" in2="effect2_dropShadow" result="shape"/>
</filter>
</defs>
</svg>
