<svg width="65" height="65" viewBox="0 0 65 65" fill="none" xmlns="http://www.w3.org/2000/svg">
<mask id="mask0" mask-type="alpha" maskUnits="userSpaceOnUse" x="5" y="1" width="55" height="55">
<rect x="5" y="1" width="55" height="55" rx="6" fill="#F3F4F6"/>
</mask>
<g mask="url(#mask0)">
<g filter="url(#filter0_dd)">
<rect x="5" y="1" width="55" height="55" rx="6" fill="#F3F4F6"/>
</g>
<path d="M40.5887 22.135C40.584 22.1326 40.5795 22.1309 40.5751 22.1292C40.5668 22.126 40.5591 22.1231 40.5519 22.1162C40.5286 22.0942 40.5194 22.0547 40.5245 22.0231L41.2968 17.2966L44.9225 20.9225L41.1524 22.5266C41.142 22.5311 41.1307 22.5334 41.1194 22.5334C41.112 22.5334 41.1078 22.5334 41.1041 22.5321C41.099 22.5303 41.0948 22.5261 41.0849 22.5164C40.9517 22.3682 40.7863 22.236 40.5887 22.135ZM45.8469 21.8469L49.7232 25.7231C50.5285 26.5285 50.9312 26.9312 51.0785 27.3969C51.1003 27.4657 51.1182 27.5353 51.1323 27.6056L41.8691 23.6833C41.8644 23.6813 41.8595 23.6793 41.8545 23.6773C41.817 23.6621 41.7741 23.6448 41.7741 23.6065C41.7741 23.5689 41.8183 23.5508 41.8551 23.5356C41.8591 23.534 41.863 23.5324 41.8667 23.5309L45.8469 21.8469ZM50.9739 28.85C50.774 29.226 50.3842 29.6158 49.7232 30.2769L45.3543 34.6457L39.7021 33.4686C39.6927 33.4666 39.6825 33.465 39.6722 33.4633C39.6228 33.4552 39.5687 33.4463 39.5687 33.4005C39.517 32.9235 39.293 32.4977 38.9139 32.2082C38.8908 32.1853 38.8973 32.1491 38.9033 32.1158C38.9041 32.1111 38.9049 32.1065 38.9057 32.102L39.9694 25.576C39.9705 25.5691 39.9715 25.5618 39.9726 25.5544C39.9795 25.5046 39.9877 25.4461 40.0339 25.4461C40.5093 25.379 40.9177 25.1465 41.1933 24.7812C41.2016 24.7703 41.2081 24.76 41.2204 24.7541C41.2519 24.7392 41.291 24.7548 41.3231 24.7683L50.9739 28.85ZM44.3488 35.6512L37.1628 42.8372L38.3938 35.2767C38.3943 35.2732 38.3948 35.2697 38.3952 35.2662C38.3965 35.2567 38.3977 35.2473 38.4012 35.2382C38.4108 35.2139 38.4372 35.2035 38.4622 35.1936C38.4662 35.192 38.4701 35.1905 38.4739 35.1889C38.747 35.0753 38.9787 34.895 39.1691 34.6721C39.1933 34.6438 39.2223 34.6174 39.2591 34.6111C39.2673 34.6097 39.2798 34.6106 39.288 34.6123L44.3488 35.6512ZM35.6421 44.358L34.8318 45.1683L25.8774 32.226C25.8741 32.2213 25.8706 32.2166 25.867 32.2119C25.8529 32.1934 25.8385 32.1743 25.8406 32.1519C25.842 32.1357 25.8523 32.1226 25.8626 32.1096C25.8659 32.1054 25.8693 32.1011 25.8723 32.0968C25.8997 32.0576 25.923 32.0176 25.9485 31.9737C25.9551 31.9624 25.9618 31.9508 25.9688 31.9389L25.9708 31.9356C25.9847 31.9119 25.9979 31.8894 26.0222 31.8764C26.0433 31.8652 26.0718 31.8699 26.0952 31.8748L36.0164 33.9208C36.0411 33.9259 36.0745 33.9363 36.0925 33.954C36.1053 33.9668 36.108 33.9807 36.111 33.9965C36.1121 34.0028 36.1134 34.0094 36.1153 34.0162C36.2609 34.5288 36.6343 34.9722 37.1392 35.1719C37.1672 35.1857 37.1548 35.2173 37.1418 35.2504C37.1358 35.2656 37.1297 35.2811 37.1273 35.2953C37.0025 36.0557 35.9299 42.5931 35.6421 44.358ZM33.95 46.0491C33.3532 46.6401 33.0012 46.9526 32.6031 47.0785C32.2107 47.2026 31.7894 47.2026 31.397 47.0785C30.9312 46.9312 30.5285 46.5285 29.7232 45.7231L20.7304 36.7304L23.0789 33.0869C23.0905 33.0689 23.101 33.0526 23.1185 33.0402C23.144 33.0221 23.1804 33.0308 23.2102 33.0401C23.4519 33.1147 23.68 33.145 23.9234 33.145C24.2375 33.145 24.5357 33.0823 24.8484 32.9569C24.8748 32.9463 24.9022 32.94 24.9234 32.9588C24.9335 32.9678 24.9439 32.9802 24.9515 32.9913L33.95 46.0491ZM19.8633 35.8632L17.7996 33.7995L21.8744 32.0616C21.8849 32.0571 21.8961 32.0548 21.9075 32.0548C21.9412 32.0548 21.961 32.0886 21.9795 32.1201C21.984 32.1279 21.9885 32.1355 21.993 32.1424C22.0319 32.2015 22.0708 32.253 22.1097 32.3043C22.1127 32.3083 22.1196 32.316 22.1225 32.3201C22.134 32.3371 22.1256 32.3536 22.1145 32.3708L19.8633 35.8632ZM16.8872 32.8871L14.2769 30.2769C13.8329 29.8329 13.5114 29.5113 13.2875 29.2341L21.2226 30.8796C21.232 30.8815 21.2421 30.8832 21.2524 30.8849C21.3019 30.8929 21.356 30.9018 21.356 30.9476C21.356 30.9973 21.2973 31.0206 21.2471 31.0404C21.2391 31.0436 21.2313 31.0467 21.224 31.0498L16.8872 32.8871ZM12.8314 27.8919C12.8404 27.7247 12.8705 27.5584 12.9215 27.3969C13.0688 26.9312 13.4715 26.5285 14.2769 25.7231L17.6179 22.3821C18.1684 23.1901 21.8049 28.4433 22.2293 29.0513C22.2335 29.0572 22.238 29.0633 22.2426 29.0695C22.2697 29.1061 22.2996 29.1464 22.2693 29.1763C22.123 29.337 21.9766 29.5129 21.8737 29.7041C21.8616 29.7266 21.846 29.7522 21.8242 29.7657C21.8109 29.7739 21.7974 29.771 21.7823 29.7678L21.78 29.7674L12.8314 27.8919ZM18.5107 21.4893L23.002 16.998C23.4241 17.1826 24.9605 17.8319 26.3338 18.4123C27.3747 18.8522 28.3223 19.2527 28.6196 19.3811C28.6495 19.394 28.6768 19.4058 28.69 19.4356C28.6979 19.4535 28.694 19.4771 28.69 19.4963C28.6597 19.64 28.6446 19.7837 28.6446 19.9274C28.6446 20.4554 28.8514 20.9494 29.2132 21.3241C29.243 21.3535 29.2129 21.3966 29.1866 21.4344C29.1817 21.4415 29.1769 21.4484 29.1727 21.455L24.6134 28.5182C24.601 28.5374 24.5897 28.555 24.5705 28.5675C24.5463 28.5833 24.5124 28.5762 24.4844 28.5691C24.3067 28.5241 24.1163 28.4949 23.9407 28.4949C23.7775 28.4949 23.5989 28.5255 23.4194 28.5576L23.4178 28.5579C23.3984 28.5614 23.3804 28.5647 23.3643 28.553C23.3467 28.5403 23.3314 28.5199 23.3191 28.502L18.5107 21.4893ZM23.9088 16.0912L29.7232 10.2768C30.5285 9.47145 30.9312 9.06875 31.397 8.92146C31.7894 8.79734 32.2107 8.79734 32.6031 8.92146C33.0689 9.06875 33.4716 9.47144 34.2769 10.2768L35.5369 11.5368L31.4019 17.9413C31.39 17.9597 31.3791 17.9765 31.361 17.989C31.336 18.0062 31.3006 17.9981 31.2714 17.9898C31.0621 17.9303 30.8527 17.9005 30.6433 17.9005C30.1781 17.9005 29.7129 18.0708 29.3511 18.3604C29.3243 18.3869 29.2842 18.3705 29.2497 18.3555C28.7097 18.1211 24.5097 16.3452 23.9088 16.0912ZM36.4146 12.4145L40.2335 16.2334L39.314 21.9306C39.3133 21.9352 39.3127 21.9405 39.3122 21.946C39.3108 21.9591 39.3092 21.9735 39.3046 21.9838C39.2956 22.0038 39.2759 22.0083 39.2549 22.0131C39.2478 22.0147 39.2405 22.0164 39.2334 22.0187C39.04 22.0819 38.8606 22.1709 38.7065 22.2859C38.6993 22.2913 38.6933 22.2976 38.6875 22.3037C38.6759 22.316 38.665 22.3274 38.6471 22.3285C38.6353 22.3292 38.6154 22.3266 38.6045 22.3219L32.7863 19.8498C32.7825 19.8482 32.7786 19.8466 32.7746 19.8449C32.7378 19.8298 32.6937 19.8116 32.6937 19.774C32.6623 19.463 32.559 19.1521 32.3971 18.88C32.393 18.8732 32.3888 18.8663 32.3844 18.8593C32.3559 18.8134 32.3255 18.7646 32.3491 18.718L36.4146 12.4145ZM32.4833 21.0209L37.9368 23.3313C37.968 23.3445 37.9999 23.358 38.0126 23.3894C38.0193 23.4062 38.0161 23.4281 38.0127 23.4457C37.9974 23.5252 37.9835 23.617 37.9835 23.7087V23.862C37.9835 23.8995 37.9443 23.9158 37.9085 23.9305C37.9045 23.9322 37.9005 23.9338 37.8967 23.9354C37.033 24.3038 25.7665 29.1081 25.7499 29.1081C25.7327 29.1081 25.7155 29.1081 25.6982 29.0911C25.6685 29.0617 25.6985 29.0186 25.7248 28.9807C25.7297 28.9737 25.7345 28.9668 25.7388 28.9602L30.2212 22.0211C30.2238 22.0171 30.2264 22.013 30.229 22.0089C30.2555 21.967 30.2852 21.9203 30.3332 21.9203C30.3485 21.9224 30.3636 21.9246 30.3784 21.9267C30.4801 21.9414 30.5703 21.9544 30.6606 21.9544C31.3407 21.9544 31.9705 21.6226 32.3513 21.0573C32.3614 21.0423 32.3705 21.0289 32.3848 21.0177C32.412 20.9966 32.4516 21.0074 32.4833 21.0209ZM26.2374 30.2055L38.5176 24.9691C38.5176 24.9691 38.5349 24.9692 38.5521 24.9862C38.6194 25.0526 38.6761 25.0984 38.7306 25.1396C38.7387 25.1457 38.7482 25.1512 38.7578 25.1568C38.783 25.1714 38.8086 25.1863 38.8103 25.213C38.8108 25.2222 38.8098 25.2292 38.8083 25.2383L37.7557 31.6999C37.7543 31.7081 37.7532 31.7168 37.752 31.7256C37.7453 31.7764 37.7378 31.8333 37.6906 31.8333C37.1198 31.8665 36.6145 32.1907 36.318 32.6799C36.3164 32.6826 36.3148 32.6852 36.3132 32.6878C36.2995 32.7109 36.2863 32.733 36.2622 32.7451C36.2419 32.7552 36.2148 32.7508 36.1927 32.7462L26.4002 30.726C26.3909 30.7241 26.2477 30.2071 26.2374 30.2055Z" fill="#63C5C7"/>
</g>
<defs>
<filter id="filter0_dd" x="0" y="0" width="65" height="65" filterUnits="userSpaceOnUse" color-interpolation-filters="sRGB">
<feFlood flood-opacity="0" result="BackgroundImageFix"/>
<feColorMatrix in="SourceAlpha" type="matrix" values="0 0 0 0 0 0 0 0 0 0 0 0 0 0 0 0 0 0 127 0" result="hardAlpha"/>
<feMorphology radius="1" operator="erode" in="SourceAlpha" result="effect1_dropShadow"/>
<feOffset dy="2"/>
<feGaussianBlur stdDeviation="2"/>
<feColorMatrix type="matrix" values="0 0 0 0 0 0 0 0 0 0 0 0 0 0 0 0 0 0 0.06 0"/>
<feBlend mode="normal" in2="BackgroundImageFix" result="effect1_dropShadow"/>
<feColorMatrix in="SourceAlpha" type="matrix" values="0 0 0 0 0 0 0 0 0 0 0 0 0 0 0 0 0 0 127 0" result="hardAlpha"/>
<feMorphology radius="1" operator="erode" in="SourceAlpha" result="effect2_dropShadow"/>
<feOffset dy="4"/>
<feGaussianBlur stdDeviation="3"/>
<feColorMatrix type="matrix" values="0 0 0 0 0 0 0 0 0 0 0 0 0 0 0 0 0 0 0.1 0"/>
<feBlend mode="normal" in2="effect1_dropShadow" result="effect2_dropShadow"/>
<feBlend mode="normal" in="SourceGraphic" in2="effect2_dropShadow" result="shape"/>
</filter>
</defs>
</svg>
