<svg width="65" height="65" viewBox="0 0 65 65" fill="none" xmlns="http://www.w3.org/2000/svg">
<mask id="mask0" mask-type="alpha" maskUnits="userSpaceOnUse" x="5" y="1" width="55" height="55">
<rect x="5" y="1" width="55" height="55" rx="6" fill="#F3F4F6"/>
</mask>
<g mask="url(#mask0)">
<g filter="url(#filter0_dd)">
<rect x="5" y="1" width="55" height="55" rx="6" fill="#F3F4F6"/>
</g>
<path d="M19.8692 24C19.367 24 19.0321 24.4075 19.0321 24.917V29.7057L13.7078 24.2717C13.4399 24 12.9711 23.9321 12.6362 24.0679C12.3014 24.2038 12 24.5434 12 24.917V31.9472C12 32.4566 12.5023 32.8642 13.0046 32.8642C13.5069 32.8642 14.0092 32.4566 14.0092 31.9472V27.1585L19.4004 32.5925C19.5679 32.7623 19.8023 32.8642 20.0367 32.8642C20.1371 32.8642 20.1706 32.8302 20.2711 32.7962C20.6059 32.6604 20.7064 32.3208 20.7064 31.9472V24.9509C20.7064 24.4415 20.3715 24 19.8692 24ZM26.466 28.0075C25.9972 28.0075 25.5619 28.483 25.5619 28.9585C25.5619 29.434 25.9972 29.9094 26.466 29.9094L28.6761 30.0453L28.1738 31.3019H25.3275L23.9211 28.6189L25.361 25.8679H28.4082L29.1114 27.2264H30.9532L29.7477 24.5434L29.4798 24.1698H24.2559L24.0215 24.5774L22.0458 28.0755L21.8114 28.517L22.0458 28.9585L23.988 32.4566L24.2559 33H29.3123L29.5467 32.4226L30.9866 29.366L31.6229 27.9057H30.1495L26.466 28.0075V28.0075ZM33.4311 24C32.9623 24 32.4266 24.4415 32.4266 24.917V27.2264H34.4357V24.9509C34.4357 24.4415 33.8999 24 33.4311 24ZM43.6109 24.1019C43.2761 23.966 42.8073 24.034 42.5729 24.3057L37.1146 29.7396V24.9509C37.1146 24.4415 36.7798 24.034 36.2775 24.034C35.7752 24.034 35.4403 24.4415 35.4403 24.9509V31.9811C35.4403 32.3547 35.6747 32.6943 36.0096 32.8302C36.11 32.8642 36.244 32.8981 36.3444 32.8981C36.5788 32.8981 36.8802 32.7962 37.0476 32.6264L42.4724 27.1925V31.9811C42.4724 32.4906 42.8073 32.8981 43.3095 32.8981C43.8118 32.8981 44.1467 32.4906 44.1467 31.9811V24.9509C44.1467 24.5774 43.9458 24.2377 43.6109 24.1019ZM50.9109 28.4491L53.7237 25.5962C54.0921 25.2226 54.0921 24.6453 53.7237 24.3057C53.3554 23.9321 52.7861 23.9321 52.4513 24.3057L49.6384 27.1585L46.8256 24.3057C46.4572 23.9321 45.888 23.9321 45.5531 24.3057C45.1848 24.6792 45.1848 25.2566 45.5531 25.5962L48.366 28.4491L45.5531 31.3019C45.1848 31.6755 45.1848 32.2528 45.5531 32.5925C45.7206 32.7623 45.955 32.8642 46.1894 32.8642C46.4238 32.8642 46.6582 32.7623 46.8256 32.5925L49.6384 29.7396L52.4513 32.5925C52.6187 32.7623 52.8531 32.8642 53.0875 32.8642C53.3219 32.8642 53.5563 32.7623 53.7237 32.5925C54.0921 32.2189 54.0921 31.6415 53.7237 31.3019L50.9109 28.4491V28.4491ZM32.4266 31.9472C32.4266 32.4226 32.9288 32.8642 33.4311 32.8642C33.8999 32.8642 34.4357 32.4226 34.4357 31.9472V27.9057H32.4266V31.9472Z" fill="#009900"/>
</g>
<defs>
<filter id="filter0_dd" x="0" y="0" width="65" height="65" filterUnits="userSpaceOnUse" color-interpolation-filters="sRGB">
<feFlood flood-opacity="0" result="BackgroundImageFix"/>
<feColorMatrix in="SourceAlpha" type="matrix" values="0 0 0 0 0 0 0 0 0 0 0 0 0 0 0 0 0 0 127 0" result="hardAlpha"/>
<feMorphology radius="1" operator="erode" in="SourceAlpha" result="effect1_dropShadow"/>
<feOffset dy="2"/>
<feGaussianBlur stdDeviation="2"/>
<feColorMatrix type="matrix" values="0 0 0 0 0 0 0 0 0 0 0 0 0 0 0 0 0 0 0.06 0"/>
<feBlend mode="normal" in2="BackgroundImageFix" result="effect1_dropShadow"/>
<feColorMatrix in="SourceAlpha" type="matrix" values="0 0 0 0 0 0 0 0 0 0 0 0 0 0 0 0 0 0 127 0" result="hardAlpha"/>
<feMorphology radius="1" operator="erode" in="SourceAlpha" result="effect2_dropShadow"/>
<feOffset dy="4"/>
<feGaussianBlur stdDeviation="3"/>
<feColorMatrix type="matrix" values="0 0 0 0 0 0 0 0 0 0 0 0 0 0 0 0 0 0 0.1 0"/>
<feBlend mode="normal" in2="effect1_dropShadow" result="effect2_dropShadow"/>
<feBlend mode="normal" in="SourceGraphic" in2="effect2_dropShadow" result="shape"/>
</filter>
</defs>
</svg>
