<svg width="65" height="65" viewBox="0 0 65 65" fill="none" xmlns="http://www.w3.org/2000/svg">
<mask id="mask0" mask-type="alpha" maskUnits="userSpaceOnUse" x="5" y="1" width="55" height="55">
<rect x="5" y="1" width="55" height="55" rx="6" fill="#F3F4F6"/>
</mask>
<g mask="url(#mask0)">
<g filter="url(#filter0_dd)">
<rect x="5" y="1" width="55" height="55" rx="6" fill="#F3F4F6"/>
</g>
<path d="M45.8358 19.2945L33.778 12.2931C33.0176 11.86 32.0275 11.86 31.2611 12.2931L19.0745 19.2945C18.2897 19.7459 17.7344 20.5944 17.7344 21.5019V35.4861C17.7344 36.3936 18.3042 37.2424 19.089 37.6963L22.3087 39.525C23.8476 40.283 24.3915 40.283 25.0918 40.283C27.3703 40.283 28.6719 38.9051 28.6719 36.5019V22.696C28.6719 22.5011 28.5704 22.211 28.379 22.211H26.8415C26.6468 22.211 26.2109 22.5011 26.2109 22.6958V36.5016C26.2109 37.5669 25.2473 38.627 23.4465 37.7266L20.1196 35.809C20.0036 35.7461 19.9219 35.6195 19.9219 35.4861V21.5019C19.9219 21.3701 20.0736 21.2378 20.1904 21.1703L32.3376 14.1809C32.4511 14.1167 32.6179 14.1167 32.7311 14.1809L44.73 21.1686C44.8449 21.2378 44.8044 21.366 44.8044 21.5019V35.4861C44.8044 35.6195 44.8545 35.7494 44.741 35.8137L32.6862 42.8071C32.5829 42.8692 32.4546 42.8692 32.3414 42.8071L29.2496 40.9617C29.1564 40.9075 29.0457 40.8881 28.9563 40.9381C28.096 41.4257 27.9374 41.4905 27.1305 41.7702C26.932 41.8394 26.6391 41.9594 27.2426 42.2977L31.2889 44.6913C31.6753 44.9145 32.1135 45.032 32.5596 45.032C33.0086 45.032 33.4483 44.9156 33.8357 44.6913L45.8355 37.6963C46.6203 37.2391 46.9922 36.3936 46.9922 35.4861V21.5019C46.9922 20.5944 46.6203 19.7481 45.8358 19.2945V19.2945ZM36.3035 33.2701C33.0972 33.2701 32.3909 32.3856 32.1555 30.7911C32.1281 30.6194 31.9824 30.4141 31.8077 30.4141H30.2406C30.0467 30.4141 29.8909 30.6492 29.8909 30.8423C29.8909 32.8838 31.0007 35.3573 36.3038 35.3573C40.1426 35.3573 42.3435 33.8657 42.3435 31.2259C42.3435 28.6086 40.5752 27.9217 36.8523 27.429C33.0893 26.9316 32.707 26.6803 32.707 25.7987C32.707 25.0719 33.0307 24.1026 35.8171 24.1026C38.3067 24.1026 39.2244 24.6369 39.602 26.315C39.6343 26.4728 39.7784 26.586 39.9411 26.586H41.5144C41.6112 26.586 41.7036 26.5469 41.7714 26.4777C41.8371 26.4033 41.8718 26.3101 41.863 26.21C41.6194 23.3203 39.6996 21.9736 35.8168 21.9736C32.363 21.9736 30.3027 23.4321 30.3027 25.8769C30.3027 28.5287 32.3526 29.2615 35.668 29.5894C39.6343 29.9782 39.9427 30.5579 39.9427 31.338C39.9427 32.6929 38.855 33.2701 36.3035 33.2701Z" fill="#83CD29"/>
</g>
<defs>
<filter id="filter0_dd" x="0" y="0" width="65" height="65" filterUnits="userSpaceOnUse" color-interpolation-filters="sRGB">
<feFlood flood-opacity="0" result="BackgroundImageFix"/>
<feColorMatrix in="SourceAlpha" type="matrix" values="0 0 0 0 0 0 0 0 0 0 0 0 0 0 0 0 0 0 127 0" result="hardAlpha"/>
<feMorphology radius="1" operator="erode" in="SourceAlpha" result="effect1_dropShadow"/>
<feOffset dy="2"/>
<feGaussianBlur stdDeviation="2"/>
<feColorMatrix type="matrix" values="0 0 0 0 0 0 0 0 0 0 0 0 0 0 0 0 0 0 0.06 0"/>
<feBlend mode="normal" in2="BackgroundImageFix" result="effect1_dropShadow"/>
<feColorMatrix in="SourceAlpha" type="matrix" values="0 0 0 0 0 0 0 0 0 0 0 0 0 0 0 0 0 0 127 0" result="hardAlpha"/>
<feMorphology radius="1" operator="erode" in="SourceAlpha" result="effect2_dropShadow"/>
<feOffset dy="4"/>
<feGaussianBlur stdDeviation="3"/>
<feColorMatrix type="matrix" values="0 0 0 0 0 0 0 0 0 0 0 0 0 0 0 0 0 0 0.1 0"/>
<feBlend mode="normal" in2="effect1_dropShadow" result="effect2_dropShadow"/>
<feBlend mode="normal" in="SourceGraphic" in2="effect2_dropShadow" result="shape"/>
</filter>
</defs>
</svg>
