<svg width="65" height="65" viewBox="0 0 65 65" fill="none" xmlns="http://www.w3.org/2000/svg">
<mask id="mask0" mask-type="alpha" maskUnits="userSpaceOnUse" x="5" y="1" width="55" height="55">
<rect x="5" y="1" width="55" height="55" rx="6" fill="#F3F4F6"/>
</mask>
<g mask="url(#mask0)">
<g filter="url(#filter0_dd)">
<rect x="5" y="1" width="55" height="55" rx="6" fill="#F3F4F6"/>
</g>
<path d="M32.5 18C21.1786 18 12 22.7011 12 28.5C12 34.2989 21.1786 39 32.5 39C43.8214 39 53 34.2989 53 28.5C53 22.7011 43.8214 18 32.5 18ZM27.1658 30.5457C26.6766 31.0083 26.1333 31.1992 25.535 31.3959C24.9367 31.5929 24.1754 31.5522 23.2496 31.5522H21.1514L20.5699 34.9436H18.1201L20.3062 23.413H25.0173C26.4346 23.413 27.4685 23.825 28.1184 24.5769C28.7684 25.3287 28.9637 26.396 28.7046 27.7434C28.5976 28.2986 28.4174 28.8147 28.163 29.2746C27.8995 29.7491 27.5628 30.1781 27.1658 30.5457V30.5457ZM34.3167 31.5522L35.2834 26.6619C35.3934 26.0894 35.3532 25.6641 35.1622 25.4563C34.971 25.248 34.5643 25.1086 33.9425 25.1086H31.9997L30.7478 31.5522H28.3171L30.5032 20.3607H32.9339L32.3527 23.413H34.518C35.8807 23.413 36.8202 23.6894 37.3373 24.1696C37.8543 24.6498 38.0094 25.3077 37.8027 26.3834L36.7856 31.5522H34.3167ZM47.8255 27.7614C47.7188 28.3165 47.5383 28.8239 47.2843 29.2834C47.0299 29.7436 46.6977 30.1645 46.2874 30.5457C45.7981 31.0083 45.2545 31.1992 44.6566 31.3959C44.0586 31.5929 43.2966 31.5522 42.3708 31.5522H40.2726L39.6915 34.9436H37.2416L39.4274 23.413H44.1388C45.5562 23.413 46.59 23.825 47.2396 24.5769C47.8889 25.3287 48.0845 26.4143 47.8255 27.7614V27.7614ZM43.2104 25.1086H41.5323L40.6173 29.8565H42.1078C43.0949 29.8565 43.8311 29.7582 44.3143 29.3818C44.7982 29.006 45.124 28.4227 45.2935 27.5433C45.4559 26.6985 45.382 26.0396 45.072 25.6923C44.7616 25.345 44.1412 25.1086 43.2104 25.1086V25.1086ZM24.0891 25.1086H22.4107L21.4957 29.8565H22.9859C23.9734 29.8565 24.7092 29.7582 25.1928 29.3818C25.6763 29.006 26.0024 28.4227 26.1716 27.5433C26.334 26.6985 26.2601 26.0396 25.9501 25.6923C25.64 25.345 25.02 25.1086 24.0891 25.1086Z" fill="#6181B6"/>
</g>
<defs>
<filter id="filter0_dd" x="0" y="0" width="65" height="65" filterUnits="userSpaceOnUse" color-interpolation-filters="sRGB">
<feFlood flood-opacity="0" result="BackgroundImageFix"/>
<feColorMatrix in="SourceAlpha" type="matrix" values="0 0 0 0 0 0 0 0 0 0 0 0 0 0 0 0 0 0 127 0" result="hardAlpha"/>
<feMorphology radius="1" operator="erode" in="SourceAlpha" result="effect1_dropShadow"/>
<feOffset dy="2"/>
<feGaussianBlur stdDeviation="2"/>
<feColorMatrix type="matrix" values="0 0 0 0 0 0 0 0 0 0 0 0 0 0 0 0 0 0 0.06 0"/>
<feBlend mode="normal" in2="BackgroundImageFix" result="effect1_dropShadow"/>
<feColorMatrix in="SourceAlpha" type="matrix" values="0 0 0 0 0 0 0 0 0 0 0 0 0 0 0 0 0 0 127 0" result="hardAlpha"/>
<feMorphology radius="1" operator="erode" in="SourceAlpha" result="effect2_dropShadow"/>
<feOffset dy="4"/>
<feGaussianBlur stdDeviation="3"/>
<feColorMatrix type="matrix" values="0 0 0 0 0 0 0 0 0 0 0 0 0 0 0 0 0 0 0.1 0"/>
<feBlend mode="normal" in2="effect1_dropShadow" result="effect2_dropShadow"/>
<feBlend mode="normal" in="SourceGraphic" in2="effect2_dropShadow" result="shape"/>
</filter>
</defs>
</svg>
