<svg width="65" height="65" viewBox="0 0 65 65" fill="none" xmlns="http://www.w3.org/2000/svg">
<mask id="mask0" mask-type="alpha" maskUnits="userSpaceOnUse" x="5" y="1" width="55" height="55">
<rect x="5" y="1" width="55" height="55" rx="6" fill="#F3F4F6"/>
</mask>
<g mask="url(#mask0)">
<g filter="url(#filter0_dd)">
<rect x="5" y="1" width="55" height="55" rx="6" fill="#F3F4F6"/>
</g>
<path fill-rule="evenodd" clip-rule="evenodd" d="M47.9798 31.7684C47.8657 31.0261 47.2444 30.54 46.5216 30.5072C46.26 30.4953 45.9943 30.5227 45.7334 30.5561C45.4183 30.5962 45.107 30.6675 44.7927 30.7145C44.5754 30.7471 44.3551 30.7621 44.1381 30.7845L44.1328 30.7562C44.5379 29.9886 44.96 29.2293 45.3433 28.4506C45.6371 27.8534 45.8886 27.2345 46.1484 26.6207C46.5784 25.6037 46.9219 24.5552 47.2063 23.4897C47.4789 22.4694 47.7121 21.4379 47.7854 20.3795C47.8148 19.9567 47.8351 19.5322 47.8328 19.1089C47.8307 18.7714 47.7945 18.4333 47.7608 18.0968C47.7227 17.7112 47.6066 17.3456 47.4459 16.9939C47.234 16.5304 46.9054 16.1501 46.5596 15.7889C46.2828 15.4997 45.9783 15.2362 45.6764 14.9729C45.2459 14.5972 44.762 14.2973 44.2593 14.031C43.6898 13.7273 43.0865 13.4925 42.4619 13.3314C42.0834 13.2345 41.6963 13.1625 41.313 13.0857C41.175 13.0577 41.0369 13 40.899 13H38.3028C38.209 13 38.1159 13.0486 38.0214 13.0593C37.3997 13.1287 36.7855 13.2462 36.189 13.4317C35.9659 13.5011 35.7621 13.4574 35.5501 13.4378C35.3876 13.4228 35.2279 13.379 35.0654 13.3709C34.4463 13.3398 33.8265 13.2943 33.2077 13.3009C32.6147 13.307 32.0278 13.405 31.4539 13.5685C30.9735 13.7054 30.5035 13.8725 30.073 14.1258C29.8887 14.2342 29.7427 14.2138 29.552 14.1587C28.9114 13.9732 28.2662 13.799 27.6155 13.6527C27.2098 13.5616 26.7928 13.5164 26.3786 13.4729C25.9811 13.4314 25.582 13.4065 25.1825 13.3981C24.7926 13.3897 24.3999 13.3899 24.0118 13.4245C23.3936 13.4785 22.7842 13.6077 22.1971 13.8094C21.547 14.0322 20.9394 14.3646 20.4008 14.7925C19.8514 15.2288 19.4108 15.7614 19.0564 16.3696C18.683 17.0114 18.4269 17.6985 18.2677 18.4201C18.1815 18.8111 18.127 19.213 18.0679 19.61C18.0494 19.7337 18.2535 19.8573 18 19.9804V21.7086C18.2535 21.8236 18.0527 21.9383 18.0674 22.0535C18.1027 22.3305 18.1339 22.6098 18.1805 22.8848C18.2543 23.32 18.3417 23.754 18.431 24.1864C18.5549 24.7908 18.6855 25.3938 18.8229 25.9952C18.9233 26.4327 19.0376 26.8677 19.1573 27.3004C19.3401 27.9612 19.5201 28.6234 19.7267 29.2768C19.9186 29.884 20.1384 30.4825 20.3564 31.0811C20.6583 31.909 21.0198 32.7103 21.4533 33.4782C21.8283 34.1432 22.2567 34.7659 22.8314 35.2782C23.2102 35.6157 23.6318 35.8752 24.1226 36.0049C24.5082 36.1066 24.9001 36.1189 25.2948 36.0377C25.7445 35.9459 26.1646 35.744 26.5177 35.4499C26.5591 35.4158 26.6044 35.3898 26.6534 35.4524C26.8397 35.6892 27.0892 35.8472 27.35 35.9838C28.054 36.3521 28.8212 36.4625 29.6005 36.5075C29.7891 36.5185 29.9797 36.4912 30.1698 36.4859C30.5402 36.4757 30.9002 36.4032 31.2544 36.3005C31.4399 36.2465 31.6212 36.1781 31.8101 36.1143C31.8199 36.316 31.8326 36.5103 31.8385 36.7047L31.8648 37.7644C31.8696 37.9256 31.876 38.0874 31.8909 38.2479C31.9292 38.6618 31.9667 39.0759 32.0159 39.4885C32.0501 39.7729 32.0856 40.0595 32.1523 40.3371C32.286 40.8973 32.469 41.4445 32.6994 41.9721C32.9199 42.4843 33.2588 42.9364 33.6881 43.291C34.2509 43.7581 34.9105 43.9572 35.6229 43.9941C35.9175 44.0096 36.2204 43.9951 36.5104 43.9422C36.9714 43.86 37.4273 43.7517 37.8761 43.6179C38.7865 43.3422 39.5734 42.866 40.1613 42.0965C40.4959 41.658 40.7707 41.1836 40.9471 40.6598C41.0927 40.2272 41.2298 39.7902 41.3388 39.3473C41.425 38.9983 41.4676 38.6384 41.5201 38.282C41.5548 38.0462 41.5756 37.8081 41.5974 37.5705C41.6329 37.1847 41.6691 36.799 41.6947 36.4124C41.7125 36.1433 41.7117 35.8729 41.7224 35.6032C41.7257 35.5211 41.7389 35.4394 41.7465 35.3575C41.7536 35.2817 41.7916 35.2555 41.8687 35.2568C42.1402 35.2609 42.4122 35.268 42.6829 35.2558C42.9864 35.242 43.2926 35.2291 43.5913 35.1787C44.0168 35.1074 44.4389 35.0168 44.8563 34.9073C45.3489 34.7781 45.8006 34.5466 46.2354 34.2828C46.7419 33.9758 47.2036 33.6156 47.5782 33.1516C47.904 32.7469 48.0584 32.2791 47.9798 31.7684V31.7684ZM47.1148 32.0182C47.0981 32.2509 46.9919 32.4503 46.8377 32.6208C46.1104 33.4253 45.198 33.9135 44.1543 34.1538C43.7578 34.2449 43.3487 34.2922 42.9428 34.3299C42.596 34.3605 42.2477 34.3687 41.8998 34.3545C41.6448 34.3449 41.3918 34.2864 41.1312 34.2487C41.1051 34.4878 41.0802 34.7369 41.0501 34.9854L40.9286 35.938C40.8919 36.2399 40.8632 36.5429 40.8255 36.8446C40.7884 37.1373 40.7423 37.4291 40.7035 37.7219C40.6673 37.9946 40.6406 38.2685 40.6003 38.5407C40.5382 38.9579 40.4789 39.376 40.3978 39.7899C40.3004 40.2847 40.1511 40.7639 39.9075 41.21C39.6104 41.7547 39.189 42.1695 38.6529 42.4768C38.1002 42.7938 37.4961 42.9586 36.8836 43.0965C36.4501 43.1941 36.0034 43.2102 35.5643 43.1705C34.8028 43.1013 34.1528 42.7744 33.6615 42.182C33.1925 41.6165 32.8751 40.9684 32.7615 40.2348C32.7085 39.8856 32.667 39.5347 32.637 39.1827C32.6034 38.7916 32.5781 38.3998 32.5612 38.0075C32.5387 37.51 32.5221 37.0121 32.5113 36.5141C32.4978 35.9021 32.4935 35.2901 32.4849 34.6781L32.4834 34.6547C32.1731 34.8414 31.8681 35.0459 31.5446 35.2143C31.1666 35.4105 30.7528 35.5276 30.3283 35.5585C29.9942 35.5839 29.6557 35.6071 29.3231 35.5804C28.7778 35.5363 28.233 35.4506 27.7447 35.1812C27.5468 35.0719 27.3401 34.9388 27.2037 34.7641C26.8767 34.3454 27.0334 33.8163 27.5265 33.5617C27.8672 33.3854 28.2391 33.3119 28.6085 33.2262C28.9299 33.153 29.2481 33.0656 29.5619 32.9644C29.8717 32.8627 30.0672 32.6106 30.2601 32.3633L30.5658 31.9688C30.4383 31.9553 30.3181 31.9416 30.198 31.9304C29.8332 31.8958 29.4851 31.7951 29.1522 31.647C28.8673 31.5206 28.863 31.5069 28.6541 31.7343C28.3053 32.1143 27.9661 32.5032 27.6243 32.8896C27.3728 33.1738 27.1229 33.4597 26.8727 33.7446C26.6247 34.0264 26.3925 34.3243 26.1256 34.5865C25.7291 34.976 25.2512 35.2102 24.6811 35.1838C24.3152 35.167 23.9803 35.0383 23.6792 34.8279C23.0576 34.3935 22.6388 33.7858 22.2575 33.1476C21.769 32.3298 21.394 31.4586 21.0731 30.5634C20.851 29.9448 20.6279 29.3257 20.434 28.6981C20.2233 28.0162 20.0385 27.3256 19.8567 26.6352C19.7209 26.1136 19.5957 25.5893 19.481 25.0627C19.3473 24.4646 19.2236 23.8643 19.1099 23.262C19.0343 22.8553 18.9905 22.4427 18.9294 22.0332C18.847 21.4812 18.8318 20.9241 18.8617 20.3698C18.8883 19.8705 18.9598 19.3725 19.0308 18.8764C19.1291 18.1901 19.3545 17.5425 19.6788 16.931C19.8773 16.5563 20.1237 16.2157 20.4086 15.8993C20.8763 15.3799 21.4424 15.0044 22.0722 14.7226C22.5123 14.5257 22.9772 14.4072 23.451 14.3146C24.1543 14.1772 24.8638 14.1826 25.5737 14.1973C25.884 14.2037 26.193 14.2604 26.503 14.2912C27.1705 14.3578 27.8249 14.4987 28.4708 14.6727C28.9416 14.7994 29.4027 14.9635 29.8697 15.1059C29.9166 15.1202 29.9853 15.1189 30.0236 15.0937C30.6563 14.6793 31.3479 14.4059 32.0833 14.2495C32.3625 14.1902 32.6505 14.1642 32.9359 14.1459C33.283 14.1238 33.6328 14.1035 33.9791 14.1235C34.3954 14.1475 34.8096 14.209 35.2233 14.266C35.4241 14.2935 35.6201 14.3634 35.8214 14.3825C35.9177 14.3917 36.0199 14.3209 36.1218 14.2973C36.6412 14.177 37.1584 14.0429 37.6824 13.9478C38.0726 13.8771 38.4711 13.8437 38.8678 13.8208C39.3102 13.7954 39.7559 13.7768 40.198 13.7982C40.7579 13.826 41.314 13.9046 41.8598 14.033C42.5384 14.1915 43.1895 14.4217 43.8083 14.7412C44.2707 14.9798 44.7103 15.2565 45.106 15.5969C45.3653 15.8202 45.6308 16.0407 45.865 16.2895C46.154 16.5963 46.4489 16.9033 46.6301 17.2963C46.7665 17.5926 46.8639 17.8994 46.8907 18.224C46.9242 18.6274 46.9647 19.0324 46.9609 19.4363C46.9574 19.8227 46.9049 20.2088 46.8677 20.5942C46.783 21.4728 46.5926 22.3323 46.3614 23.1804C46.168 23.8809 45.9491 24.5741 45.705 25.2586C45.4822 25.8896 45.2251 26.5093 44.9653 27.1264C44.774 27.5835 44.5662 28.0334 44.3422 28.4753C43.917 29.3112 43.4749 30.1384 42.9636 30.9256C42.8753 31.0617 42.7917 31.2011 42.7055 31.34C42.9286 31.4911 43.1813 31.5443 43.4359 31.5717C43.678 31.5982 43.9249 31.614 44.1667 31.5959C44.5539 31.5672 44.9397 31.5117 45.3245 31.4575C45.7058 31.4041 46.0795 31.2952 46.4709 31.324C46.8618 31.3525 47.1414 31.6506 47.1148 32.0182V32.0182ZM41.5343 31.1653C41.3682 30.9501 41.1989 30.7374 41.0364 30.5197C40.7813 30.1778 40.5981 29.796 40.414 29.4124C40.2396 29.0489 40.0256 28.7048 39.8418 28.3453C39.5211 27.7183 39.1946 27.0933 38.8993 26.4541C38.5279 25.6511 38.2351 24.8195 38.1428 23.93C38.1037 23.5535 38.0939 23.1776 38.1697 22.8047C38.2911 22.2092 38.6011 21.7434 39.1224 21.4239C39.6058 21.1276 40.1445 21.032 40.6964 21.0019C41.0389 20.9834 41.3829 20.9986 41.7383 20.9986L41.7264 20.9384C41.5054 20.4746 41.2988 20.003 41.0569 19.5503C40.7157 18.9113 40.2791 18.3351 39.7929 17.801C39.4327 17.4054 39.0425 17.0384 38.6151 16.714C38.1948 16.3948 37.7519 16.1097 37.2793 15.8764C36.7158 15.5984 36.1289 15.3834 35.5131 15.2463C34.9214 15.1146 34.3259 15.0339 33.719 15.0273C33.2013 15.0217 32.687 15.0451 32.1827 15.1624C31.4217 15.3392 30.7255 15.6536 30.1199 16.1628C29.7848 16.4448 29.4854 16.7668 29.2283 17.1218C28.9251 17.5397 28.6805 17.991 28.4713 18.4641C28.1843 19.1133 27.9874 19.7889 27.8527 20.4833C27.7853 20.8295 27.7326 21.1787 27.6788 21.5277C27.6601 21.6498 27.6586 21.7747 27.6476 21.9146C27.7412 21.8658 27.8086 21.8281 27.8776 21.7946L28.1019 21.6936C28.8607 21.3453 29.6468 21.1212 30.4918 21.1469C30.8508 21.1579 31.1943 21.2291 31.5135 21.3868C32.1257 21.6898 32.4839 22.2049 32.6396 22.8568C32.747 23.3068 32.8206 23.7657 32.892 24.2233C32.9481 24.5807 33.0054 24.9419 33.012 25.3023C33.0213 25.8291 32.9947 26.3569 32.9661 26.8835C32.9415 27.3312 32.8492 27.7726 32.6923 28.1925C32.4083 28.9538 32.092 29.7026 31.7964 30.4596C31.6988 30.7097 31.6237 30.9686 31.5315 31.2436C31.6739 31.2436 31.7895 31.2426 31.9051 31.2441C31.9503 31.2449 31.9964 31.2462 32.04 31.2566C32.3797 31.337 32.6743 31.4914 32.9159 31.7536C33.2381 32.1026 33.4072 32.5099 33.4158 32.9812C33.4206 33.2424 33.3932 33.5044 33.3945 33.7657C33.3998 34.9831 33.409 36.2005 33.4191 37.4177C33.4209 37.6166 33.4308 37.8157 33.445 38.0144C33.4746 38.4303 33.5045 38.8465 33.5451 39.2613C33.5735 39.5556 33.613 39.8494 33.6594 40.1417C33.7251 40.5558 33.9129 40.9244 34.1261 41.2767C34.3097 41.5796 34.5482 41.8371 34.8626 42.0146C35.3967 42.3163 35.972 42.3415 36.5517 42.2303C36.9434 42.1553 37.328 42.0347 37.7083 41.9103C38.0822 41.7899 38.4237 41.5851 38.7063 41.3115C38.9728 41.0523 39.1619 40.7364 39.2894 40.3877C39.5368 39.7113 39.6139 38.9991 39.7163 38.2924C39.7546 38.0279 39.7878 37.7626 39.8228 37.4975C39.8626 37.1958 39.9029 36.8944 39.9415 36.593C39.9698 36.3684 39.9957 36.1433 40.0231 35.9187C40.0621 35.5961 40.1034 35.2738 40.1407 34.951C40.1694 34.7015 40.1937 34.451 40.2191 34.2009C40.2518 33.8814 40.287 33.5619 40.3151 33.2419C40.3369 32.999 40.3281 32.7518 40.3709 32.5134C40.4497 32.0764 40.6556 31.7045 41.0417 31.4641C41.2032 31.3637 41.3855 31.2975 41.5647 31.2126L41.5343 31.1653V31.1653ZM26.9327 29.3715C26.7402 28.9171 26.6242 28.4339 26.5895 27.9414C26.557 27.4772 26.6121 27.0147 26.6595 26.5525C26.7056 26.1048 26.7439 25.6551 26.7573 25.2054C26.7796 24.4662 26.7299 23.728 26.6947 22.9893C26.6734 22.5495 26.7244 22.1044 26.7634 21.6636C26.7986 21.2665 26.8425 20.8684 26.9173 20.4772C27.0428 19.8207 27.2093 19.1735 27.4461 18.5463C27.671 17.9516 27.9293 17.3724 28.2941 16.8509C28.5441 16.4933 28.8277 16.159 29.1003 15.8095L29.0194 15.7808C28.1326 15.4982 27.2314 15.2774 26.3045 15.181C25.8662 15.1354 25.4264 15.1087 24.9868 15.0825C24.8519 15.0744 24.715 15.0927 24.5796 15.1057C24.2445 15.1377 23.9053 15.1504 23.5755 15.2135C23.0142 15.3206 22.4758 15.5007 21.9771 15.794C21.5294 16.0573 21.1534 16.3976 20.8386 16.8059C20.4908 17.2566 20.2568 17.7664 20.0887 18.31C19.8902 18.9512 19.7956 19.6111 19.77 20.277C19.7477 20.8608 19.7366 21.4479 19.8369 22.0293C19.9117 22.4623 19.9617 22.8998 20.0441 23.3309C20.1564 23.9188 20.2768 24.5054 20.416 25.0871C20.615 25.9199 20.8137 26.754 21.0495 27.5766C21.2751 28.3649 21.5296 29.1461 21.8055 29.9178C22.0311 30.5477 22.292 31.1658 22.5668 31.7758C22.7457 32.1731 22.9625 32.5554 23.1896 32.9275C23.4312 33.3226 23.706 33.6975 24.079 33.9842C24.5495 34.3462 24.9138 34.4024 25.3919 34.0053C25.5967 33.8351 25.7699 33.625 25.9481 33.4248C26.2313 33.1069 26.5046 32.7803 26.7865 32.4613C27.1454 32.0548 27.509 31.6526 27.8697 31.2482C27.946 31.1627 28.0193 31.0747 28.0936 30.9882L27.9709 30.8801C27.5253 30.454 27.172 29.9405 26.9327 29.3715V29.3715ZM40.5433 17.2714C40.8382 17.6154 41.1181 17.9722 41.3822 18.3407C41.8892 19.0553 42.2943 19.8268 42.5927 20.6522C42.7248 21.0159 42.8302 21.3832 42.7831 21.7813C42.7504 22.0601 42.7532 22.343 42.7286 22.6233C42.708 22.8566 42.6713 23.0885 42.6411 23.321C42.596 23.6715 42.5306 24.0211 42.5111 24.3731C42.4925 24.7081 42.5118 25.0467 42.5329 25.3824C42.5541 25.7235 42.6 26.0631 42.6312 26.4037C42.6665 26.7899 42.7139 27.176 42.7248 27.5629C42.7336 27.8806 42.7055 28.2003 42.6779 28.5175C42.6449 28.8996 42.5483 29.2695 42.4043 29.6243C42.3032 29.8741 42.1822 30.1162 42.0679 30.3663L42.1138 30.4151L42.1835 30.4693L42.2537 30.3431C42.8467 29.4067 43.3738 28.4298 43.8311 27.4197C44.1237 26.7676 44.4015 26.1089 44.6644 25.4442C45.0761 24.4105 45.4018 23.3477 45.6538 22.2639C45.7669 21.7773 45.8534 21.2833 45.9302 20.7893C45.99 20.4032 46.0399 20.0124 46.0511 19.6228C46.063 19.2094 46.0402 18.7927 46.0022 18.3804C45.9738 18.0691 45.8972 17.7557 45.7028 17.5026C45.3902 17.0951 45.0528 16.7054 44.6378 16.3971C44.2884 16.1374 43.9404 15.8711 43.5654 15.6526C42.9709 15.3066 42.3275 15.0762 41.6552 14.9192C40.9991 14.7658 40.3344 14.6997 39.6654 14.6857C39.2709 14.6773 38.8747 14.7198 38.481 14.7569C38.1243 14.7905 37.7699 14.8477 37.4106 14.8951C37.796 15.1125 38.176 15.3059 38.5345 15.5338C39.2882 16.0127 39.9635 16.5891 40.5433 17.2714V17.2714ZM30.7514 30.6822C30.995 29.9005 31.3269 29.1542 31.6483 28.4033C31.9089 27.7944 32.0514 27.1528 32.0988 26.494C32.1224 26.1692 32.1158 25.8403 32.0998 25.5145C32.084 25.1519 32.0508 24.7904 32.0004 24.4311C31.933 23.973 31.8562 23.5146 31.7482 23.0649C31.6311 22.5783 31.3357 22.2395 30.8297 22.1146C30.5215 22.0385 30.2152 22.0416 29.9037 22.0909C29.1426 22.2112 28.446 22.4925 27.797 22.9046C27.6664 22.9876 27.5947 23.0544 27.6172 23.2424C27.6649 23.6405 27.6753 24.045 27.6735 24.4469C27.671 25.0156 27.6469 25.5844 27.6253 26.1529C27.6182 26.3381 27.5916 26.5223 27.5718 26.7067C27.5414 26.989 27.4829 27.2711 27.4846 27.553C27.4864 27.8435 27.5161 28.1408 27.5863 28.4221C27.8094 29.3142 28.2819 30.0443 29.0564 30.5594C29.5328 30.876 30.0598 31.0358 30.6383 31.0661C30.6776 30.9328 30.7126 30.8069 30.7514 30.6822ZM29.8423 23.029C29.7404 22.8143 29.7987 22.6365 30.035 22.5541C30.0925 22.5338 30.1518 22.5121 30.2117 22.5063C30.2938 22.4981 30.3775 22.5042 30.4606 22.5042C30.7603 22.5058 31.0485 22.5477 31.2959 22.739C31.4546 22.8616 31.4972 23.0244 31.3946 23.1916C31.2488 23.4286 31.0265 23.5477 30.7534 23.5706C30.3232 23.6064 30.0213 23.4052 29.8423 23.029ZM41.7675 22.9507C41.802 22.6648 41.8296 22.3781 41.8649 22.0922C41.879 21.9772 41.8187 21.9462 41.7226 21.9434C41.4204 21.935 41.1183 21.9243 40.8161 21.9187C40.4754 21.9126 40.1438 21.9675 39.8284 22.0975C39.4785 22.242 39.2121 22.4735 39.1033 22.8555C39.0238 23.1373 38.9986 23.4317 39.0291 23.7229C39.0714 24.1733 39.1731 24.616 39.3315 25.0395C39.5429 25.6045 39.7642 26.1692 40.0287 26.7105C40.3869 27.4433 40.7922 28.1528 41.1728 28.8744C41.2744 29.067 41.3599 29.2679 41.4658 29.4928C41.6795 29.0458 41.7962 28.5583 41.8083 28.0627C41.8187 27.6532 41.786 27.2419 41.7622 26.8321C41.7472 26.5813 41.712 26.332 41.6876 26.0817C41.6537 25.733 41.6022 25.3845 41.5944 25.035C41.5865 24.6796 41.6116 24.3222 41.642 23.9674C41.6707 23.627 41.7267 23.2895 41.7675 22.9507V22.9507ZM41.0858 22.6754C40.9735 22.9865 40.7334 23.162 40.4221 23.2137C40.1318 23.2615 39.8776 23.1539 39.6885 22.9217C39.5538 22.7563 39.6053 22.5605 39.8071 22.4488C40.0388 22.3201 40.2936 22.2875 40.594 22.2679C40.6756 22.2829 40.7986 22.2954 40.9154 22.329C41.085 22.3771 41.1477 22.505 41.0858 22.6754ZM32.1059 32.255C31.9399 32.1189 31.7203 32.111 31.5624 32.2603C31.3664 32.446 31.194 32.6584 31.0216 32.8678C30.8226 33.1097 30.636 33.3612 30.3792 33.5487C30.0056 33.8211 29.57 33.9341 29.1322 34.0409C28.7841 34.1259 28.4346 34.2047 28.0855 34.2864L28.0812 34.3317C28.1848 34.3797 28.2852 34.4398 28.3932 34.4741C28.9256 34.6433 29.4671 34.7275 30.0296 34.6796C30.4358 34.645 30.8226 34.5563 31.1892 34.3818C31.6937 34.1419 32.0818 33.7619 32.4119 33.3198C32.4672 33.246 32.4923 33.1369 32.4989 33.0417C32.5214 32.7057 32.3513 32.4559 32.1059 32.255V32.255ZM45.2254 32.3888C44.797 32.4348 44.368 32.4837 43.9383 32.5083C43.731 32.5203 43.5205 32.4806 43.3111 32.4636C42.96 32.4351 42.6173 32.3567 42.3204 32.1685C42.1485 32.0599 42.0058 32.0477 41.8233 32.1092C41.5627 32.1972 41.35 32.331 41.2871 32.6144C41.2443 32.8059 41.2288 33.0044 41.2115 33.2005C41.2083 33.2351 41.2514 33.2987 41.2843 33.3073C41.4853 33.3605 41.6874 33.4233 41.893 33.4419C42.1455 33.4648 42.4025 33.4574 42.6568 33.4447C42.9314 33.4309 43.2077 33.4131 43.4782 33.3673C44.1158 33.26 44.7326 33.085 45.2804 32.7223C45.4779 32.5913 45.6736 32.4575 45.8698 32.3249L45.8536 32.297C45.6442 32.3282 45.4358 32.3664 45.2254 32.3888V32.3888Z" fill="#336791"/>
</g>
<defs>
<filter id="filter0_dd" x="0" y="0" width="65" height="65" filterUnits="userSpaceOnUse" color-interpolation-filters="sRGB">
<feFlood flood-opacity="0" result="BackgroundImageFix"/>
<feColorMatrix in="SourceAlpha" type="matrix" values="0 0 0 0 0 0 0 0 0 0 0 0 0 0 0 0 0 0 127 0" result="hardAlpha"/>
<feMorphology radius="1" operator="erode" in="SourceAlpha" result="effect1_dropShadow"/>
<feOffset dy="2"/>
<feGaussianBlur stdDeviation="2"/>
<feColorMatrix type="matrix" values="0 0 0 0 0 0 0 0 0 0 0 0 0 0 0 0 0 0 0.06 0"/>
<feBlend mode="normal" in2="BackgroundImageFix" result="effect1_dropShadow"/>
<feColorMatrix in="SourceAlpha" type="matrix" values="0 0 0 0 0 0 0 0 0 0 0 0 0 0 0 0 0 0 127 0" result="hardAlpha"/>
<feMorphology radius="1" operator="erode" in="SourceAlpha" result="effect2_dropShadow"/>
<feOffset dy="4"/>
<feGaussianBlur stdDeviation="3"/>
<feColorMatrix type="matrix" values="0 0 0 0 0 0 0 0 0 0 0 0 0 0 0 0 0 0 0.1 0"/>
<feBlend mode="normal" in2="effect1_dropShadow" result="effect2_dropShadow"/>
<feBlend mode="normal" in="SourceGraphic" in2="effect2_dropShadow" result="shape"/>
</filter>
</defs>
</svg>
