<svg width="65" height="65" viewBox="0 0 65 65" fill="none" xmlns="http://www.w3.org/2000/svg">
<mask id="mask0" mask-type="alpha" maskUnits="userSpaceOnUse" x="5" y="1" width="55" height="55">
<rect x="5" y="1" width="55" height="55" rx="6" fill="#F3F4F6"/>
</mask>
<g mask="url(#mask0)">
<g filter="url(#filter0_dd)">
<rect x="5" y="1" width="55" height="55" rx="6" fill="#F3F4F6"/>
</g>
<path d="M33 31.2764C34.7098 31.2764 36.0959 29.8904 36.0959 28.1806C36.0959 26.4708 34.7098 25.0847 33 25.0847C31.2902 25.0847 29.9042 26.4708 29.9042 28.1806C29.9042 29.8904 31.2902 31.2764 33 31.2764Z" fill="#61DAFB"/>
<path d="M44.7588 23.0751C44.1613 22.8578 43.5367 22.6406 42.885 22.4505C43.0479 21.7987 43.1837 21.147 43.2923 20.5224C43.8626 16.9377 43.238 14.4121 41.5 13.4345C40.984 13.1358 40.4137 13 39.762 13C37.861 13 35.4441 14.4121 33 16.7748C30.5559 14.4121 28.139 13 26.238 13C25.5863 13 25.016 13.1358 24.5 13.4345C22.762 14.4393 22.1374 16.9649 22.7077 20.5224C22.8163 21.147 22.9521 21.7987 23.115 22.4505C22.4633 22.6406 21.8387 22.8307 21.2412 23.0751C17.8466 24.3786 16 26.1709 16 28.1805C16 30.1901 17.8738 31.9824 21.2412 33.2859C21.8387 33.5032 22.4633 33.7204 23.115 33.9105C22.9521 34.5623 22.8163 35.2141 22.7077 35.8387C22.1374 39.4233 22.762 41.9489 24.5 42.9265C25.016 43.2252 25.5863 43.361 26.238 43.361C28.1661 43.361 30.5831 41.9489 33 39.5863C35.4441 41.9489 37.861 43.361 39.762 43.361C40.4137 43.361 40.984 43.2252 41.5 42.9265C43.238 41.9217 43.8626 39.3962 43.2923 35.8387C43.1837 35.2141 43.0479 34.5623 42.885 33.9105C43.5367 33.7204 44.1613 33.5304 44.7588 33.2859C48.1534 31.9824 50 30.1901 50 28.1805C50 26.1709 48.1534 24.3786 44.7588 23.0751V23.0751ZM40.7396 14.7923C41.853 15.4441 42.2332 17.4537 41.7716 20.3051C41.6901 20.8754 41.5543 21.4728 41.3914 22.0974C39.9792 21.7716 38.4856 21.5543 36.9105 21.4185C35.9872 20.115 35.0367 18.9473 34.0863 17.8882C36.0958 15.9058 38.1326 14.5479 39.7891 14.5479C40.1422 14.5479 40.4681 14.6294 40.7396 14.7923V14.7923ZM37.6981 30.8962C37.2093 31.7652 36.639 32.6342 36.0415 33.5032C35.0367 33.5847 34.0319 33.6118 33 33.6118C31.9409 33.6118 30.9361 33.5847 29.9585 33.5032C29.361 32.6342 28.8179 31.7652 28.3291 30.8962C27.8131 30 27.3243 29.0767 26.8898 28.1805C27.3243 27.2843 27.8131 26.361 28.3291 25.4649C28.8179 24.5958 29.3882 23.7268 29.9856 22.8578C30.9904 22.7764 31.9952 22.7492 33.0272 22.7492C34.0863 22.7492 35.0911 22.7764 36.0687 22.8578C36.6661 23.7268 37.2093 24.5958 37.6981 25.4649C38.2141 26.361 38.7029 27.2843 39.1374 28.1805C38.6757 29.0767 38.2141 29.9728 37.6981 30.8962ZM39.9521 30C40.3594 30.9505 40.6853 31.8738 40.984 32.7971C40.0607 33.0144 39.0831 33.1773 38.0511 33.3131C38.377 32.7971 38.73 32.254 39.0288 31.6837C39.3546 31.1134 39.6534 30.5431 39.9521 30ZM33 37.3594C32.3482 36.6534 31.7236 35.893 31.1262 35.1054C31.7508 35.1326 32.3754 35.1597 33 35.1597C33.6246 35.1597 34.2492 35.1326 34.8738 35.1054C34.2764 35.893 33.6518 36.6534 33 37.3594ZM27.9489 33.2859C26.9169 33.1502 25.9393 32.9872 25.016 32.77C25.3147 31.8738 25.6406 30.9233 26.0479 29.9728C26.3466 30.516 26.6454 31.0863 26.9712 31.6294C27.2971 32.2268 27.623 32.7428 27.9489 33.2859V33.2859ZM26.0479 26.361C25.6406 25.4105 25.3147 24.4872 25.016 23.5639C25.9393 23.3466 26.9169 23.1837 27.9489 23.0479C27.623 23.5639 27.27 24.107 26.9712 24.6773C26.6454 25.2476 26.3466 25.8179 26.0479 26.361V26.361ZM33 19.0016C33.6518 19.7077 34.2764 20.4681 34.8738 21.2556C34.2492 21.2284 33.6246 21.2013 33 21.2013C32.3754 21.2013 31.7508 21.2284 31.1262 21.2556C31.7236 20.4681 32.3482 19.7077 33 19.0016ZM39.0288 24.7045L38.0511 23.0751C39.0831 23.2109 40.0607 23.3738 40.984 23.5911C40.6853 24.4872 40.3594 25.4377 39.9521 26.3882C39.6534 25.8179 39.3546 25.2476 39.0288 24.7045ZM24.2284 20.3051C23.7668 17.4537 24.147 15.4441 25.2604 14.7923C25.5319 14.6294 25.8578 14.5479 26.2109 14.5479C27.8403 14.5479 29.877 15.8786 31.9137 17.8882C30.9633 18.9201 30.0128 20.115 29.0895 21.4185C27.5144 21.5543 26.0208 21.7987 24.6086 22.0974C24.4457 21.4728 24.3371 20.8754 24.2284 20.3051V20.3051ZM17.5208 28.1805C17.5208 26.9042 19.0687 25.5463 21.7843 24.5415C22.3275 24.3243 22.9249 24.1342 23.5224 23.9712C23.9569 25.3291 24.5 26.7684 25.1518 28.2077C24.5 29.647 23.9297 31.0591 23.5224 32.4169C19.7748 31.3307 17.5208 29.7013 17.5208 28.1805ZM25.2604 41.5687C24.147 40.9169 23.7668 38.9073 24.2284 36.0559C24.3099 35.4856 24.4457 34.8882 24.6086 34.2636C26.0208 34.5895 27.5144 34.8067 29.0895 34.9425C30.0128 36.246 30.9633 37.4137 31.9137 38.4728C29.9042 40.4553 27.8674 41.8131 26.2109 41.8131C25.8578 41.8131 25.5319 41.7316 25.2604 41.5687ZM41.7716 36.0559C42.2332 38.9073 41.853 40.9169 40.7396 41.5687C40.4681 41.7316 40.1422 41.8131 39.7891 41.8131C38.1597 41.8131 36.123 40.4824 34.0863 38.4728C35.0367 37.4409 35.9872 36.246 36.9105 34.9425C38.4856 34.8067 39.9792 34.5623 41.3914 34.2636C41.5543 34.8882 41.6629 35.4856 41.7716 36.0559V36.0559ZM44.2157 31.8195C43.6725 32.0367 43.0751 32.2268 42.4776 32.3898C42.0431 31.0319 41.5 29.5927 40.8482 28.1534C41.5 26.7141 42.0703 25.3019 42.4776 23.9441C46.2252 25.0304 48.4792 26.6597 48.4792 28.1805C48.4792 29.4569 46.9042 30.8147 44.2157 31.8195Z" fill="#61DAFB"/>
</g>
<defs>
<filter id="filter0_dd" x="0" y="0" width="65" height="65" filterUnits="userSpaceOnUse" color-interpolation-filters="sRGB">
<feFlood flood-opacity="0" result="BackgroundImageFix"/>
<feColorMatrix in="SourceAlpha" type="matrix" values="0 0 0 0 0 0 0 0 0 0 0 0 0 0 0 0 0 0 127 0" result="hardAlpha"/>
<feMorphology radius="1" operator="erode" in="SourceAlpha" result="effect1_dropShadow"/>
<feOffset dy="2"/>
<feGaussianBlur stdDeviation="2"/>
<feColorMatrix type="matrix" values="0 0 0 0 0 0 0 0 0 0 0 0 0 0 0 0 0 0 0.06 0"/>
<feBlend mode="normal" in2="BackgroundImageFix" result="effect1_dropShadow"/>
<feColorMatrix in="SourceAlpha" type="matrix" values="0 0 0 0 0 0 0 0 0 0 0 0 0 0 0 0 0 0 127 0" result="hardAlpha"/>
<feMorphology radius="1" operator="erode" in="SourceAlpha" result="effect2_dropShadow"/>
<feOffset dy="4"/>
<feGaussianBlur stdDeviation="3"/>
<feColorMatrix type="matrix" values="0 0 0 0 0 0 0 0 0 0 0 0 0 0 0 0 0 0 0.1 0"/>
<feBlend mode="normal" in2="effect1_dropShadow" result="effect2_dropShadow"/>
<feBlend mode="normal" in="SourceGraphic" in2="effect2_dropShadow" result="shape"/>
</filter>
</defs>
</svg>
