<svg width="65" height="65" viewBox="0 0 65 65" fill="none" xmlns="http://www.w3.org/2000/svg">
<mask id="mask0" mask-type="alpha" maskUnits="userSpaceOnUse" x="5" y="1" width="55" height="55">
<rect x="5" y="1" width="55" height="55" rx="6" fill="#F3F4F6"/>
</mask>
<g mask="url(#mask0)">
<g filter="url(#filter0_dd)">
<rect x="5" y="1" width="55" height="55" rx="6" fill="#F3F4F6"/>
</g>
<path d="M39.2512 35.0926C36.7902 40.1239 32.4808 43.509 26.7797 44.6219C25.9055 44.8361 25.0082 44.9408 24.1082 44.9336C20.8269 44.9336 17.8191 43.5665 16.359 41.327C14.3984 38.3438 13.7312 32.0192 20.1953 27.3407C20.3265 28.0543 20.5945 29.0333 20.7722 29.6129C19.5033 30.5557 18.4646 31.7738 17.7344 33.1758C16.5312 35.5383 16.6652 37.8981 18.0898 40.0801C19.0742 41.5512 20.6328 42.4454 22.6371 42.7188C25.1405 43.0357 27.6802 42.5574 29.8969 41.3516C33.3722 39.525 35.6883 37.343 37.2031 34.3598C36.7748 33.9172 36.5212 33.3343 36.4894 32.7192C36.4665 32.0591 36.7065 31.4168 37.1566 30.9334C37.6067 30.45 38.2301 30.1649 38.8902 30.1407H38.9832C39.6252 30.1375 40.2439 30.3812 40.7112 30.8214C41.1786 31.2616 41.4588 31.8646 41.4939 32.5057C41.5291 33.1468 41.3164 33.7768 40.9 34.2655C40.4835 34.7541 39.8951 35.064 39.2566 35.1309L39.2512 35.0926ZM47.0906 29.5692C50.4293 33.3536 50.5195 37.8079 49.2289 40.3918C48.0258 42.7516 44.8539 45.1141 40.5883 45.1141C38.597 45.0735 36.6381 44.6024 34.8461 43.7333C35.4722 43.2875 36.3609 42.5739 36.8504 42.1282C38.2323 42.7268 39.7195 43.0447 41.2254 43.0633C43.9871 43.0633 46.0789 41.7727 47.3258 39.4129C48.1269 37.8543 48.1734 36.0278 47.416 34.1575C46.4866 31.8042 44.8328 29.8076 42.6937 28.4563C39.8874 26.5645 36.579 25.556 33.1945 25.5606H32.3933C32.2065 25.9922 31.9026 26.3628 31.516 26.6305C31.1294 26.8982 30.6755 27.0524 30.2058 27.0754H30.1211C29.4714 27.0675 28.8505 26.8065 28.3901 26.3481C27.9298 25.8896 27.6663 25.2698 27.6556 24.6202C27.6449 23.9706 27.8879 23.3424 28.333 22.8691C28.778 22.3957 29.39 22.1145 30.039 22.0852H30.1293C30.5816 22.0855 31.025 22.2105 31.4109 22.4464C31.7968 22.6823 32.1102 23.0199 32.3168 23.4223H33.0305C38.718 23.4223 43.7109 25.6043 47.0906 29.5692V29.5692ZM24.4637 35.8583C24.4168 35.4042 24.5268 34.9478 24.7754 34.5649C22.2816 30.2446 20.9472 24.7676 22.9953 19.0665C24.4637 14.7817 28.1605 11.886 32.1691 11.886C36.4457 11.886 40.9 15.6293 41.4332 22.8426C40.766 22.6211 39.7926 22.2958 39.2074 22.1754C39.0625 19.8157 37.0691 13.9368 32.3469 14.0243C30.6543 14.0708 28.1605 14.8719 26.8781 16.518C25.2918 18.483 24.369 20.9001 24.2422 23.4223C23.9416 26.8807 24.753 30.3447 26.5582 33.3098C26.6578 33.2734 26.7641 33.2585 26.8699 33.2661H26.9574C27.6188 33.2541 28.2578 33.5054 28.734 33.9646C29.2101 34.4238 29.4843 35.0533 29.4963 35.7147C29.5082 36.3761 29.257 37.0151 28.7978 37.4913C28.3386 37.9674 27.709 38.2416 27.0476 38.2536H26.9574C26.3122 38.2513 25.6927 38.0001 25.2281 37.5523C24.7636 37.1045 24.4897 36.4948 24.4637 35.85V35.8583Z" fill="#764ABC"/>
</g>
<defs>
<filter id="filter0_dd" x="0" y="0" width="65" height="65" filterUnits="userSpaceOnUse" color-interpolation-filters="sRGB">
<feFlood flood-opacity="0" result="BackgroundImageFix"/>
<feColorMatrix in="SourceAlpha" type="matrix" values="0 0 0 0 0 0 0 0 0 0 0 0 0 0 0 0 0 0 127 0" result="hardAlpha"/>
<feMorphology radius="1" operator="erode" in="SourceAlpha" result="effect1_dropShadow"/>
<feOffset dy="2"/>
<feGaussianBlur stdDeviation="2"/>
<feColorMatrix type="matrix" values="0 0 0 0 0 0 0 0 0 0 0 0 0 0 0 0 0 0 0.06 0"/>
<feBlend mode="normal" in2="BackgroundImageFix" result="effect1_dropShadow"/>
<feColorMatrix in="SourceAlpha" type="matrix" values="0 0 0 0 0 0 0 0 0 0 0 0 0 0 0 0 0 0 127 0" result="hardAlpha"/>
<feMorphology radius="1" operator="erode" in="SourceAlpha" result="effect2_dropShadow"/>
<feOffset dy="4"/>
<feGaussianBlur stdDeviation="3"/>
<feColorMatrix type="matrix" values="0 0 0 0 0 0 0 0 0 0 0 0 0 0 0 0 0 0 0.1 0"/>
<feBlend mode="normal" in2="effect1_dropShadow" result="effect2_dropShadow"/>
<feBlend mode="normal" in="SourceGraphic" in2="effect2_dropShadow" result="shape"/>
</filter>
</defs>
</svg>
