<svg width="65" height="65" viewBox="0 0 65 65" fill="none" xmlns="http://www.w3.org/2000/svg">
<mask id="mask0" mask-type="alpha" maskUnits="userSpaceOnUse" x="5" y="1" width="55" height="55">
<rect x="5" y="1" width="55" height="55" rx="6" fill="#F3F4F6"/>
</mask>
<g mask="url(#mask0)">
<g filter="url(#filter0_dd)">
<rect x="5" y="1" width="55" height="55" rx="6" fill="#F3F4F6"/>
</g>
<path fill-rule="evenodd" clip-rule="evenodd" d="M13.3714 26.11C13.3714 26.3242 13.4345 26.4656 13.4698 26.603C13.7002 27.4967 14.1953 28.2636 14.7827 28.9631C15.6194 29.9601 16.644 30.7626 17.6937 31.5173C18.6041 32.1718 19.5331 32.8116 20.4472 33.4612C20.6041 33.5727 20.7525 33.701 20.9228 33.8378C20.7762 33.917 20.6543 33.9868 20.5276 34.0511C19.3213 34.6629 18.1608 35.3488 17.091 36.1797C16.4463 36.6806 15.8229 37.2128 15.3826 37.9084C14.6742 39.0273 14.4235 40.2192 14.9515 41.4919C15.1057 41.8636 15.3409 42.1847 15.6727 42.4221C15.7803 42.4989 15.9009 42.575 16.0268 42.6049C16.3491 42.6808 16.6776 42.7304 17.0039 42.7905L17.928 42.7898C18.9499 42.6987 19.8801 42.3487 20.7208 41.7685C22.0346 40.8618 22.9197 39.6461 23.3002 38.0858C23.5769 36.9517 23.5882 35.8165 23.2622 34.6876C23.231 34.583 23.195 34.4799 23.1543 34.3786C23.1147 34.2772 23.0681 34.1785 23.0132 34.052L25.1083 32.8473L25.1396 32.8741C25.1016 32.9987 25.061 33.123 25.0266 33.2489C24.7777 34.158 24.6122 35.0831 24.6716 36.0267C24.735 37.0322 25.0156 37.9733 25.6043 38.8134C26.0802 39.4928 27.2143 39.5181 27.72 38.8362C27.8995 38.594 28.0735 38.3408 28.2042 38.0705C28.5458 37.3652 28.862 36.6473 29.1883 35.9344L29.2453 35.804C29.2219 36.1416 29.1944 36.438 29.1819 36.7348C29.1624 37.1982 29.1896 37.6589 29.348 38.0998C29.4836 38.477 29.7142 38.7588 30.1463 38.8085C30.4418 38.8423 30.6773 38.707 30.8946 38.5355C31.2311 38.2695 31.5101 37.9379 31.7145 37.5608C32.2937 36.4971 32.8885 35.4399 33.4134 34.3494C33.9814 33.1699 34.478 31.9561 35.0054 30.7565L35.0926 30.5438C35.2172 31.0335 35.304 31.5131 35.464 31.967C35.6498 32.4938 35.8799 33.0082 36.1303 33.5081C36.2489 33.7443 36.2351 33.8975 36.0709 34.0956C35.3835 34.9243 34.7081 35.7631 34.032 36.601C33.8824 36.786 33.7334 36.9743 33.6087 37.1763C33.5331 37.3039 33.4834 37.4451 33.4625 37.5919C33.4415 37.727 33.4737 37.865 33.5522 37.977C33.6308 38.089 33.7497 38.1662 33.8839 38.1924C34.1548 38.2508 34.4325 38.2706 34.709 38.2512C35.6526 38.1818 36.5094 37.8506 37.2668 37.2893C38.2482 36.5623 38.5633 35.5703 38.3256 34.3945C38.2613 34.0755 38.1477 33.7653 38.0371 33.4579C37.9874 33.3192 37.9841 33.222 38.0745 33.0929C38.8591 31.9725 39.5294 30.7839 40.1528 29.5679C40.1775 29.5201 40.2028 29.4723 40.2461 29.4211C40.4481 30.4722 40.7521 31.4853 41.2969 32.4046C41.019 32.6724 40.7439 32.9152 40.495 33.1827C39.9469 33.772 39.4715 34.4119 39.2235 35.1922C39.1169 35.5285 39.0349 35.8704 39.0825 36.2296C39.1562 36.7875 39.6132 37.1501 40.162 37.023C41.3362 36.7512 42.3499 36.1979 43.0906 35.2178C43.5891 34.5578 43.6345 33.8217 43.4258 33.0505C43.3685 32.8409 43.3005 32.6346 43.2274 32.3942C43.5172 32.3043 43.7996 32.1965 44.0918 32.1297C45.6089 31.7836 47.1094 31.8439 48.5713 32.3918C49.4248 32.7117 50.1143 33.247 50.5232 34.0892C51.0225 35.1187 50.7465 36.0956 49.7761 36.7464C49.6856 36.807 49.582 36.8548 49.507 36.9307C49.483 36.9585 49.4651 36.9911 49.4543 37.0262C49.4436 37.0613 49.4402 37.0983 49.4446 37.1348C49.451 37.1723 49.55 37.2192 49.607 37.2186C49.926 37.2162 50.1847 37.0489 50.433 36.8771C51.0551 36.4466 51.5091 35.8673 51.6069 35.1047L51.6261 35.0474L51.6027 34.5508C51.5932 34.5222 51.6097 34.4938 51.6075 34.4722C51.4753 33.3616 50.8821 32.5002 50.0192 31.8251C49.0198 31.0435 47.8398 30.7218 46.5918 30.6709C45.5796 30.6273 44.5687 30.7829 43.6165 31.1288C43.3432 31.2279 43.0723 31.3452 42.7975 31.4558C42.7606 31.389 42.721 31.3251 42.6884 31.2589C42.4063 30.6813 42.0644 30.1292 41.9889 29.4668C41.9352 28.9963 41.8694 28.5265 41.9812 28.0613C42.0888 27.6137 42.229 27.1737 42.3609 26.7322C42.4288 26.5049 42.381 26.3775 42.1641 26.2752C42.0885 26.2375 42.0078 26.211 41.9246 26.1966C41.3914 26.1192 40.8655 26.1634 40.349 26.3136C40.1662 26.3669 40.0334 26.4693 39.9929 26.6716C39.9697 26.7877 39.9225 26.8989 39.8896 27.0134C39.7546 27.4897 39.6589 27.975 39.4408 28.4287C38.8942 29.5667 38.2702 30.6618 37.6315 31.7489C37.5624 31.8662 37.4895 31.9814 37.4024 32.1236C37.1782 31.6544 36.939 31.2334 36.8665 30.7398C36.7845 30.1816 36.7199 29.6243 36.8588 29.0704C36.9621 28.6572 37.0971 28.2517 37.2214 27.844C37.2802 27.6502 37.2531 27.5485 37.0776 27.4464C36.9889 27.3949 36.8887 27.3492 36.7888 27.3343C36.242 27.251 35.6834 27.2967 35.1575 27.4677C34.992 27.5213 34.9052 27.6283 34.8546 27.7989C34.7059 28.3023 34.5792 28.8178 34.3705 29.2965C33.5253 31.2343 32.6557 33.162 31.787 35.0895C31.6057 35.492 31.3934 35.8804 31.1889 36.2723C31.1371 36.3716 31.0616 36.459 30.997 36.5523C30.9452 36.491 30.9251 36.449 30.9254 36.4069C30.9269 36.1592 30.8973 35.9042 30.9446 35.6647C31.0896 34.9404 31.2499 34.2193 31.4254 33.5018C31.5686 32.9088 31.7352 32.3214 31.894 31.7324C31.9473 31.5353 31.9482 31.351 31.8065 31.1852C31.5686 30.9076 31.0713 30.8467 30.7764 31.0606L30.646 31.1343L30.6713 30.9241C30.7334 30.4735 30.7459 30.0244 30.6222 29.5804C30.468 29.0271 30.0731 28.7087 29.4991 28.7264C29.2316 28.7346 28.9507 28.7803 28.703 28.8778C27.6612 29.2861 26.8602 30.0091 26.1783 30.879C26.1151 30.9598 26.0368 31.0275 25.9477 31.0783C25.0662 31.567 24.182 32.0496 23.2981 32.5341L22.3143 33.0731C22.0504 32.8214 21.8106 32.5603 21.5385 32.3388C20.7077 31.6611 19.8634 31.0003 19.0267 30.3303C18.2851 29.7364 17.5666 29.1179 17.017 28.3315C16.6081 27.7465 16.3445 27.1064 16.3193 26.383C16.2873 25.4614 16.5487 24.6192 17.0179 23.8352C17.6181 22.8322 18.4368 22.0272 19.3369 21.2981C20.289 20.5272 21.3189 19.8728 22.3862 19.2753C23.8795 18.4395 25.4154 17.6997 27.0622 17.2113C28.7508 16.7104 30.4641 16.4237 32.2312 16.6236C32.9259 16.7022 33.6005 16.8612 34.2199 17.201C34.6943 17.4609 35.0834 17.8012 35.2644 18.3332C35.443 18.8566 35.4375 19.3871 35.3138 19.9188C35.0624 20.9955 34.4728 21.8831 33.7309 22.6762C32.514 23.9763 31.0296 24.8614 29.3584 25.4461C28.3975 25.7827 27.3977 25.996 26.3831 26.0808C25.5516 26.1506 24.7375 26.0768 23.9501 25.7877C23.4288 25.596 22.9748 25.3029 22.6098 24.8776C22.5446 24.8014 22.4611 24.7188 22.3396 24.7901C22.2204 24.8602 22.1994 24.9735 22.2393 25.0884C22.3061 25.2791 22.3676 25.4778 22.4715 25.6484C22.7326 26.0765 23.1135 26.387 23.5327 26.6533C24.338 27.1655 25.2381 27.3376 26.1713 27.3775C27.5875 27.4388 28.9693 27.2273 30.3315 26.8474C32.2763 26.305 33.9674 25.3471 35.3235 23.8358C36.4527 22.5775 37.2592 21.1573 37.432 19.4426C37.5164 18.6056 37.4265 17.7857 37.0346 17.0221C36.6096 16.1949 35.9338 15.5797 35.1258 15.1559C33.9491 14.5389 32.6791 14.1797 31.3684 14.1797H30.0552C28.4678 14.1797 26.933 14.6346 25.4413 15.1772C24.3121 15.5883 23.2049 16.0733 22.1299 16.6102C19.789 17.7799 17.609 19.1903 15.8183 21.1296C14.9262 22.0958 14.1709 23.1619 13.7364 24.4172C13.6053 24.792 13.4923 25.1729 13.3979 25.5585L13.3714 26.11ZM21.8801 36.5313C21.7786 37.8899 21.1629 38.9913 20.1565 39.8834C19.5904 40.3849 18.9411 40.742 18.1849 40.8676C17.9106 40.913 17.63 40.9239 17.364 40.8103C16.9847 40.6482 16.8997 40.3115 16.8924 39.9529C16.8811 39.3813 17.0813 38.8646 17.3558 38.3728C17.7141 37.7317 18.2394 37.243 18.8003 36.7866C19.6839 36.0672 20.6425 35.4585 21.6242 34.8838L21.6982 34.8533C21.8499 35.414 21.9221 35.9676 21.8801 36.5313V36.5313ZM29.5454 30.6267C29.4738 31.0606 29.3843 31.4948 29.2575 31.9152C28.8194 33.3707 28.2566 34.7811 27.6481 36.1726C27.5357 36.4301 27.3721 36.665 27.2298 36.9091C27.2056 36.9466 27.1766 36.9808 27.1436 37.0108C26.9675 37.1848 26.8005 37.1757 26.7115 36.9481C26.6079 36.6836 26.5443 36.4005 26.4894 36.1205C26.4525 35.9325 26.4614 35.7351 26.4498 35.5425C26.4617 34.1733 26.8794 32.9289 27.5881 31.7705C27.8803 31.2928 28.1984 30.8376 28.6844 30.5353C28.8356 30.4413 28.9991 30.3689 29.1704 30.3202C29.4293 30.2474 29.5884 30.3671 29.5454 30.6267V30.6267ZM34.7751 37.2896L36.6547 35.095C36.733 35.91 35.3476 37.537 34.7751 37.2896ZM40.7783 35.8128C40.6455 35.889 40.5008 35.9438 40.3646 36.0142C40.24 36.0788 40.1988 36.0136 40.1952 35.9063C40.1933 35.8321 40.2029 35.758 40.2235 35.6867C40.4773 34.7915 40.9444 34.0273 41.6394 33.4058L41.6881 33.3808C42.0187 34.3055 41.6366 35.321 40.7783 35.8128Z" fill="#CB6699"/>
</g>
<defs>
<filter id="filter0_dd" x="0" y="0" width="65" height="65" filterUnits="userSpaceOnUse" color-interpolation-filters="sRGB">
<feFlood flood-opacity="0" result="BackgroundImageFix"/>
<feColorMatrix in="SourceAlpha" type="matrix" values="0 0 0 0 0 0 0 0 0 0 0 0 0 0 0 0 0 0 127 0" result="hardAlpha"/>
<feMorphology radius="1" operator="erode" in="SourceAlpha" result="effect1_dropShadow"/>
<feOffset dy="2"/>
<feGaussianBlur stdDeviation="2"/>
<feColorMatrix type="matrix" values="0 0 0 0 0 0 0 0 0 0 0 0 0 0 0 0 0 0 0.06 0"/>
<feBlend mode="normal" in2="BackgroundImageFix" result="effect1_dropShadow"/>
<feColorMatrix in="SourceAlpha" type="matrix" values="0 0 0 0 0 0 0 0 0 0 0 0 0 0 0 0 0 0 127 0" result="hardAlpha"/>
<feMorphology radius="1" operator="erode" in="SourceAlpha" result="effect2_dropShadow"/>
<feOffset dy="4"/>
<feGaussianBlur stdDeviation="3"/>
<feColorMatrix type="matrix" values="0 0 0 0 0 0 0 0 0 0 0 0 0 0 0 0 0 0 0.1 0"/>
<feBlend mode="normal" in2="effect1_dropShadow" result="effect2_dropShadow"/>
<feBlend mode="normal" in="SourceGraphic" in2="effect2_dropShadow" result="shape"/>
</filter>
</defs>
</svg>
