<svg width="65" height="65" viewBox="0 0 65 65" fill="none" xmlns="http://www.w3.org/2000/svg">
<mask id="mask0" mask-type="alpha" maskUnits="userSpaceOnUse" x="5" y="1" width="55" height="55">
<rect x="5" y="1" width="55" height="55" rx="6" fill="#F3F4F6"/>
</mask>
<g mask="url(#mask0)">
<g filter="url(#filter0_dd)">
<rect x="5" y="1" width="55" height="55" rx="6" fill="#F3F4F6"/>
</g>
<path d="M10.4956 29.9216C10.8497 30.134 11.5577 30.4172 12.195 30.3464C12.7614 30.3464 13.1155 30.0632 13.1155 29.6384C13.1155 29.2843 12.9031 29.0011 12.2658 28.6471C11.4869 28.2222 10.9205 27.585 10.9205 26.7353C10.9205 25.2484 12.195 24.2571 13.9652 24.2571C14.744 24.2571 15.3813 24.3987 15.7353 24.6111L15.2397 26.098C14.9564 25.9564 14.4608 25.8148 13.9652 25.8148C13.3987 25.8148 12.9739 26.098 12.9739 26.5229C12.9739 26.8769 13.2571 27.0893 13.7527 27.3726C14.5316 27.8682 15.2397 28.5055 15.2397 29.3551C15.2397 30.9837 13.8943 31.975 12.0534 31.9042C11.2037 31.9042 10.4248 31.6917 10 31.4085L10.4956 29.9216Z" fill="#B4E52C"/>
<path d="M15.6645 31.6209L17.7179 21H19.7713L18.9924 25.2484V25.3192C19.5588 24.6819 20.2669 24.2571 21.1874 24.2571C22.2495 24.2571 22.8867 24.9652 22.8867 26.1689C22.8867 26.5229 22.8159 27.0185 22.7451 27.4434L21.9663 31.6209H19.9129L20.6917 27.5142C20.7625 27.231 20.7625 26.9477 20.7625 26.6645C20.7625 26.2397 20.5501 25.8856 20.1253 25.8856C19.488 25.8856 18.78 26.6645 18.4967 28.0098L17.7887 31.5501H15.6645V31.6209Z" fill="#B4E52C"/>
<path d="M30.463 27.1601C30.463 29.7092 28.8345 31.9042 26.3563 31.9042C24.5153 31.9042 23.524 30.6296 23.524 29.0011C23.524 26.4521 25.1526 24.2571 27.7016 24.2571C29.5426 24.2571 30.463 25.6732 30.463 27.1601ZM25.5774 29.0011C25.5774 29.78 25.8606 30.3464 26.5687 30.3464C27.7016 30.3464 28.268 28.3638 28.268 27.0893C28.268 26.4521 28.0556 25.8148 27.2768 25.8148C26.2147 25.8856 25.5774 27.7974 25.5774 29.0011Z" fill="#B4E52C"/>
<path d="M29.8966 34.4532L31.3127 27.0893C31.4543 26.2397 31.6667 25.2484 31.7375 24.5403H33.5785L33.4369 25.2484C34.0033 24.5403 34.7822 24.1155 35.6319 24.1155C37.1188 24.1155 37.7561 25.4608 37.7561 26.8061C37.7561 29.3551 36.1275 31.8334 33.7201 31.8334C33.3661 31.9042 32.8704 31.6209 32.658 31.6209H32.5872L32.0208 34.4532H29.8966ZM32.8704 30.0632C33.0829 30.2756 33.3661 30.3464 33.7201 30.3464C34.853 30.3464 35.7027 28.4347 35.7027 27.0893C35.7027 26.5229 35.4903 25.9564 34.853 25.9564C34.145 25.9564 33.4369 26.8061 33.2245 28.0806L32.8704 30.0632Z" fill="#B4E52C"/>
<path d="M37.9685 31.6209L39.3846 24.5403H41.5088L40.0927 31.6209H37.9685ZM40.6591 23.8322C40.0927 23.8322 39.6679 23.2658 39.6679 22.6285C39.6679 21.9205 40.1635 21.354 40.8716 21.354C41.5088 21.354 41.9337 21.9205 41.9337 22.4869C41.8629 23.2658 41.2964 23.8322 40.6591 23.8322Z" fill="#B4E52C"/>
<path d="M41.8629 31.6209L42.9958 25.9564H42.0045L42.2877 24.5403H43.279L43.3498 24.1155C43.4914 23.2658 43.8454 22.3453 44.5535 21.7081C45.1199 21.2124 45.828 21 46.6069 21C47.1025 21 47.5274 21.0708 47.7398 21.1416L47.3149 22.7702C47.1025 22.6994 46.8901 22.6285 46.6777 22.6285C45.9696 22.6285 45.5448 23.3366 45.474 24.0447L45.2616 24.5403H46.6777L46.3945 25.9564H44.9783L43.8454 31.6209H41.8629Z" fill="#B4E52C"/>
<path d="M49.2975 24.5403L49.6516 27.7974C49.7224 28.5054 49.7932 28.7887 49.864 29.4967C50.0056 28.7887 50.1472 28.5762 50.5012 27.7974L51.7758 24.5403H53.8999L51.3509 29.9216C50.4304 31.7625 49.5808 33.1079 48.5895 34.0283C47.8814 34.7364 46.9609 35.0196 46.5361 35.1612L45.9696 33.3911C46.3237 33.2495 46.7485 33.1078 47.1733 32.8246C47.669 32.4706 48.0938 32.0458 48.3062 31.5501C48.377 31.4793 48.3771 31.4085 48.3771 31.2669L47.1025 24.5403H49.2975Z" fill="#B4E52C"/>
<path d="M13.9652 24.2571C14.744 24.2571 15.3813 24.3987 15.7353 24.6111L15.2397 26.098C14.9564 25.9564 14.4608 25.8148 13.9652 25.8148C13.3987 25.8148 12.9739 26.098 12.9739 26.5229C12.9739 26.8769 13.2571 27.0893 13.7527 27.3726C14.5316 27.8682 15.2397 28.5055 15.2397 29.3551C15.2397 30.9837 13.8943 31.975 12.0534 31.9042C11.2037 31.9042 10.4248 31.6917 10 31.4085L10.4956 29.9216C10.8497 30.134 11.5577 30.4172 12.195 30.3464C12.7614 30.3464 13.1155 30.0632 13.1155 29.6384C13.1155 29.2843 12.9031 29.0011 12.2658 28.6471C11.4869 28.2222 10.9205 27.585 10.9205 26.7353" fill="#8BB43F"/>
<path d="M15.6645 31.6209L17.5055 23.195L19.7713 21.1416L18.9924 25.3192C19.5588 24.6819 20.2669 24.2571 21.1874 24.2571C22.2495 24.2571 22.8867 24.9651 22.8867 26.1688C22.8867 26.5229 22.8159 27.0185 22.7451 27.4434L21.9663 31.6209H19.9129L20.6917 27.5142C20.7625 27.2309 20.7625 26.9477 20.7625 26.6645C20.7625 26.2397 20.5501 25.8856 20.1253 25.8856C19.488 25.8856 18.78 26.6645 18.4967 28.0098L17.7887 31.5501H15.6645V31.6209Z" fill="#8BB43F"/>
<path d="M27.6308 24.2571C29.5426 24.2571 30.463 25.6732 30.463 27.1601C30.463 29.7092 28.8345 31.9042 26.3563 31.9042C24.5153 31.9042 23.524 30.6296 23.524 29.0011L27.6308 24.2571ZM25.5774 29.0011C25.5774 29.78 25.8606 30.3464 26.5687 30.3464C27.7016 30.3464 28.268 28.3638 28.268 27.0893C28.268 26.4521 28.0556 25.8148 27.2768 25.8148C26.2147 25.8856 25.5774 27.7974 25.5774 29.0011Z" fill="#8BB43F"/>
<path d="M33.6493 24.5403L33.5077 25.2484C34.0741 24.5403 34.853 24.1155 35.7027 24.1155C37.1896 24.1155 37.8269 25.4608 37.8269 26.8061C37.8269 29.3551 36.1983 31.8334 33.7909 31.8334C33.3661 31.9042 32.8704 31.6209 32.658 31.6209H32.5872L32.0208 34.4532H29.9674L31.3835 26.9477L33.6493 24.5403ZM32.8704 30.0632C33.0829 30.2756 33.3661 30.3464 33.7201 30.3464C34.853 30.3464 35.7027 28.4347 35.7027 27.0893C35.7027 26.5229 35.4903 25.9564 34.853 25.9564C34.1449 25.9564 33.4369 26.8061 33.2245 28.0806L32.8704 30.0632Z" fill="#8BB43F"/>
<path d="M37.9685 31.6209L39.3846 26.2396L41.5088 24.5403L40.0927 31.6209H37.9685ZM40.8716 21.354C41.5088 21.354 41.9337 21.8496 41.9337 22.4869C41.9337 23.2658 41.3672 23.8322 40.73 23.8322C40.1635 23.8322 39.7387 23.2658 39.7387 22.6285" fill="#8BB43F"/>
<path d="M46.5361 21C47.0317 21 47.4566 21.0708 47.669 21.2124L47.2441 22.841C47.0317 22.7702 46.8193 22.6994 46.6069 22.6994C45.8988 22.6994 45.474 23.4074 45.4032 24.1155L45.2616 24.5403H46.6777L46.3945 25.9564H44.9783L43.8454 31.6209H41.8629L42.9958 25.9564H42.0045L42.2877 24.5403H43.279L43.3498 24.1155" fill="#8BB43F"/>
<path d="M49.2975 24.5403L49.6516 27.7266C49.7224 28.4346 49.7932 28.7887 49.864 29.4967C50.0056 28.7887 50.1472 28.5762 50.5012 27.7974L51.7758 24.5403H53.8999L51.3509 29.9216C50.4304 31.7625 49.5808 33.1079 48.5895 34.0283C47.8814 34.7364 46.9609 35.0196 46.5361 35.1612L45.9696 33.3911C46.3237 33.2495 46.7485 33.1078 47.1733 32.8246C47.669 32.4706 48.0938 32.0458 48.3062 31.5501C48.377 31.4793 48.3771 31.3377 48.3771 31.1961L47.8814 26.098L49.2975 24.5403Z" fill="#8BB43F"/>
</g>
<defs>
<filter id="filter0_dd" x="0" y="0" width="65" height="65" filterUnits="userSpaceOnUse" color-interpolation-filters="sRGB">
<feFlood flood-opacity="0" result="BackgroundImageFix"/>
<feColorMatrix in="SourceAlpha" type="matrix" values="0 0 0 0 0 0 0 0 0 0 0 0 0 0 0 0 0 0 127 0" result="hardAlpha"/>
<feMorphology radius="1" operator="erode" in="SourceAlpha" result="effect1_dropShadow"/>
<feOffset dy="2"/>
<feGaussianBlur stdDeviation="2"/>
<feColorMatrix type="matrix" values="0 0 0 0 0 0 0 0 0 0 0 0 0 0 0 0 0 0 0.06 0"/>
<feBlend mode="normal" in2="BackgroundImageFix" result="effect1_dropShadow"/>
<feColorMatrix in="SourceAlpha" type="matrix" values="0 0 0 0 0 0 0 0 0 0 0 0 0 0 0 0 0 0 127 0" result="hardAlpha"/>
<feMorphology radius="1" operator="erode" in="SourceAlpha" result="effect2_dropShadow"/>
<feOffset dy="4"/>
<feGaussianBlur stdDeviation="3"/>
<feColorMatrix type="matrix" values="0 0 0 0 0 0 0 0 0 0 0 0 0 0 0 0 0 0 0.1 0"/>
<feBlend mode="normal" in2="effect1_dropShadow" result="effect2_dropShadow"/>
<feBlend mode="normal" in="SourceGraphic" in2="effect2_dropShadow" result="shape"/>
</filter>
</defs>
</svg>
