<svg width="65" height="65" viewBox="0 0 65 65" fill="none" xmlns="http://www.w3.org/2000/svg">
<mask id="mask0" mask-type="alpha" maskUnits="userSpaceOnUse" x="5" y="1" width="55" height="55">
<rect x="5" y="1" width="55" height="55" rx="6" fill="#F3F4F6"/>
</mask>
<g mask="url(#mask0)">
<g filter="url(#filter0_dd)">
<rect x="5" y="1" width="55" height="55" rx="6" fill="#F3F4F6"/>
</g>
<path d="M21.2915 12.1244L32 11L42.7085 12.1244L51 23.1631L32 45.1128L13 23.1631L21.2915 12.1244Z" fill="#FDB300"/>
<path d="M20.6966 23.1633L32 45.113L13 23.1633H20.6966ZM43.3034 23.1633L32 45.113L51 23.1633H43.3034V23.1633Z" fill="#EA6C00"/>
<path d="M20.6965 23.1633H43.3034L32 45.113L20.6965 23.1633Z" fill="#FDAD00"/>
<path d="M32 11L21.2915 12.1244L20.6965 23.1631L32 11ZM32 11L42.7085 12.1244L43.3034 23.1631L32 11Z" fill="#FDD231"/>
<path d="M51 23.1632L42.7086 12.1245L43.3035 23.1632H51Z" fill="#FDAD00"/>
<path d="M32 11L20.6965 23.1631H43.3034L32 11Z" fill="#FEEEB7"/>
<path d="M13 23.1632L21.2915 12.1245L20.6966 23.1632H13Z" fill="#FDAD00"/>
</g>
<defs>
<filter id="filter0_dd" x="0" y="0" width="65" height="65" filterUnits="userSpaceOnUse" color-interpolation-filters="sRGB">
<feFlood flood-opacity="0" result="BackgroundImageFix"/>
<feColorMatrix in="SourceAlpha" type="matrix" values="0 0 0 0 0 0 0 0 0 0 0 0 0 0 0 0 0 0 127 0" result="hardAlpha"/>
<feMorphology radius="1" operator="erode" in="SourceAlpha" result="effect1_dropShadow"/>
<feOffset dy="2"/>
<feGaussianBlur stdDeviation="2"/>
<feColorMatrix type="matrix" values="0 0 0 0 0 0 0 0 0 0 0 0 0 0 0 0 0 0 0.06 0"/>
<feBlend mode="normal" in2="BackgroundImageFix" result="effect1_dropShadow"/>
<feColorMatrix in="SourceAlpha" type="matrix" values="0 0 0 0 0 0 0 0 0 0 0 0 0 0 0 0 0 0 127 0" result="hardAlpha"/>
<feMorphology radius="1" operator="erode" in="SourceAlpha" result="effect2_dropShadow"/>
<feOffset dy="4"/>
<feGaussianBlur stdDeviation="3"/>
<feColorMatrix type="matrix" values="0 0 0 0 0 0 0 0 0 0 0 0 0 0 0 0 0 0 0.1 0"/>
<feBlend mode="normal" in2="effect1_dropShadow" result="effect2_dropShadow"/>
<feBlend mode="normal" in="SourceGraphic" in2="effect2_dropShadow" result="shape"/>
</filter>
</defs>
</svg>
