<svg width="65" height="65" viewBox="0 0 65 65" fill="none" xmlns="http://www.w3.org/2000/svg">
<mask id="mask0" mask-type="alpha" maskUnits="userSpaceOnUse" x="5" y="1" width="55" height="55">
<rect x="5" y="1" width="55" height="55" rx="6" fill="#F3F4F6"/>
</mask>
<g mask="url(#mask0)">
<g filter="url(#filter0_dd)">
<rect x="5" y="1" width="55" height="55" rx="6" fill="#F3F4F6"/>
</g>
<path d="M5 28.5V56H60V1H5V28.5ZM49.3212 26.3C50.6385 26.6057 51.8358 27.2947 52.762 28.28C53.2719 28.8108 53.7152 29.4019 54.082 30.04C54.082 30.1104 51.706 31.7164 50.2584 32.614C50.2056 32.6492 49.9944 32.4204 49.7612 32.0728C49.4969 31.6168 49.1215 31.2352 48.6698 30.9636C48.2182 30.692 47.7051 30.5392 47.1784 30.5196C45.5108 30.4052 44.4372 31.2808 44.446 32.7196C44.4322 33.0778 44.5142 33.4332 44.6836 33.7492C45.0488 34.5104 45.7308 34.9636 47.8692 35.8876C51.8072 37.5816 53.4924 38.6992 54.5396 40.2876C55.71 42.0476 55.9696 44.89 55.1776 46.9932C54.2976 49.2812 52.1416 50.8344 49.0924 51.3492C47.6997 51.5087 46.2926 51.4939 44.9036 51.3052C42.7838 50.9613 40.8283 49.952 39.32 48.4232C38.814 47.8644 37.8284 46.408 37.89 46.3024C38.0506 46.1832 38.2197 46.0758 38.396 45.9812L40.42 44.8196L41.9996 43.9044L42.3296 44.3928C42.8865 45.1895 43.5953 45.8683 44.4152 46.3904C46.1752 47.3144 48.5776 47.1868 49.7656 46.1176C50.1645 45.7258 50.4133 45.2065 50.4688 44.6502C50.5243 44.0938 50.3829 43.5356 50.0692 43.0728C49.6292 42.4612 48.7492 41.9464 46.2896 40.8728C43.4516 39.6496 42.2284 38.8928 41.1108 37.6872C40.4131 36.8916 39.898 35.953 39.6016 34.9372C39.3805 33.7767 39.3478 32.5881 39.5048 31.4172C40.09 28.676 42.1448 26.762 45.1456 26.1944C46.5353 26.0224 47.943 26.061 49.3212 26.3088V26.3ZM36.4116 28.6056V30.8584H29.2704V51.1996H24.206V30.854H17.0472V28.654C17.028 27.8966 17.0485 27.1388 17.1088 26.3836C17.1352 26.3484 21.5088 26.3308 26.7888 26.3396H36.3852L36.4116 28.6056Z" fill="#007ACC"/>
</g>
<defs>
<filter id="filter0_dd" x="0" y="0" width="65" height="65" filterUnits="userSpaceOnUse" color-interpolation-filters="sRGB">
<feFlood flood-opacity="0" result="BackgroundImageFix"/>
<feColorMatrix in="SourceAlpha" type="matrix" values="0 0 0 0 0 0 0 0 0 0 0 0 0 0 0 0 0 0 127 0" result="hardAlpha"/>
<feMorphology radius="1" operator="erode" in="SourceAlpha" result="effect1_dropShadow"/>
<feOffset dy="2"/>
<feGaussianBlur stdDeviation="2"/>
<feColorMatrix type="matrix" values="0 0 0 0 0 0 0 0 0 0 0 0 0 0 0 0 0 0 0.06 0"/>
<feBlend mode="normal" in2="BackgroundImageFix" result="effect1_dropShadow"/>
<feColorMatrix in="SourceAlpha" type="matrix" values="0 0 0 0 0 0 0 0 0 0 0 0 0 0 0 0 0 0 127 0" result="hardAlpha"/>
<feMorphology radius="1" operator="erode" in="SourceAlpha" result="effect2_dropShadow"/>
<feOffset dy="4"/>
<feGaussianBlur stdDeviation="3"/>
<feColorMatrix type="matrix" values="0 0 0 0 0 0 0 0 0 0 0 0 0 0 0 0 0 0 0.1 0"/>
<feBlend mode="normal" in2="effect1_dropShadow" result="effect2_dropShadow"/>
<feBlend mode="normal" in="SourceGraphic" in2="effect2_dropShadow" result="shape"/>
</filter>
</defs>
</svg>
