<svg width="65" height="65" viewBox="0 0 65 65" fill="none" xmlns="http://www.w3.org/2000/svg">
<mask id="mask0" mask-type="alpha" maskUnits="userSpaceOnUse" x="5" y="1" width="55" height="55">
<rect x="5" y="1" width="55" height="55" rx="6" fill="#F3F4F6"/>
</mask>
<g mask="url(#mask0)">
<g filter="url(#filter0_dd)">
<rect x="5" y="1" width="55" height="55" rx="6" fill="#F3F4F6"/>
</g>
<path d="M15.0283 22.6683C15.0283 22.6683 14.1769 22.0521 15.1998 21.2302L17.5815 19.0944C17.5815 19.0944 18.2638 18.3747 18.9846 19.0022L40.9713 35.6882V43.6897C40.9713 43.6897 40.9604 44.9464 39.3522 44.808L15.0283 22.6683Z" fill="#2489CA"/>
<path d="M20.6963 27.8254L15.0282 32.99C15.0282 32.99 14.446 33.424 15.0282 34.2008L17.6596 36.599C17.6596 36.599 18.2845 37.2726 19.2087 36.5068L25.2159 31.9398L20.6963 27.8254Z" fill="#1070B3"/>
<path d="M30.6455 27.8681L41.0385 19.9129L40.9713 11.9544C40.9713 11.9544 40.5275 10.2174 39.0467 11.1222L25.2159 23.7394L30.6455 27.8681Z" fill="#0877B9"/>
<path d="M39.3519 44.8179C39.9552 45.4375 40.687 45.2342 40.687 45.2342L48.7862 41.2343C49.8231 40.5255 49.678 39.6466 49.678 39.6466V15.7558C49.678 14.7054 48.6059 14.3428 48.6059 14.3428L41.5856 10.9507C40.0519 10.0003 39.0468 11.1222 39.0468 11.1222C39.0468 11.1222 40.3385 10.1893 40.9713 11.9547V43.5439C40.9713 43.7613 40.9252 43.9742 40.833 44.1666C40.6485 44.5412 40.2463 44.8894 39.285 44.7434L39.3519 44.8179Z" fill="#3C99D4"/>
</g>
<defs>
<filter id="filter0_dd" x="0" y="0" width="65" height="65" filterUnits="userSpaceOnUse" color-interpolation-filters="sRGB">
<feFlood flood-opacity="0" result="BackgroundImageFix"/>
<feColorMatrix in="SourceAlpha" type="matrix" values="0 0 0 0 0 0 0 0 0 0 0 0 0 0 0 0 0 0 127 0" result="hardAlpha"/>
<feMorphology radius="1" operator="erode" in="SourceAlpha" result="effect1_dropShadow"/>
<feOffset dy="2"/>
<feGaussianBlur stdDeviation="2"/>
<feColorMatrix type="matrix" values="0 0 0 0 0 0 0 0 0 0 0 0 0 0 0 0 0 0 0.06 0"/>
<feBlend mode="normal" in2="BackgroundImageFix" result="effect1_dropShadow"/>
<feColorMatrix in="SourceAlpha" type="matrix" values="0 0 0 0 0 0 0 0 0 0 0 0 0 0 0 0 0 0 127 0" result="hardAlpha"/>
<feMorphology radius="1" operator="erode" in="SourceAlpha" result="effect2_dropShadow"/>
<feOffset dy="4"/>
<feGaussianBlur stdDeviation="3"/>
<feColorMatrix type="matrix" values="0 0 0 0 0 0 0 0 0 0 0 0 0 0 0 0 0 0 0.1 0"/>
<feBlend mode="normal" in2="effect1_dropShadow" result="effect2_dropShadow"/>
<feBlend mode="normal" in="SourceGraphic" in2="effect2_dropShadow" result="shape"/>
</filter>
</defs>
</svg>
