<svg width="65" height="65" viewBox="0 0 65 65" fill="none" xmlns="http://www.w3.org/2000/svg">
<mask id="mask0" mask-type="alpha" maskUnits="userSpaceOnUse" x="5" y="1" width="55" height="55">
<rect x="5" y="1" width="55" height="55" rx="6" fill="#F3F4F6"/>
</mask>
<g mask="url(#mask0)">
<g filter="url(#filter0_dd)">
<rect x="5" y="1" width="55" height="55" rx="6" fill="#F3F4F6"/>
</g>
<path d="M48.4352 36.1476H16.5648C14.5844 36.1476 13 34.5632 13 32.5827V20.3952C13 18.4452 14.5844 16.8608 16.5648 16.8608H48.4656C50.4156 16.8608 52.0305 18.4452 52.0305 20.4257V32.6132C52 34.5632 50.4156 36.1476 48.4352 36.1476Z" fill="#7F54B3"/>
<path d="M17.2047 32.3697C17.2047 32.3697 18.0578 35.965 19.7945 33.558C21.5312 31.1509 23.207 27.3728 23.207 27.3728C23.207 27.3728 23.3289 26.4283 23.8164 28.5001C24.3039 30.572 26.4062 33.3751 26.4062 33.3751C26.4062 33.3751 28.3258 35.7822 29.118 33.2533C28.8133 29.9017 29.9711 23.808 31.1594 20.883C31.6469 18.2931 28.9351 19.0244 28.6914 19.6337C28.4476 20.2431 26.7719 24.1431 26.65 28.2259C26.65 28.2259 25.218 24.3259 25.0961 22.9244C24.9742 21.4923 23.4812 21.1267 22.6281 22.4978C21.775 23.8689 19.1851 29.1705 19.1851 29.1705L17.5094 20.5173C17.5094 20.5173 15.8336 18.2931 14.8586 21.0048C14.8586 21.0048 16.5953 31.6384 17.2047 32.3697ZM39.5078 22.9244C36.918 18.5978 33.0789 21.8884 33.0789 21.8884C33.0789 21.8884 30.1539 25.2705 31.464 29.8712C33.5664 34.4111 36.5219 32.4001 37.314 32.0345C38.1367 31.6384 41.6101 27.6775 39.5078 22.9244V22.9244ZM37.5273 26.733C37.5273 28.5306 36.0344 30.2064 34.8156 29.8408C34.1453 29.4447 33.7187 28.3783 33.7187 26.5501C34.3281 23.5947 35.6687 23.1986 36.3695 23.2595C37.6797 23.9603 37.6187 25.5142 37.5273 26.733V26.733ZM49.2273 22.9244C46.6375 18.5978 42.7984 21.8884 42.7984 21.8884C42.7984 21.8884 39.8734 25.2705 41.1836 29.8712C43.2859 34.4111 46.2414 32.4001 47.0336 32.0345C47.8258 31.6384 51.3297 27.6775 49.2273 22.9244V22.9244ZM47.2469 26.733C47.2469 28.5306 45.7539 30.2064 44.5351 29.8408C43.8648 29.4447 43.4383 28.3783 43.4383 26.5501C44.0476 23.5947 45.3883 23.1986 46.089 23.2595C47.3687 23.9603 47.3078 25.5142 47.2469 26.733V26.733Z" fill="white"/>
<path d="M31.6773 36.1477L38.4719 40.1391L37.0398 36.1477L33.1398 35.0508L31.6773 36.1477Z" fill="#7F54B3"/>
</g>
<defs>
<filter id="filter0_dd" x="0" y="0" width="65" height="65" filterUnits="userSpaceOnUse" color-interpolation-filters="sRGB">
<feFlood flood-opacity="0" result="BackgroundImageFix"/>
<feColorMatrix in="SourceAlpha" type="matrix" values="0 0 0 0 0 0 0 0 0 0 0 0 0 0 0 0 0 0 127 0" result="hardAlpha"/>
<feMorphology radius="1" operator="erode" in="SourceAlpha" result="effect1_dropShadow"/>
<feOffset dy="2"/>
<feGaussianBlur stdDeviation="2"/>
<feColorMatrix type="matrix" values="0 0 0 0 0 0 0 0 0 0 0 0 0 0 0 0 0 0 0.06 0"/>
<feBlend mode="normal" in2="BackgroundImageFix" result="effect1_dropShadow"/>
<feColorMatrix in="SourceAlpha" type="matrix" values="0 0 0 0 0 0 0 0 0 0 0 0 0 0 0 0 0 0 127 0" result="hardAlpha"/>
<feMorphology radius="1" operator="erode" in="SourceAlpha" result="effect2_dropShadow"/>
<feOffset dy="4"/>
<feGaussianBlur stdDeviation="3"/>
<feColorMatrix type="matrix" values="0 0 0 0 0 0 0 0 0 0 0 0 0 0 0 0 0 0 0.1 0"/>
<feBlend mode="normal" in2="effect1_dropShadow" result="effect2_dropShadow"/>
<feBlend mode="normal" in="SourceGraphic" in2="effect2_dropShadow" result="shape"/>
</filter>
</defs>
</svg>
