<svg width="65" height="65" viewBox="0 0 65 65" fill="none" xmlns="http://www.w3.org/2000/svg">
<mask id="mask0" mask-type="alpha" maskUnits="userSpaceOnUse" x="5" y="1" width="55" height="55">
<rect x="5" y="1" width="55" height="55" rx="6" fill="#F3F4F6"/>
</mask>
<g mask="url(#mask0)">
<g filter="url(#filter0_dd)">
<rect x="5" y="1" width="55" height="55" rx="6" fill="#F3F4F6"/>
</g>
<path fill-rule="evenodd" clip-rule="evenodd" d="M32.5295 48C43.2896 47.9837 52 39.2584 52 28.4955C52 17.9075 43.3298 9.18746 32.9715 9.00313C22.0931 8.80973 13.0028 17.6092 13 28.2798C12.9969 39.2578 21.6683 48.0156 32.5295 48V48ZM32.4978 9.94729C42.8284 9.94385 51.0595 18.3108 51.0563 28.8118C51.0529 38.7257 42.6036 47.0192 32.5053 47.0214C22.2174 47.0236 13.944 38.7085 13.9443 28.3671C13.9449 18.2924 22.3471 9.95074 32.4978 9.94729V9.94729ZM24.7009 19.7319C24.8698 20.2931 24.3971 20.4883 23.8944 20.5275C23.3655 20.5681 22.8368 20.6079 22.2227 20.6545C24.2495 26.6738 26.2458 32.6038 28.2895 38.6719C28.4352 38.4344 28.4951 38.3674 28.5215 38.2892C29.6435 34.9463 30.7718 31.6055 31.8652 28.2532C31.9651 27.9475 31.9155 27.5425 31.8062 27.2283C31.2276 25.5634 30.5345 23.9348 30.0271 22.2499C29.6802 21.0964 29.22 20.35 27.8522 20.4837C27.6193 20.5065 27.3348 20.0067 27.074 19.7485C27.3895 19.5608 27.7028 19.2153 28.0211 19.2106C30.8064 19.1679 33.5922 19.1687 36.3774 19.2131C36.697 19.2184 37.0103 19.573 37.3258 19.7654C37.0495 20.017 36.8113 20.3945 36.4882 20.4918C35.9699 20.6476 35.3951 20.6182 34.7748 20.6733L40.8491 38.6866C41.7692 35.6398 42.6253 32.842 43.4579 30.037C44.2006 27.5331 43.758 25.1948 42.415 22.9894C42.0113 22.3263 41.5152 21.6829 41.2864 20.9596C41.0264 20.1369 40.8105 19.2002 40.9483 18.375C41.1822 16.9764 42.2586 16.282 43.7153 16.149C35.7439 8.77405 23.2173 11.4141 18.6015 19.4271C20.3784 19.3455 22.0749 19.2381 23.7726 19.215C24.0935 19.2109 24.6256 19.4813 24.7009 19.7319V19.7319ZM27.877 44.1329C27.84 44.2408 27.8378 44.361 27.8086 44.5403C31.244 45.4898 34.6131 45.4213 38.0613 44.2631L32.7935 29.8799C31.1077 34.7654 29.4909 39.4483 27.877 44.1329ZM25.2224 43.4826L17.2858 21.7796C13.7054 28.7514 16.4291 39.3886 25.2224 43.4826ZM49.2157 29.5369C49.4675 26.2403 48.3267 21.676 47.3415 21.0482C47.2317 22.2609 47.3083 23.61 46.9592 24.8393C46.1376 27.7356 45.133 30.5816 44.1655 33.4353C43.1138 36.5373 42.0207 39.6252 40.9454 42.7193C45.9973 39.7341 48.7734 35.3281 49.2157 29.5369V29.5369Z" fill="#494949"/>
</g>
<defs>
<filter id="filter0_dd" x="0" y="0" width="65" height="65" filterUnits="userSpaceOnUse" color-interpolation-filters="sRGB">
<feFlood flood-opacity="0" result="BackgroundImageFix"/>
<feColorMatrix in="SourceAlpha" type="matrix" values="0 0 0 0 0 0 0 0 0 0 0 0 0 0 0 0 0 0 127 0" result="hardAlpha"/>
<feMorphology radius="1" operator="erode" in="SourceAlpha" result="effect1_dropShadow"/>
<feOffset dy="2"/>
<feGaussianBlur stdDeviation="2"/>
<feColorMatrix type="matrix" values="0 0 0 0 0 0 0 0 0 0 0 0 0 0 0 0 0 0 0.06 0"/>
<feBlend mode="normal" in2="BackgroundImageFix" result="effect1_dropShadow"/>
<feColorMatrix in="SourceAlpha" type="matrix" values="0 0 0 0 0 0 0 0 0 0 0 0 0 0 0 0 0 0 127 0" result="hardAlpha"/>
<feMorphology radius="1" operator="erode" in="SourceAlpha" result="effect2_dropShadow"/>
<feOffset dy="4"/>
<feGaussianBlur stdDeviation="3"/>
<feColorMatrix type="matrix" values="0 0 0 0 0 0 0 0 0 0 0 0 0 0 0 0 0 0 0.1 0"/>
<feBlend mode="normal" in2="effect1_dropShadow" result="effect2_dropShadow"/>
<feBlend mode="normal" in="SourceGraphic" in2="effect2_dropShadow" result="shape"/>
</filter>
</defs>
</svg>
