<svg width="65" height="65" viewBox="0 0 65 65" fill="none" xmlns="http://www.w3.org/2000/svg">
<mask id="mask0" mask-type="alpha" maskUnits="userSpaceOnUse" x="5" y="1" width="55" height="55">
<rect x="5" y="1" width="55" height="55" rx="6" fill="#F3F4F6"/>
</mask>
<g mask="url(#mask0)">
<g filter="url(#filter0_dd)">
<rect x="5" y="1" width="55" height="55" rx="6" fill="#F3F4F6"/>
</g>
<path d="M60 2.00636C60 1.08751 60 1 59.127 1H6.09127C5.21825 1 5 1.08751 5 1.96261V55.1249C5 56 5.13095 56 5.96032 56H59.127C59.8254 56 60 55.825 60 55.1249C59.9563 46.2864 60 37.4041 60 28.5656V2.00636ZM30.1865 41.6921L25.9524 32.1535L21.5 41.6921H16.6111L22.9405 28.8719L17.0476 15.3079L22.0675 15.3516L25.7778 24.2339L30.3175 15.3079H35.0317L28.6587 28.1718L34.9881 41.6921H30.1865ZM49.2183 15.7892V40.5545C49.2183 41.2108 49.131 41.6046 48.4762 41.6484C45.4206 42.0422 42.3651 42.4797 39.3532 41.6046C36.0794 40.6858 34.2024 38.1042 34.0714 34.5601C33.8968 30.1846 35.5556 27.1655 38.7857 25.7653C40.7937 24.8902 42.8452 24.8465 45.1587 25.0652V15.3516H49.2183V15.7892ZM40.7064 38.2792C42.1468 38.673 43.5873 38.5418 45.0714 38.2792V29.5282C45.0714 29.397 44.8968 29.1344 44.7659 29.0907C43.1508 28.8282 41.4921 28.8282 39.9643 29.6595C38.3929 30.5346 37.5635 32.3723 37.7381 34.5163C37.869 36.4853 38.9167 37.7542 40.7064 38.2792V38.2792Z" fill="#DD80BC"/>
</g>
<defs>
<filter id="filter0_dd" x="0" y="0" width="65" height="65" filterUnits="userSpaceOnUse" color-interpolation-filters="sRGB">
<feFlood flood-opacity="0" result="BackgroundImageFix"/>
<feColorMatrix in="SourceAlpha" type="matrix" values="0 0 0 0 0 0 0 0 0 0 0 0 0 0 0 0 0 0 127 0" result="hardAlpha"/>
<feMorphology radius="1" operator="erode" in="SourceAlpha" result="effect1_dropShadow"/>
<feOffset dy="2"/>
<feGaussianBlur stdDeviation="2"/>
<feColorMatrix type="matrix" values="0 0 0 0 0 0 0 0 0 0 0 0 0 0 0 0 0 0 0.06 0"/>
<feBlend mode="normal" in2="BackgroundImageFix" result="effect1_dropShadow"/>
<feColorMatrix in="SourceAlpha" type="matrix" values="0 0 0 0 0 0 0 0 0 0 0 0 0 0 0 0 0 0 127 0" result="hardAlpha"/>
<feMorphology radius="1" operator="erode" in="SourceAlpha" result="effect2_dropShadow"/>
<feOffset dy="4"/>
<feGaussianBlur stdDeviation="3"/>
<feColorMatrix type="matrix" values="0 0 0 0 0 0 0 0 0 0 0 0 0 0 0 0 0 0 0.1 0"/>
<feBlend mode="normal" in2="effect1_dropShadow" result="effect2_dropShadow"/>
<feBlend mode="normal" in="SourceGraphic" in2="effect2_dropShadow" result="shape"/>
</filter>
</defs>
</svg>
